<svg width="16" height="16" viewBox="0 0 16 16" fill="none" xmlns="http://www.w3.org/2000/svg">
<path d="M0 5.09375V4.25C0 3.2835 0.7835 2.5 1.75 2.5H14.25C15.2165 2.5 16 3.2835 16 4.25V5.09375C16 5.18003 15.93 5.25 15.8438 5.25H0.15625C0.0699692 5.25 0 5.18003 0 5.09375Z" fill="#F44D4D"/>
<path d="M16 6.40625V11.75C16 12.7165 15.2165 13.5 14.25 13.5H1.75C0.7835 13.5 0 12.7165 0 11.75V6.40625C0 6.31997 0.0699692 6.25 0.15625 6.25H15.8438C15.93 6.25 16 6.31997 16 6.40625ZM12 10.5C12 10.7761 12.2239 11 12.5 11H13C13.2761 11 13.5 10.7761 13.5 10.5V10C13.5 9.72388 13.2761 9.5 13 9.5H12.5C12.2239 9.5 12 9.72388 12 10V10.5Z" fill="#F44D4D"/>
</svg>
