<svg width="68" height="30" viewBox="0 0 68 30" fill="none" xmlns="http://www.w3.org/2000/svg">
<path d="M62.1387 1.19141H65.1841V13.5503H62.2429V12.8098C62.0344 12.7681 61.8988 12.7785 61.7528 12.9454C61.1791 13.6233 60.3865 13.8006 59.5313 13.7797C57.7479 13.738 56.4337 12.7785 55.8914 11.0472C55.4221 9.54539 55.4638 8.04355 56.1417 6.59386C56.9344 4.91472 58.8534 4.09079 60.6472 4.63312C61.0436 4.75828 61.3043 4.92515 61.565 5.23803C61.7319 5.43619 61.8779 5.47791 62.1387 5.47791V1.19141ZM58.9264 10.4528C59.1975 11.0785 59.7399 11.3601 60.4178 11.3601H60.4282C61.0957 11.3601 61.6276 11.1098 61.9405 10.5049C62.3994 9.62883 62.3994 8.7319 61.9926 7.84539C61.7006 7.2092 61.1583 6.89631 60.4387 6.89631C59.7503 6.89631 59.2706 7.11533 58.9368 7.79325C58.5614 8.54417 58.5614 9.6184 58.9264 10.4528ZM40.7374 4.64355C41.4049 4.44539 42.062 4.3411 42.7295 4.3411C43.4908 4.3411 44.2417 4.47668 44.9822 4.73742C46.1294 5.14417 46.7344 6.00981 46.8908 7.17791C46.9221 7.41779 46.9429 7.66809 46.9429 7.90797C46.9429 9.67055 46.9429 13.4251 46.9429 13.4251H44.1374V12.7472C43.8871 12.6534 43.7515 12.7472 43.5742 12.9037C42.9485 13.4147 42.3018 13.6337 41.4988 13.6442C40.6018 13.6546 39.7675 13.4773 39.0687 12.8932C37.6295 11.6939 37.5982 9.07607 39.8614 8.0957C40.5706 7.79325 41.3215 7.72024 42.0828 7.72024C42.719 7.70981 43.3552 7.72024 44.0018 7.72024C44.0748 7.05276 43.8037 6.62515 43.2613 6.48956C42.427 6.29141 41.8012 6.55214 41.5509 7.18834H38.5055C38.5368 6.96932 38.6515 6.51042 38.7871 6.2184C39.1626 5.4049 39.8718 4.91472 40.7374 4.64355ZM41.6448 11.3288C41.8847 11.4331 42.1558 11.4853 42.4166 11.4853C42.7607 11.4853 43.1049 11.3914 43.4282 11.1724C44.0227 10.7656 44.0436 10.1399 44.0123 9.49325C44.0123 9.49325 42.8859 9.47239 42.3436 9.50367C42.0933 9.5141 41.8012 9.56625 41.5822 9.71226C41.2798 9.89999 41.1233 10.1503 41.1337 10.4945C41.1233 10.8699 41.3215 11.1932 41.6448 11.3288ZM31.9975 4.41411C30.4018 4.64355 29.2025 5.41533 28.5454 6.89631C28.1178 7.85582 28.0448 8.85705 28.1908 9.87914C28.3994 11.3288 29.0982 12.4761 30.4748 13.154C31.5595 13.6859 32.7172 13.7693 33.9061 13.5607C34.9908 13.3626 35.8982 12.8724 36.5448 11.9963C36.9098 11.4957 37.1393 10.9221 37.1706 10.2859H34.3337C34.2295 10.2859 34.1669 10.338 34.1252 10.4423C34.0417 10.6405 33.927 10.8595 33.7601 10.9847C33.2387 11.3914 31.9663 11.4123 31.5074 10.4945C31.0589 9.60797 31.0589 8.67975 31.3926 7.76196C31.7264 6.86503 32.519 6.65644 33.3638 6.8546C33.6663 6.9276 33.8957 7.1049 34.0104 7.39693C34.073 7.54294 34.1669 7.58466 34.3442 7.58466H37.0767C36.9933 6.49999 36.3675 5.55092 35.3871 4.99816C34.6049 4.56012 33.7706 4.37239 32.9049 4.37239C32.6129 4.3411 32.3 4.36196 31.9975 4.41411ZM53.138 4.71656C52.6479 4.79999 52.2098 5.02944 51.8969 5.4049C51.7614 5.57177 51.6258 5.64478 51.3859 5.57177V4.61226H48.4344V13.4564H51.4798C51.4798 13.4564 51.4693 10.7344 51.5006 9.53497C51.5319 8.24171 52.262 7.50122 53.5761 7.37607C54.0245 7.33435 54.4939 7.32392 54.9319 7.31349V4.56012C54.2748 4.58098 53.7221 4.62269 53.138 4.71656ZM4.15092 4.54969H24.3736C25.2288 4.54969 25.9172 5.21717 25.9172 6.05153V18.3896C25.9172 19.2135 25.2288 19.8914 24.3736 19.8914H4.15092C3.2957 19.8914 2.60736 19.2239 2.60736 18.3896V6.05153C2.60736 5.2276 3.2957 4.54969 4.15092 4.54969ZM5.56932 17.0129H22.9552V7.42822H5.56932V17.0129ZM41.384 16.1994C42.0515 16.0012 42.7086 15.8969 43.3761 15.8969C44.1374 15.8969 44.8883 16.0325 45.6288 16.2932C46.7761 16.7 47.381 17.5656 47.5374 18.7337C47.5687 18.9736 47.5896 19.2239 47.5896 19.4638C47.5896 21.2264 47.5896 24.981 47.5896 24.981H44.784V24.3031C44.5337 24.2092 44.3982 24.3031 44.2209 24.4595C43.5951 24.9706 42.938 25.1896 42.1454 25.2C41.2485 25.2104 40.4141 25.0331 39.7258 24.4491C38.2865 23.2497 38.2552 20.6319 40.5184 19.6515C41.2276 19.3491 41.9785 19.2761 42.7399 19.2761C43.3761 19.2656 44.0123 19.2761 44.6589 19.2761C44.7319 18.6086 44.4607 18.181 43.9184 18.0454C43.0841 17.8472 42.4583 18.108 42.208 18.7442H39.1626C39.1939 18.5251 39.3086 18.0663 39.4442 17.7742C39.8092 16.9503 40.5184 16.4601 41.384 16.1994ZM42.2914 22.8742C42.5313 22.9785 42.8025 23.0307 43.0632 23.0307C43.4074 23.0307 43.762 22.9368 44.0748 22.7178C44.6693 22.311 44.6902 21.6853 44.6589 21.0386C44.6589 21.0386 43.5325 21.0178 42.9902 21.0491C42.7399 21.0595 42.4479 21.1117 42.2288 21.2577C41.9264 21.4454 41.7699 21.6957 41.7804 22.0399C41.7699 22.4153 41.9681 22.7386 42.2914 22.8742ZM34.1252 15.8865C35.8773 15.8865 37.1393 16.7939 37.7859 18.4521C38.3386 19.8497 38.2656 21.9982 37.3687 23.4583C36.4092 25.0227 34.5736 25.4607 33.0718 25.0227C32.6755 24.908 32.3417 24.6994 32.0914 24.3761C31.9663 24.2092 31.8307 24.1466 31.5908 24.2092V28.3497H28.5454V16.1159H31.4969V16.8669C31.7055 16.9086 31.8515 16.8982 31.9871 16.7313C32.4564 16.1577 33.1239 15.9386 33.8436 15.8969C33.9374 15.8969 34.0313 15.8865 34.1252 15.8865ZM31.8933 22.0503C32.1853 22.5405 32.738 22.7699 33.2908 22.7699C33.8853 22.7699 34.4798 22.4988 34.7718 21.9773C35.0847 21.4245 35.1681 20.1104 34.8865 19.3804C34.6675 18.8067 34.2607 18.4 33.6141 18.327C32.9153 18.2331 32.2687 18.3896 31.8933 19.0153C31.4239 19.7975 31.3509 21.1534 31.8933 22.0503ZM55.4742 16.3141C55.2552 16.3141 55.1822 16.3871 55.0883 16.5644C55.0883 16.5644 53.5239 20.2251 53.4718 20.3607C53.4092 20.4963 53.3049 20.611 53.1276 20.611C52.992 20.611 52.8669 20.5798 52.7626 20.3816L50.9166 16.5018C50.8644 16.3871 50.7914 16.3141 50.6141 16.3141H47.7982L51.5006 23.9589C51.5736 24.1049 51.5945 24.2509 51.5215 24.4074L49.7068 28.5687H52.4288C52.6374 28.5687 52.7417 28.527 52.8252 28.3393L58.2485 16.3037L55.4742 16.3141Z" fill="#00B900"/>
</svg>
