<svg width="26" height="20" viewBox="0 0 26 20" fill="none" xmlns="http://www.w3.org/2000/svg">
<path d="M25.9133 15.9167C25.9133 18.1197 24.1137 19.9136 21.9036 19.9136H0.0866699V4.08328C0.0866699 1.88026 1.88633 0.0863647 4.09643 0.0863647H25.9133V15.9167Z" fill="white"/>
<path d="M18.8094 11.8568H20.467C20.5144 11.8568 20.6249 11.8411 20.6722 11.8411C20.9879 11.7782 21.2563 11.4949 21.2563 11.1015C21.2563 10.7239 20.9879 10.4406 20.6722 10.3619C20.6249 10.3462 20.5301 10.3462 20.467 10.3462H18.8094V11.8568Z" fill="url(#paint0_linear)"/>
<path d="M20.2775 1.42395C18.6989 1.42395 17.4044 2.69856 17.4044 4.28788V7.26197H21.4615C21.5563 7.26197 21.6668 7.26197 21.7457 7.2777C22.6613 7.32491 23.3401 7.79699 23.3401 8.61525C23.3401 9.26043 22.8823 9.81118 22.0298 9.92133V9.95281C22.9612 10.0157 23.6716 10.535 23.6716 11.3376C23.6716 12.203 22.8823 12.7695 21.8404 12.7695H17.3886V18.5918H21.6036C23.1823 18.5918 24.4767 17.3172 24.4767 15.7279V1.42395H20.2775Z" fill="url(#paint1_linear)"/>
<path d="M21.0511 8.80407C21.0511 8.42641 20.7827 8.17464 20.467 8.12743C20.4354 8.12743 20.3565 8.11169 20.3091 8.11169H18.8094V9.49646H20.3091C20.3565 9.49646 20.4512 9.49646 20.467 9.48072C20.7827 9.43351 21.0511 9.18174 21.0511 8.80407Z" fill="url(#paint2_linear)"/>
<path d="M4.39637 1.42395C2.81772 1.42395 1.52323 2.69856 1.52323 4.28788V11.3533C2.32834 11.7467 3.16503 11.9985 4.00171 11.9985C4.99626 11.9985 5.533 11.4005 5.533 10.5822V7.24623H7.99568V10.5665C7.99568 11.8568 7.19057 12.9111 4.45952 12.9111C2.80194 12.9111 1.50745 12.5492 1.50745 12.5492V18.5761H5.72243C7.30108 18.5761 8.59557 17.3015 8.59557 15.7121V1.42395H4.39637Z" fill="url(#paint3_linear)"/>
<path d="M12.337 1.42395C10.7583 1.42395 9.46384 2.69856 9.46384 4.28788V8.03302C10.19 7.41932 11.4529 7.02593 13.4894 7.12034C14.5787 7.16755 15.7469 7.46653 15.7469 7.46653V8.6782C15.1628 8.37921 14.4681 8.1117 13.5683 8.04876C12.0212 7.93861 11.0898 8.69393 11.0898 10.0157C11.0898 11.3533 12.0212 12.1086 13.5683 11.9827C14.4681 11.9198 15.1628 11.6365 15.7469 11.3533V12.565C15.7469 12.565 14.5944 12.8639 13.4894 12.9112C11.4529 13.0056 10.19 12.6122 9.46384 11.9985V18.6075H13.6788C15.2575 18.6075 16.552 17.3329 16.552 15.7436V1.42395H12.337Z" fill="url(#paint4_linear)"/>
<defs>
<linearGradient id="paint0_linear" x1="17.4018" y1="11.1034" x2="24.4958" y2="11.1034" gradientUnits="userSpaceOnUse">
<stop stop-color="#007940"/>
<stop offset="0.2285" stop-color="#00873F"/>
<stop offset="0.7433" stop-color="#40A737"/>
<stop offset="1" stop-color="#5CB531"/>
</linearGradient>
<linearGradient id="paint1_linear" x1="17.4016" y1="10.001" x2="24.4961" y2="10.001" gradientUnits="userSpaceOnUse">
<stop stop-color="#007940"/>
<stop offset="0.2285" stop-color="#00873F"/>
<stop offset="0.7433" stop-color="#40A737"/>
<stop offset="1" stop-color="#5CB531"/>
</linearGradient>
<linearGradient id="paint2_linear" x1="17.4016" y1="8.80211" x2="24.4959" y2="8.80211" gradientUnits="userSpaceOnUse">
<stop stop-color="#007940"/>
<stop offset="0.2285" stop-color="#00873F"/>
<stop offset="0.7433" stop-color="#40A737"/>
<stop offset="1" stop-color="#5CB531"/>
</linearGradient>
<linearGradient id="paint3_linear" x1="1.51989" y1="10.001" x2="8.72374" y2="10.001" gradientUnits="userSpaceOnUse">
<stop stop-color="#1F286F"/>
<stop offset="0.4751" stop-color="#004E94"/>
<stop offset="0.8261" stop-color="#0066B1"/>
<stop offset="1" stop-color="#006FBC"/>
</linearGradient>
<linearGradient id="paint4_linear" x1="9.42302" y1="10.001" x2="16.4196" y2="10.001" gradientUnits="userSpaceOnUse">
<stop stop-color="#6C2C2F"/>
<stop offset="0.1735" stop-color="#882730"/>
<stop offset="0.5731" stop-color="#BE1833"/>
<stop offset="0.8585" stop-color="#DC0436"/>
<stop offset="1" stop-color="#E60039"/>
</linearGradient>
</defs>
</svg>
