<svg width="16" height="16" viewBox="0 0 16 16" fill="none" xmlns="http://www.w3.org/2000/svg">
<path d="M3.42857 5.33332H4.19047V3.8095C4.19047 1.70668 5.89714 0 8 0C10.1029 0 11.8095 1.70668 11.8095 3.80954V5.33336H12.5714C13.4133 5.33336 14.0952 6.01525 14.0952 6.85718V14.4762C14.0952 15.3181 13.4133 16 12.5714 16H3.42857C2.58668 16 1.90475 15.3181 1.90475 14.4762V6.85714C1.90475 6.01525 2.58668 5.33332 3.42857 5.33332ZM8 12.1905C8.84189 12.1905 9.52382 11.5086 9.52382 10.6666C9.52382 9.82475 8.84189 9.14286 8 9.14286C7.15811 9.14286 6.47618 9.82475 6.47618 10.6667C6.47618 11.5086 7.15811 12.1905 8 12.1905ZM5.63811 5.33332H10.3619V3.8095C10.3619 2.50664 9.30286 1.44761 8 1.44761C6.69714 1.44761 5.63811 2.50664 5.63811 3.8095V5.33332Z" fill="#F44D4D"/>
</svg>
