<svg width="31" height="20" viewBox="0 0 31 20" fill="none" xmlns="http://www.w3.org/2000/svg">
<path d="M19.6908 2.11279H11.3088V17.6402H19.6908V2.11279Z" fill="#FF5F00"/>
<path d="M11.8412 9.87611C11.8412 6.72124 13.2781 3.92301 15.4867 2.11239C13.8635 0.795578 11.8146 0 9.5794 0C4.28412 0 0 4.41681 0 9.87611C0 15.3354 4.28412 19.7522 9.5794 19.7522C11.8146 19.7522 13.8635 18.9566 15.4867 17.6398C13.2781 15.8566 11.8412 13.031 11.8412 9.87611Z" fill="#EB001B"/>
<path d="M31.0001 9.87611C31.0001 15.3354 26.716 19.7522 21.4207 19.7522C19.1856 19.7522 17.1366 18.9566 15.5135 17.6398C17.7486 15.8292 19.1589 13.031 19.1589 9.87611C19.1589 6.72124 17.722 3.92301 15.5135 2.11239C17.1366 0.795578 19.1856 0 21.4207 0C26.716 0 31.0001 4.44425 31.0001 9.87611Z" fill="#F79E1B"/>
</svg>
