<svg width="16" height="16" viewBox="0 0 16 16" fill="none" xmlns="http://www.w3.org/2000/svg">
<path d="M8.00111 0C5.71538 0 3.84691 1.86847 3.84691 4.1542C3.84691 6.43993 5.71538 8.3084 8.00111 8.3084C10.2868 8.3084 12.1553 6.43993 12.1553 4.1542C12.1553 1.86847 10.2868 0 8.00111 0Z" fill="#F44D4D"/>
<path d="M15.1304 11.6281C15.0215 11.356 14.8764 11.1021 14.7132 10.8662C13.8787 9.63266 12.5907 8.81634 11.1395 8.61679C10.9581 8.59866 10.7585 8.63491 10.6134 8.74377C9.85149 9.30613 8.94448 9.59637 8.00114 9.59637C7.05781 9.59637 6.1508 9.30613 5.38889 8.74377C5.24375 8.63491 5.0442 8.5805 4.86281 8.61679C3.41156 8.81634 2.10545 9.63266 1.28913 10.8662C1.12587 11.1021 0.980727 11.3742 0.871907 11.6281C0.817497 11.737 0.835622 11.864 0.890032 11.9728C1.03517 12.2268 1.21656 12.4808 1.37982 12.6985C1.63378 13.0431 1.9059 13.3515 2.2143 13.6418C2.46826 13.8957 2.7585 14.1316 3.04878 14.3674C4.48187 15.4377 6.20524 16 7.98302 16C9.7608 16 11.4842 15.4377 12.9173 14.3674C13.2075 14.1497 13.4977 13.8957 13.7517 13.6418C14.042 13.3515 14.3322 13.0431 14.5862 12.6985C14.7676 12.4626 14.9309 12.2268 15.076 11.9728C15.1667 11.864 15.1848 11.737 15.1304 11.6281Z" fill="#F44D4D"/>
</svg>
