<svg width="66" height="20" viewBox="0 0 66 20" fill="none" xmlns="http://www.w3.org/2000/svg">
<path d="M32.3569 9.06432C32.5323 9.18128 32.7954 9.269 33.0585 9.269C33.4677 9.269 33.7015 9.06432 33.7015 8.74268C33.7015 8.45028 33.5261 8.30408 33.1169 8.12864C32.62 7.95321 32.2985 7.69005 32.2985 7.25145C32.2985 6.78362 32.7077 6.43274 33.2923 6.43274C33.6138 6.43274 33.8184 6.49122 33.9646 6.57894L33.8477 6.90058C33.76 6.8421 33.5554 6.75438 33.2631 6.75438C32.8539 6.75438 32.6785 7.01753 32.6785 7.22221C32.6785 7.51461 32.8538 7.66081 33.2923 7.80701C33.8184 8.01169 34.0523 8.2456 34.0523 8.71344C34.0523 9.18128 33.7015 9.59063 33 9.59063C32.7077 9.59063 32.3862 9.50291 32.2108 9.38595L32.3569 9.06432Z" fill="#02797E"/>
<path d="M34.8707 8.50877C34.8707 9.03509 35.2214 9.269 35.6307 9.269C35.9229 9.269 36.0983 9.21052 36.2445 9.15204L36.3029 9.44444C36.1568 9.50292 35.9229 9.59064 35.5722 9.59064C34.8999 9.59064 34.4907 9.15205 34.4907 8.47953C34.4907 7.80702 34.8999 7.2807 35.5137 7.2807C36.2152 7.2807 36.4198 7.92398 36.4198 8.30409C36.4198 8.39181 36.4198 8.45029 36.4198 8.50877H34.8707ZM36.0399 8.24561C36.0399 7.98246 35.9229 7.60234 35.4845 7.60234C35.0753 7.60234 34.8999 7.98246 34.8707 8.24561H36.0399Z" fill="#02797E"/>
<path d="M38.4951 9.47368C38.3782 9.53216 38.1444 9.59064 37.8521 9.59064C37.1798 9.59064 36.7706 9.15204 36.7706 8.47953C36.7706 7.80701 37.2383 7.30994 37.9398 7.30994C38.1736 7.30994 38.3782 7.36842 38.4951 7.4269L38.4074 7.71929C38.3198 7.66081 38.1736 7.60233 37.9398 7.60233C37.4429 7.60233 37.1506 7.98245 37.1506 8.45029C37.1506 8.94736 37.4721 9.269 37.9105 9.269C38.1444 9.269 38.2905 9.21052 38.4074 9.15204L38.4951 9.47368Z" fill="#02797E"/>
<path d="M40.775 8.94736C40.775 9.18128 40.775 9.38596 40.8042 9.53216H40.4535L40.4243 9.18128C40.3366 9.35672 40.0735 9.59064 39.6935 9.59064C39.3428 9.59064 38.9336 9.38596 38.9336 8.62573V7.33918H39.3428V8.53801C39.3428 8.94736 39.4889 9.23976 39.8397 9.23976C40.1027 9.23976 40.3073 9.06432 40.3658 8.85964C40.395 8.80116 40.395 8.74269 40.395 8.65497V7.30994H40.8042V8.94736" fill="#02797E"/>
<path d="M41.4473 8.04093C41.4473 7.77777 41.4473 7.57309 41.4181 7.36841H41.7688L41.798 7.80701C41.8857 7.51461 42.1488 7.33917 42.4119 7.33917C42.4411 7.33917 42.4995 7.33917 42.5288 7.33917V7.71929C42.4703 7.71929 42.4411 7.71929 42.3826 7.71929C42.0903 7.71929 41.915 7.92397 41.8565 8.21637C41.8565 8.27485 41.8565 8.33332 41.8565 8.42104V9.59063H41.4473V8.04093Z" fill="#02797E"/>
<path d="M43.1426 6.95905C42.9965 6.95905 42.8795 6.8421 42.8795 6.6959C42.8795 6.5497 42.9965 6.43274 43.1426 6.43274C43.2887 6.43274 43.4057 6.5497 43.4057 6.6959C43.4057 6.8421 43.318 6.95905 43.1426 6.95905ZM43.3472 9.56139H42.9672V7.36841H43.3764V9.56139H43.3472Z" fill="#02797E"/>
<path d="M44.4871 6.8421V7.36842H45.0717V7.66082H44.4871V8.85965C44.4871 9.1228 44.5748 9.29824 44.7794 9.29824C44.8964 9.29824 44.9548 9.29824 45.0133 9.269L45.0425 9.5614C44.9548 9.59064 44.8379 9.61988 44.6917 9.61988C44.5164 9.61988 44.3702 9.5614 44.2533 9.44444C44.1364 9.32748 44.1072 9.1228 44.1072 8.85965V7.66082H43.7564V7.36842H44.1072V6.95906L44.4871 6.8421Z" fill="#02797E"/>
<path d="M45.7148 7.36841L46.1825 8.65496C46.2409 8.80116 46.2994 8.9766 46.3286 9.09356C46.3578 8.9766 46.4163 8.80116 46.4747 8.62572L46.9132 7.33917H47.3224L46.7086 8.91812C46.4163 9.67835 46.2409 10.0585 45.9486 10.2924C45.744 10.4678 45.5686 10.5263 45.4517 10.5555L45.364 10.2339C45.4517 10.2047 45.5979 10.1462 45.7148 10.0292C45.8317 9.94151 45.9486 9.79531 46.0363 9.59063C46.0655 9.56139 46.0655 9.53215 46.0655 9.50291C46.0655 9.47367 46.0655 9.44444 46.0363 9.4152L45.2179 7.39765H45.7148" fill="#02797E"/>
<path d="M32.3569 13.5965C32.5323 13.7134 32.7954 13.8012 33.0585 13.8012C33.4677 13.8012 33.7015 13.5965 33.7015 13.2748C33.7015 12.9824 33.5261 12.8362 33.1169 12.6608C32.62 12.4854 32.2985 12.2222 32.2985 11.7836C32.2985 11.3158 32.7077 10.9649 33.2923 10.9649C33.6138 10.9649 33.8184 11.0234 33.9646 11.1111L33.8477 11.4327C33.76 11.3743 33.5554 11.2865 33.2631 11.2865C32.8539 11.2865 32.6785 11.5497 32.6785 11.7544C32.6785 12.0468 32.8538 12.193 33.2923 12.3392C33.8184 12.5439 34.0523 12.7778 34.0523 13.2456C34.0523 13.7134 33.7015 14.1228 33 14.1228C32.7077 14.1228 32.3862 14.0351 32.2108 13.9181L32.3569 13.5965Z" fill="#02797E"/>
<path d="M35.0753 11.3743V11.9006H35.6599V12.193H35.0753V13.3626C35.0753 13.6257 35.163 13.8012 35.3676 13.8012C35.4845 13.8012 35.5429 13.8012 35.6014 13.7719L35.6306 14.0643C35.5429 14.0936 35.426 14.1228 35.2799 14.1228C35.1045 14.1228 34.9584 14.0643 34.8414 13.9474C34.7245 13.8304 34.6953 13.6257 34.6953 13.3626V12.1637H34.3445V11.8713H34.6953V11.462L35.0753 11.3743Z" fill="#02797E"/>
<path d="M37.6475 13.5672C37.6475 13.7719 37.6475 13.9474 37.6767 14.0936H37.3259L37.2967 13.8304C37.1798 14.0058 36.946 14.152 36.6244 14.152C36.186 14.152 35.9522 13.8304 35.9522 13.5088C35.9522 12.9825 36.4198 12.6901 37.2675 12.6901V12.6316C37.2675 12.4561 37.209 12.1053 36.7706 12.1345C36.566 12.1345 36.3614 12.193 36.186 12.3099L36.0983 12.0468C36.2737 11.9298 36.5368 11.8713 36.829 11.8713C37.5013 11.8713 37.6767 12.3392 37.6767 12.7778V13.5672H37.6475ZM37.2675 12.9825C36.829 12.9825 36.3321 13.0409 36.3321 13.4795C36.3321 13.7427 36.5075 13.8596 36.7121 13.8596C37.0044 13.8596 37.1798 13.6842 37.2383 13.4795C37.2383 13.4503 37.2675 13.3918 37.2675 13.3626V12.9825Z" fill="#02797E"/>
<path d="M38.2905 12.4854C38.2905 12.2515 38.2905 12.076 38.2613 11.9006H38.612L38.6413 12.2515C38.7582 12.0468 38.992 11.8421 39.372 11.8421C39.6643 11.8421 40.1612 12.0175 40.1612 12.7778V14.0936H39.752V12.8363C39.752 12.4854 39.6058 12.193 39.2551 12.193C38.992 12.193 38.7874 12.3684 38.729 12.6023C38.6997 12.6608 38.6997 12.7193 38.6997 12.7778V14.0936H38.2905V12.4854Z" fill="#02797E"/>
<path d="M42.7042 10.8772V13.538C42.7042 13.7427 42.7042 13.9474 42.7334 14.0936H42.3826L42.3534 13.7135C42.2365 13.9474 41.9734 14.1521 41.6227 14.1521C41.0965 14.1521 40.6873 13.7135 40.6873 13.0409C40.6873 12.3099 41.155 11.8713 41.6811 11.8713C42.0319 11.8713 42.2365 12.0175 42.3534 12.193V10.8772H42.7042ZM42.2949 12.7778C42.2949 12.7193 42.295 12.6608 42.2657 12.6023C42.2073 12.3392 42.0027 12.1345 41.6811 12.1345C41.2719 12.1345 41.0089 12.4854 41.0089 12.9825C41.0089 13.4211 41.2427 13.8012 41.6519 13.8012C41.915 13.8012 42.1488 13.6257 42.2365 13.3333C42.2657 13.2749 42.2657 13.2164 42.2657 13.1579V12.7778H42.2949Z" fill="#02797E"/>
<path d="M44.9256 13.5672C44.9256 13.7719 44.9256 13.9474 44.9548 14.0936H44.6041L44.5748 13.8304C44.4579 14.0058 44.2241 14.152 43.9026 14.152C43.4641 14.152 43.2303 13.8304 43.2303 13.5088C43.2303 12.9825 43.698 12.6901 44.5456 12.6901V12.6316C44.5456 12.4561 44.4872 12.1053 44.0487 12.1345C43.8441 12.1345 43.6395 12.193 43.4641 12.3099L43.3764 12.0468C43.5518 11.9298 43.8149 11.8713 44.1072 11.8713C44.7794 11.8713 44.9548 12.3392 44.9548 12.7778V13.5672H44.9256ZM44.5164 12.9825C44.0779 12.9825 43.581 13.0409 43.581 13.4795C43.581 13.7427 43.7564 13.8596 43.961 13.8596C44.2533 13.8596 44.4287 13.6842 44.4872 13.4795C44.4872 13.4503 44.5164 13.3918 44.5164 13.3626V12.9825Z" fill="#02797E"/>
<path d="M45.5687 12.5731C45.5687 12.3099 45.5687 12.1053 45.5394 11.9006H45.8902L45.9194 12.3392H45.9486C46.0363 12.0468 46.2994 11.8713 46.5625 11.8713C46.5917 11.8713 46.6209 11.8713 46.6794 11.8713V12.2515C46.6209 12.2515 46.5917 12.2515 46.5332 12.2515C46.2409 12.2515 46.0656 12.4561 46.0071 12.7485C46.0071 12.807 46.0071 12.8655 46.0071 12.9532V14.1228H45.5979L45.5687 12.5731Z" fill="#02797E"/>
<path d="M48.9008 10.8772V13.538C48.9008 13.7427 48.9008 13.9474 48.93 14.0936H48.5793L48.55 13.7135C48.4331 13.9474 48.1701 14.1521 47.7901 14.1521C47.2639 14.1521 46.8547 13.7135 46.8547 13.0409C46.8547 12.3099 47.2932 11.8713 47.8485 11.8713C48.1993 11.8713 48.4039 12.0175 48.5208 12.193V10.8772H48.9008ZM48.5208 12.7778C48.5208 12.7193 48.5208 12.6608 48.4916 12.6023C48.4331 12.3392 48.1993 12.1345 47.907 12.1345C47.4978 12.1345 47.2639 12.4854 47.2639 12.9825C47.2639 13.4211 47.4978 13.8012 47.907 13.8012C48.1701 13.8012 48.4331 13.6257 48.4916 13.3333C48.4916 13.2749 48.5208 13.2164 48.5208 13.1579V12.7778Z" fill="#02797E"/>
<path d="M49.5146 13.6842C49.6315 13.7719 49.8362 13.8304 50.0408 13.8304C50.3331 13.8304 50.45 13.6842 50.45 13.5088C50.45 13.3041 50.3331 13.2164 50.0408 13.0994C49.6315 12.9532 49.4562 12.7485 49.4562 12.4854C49.4562 12.1345 49.7485 11.8421 50.2161 11.8421C50.45 11.8421 50.6254 11.9006 50.7423 11.9883L50.6546 12.2807C50.5669 12.2222 50.4207 12.1637 50.2161 12.1637C49.9823 12.1637 49.8654 12.3099 49.8654 12.4561C49.8654 12.6316 49.9823 12.7193 50.2746 12.8363C50.6546 12.9825 50.8592 13.1579 50.8592 13.5088C50.8592 13.8889 50.5669 14.1813 50.0408 14.1813C49.8069 14.1813 49.5731 14.1228 49.4269 14.0351L49.5146 13.6842Z" fill="#02797E"/>
<path d="M54.4836 14.0058C54.3375 14.0643 54.0452 14.152 53.6652 14.152C52.8175 14.152 52.1453 13.5965 52.1453 12.6023C52.1453 11.6374 52.7883 10.9941 53.7529 10.9941C54.1329 10.9941 54.3667 11.0819 54.4836 11.1403L54.3959 11.462C54.2498 11.4035 54.0452 11.345 53.7821 11.345C53.0514 11.345 52.5837 11.8129 52.5837 12.6023C52.5837 13.3626 53.0221 13.8304 53.7529 13.8304C53.9867 13.8304 54.2498 13.7719 54.3959 13.7134L54.4836 14.0058Z" fill="#02797E"/>
<path d="M55.7989 14.152C55.2143 14.152 54.7467 13.7134 54.7467 13.0117C54.7467 12.2807 55.2436 11.8421 55.8282 11.8421C56.4712 11.8421 56.8804 12.3099 56.8804 12.9532C56.8804 13.7719 56.3251 14.152 55.7989 14.152ZM55.7989 13.8304C56.1789 13.8304 56.4712 13.4795 56.4712 12.9825C56.4712 12.6023 56.2958 12.1345 55.7989 12.1345C55.3313 12.1345 55.1267 12.5731 55.1267 12.9825C55.1559 13.4795 55.4189 13.8304 55.7989 13.8304Z" fill="#02797E"/>
<path d="M59.2188 13.4795C59.2188 13.7134 59.2188 13.9181 59.248 14.0643H58.8972L58.868 13.7134C58.7803 13.8889 58.5173 14.1228 58.1373 14.1228C57.7865 14.1228 57.3773 13.9181 57.3773 13.1579V11.8713H57.7865V13.0702C57.7865 13.4795 57.9034 13.7719 58.2834 13.7719C58.5465 13.7719 58.7219 13.5965 58.8096 13.3918C58.8388 13.3333 58.8388 13.2749 58.8388 13.1871V11.8421H59.248V13.4795" fill="#02797E"/>
<path d="M59.891 12.4854C59.891 12.2515 59.891 12.076 59.8618 11.9006H60.2126L60.2418 12.2515C60.3587 12.0468 60.5926 11.8421 60.9725 11.8421C61.2648 11.8421 61.7617 12.0175 61.7617 12.7778V14.0936H61.3525V12.8363C61.3525 12.4854 61.2064 12.193 60.8556 12.193C60.5925 12.193 60.3879 12.3684 60.3295 12.6023C60.3003 12.6608 60.3003 12.7193 60.3003 12.7778V14.0936H59.891V12.4854Z" fill="#02797E"/>
<path d="M63.9832 14.0058C63.8663 14.0643 63.6616 14.1228 63.3401 14.1228C62.6678 14.1228 62.2586 13.6842 62.2586 13.0117C62.2586 12.3392 62.7263 11.8421 63.4278 11.8421C63.6616 11.8421 63.8663 11.9006 63.9832 11.9591L63.8955 12.2515C63.8078 12.193 63.6616 12.1345 63.4278 12.1345C62.9309 12.1345 62.6386 12.5146 62.6386 12.9825C62.6386 13.4795 62.9601 13.8012 63.3986 13.8012C63.6324 13.8012 63.7786 13.7427 63.8955 13.6842L63.9832 14.0058Z" fill="#02797E"/>
<path d="M64.6262 11.4912C64.4801 11.4912 64.3632 11.3743 64.3632 11.2281C64.3632 11.0819 64.4801 10.9649 64.6262 10.9649C64.7724 10.9649 64.8893 11.0819 64.8893 11.2281C64.8893 11.3743 64.8016 11.4912 64.6262 11.4912ZM64.8308 14.0936H64.4216V11.9006H64.8308V14.0936Z" fill="#02797E"/>
<path d="M65.9123 10.8772H65.5031V14.0936H65.9123V10.8772Z" fill="#02797E"/>
<path d="M30.3109 12.6316L6.83968 20L0 1.37427L24.6404 0L30.3109 12.6316Z" fill="#02797E"/>
<path d="M12.5686 8.88891C12.5686 9.35675 12.4517 9.76611 12.2471 10.1462C12.0425 10.4971 11.7502 10.8187 11.3702 11.0527C10.9903 11.2866 10.5226 11.462 9.99646 11.579C9.47033 11.6959 8.88574 11.7544 8.21346 11.7544H7.74579V14.1521H4.70593V6.16962H8.27192C9.61647 6.16962 10.6687 6.40353 11.4287 6.84213C12.1887 7.28073 12.5686 7.98248 12.5686 8.88891ZM9.6457 8.91815C9.6457 8.2164 9.11957 7.86552 8.09654 7.86552H7.71656V10H8.06731C8.56421 10 8.97343 9.91231 9.23649 9.73687C9.49956 9.59067 9.6457 9.29827 9.6457 8.91815Z" fill="white"/>
<path d="M20.1098 14.152C19.6422 14.2397 19.116 14.2982 18.5022 14.2982C17.6546 14.2982 16.8946 14.2105 16.2515 14.0058C15.5793 13.8011 15.0239 13.538 14.5562 13.1871C14.0886 12.8362 13.7378 12.3976 13.504 11.9006C13.2701 11.3742 13.1532 10.8187 13.1532 10.2047C13.1532 9.59062 13.2701 9.03507 13.5332 8.50875C13.7963 8.01168 14.147 7.57308 14.6147 7.19296C15.0824 6.84209 15.6377 6.54969 16.2808 6.34501C16.9238 6.14033 17.6253 6.05261 18.3853 6.05261C18.9699 6.05261 19.5252 6.08185 20.0221 6.16957C20.519 6.28653 20.519 6.28653 20.899 6.43273V8.56723C20.6067 8.39179 20.256 8.24559 19.876 8.15787C19.496 8.04092 19.0868 7.98244 18.6776 7.98244C17.9761 7.98244 17.4207 8.18711 16.9823 8.53799C16.5438 8.91811 16.3392 9.44442 16.3392 10.1754C16.3392 10.5263 16.3977 10.8479 16.5438 11.1403C16.69 11.4035 16.8654 11.6374 17.0992 11.8128C17.333 11.9883 17.5961 12.1345 17.9176 12.2222C18.2391 12.3099 18.5607 12.3684 18.9114 12.3684C19.2622 12.3684 19.6422 12.3392 19.9929 12.2514C20.3437 12.1637 20.7236 12.076 21.1036 11.9006V13.9181C20.636 14.0351 20.5775 14.0643 20.1098 14.152Z" fill="white"/>
<path d="M25.4296 6.16962H22.3605V14.1813H25.4296V6.16962Z" fill="white"/>
<path d="M25.7511 3.65496C25.7511 4.18128 25.5757 4.61987 25.225 4.91227C24.8742 5.20467 24.4358 5.38011 23.9096 5.38011C23.3835 5.38011 22.9451 5.23391 22.5943 4.91227C22.2436 4.61987 22.0682 4.18128 22.0682 3.65496C22.0682 3.0994 22.2436 2.69005 22.5943 2.36841C22.9451 2.04677 23.3835 1.90057 23.9096 1.90057C24.4358 1.90057 24.8742 2.04677 25.225 2.36841C25.5757 2.66081 25.7511 3.0994 25.7511 3.65496Z" fill="white"/>
<path d="M66 7.16376C66 7.66083 65.5908 8.07019 65.0646 8.07019C64.5385 8.07019 64.1293 7.66083 64.1293 7.16376C64.1293 6.66668 64.5385 6.25732 65.0646 6.25732C65.5908 6.25732 66 6.66668 66 7.16376ZM64.4216 7.16376C64.4216 7.54387 64.7139 7.83627 65.0646 7.83627C65.4446 7.83627 65.7077 7.54387 65.7077 7.16376C65.7077 6.78364 65.4154 6.49124 65.0354 6.49124C64.6847 6.49124 64.4216 6.78364 64.4216 7.16376ZM64.9477 7.60235H64.6847V6.7544C64.7431 6.7544 64.8893 6.72516 65.0646 6.72516C65.24 6.72516 65.3277 6.7544 65.3862 6.78364C65.4446 6.81288 65.4739 6.87136 65.4739 6.95908C65.4739 7.0468 65.3862 7.10528 65.2693 7.13452C65.3569 7.16376 65.4154 7.22224 65.4446 7.3392C65.4739 7.45615 65.4739 7.51463 65.5031 7.54387H65.2108C65.1816 7.51463 65.1816 7.42692 65.1523 7.36844C65.1231 7.28072 65.0939 7.25148 65.0062 7.25148H64.9185V7.60235H64.9477ZM64.977 7.13452H65.0646C65.1523 7.13452 65.2108 7.10528 65.2108 7.0468C65.2108 6.98832 65.1523 6.92984 65.0646 6.92984C65.0354 6.92984 65.0062 6.92984 64.977 6.92984V7.13452Z" fill="#02797E"/>
</svg>
