<svg width="53" height="20" viewBox="0 0 53 20" fill="none" xmlns="http://www.w3.org/2000/svg">
<path d="M23.0995 17.7685H18.9681L21.5522 2.28009H25.6833L23.0995 17.7685Z" fill="#00579F"/>
<path d="M38.0761 2.6594C37.2612 2.34602 35.9688 2 34.3706 2C30.2908 2 27.4178 4.10895 27.4002 7.12412C27.3663 9.3487 29.4572 10.5843 31.021 11.326C32.6193 12.084 33.1627 12.5787 33.1627 13.2543C33.1464 14.2919 31.8711 14.7702 30.6816 14.7702C29.0322 14.7702 28.1484 14.5236 26.8054 13.9464L26.2613 13.6989L25.6832 17.1757C26.6522 17.6036 28.4374 17.9834 30.2908 18C34.6257 18 37.4479 15.9237 37.4813 12.7105C37.4978 10.9474 36.3937 9.59639 34.0135 8.49242C32.5685 7.78374 31.6836 7.30589 31.6836 6.58078C31.7005 5.9216 32.432 5.24643 34.0632 5.24643C35.4062 5.21336 36.3931 5.52631 37.1406 5.83948L37.5143 6.00394L38.0761 2.6594Z" fill="#00579F"/>
<path d="M43.568 12.2815C43.9082 11.3917 45.2174 7.94798 45.2174 7.94798C45.2002 7.98105 45.557 7.04177 45.761 6.46515L46.0497 7.79972C46.0497 7.79972 46.832 11.5071 47.0019 12.2815C46.3563 12.2815 44.384 12.2815 43.568 12.2815ZM48.6676 2.28009H45.472C44.4866 2.28009 43.7379 2.55997 43.3127 3.56517L37.1761 17.7683H41.511C41.511 17.7683 42.2247 15.8567 42.3781 15.4449C42.8536 15.4449 47.0706 15.4449 47.6824 15.4449C47.801 15.9887 48.1753 17.7683 48.1753 17.7683H52.0006L48.6676 2.28009Z" fill="#00579F"/>
<path d="M15.5177 2.28009L11.4718 12.8417L11.0296 10.6997C10.2816 8.22808 7.9357 5.54272 5.31776 4.20749L9.02371 17.7521H13.3925L19.8863 2.28009H15.5177Z" fill="#00579F"/>
<path d="M7.71495 2.28009H1.068L1 2.59304C6.18504 3.87834 9.61899 6.97651 11.0298 10.7003L9.58487 3.58203C9.34698 2.59282 8.61591 2.31272 7.71495 2.28009Z" fill="#FAA61A"/>
</svg>
