<svg width="44" height="473" viewBox="0 0 44 473" fill="none" xmlns="http://www.w3.org/2000/svg">
<path d="M2 0.367185L2.20673 -0.611212L1 -0.866191L1 0.367185L2 0.367185ZM42.6113 8.94824L43.6113 8.94824L43.6113 8.13746L42.8181 7.96984L42.6113 8.94824ZM39.6377 35.5977L38.8797 34.9453L38.8767 34.9489L39.6377 35.5977ZM28.9893 38.2881L28.59 39.2049L28.5953 39.2072L28.9893 38.2881ZM26.1572 36.4756L26.8549 35.759L26.845 35.7496L26.1572 36.4756ZM24.2881 34.4082L23.4803 34.9977L23.4854 35.0047L23.4907 35.0116L24.2881 34.4082ZM23.2402 32.5957L24.178 32.2484L24.1701 32.227L24.1612 32.2061L23.2402 32.5957ZM22.9287 31.8594L23.8497 31.4697L23.0044 29.4719L22.0343 31.4122L22.9287 31.8594ZM22.6172 32.4258L21.7534 31.9219L21.7448 31.9367L21.7367 31.9517L22.6172 32.4258ZM21.6543 33.7285L20.8803 33.0953L20.8699 33.108L20.8599 33.1211L21.6543 33.7285ZM20.04 35.3994L19.4123 34.621L19.4048 34.627L19.3974 34.6332L20.04 35.3994ZM17.7178 36.7021L17.3527 35.7712L17.3448 35.7743L17.337 35.7775L17.7178 36.7021ZM5.70996 32.8506L4.94416 33.4937L4.94454 33.4941L5.70996 32.8506ZM10.6943 13.168L10.9055 12.1905L9.69434 11.9289L9.69434 13.168L10.6943 13.168ZM18.8223 14.9238L19.8223 14.9238L19.8223 14.1168L19.0334 13.9464L18.8223 14.9238ZM33.8887 18.0957L34.8887 18.0957L34.8887 17.2824L34.0925 17.1167L33.8887 18.0957ZM26.9502 16.6514L27.154 15.6724L25.9502 15.4218L25.9502 16.6514L26.9502 16.6514ZM28.0264 26.1104L27.277 26.7726L27.2856 26.7822L28.0264 26.1104ZM33.0107 26.3936L32.2819 25.7089L32.2763 25.7148L32.2708 25.7209L33.0107 26.3936ZM3 21.126L3 0.367185L1 0.367185L0.999999 21.126L3 21.126ZM1.79327 1.34558L42.4046 9.92664L42.8181 7.96984L2.20673 -0.611212L1.79327 1.34558ZM41.6113 8.94824L41.6113 26.6201L43.6113 26.6201L43.6113 8.94824L41.6113 8.94824ZM41.6113 26.6201C41.6113 30.1152 40.6747 32.8598 38.8798 34.9453L40.3956 36.25C42.5656 33.7287 43.6113 30.4883 43.6113 26.6201L41.6113 26.6201ZM38.8767 34.9489C37.0639 37.0755 35.0695 38.0527 32.8691 38.0527L32.8691 40.0527C35.7664 40.0527 38.2844 38.7266 40.3987 36.2464L38.8767 34.9489ZM32.8691 38.0527C31.5965 38.0527 30.4385 37.8212 29.3832 37.3689L28.5953 39.2072C29.9189 39.7745 31.3475 40.0527 32.8691 40.0527L32.8691 38.0527ZM29.3885 37.3712C28.2996 36.897 27.4656 36.3538 26.8548 35.7591L25.4596 37.1921C26.2837 37.9945 27.3378 38.6596 28.59 39.2049L29.3885 37.3712ZM26.845 35.7496C26.1624 35.103 25.5771 34.4544 25.0855 33.8048L23.4907 35.0116C24.0563 35.7591 24.7171 36.4888 25.4695 37.2015L26.845 35.7496ZM25.0959 33.8187C24.6124 33.1562 24.3217 32.6365 24.178 32.2484L22.3025 32.943C22.5364 33.5745 22.9442 34.2631 23.4803 34.9977L25.0959 33.8187ZM24.1612 32.2061L23.8497 31.4697L22.0077 32.249L22.3193 32.9853L24.1612 32.2061ZM22.0343 31.4122C21.9721 31.5366 21.88 31.705 21.7534 31.9219L23.481 32.9297C23.6187 32.6935 23.7343 32.4843 23.8231 32.3066L22.0343 31.4122ZM21.7367 31.9517C21.6573 32.0991 21.3988 32.4616 20.8803 33.0953L22.4283 34.3618C22.9294 33.7493 23.3127 33.2433 23.4977 32.8999L21.7367 31.9517ZM20.8599 33.1211C20.414 33.7043 19.931 34.2027 19.4123 34.621L20.6678 36.1778C21.3197 35.6521 21.9129 35.0366 22.4487 34.336L20.8599 33.1211ZM19.3974 34.6332C18.9186 35.0348 18.248 35.4201 17.3527 35.7712L18.0829 37.6331C19.1133 37.229 19.9909 36.7458 20.6826 36.1656L19.3974 34.6332ZM17.337 35.7775C16.4946 36.1244 15.6232 36.2969 14.7158 36.2969L14.7158 38.2969C15.8852 38.2969 17.0152 38.0729 18.0985 37.6268L17.337 35.7775ZM14.7158 36.2969C11.532 36.2969 8.79962 34.9715 6.47537 32.207L4.94454 33.4941C7.60467 36.6581 10.8762 38.2969 14.7158 38.2969L14.7158 36.2969ZM6.47576 32.2075C4.19047 29.4861 3 25.8261 3 21.126L0.999999 21.126C0.999999 26.168 2.28283 30.3244 4.94416 33.4937L6.47576 32.2075ZM9.69434 13.168L9.69433 20.9561L11.6943 20.9561L11.6943 13.168L9.69434 13.168ZM9.69433 20.9561C9.69433 22.6401 10.1977 24.1075 11.2545 25.2791L12.7396 23.9396C12.0595 23.1855 11.6943 22.2173 11.6943 20.9561L9.69433 20.9561ZM11.2545 25.2791C12.3285 26.4699 13.7399 27.0537 15.3955 27.0537L15.3955 25.0537C14.2568 25.0537 13.4026 24.6746 12.7396 23.9396L11.2545 25.2791ZM15.3955 27.0537C16.642 27.0537 17.7193 26.575 18.5666 25.655L17.0955 24.3001C16.6212 24.815 16.0748 25.0537 15.3955 25.0537L15.3955 27.0537ZM18.5666 25.655C19.4217 24.7266 19.8223 23.5572 19.8223 22.2305L17.8223 22.2305C17.8223 23.1316 17.562 23.7936 17.0955 24.3001L18.5666 25.655ZM19.8223 22.2305L19.8223 14.9238L17.8223 14.9238L17.8223 22.2305L19.8223 22.2305ZM19.0334 13.9464L10.9055 12.1905L10.4832 14.1454L18.6111 15.9013L19.0334 13.9464ZM34.8887 23.958L34.8887 18.0957L32.8887 18.0957L32.8887 23.958L34.8887 23.958ZM34.0925 17.1167L27.154 15.6724L26.7464 17.6304L33.6849 19.0747L34.0925 17.1167ZM25.9502 16.6514L25.9502 22.9668L27.9502 22.9668L27.9502 16.6514L25.9502 16.6514ZM25.9502 22.9668C25.9502 24.447 26.3691 25.7452 27.277 26.7725L28.7757 25.4482C28.2487 24.8518 27.9502 24.0543 27.9502 22.9668L25.9502 22.9668ZM27.2856 26.7822C28.2322 27.8258 29.4851 28.3281 30.9434 28.3281L30.9434 26.3281C29.9849 26.3281 29.2932 26.0186 28.7671 25.4385L27.2856 26.7822ZM30.9434 28.3281C32.0486 28.3281 33.0027 27.889 33.7507 27.0662L32.2708 25.7209C31.8859 26.1442 31.4618 26.3281 30.9434 26.3281L30.9434 28.3281ZM33.7396 27.0782C34.5284 26.2385 34.8887 25.1667 34.8887 23.958L32.8887 23.958C32.8887 24.7506 32.6636 25.3025 32.2819 25.7089L33.7396 27.0782ZM42.6113 76.2316L43.6113 76.2316L43.6113 75.7223L43.1993 75.4228L42.6113 76.2316ZM42.6113 88.6926L42.0028 89.4861L43.6113 90.7195L43.6113 88.6926L42.6113 88.6926ZM16.5 68.6701L17.1085 67.8766L16.9284 67.7385L16.7064 67.6916L16.5 68.6701ZM2 65.6115L0.999997 65.6115L0.999997 66.4226L1.7936 66.59L2 65.6115ZM2 54.5949L2.20639 53.6164L0.999998 53.362L0.999998 54.5949L2 54.5949ZM16.5 57.6535L16.2936 58.632L16.5639 58.689L16.8251 58.5992L16.5 57.6535ZM42.6113 48.676L43.6113 48.676L43.6113 47.2747L42.2862 47.7303L42.6113 48.676ZM42.6113 59.9758L42.9083 60.9307L43.6113 60.712L43.6113 59.9758L42.6113 59.9758ZM26.9502 64.8469L26.6532 63.892L24.7502 64.4839L26.3622 65.6557L26.9502 64.8469ZM41.6113 76.2316L41.6113 88.6926L43.6113 88.6926L43.6113 76.2316L41.6113 76.2316ZM43.2198 87.899L17.1085 67.8766L15.8915 69.4637L42.0028 89.4861L43.2198 87.899ZM16.7064 67.6916L2.20639 64.6331L1.7936 66.59L16.2936 69.6486L16.7064 67.6916ZM3 65.6115L3 54.5949L0.999998 54.5949L0.999997 65.6115L3 65.6115ZM1.7936 55.5734L16.2936 58.632L16.7064 56.675L2.20639 53.6164L1.7936 55.5734ZM16.8251 58.5992L42.9365 49.6216L42.2862 47.7303L16.1749 56.7078L16.8251 58.5992ZM41.6113 48.676L41.6113 59.9758L43.6113 59.9758L43.6113 48.676L41.6113 48.676ZM42.3143 59.0209L26.6532 63.892L27.2472 65.8017L42.9083 60.9307L42.3143 59.0209ZM26.3622 65.6557L42.0233 77.0405L43.1993 75.4228L27.5382 64.038L26.3622 65.6557ZM42.6113 139.714L43.6113 139.714L43.6113 139.205L43.1993 138.906L42.6113 139.714ZM42.6113 152.175L42.0028 152.969L43.6113 154.202L43.6113 152.175L42.6113 152.175ZM16.5 132.153L17.1085 131.359L16.9284 131.221L16.7064 131.174L16.5 132.153ZM1.99999 129.094L0.999994 129.094L0.999994 129.905L1.7936 130.073L1.99999 129.094ZM1.99999 118.078L2.20639 117.099L0.999995 116.845L0.999995 118.078L1.99999 118.078ZM16.5 121.136L16.2936 122.115L16.5639 122.172L16.8251 122.082L16.5 121.136ZM42.6113 112.159L43.6113 112.159L43.6113 110.758L42.2862 111.213L42.6113 112.159ZM42.6113 123.459L42.9083 124.413L43.6113 124.195L43.6113 123.459L42.6113 123.459ZM26.9502 128.33L26.6532 127.375L24.7502 127.967L26.3622 129.139L26.9502 128.33ZM41.6113 139.714L41.6113 152.175L43.6113 152.175L43.6113 139.714L41.6113 139.714ZM43.2198 151.382L17.1085 131.359L15.8915 132.946L42.0028 152.969L43.2198 151.382ZM16.7064 131.174L2.20639 128.116L1.7936 130.073L16.2936 133.131L16.7064 131.174ZM2.99999 129.094L2.99999 118.078L0.999995 118.078L0.999994 129.094L2.99999 129.094ZM1.7936 119.056L16.2936 122.115L16.7064 120.158L2.20639 117.099L1.7936 119.056ZM16.8251 122.082L42.9365 113.104L42.2862 111.213L16.1749 120.191L16.8251 122.082ZM41.6113 112.159L41.6113 123.459L43.6113 123.459L43.6113 112.159L41.6113 112.159ZM42.3143 122.504L26.6532 127.375L27.2472 129.285L42.9083 124.413L42.3143 122.504ZM26.3622 129.139L42.0233 140.523L43.1993 138.906L27.5382 127.521L26.3622 129.139ZM30.0088 168.511L30.7159 167.803L30.7133 167.801L30.0088 168.511ZM13.583 167.548L12.8793 166.837L12.8725 166.844L13.583 167.548ZM14.4609 183.973L15.181 183.279L15.1784 183.277L14.4609 183.973ZM30.9717 184.965L30.268 184.254L30.2646 184.258L30.9717 184.965ZM12.9033 195.925L12.3701 196.771L12.3721 196.772L12.9033 195.925ZM4.15234 186.777L5.01767 186.276L5.01658 186.274L4.15234 186.777ZM6.50292 159.335L5.76928 158.655L5.7676 158.657L6.50292 159.335ZM38.0801 193.206L37.3464 192.526L37.3447 192.528L38.0801 193.206ZM34.8887 177.545C34.8887 173.825 33.4766 170.564 30.7159 167.803L29.3017 169.218C31.7141 171.63 32.8887 174.392 32.8887 177.545L34.8887 177.545ZM30.7133 167.801C27.9473 165.055 24.6479 163.659 20.8613 163.659L20.8613 165.659C24.0982 165.659 26.8971 166.831 29.3043 169.22L30.7133 167.801ZM20.8613 163.659C17.7084 163.659 15.0238 164.713 12.8794 166.837L14.2866 168.258C16.0315 166.53 18.1991 165.659 20.8613 165.659L20.8613 163.659ZM12.8725 166.844C10.7412 168.996 9.69433 171.741 9.69433 174.996L11.6943 174.996C11.6943 172.209 12.5733 169.988 14.2935 168.251L12.8725 166.844ZM9.69433 174.996C9.69433 178.671 11.0634 181.909 13.7434 184.67L15.1784 183.277C12.8364 180.864 11.6943 178.117 11.6943 174.996L9.69433 174.996ZM13.7409 184.667C16.4441 187.472 19.8021 188.882 23.75 188.882L23.75 186.882C20.3346 186.882 17.4999 185.686 15.181 183.279L13.7409 184.667ZM23.75 188.882C26.8721 188.882 29.5377 187.813 31.6788 185.672L30.2646 184.258C28.5163 186.006 26.3674 186.882 23.75 186.882L23.75 188.882ZM31.6753 185.675C33.8302 183.541 34.8887 180.802 34.8887 177.545L32.8887 177.545C32.8887 180.329 32.0024 182.537 30.268 184.254L31.6753 185.675ZM24.458 198.351C20.598 198.351 16.9291 197.268 13.4345 195.077L12.3721 196.772C16.1653 199.15 20.1995 200.351 24.458 200.351L24.458 198.351ZM13.4365 195.079C9.95249 192.883 7.14789 189.954 5.01767 186.276L3.28701 187.278C5.57475 191.228 8.60413 194.397 12.3701 196.771L13.4365 195.079ZM5.01658 186.274C2.89338 182.627 1.83886 178.778 1.83886 174.713L-0.161141 174.713C-0.161141 179.144 0.99332 183.338 3.28809 187.28L5.01658 186.274ZM1.83886 174.713C1.83886 168.78 3.65077 163.905 7.23824 160.012L5.7676 158.657C1.80299 162.959 -0.16114 168.335 -0.161141 174.713L1.83886 174.713ZM7.23656 160.014C10.8534 156.11 15.1426 154.189 20.1533 154.189L20.1533 152.189C14.5534 152.189 9.74225 154.366 5.76929 158.655L7.23656 160.014ZM20.1533 154.189C26.122 154.189 31.3722 156.531 35.942 161.301L37.3862 159.917C32.478 154.794 26.721 152.189 20.1533 152.189L20.1533 154.189ZM35.942 161.301C40.5121 166.071 42.7725 171.567 42.7725 177.828L44.7725 177.828C44.7725 171.024 42.2938 165.04 37.3862 159.917L35.942 161.301ZM42.7725 177.828C42.7725 183.759 40.952 188.634 37.3464 192.526L38.8137 193.885C42.7979 189.584 44.7725 184.207 44.7725 177.828L42.7725 177.828ZM37.3447 192.528C33.7473 196.431 29.4685 198.351 24.458 198.351L24.458 200.351C30.0581 200.351 34.8607 198.174 38.8154 193.884L37.3447 192.528ZM13.0166 233.443L12.2812 234.121L13.0166 233.443ZM18.8223 236.729L18.6078 237.705L18.615 237.707L18.8223 236.729ZM42.6113 241.77L43.6113 241.77L43.6113 240.959L42.8186 240.791L42.6113 241.77ZM42.6113 252.786L42.404 253.764L43.6113 254.02L43.6113 252.786L42.6113 252.786ZM18.8223 247.745L18.6132 248.723L18.615 248.723L18.8223 247.745ZM5.90819 240.495L5.16808 241.168L5.16995 241.17L5.90819 240.495ZM6.07812 213.987L5.39496 213.257L5.393 213.259L6.07812 213.987ZM18.8223 210.617L19.0307 209.639L19.0262 209.638L18.8223 210.617ZM42.6113 215.687L43.6113 215.687L43.6113 214.877L42.8197 214.708L42.6113 215.687ZM42.6113 226.703L42.4029 227.681L43.6113 227.939L43.6113 226.703L42.6113 226.703ZM18.8223 221.634L19.0307 220.656L19.0246 220.654L18.8223 221.634ZM9.69433 227.921C9.69433 230.209 10.5887 232.284 12.2812 234.121L13.752 232.766C12.3481 231.242 11.6943 229.635 11.6943 227.921L9.69433 227.921ZM12.2812 234.121C13.9741 235.958 16.094 237.153 18.6078 237.705L19.0367 235.752C16.906 235.284 15.1554 234.289 13.752 232.766L12.2812 234.121ZM18.615 237.707L42.404 242.748L42.8186 240.791L19.0296 235.75L18.615 237.707ZM41.6113 241.77L41.6113 252.786L43.6113 252.786L43.6113 241.77L41.6113 241.77ZM42.8186 251.808L19.0296 246.767L18.615 248.723L42.404 253.764L42.8186 251.808ZM19.0313 246.767C14.0116 245.694 9.89602 243.377 6.64644 239.821L5.16995 241.17C8.71724 245.052 13.211 247.568 18.6132 248.723L19.0313 246.767ZM6.6483 239.823C3.44265 236.295 1.83886 232.072 1.83886 227.1L-0.161143 227.1C-0.161143 232.549 1.61462 237.257 5.16808 241.168L6.6483 239.823ZM1.83886 227.1C1.83886 221.877 3.49988 217.785 6.76324 214.716L5.393 213.259C1.67068 216.76 -0.161143 221.409 -0.161143 227.1L1.83886 227.1ZM6.76127 214.718C10.0193 211.67 13.9304 210.62 18.6183 211.596L19.0262 209.638C13.7454 208.538 9.16032 209.735 5.39496 213.257L6.76127 214.718ZM18.6138 211.595L42.4029 216.665L42.8197 214.708L19.0307 209.639L18.6138 211.595ZM41.6113 215.687L41.6113 226.703L43.6113 226.703L43.6113 215.687L41.6113 215.687ZM42.8197 225.725L19.0307 220.656L18.6138 222.612L42.4029 227.681L42.8197 225.725ZM19.0246 220.654C16.4949 220.132 14.2486 220.573 12.4112 222.078L13.6787 223.625C14.9753 222.563 16.5806 222.192 18.6199 222.613L19.0246 220.654ZM12.4112 222.078C10.6032 223.559 9.69433 225.537 9.69433 227.921L11.6943 227.921C11.6943 226.113 12.3525 224.712 13.6787 223.625L12.4112 222.078ZM1.99999 259.011L2.20672 258.033L0.999989 257.778L0.999989 259.011L1.99999 259.011ZM42.6113 267.592L43.6113 267.592L43.6113 266.781L42.818 266.614L42.6113 267.592ZM20.918 295.431L20.2038 296.131L20.2108 296.138L20.918 295.431ZM18.4824 292.542L17.6632 293.116L17.6654 293.119L18.4824 292.542ZM17.1514 290.135L18.0973 289.811L18.0947 289.803L18.0919 289.795L17.1514 290.135ZM16.7832 289.115L17.7237 288.776L17.3855 287.839L16.4475 288.173L16.7832 289.115ZM1.99999 294.383L0.999987 294.383L0.999987 295.801L2.33564 295.325L1.99999 294.383ZM1.99999 283.027L1.68439 282.078L0.999988 282.305L0.999988 283.027L1.99999 283.027ZM14.7724 278.779L15.088 279.727L15.7724 279.5L15.7724 278.779L14.7724 278.779ZM14.7724 272.69L15.7724 272.69L15.7724 271.877L14.9765 271.711L14.7724 272.69ZM1.99999 270.028L0.999988 270.028L0.999988 270.841L1.79595 271.006L1.99999 270.028ZM25.9023 286.057L25.1228 286.683L25.9023 286.057ZM31.708 286.595L31.0009 285.888L30.9911 285.898L30.9815 285.908L31.708 286.595ZM32.7275 276.513L33.7275 276.513L33.7275 275.704L32.9361 275.535L32.7275 276.513ZM24.6279 274.785L24.8365 273.807L23.6279 273.55L23.6279 274.785L24.6279 274.785ZM1.79325 259.989L42.4046 268.57L42.818 266.614L2.20672 258.033L1.79325 259.989ZM41.6113 267.592L41.6113 285.802L43.6113 285.802L43.6113 267.592L41.6113 267.592ZM41.6113 285.802C41.6113 289.284 40.4981 292.146 38.2914 294.457L39.7379 295.838C42.3267 293.127 43.6113 289.758 43.6113 285.802L41.6113 285.802ZM38.2914 294.457C36.0677 296.786 33.5006 297.914 30.5469 297.914L30.5469 299.914C34.0879 299.914 37.166 298.532 39.7379 295.838L38.2914 294.457ZM30.5469 297.914C28.6004 297.914 26.8498 297.593 25.2825 296.966L24.5397 298.823C26.3709 299.556 28.3775 299.914 30.5469 299.914L30.5469 297.914ZM25.2825 296.966C23.6682 296.32 22.4653 295.564 21.6251 294.724L20.2108 296.138C21.2964 297.223 22.7556 298.11 24.5397 298.823L25.2825 296.966ZM21.632 294.731C20.7203 293.801 19.9441 292.879 19.2994 291.965L17.6654 293.119C18.3801 294.131 19.2276 295.135 20.2039 296.131L21.632 294.731ZM19.3016 291.969C18.6646 291.059 18.2802 290.344 18.0973 289.811L16.2054 290.459C16.4756 291.247 16.9787 292.138 17.6632 293.116L19.3016 291.969ZM18.0919 289.795L17.7237 288.776L15.8426 289.455L16.2108 290.475L18.0919 289.795ZM16.4475 288.173L1.66434 293.441L2.33564 295.325L17.1188 290.057L16.4475 288.173ZM2.99999 294.383L2.99999 283.027L0.999988 283.027L0.999987 294.383L2.99999 294.383ZM2.31559 283.975L15.088 279.727L14.4569 277.83L1.68439 282.078L2.31559 283.975ZM15.7724 278.779L15.7724 272.69L13.7724 272.69L13.7724 278.779L15.7724 278.779ZM14.9765 271.711L2.20403 269.049L1.79595 271.006L14.5684 273.669L14.9765 271.711ZM2.99999 270.028L2.99999 259.011L0.999989 259.011L0.999988 270.028L2.99999 270.028ZM23.6279 282.375C23.6279 283.993 24.1259 285.443 25.1228 286.683L26.6818 285.43C25.9795 284.556 25.6279 283.552 25.6279 282.375L23.6279 282.375ZM25.1228 286.683C26.1688 287.985 27.5829 288.643 29.2724 288.643L29.2724 286.643C28.1678 286.643 27.3351 286.243 26.6818 285.43L25.1228 286.683ZM29.2724 288.643C30.5098 288.643 31.5845 288.181 32.4345 287.282L30.9815 285.908C30.5099 286.406 29.9609 286.643 29.2724 286.643L29.2724 288.643ZM32.4151 287.302C33.3155 286.402 33.7275 285.223 33.7275 283.876L31.7275 283.876C31.7275 284.795 31.4598 285.429 31.0009 285.888L32.4151 287.302ZM33.7275 283.876L33.7275 276.513L31.7275 276.513L31.7275 283.876L33.7275 283.876ZM32.9361 275.535L24.8365 273.807L24.4193 275.763L32.5189 277.491L32.9361 275.535ZM23.6279 274.785L23.6279 282.375L25.6279 282.375L25.6279 274.785L23.6279 274.785ZM11.0908 324.454L10.2402 324.979L10.2428 324.984L11.0908 324.454ZM16.5 324.397L15.6747 323.832L15.6701 323.839L16.5 324.397ZM21.0312 315.901L20.169 315.394L20.1663 315.399L21.0312 315.901ZM24.6562 311.993L24.0807 311.175L24.074 311.18L24.6562 311.993ZM39.6943 314.966L38.9446 315.628L38.9449 315.628L39.6943 314.966ZM43.1494 332.723L42.1799 332.478L42.1773 332.488L43.1494 332.723ZM41.7051 336.745L40.8271 336.266L40.8236 336.272L41.7051 336.745ZM40.0058 339.52L39.1921 338.939L39.1875 338.945L39.1829 338.952L40.0058 339.52ZM38.5332 341.163L37.9621 340.342L37.8996 340.385L37.8444 340.437L38.5332 341.163ZM37.9668 341.701L37.2096 342.354L37.8949 343.148L38.6555 342.426L37.9668 341.701ZM31.5664 334.281L30.9262 333.512L30.1448 334.164L30.8092 334.934L31.5664 334.281ZM33.6621 331.08L32.7589 330.651L32.7533 330.663L33.6621 331.08ZM28.876 324.369L28.0485 323.807L28.0439 323.814L28.876 324.369ZM26.8086 328.305L25.8888 327.913L25.8848 327.922L26.8086 328.305ZM24.543 332.893L23.676 332.394L23.6734 332.399L24.543 332.893ZM20.9746 336.773L20.4011 335.954L20.3943 335.958L20.9746 336.773ZM5.00194 333.714L4.25527 334.379L4.25752 334.382L5.00194 333.714ZM1.57518 314.938L2.54241 315.192L2.54415 315.185L1.57518 314.938ZM3.30272 310.293L2.42791 309.809L2.42483 309.815L3.30272 310.293ZM7.09764 304.969L7.76022 305.718L7.77548 305.705L7.79017 305.691L7.09764 304.969ZM7.80565 304.289L8.56389 303.637L7.87517 302.837L7.11312 303.568L7.80565 304.289ZM14.2344 311.766L14.9415 312.473L15.5973 311.817L14.9926 311.114L14.2344 311.766ZM13.8096 312.191L13.1024 311.484L13.0839 311.502L13.0663 311.522L13.8096 312.191ZM12.8183 313.38L12.0422 312.75L12.0375 312.756L12.0329 312.761L12.8183 313.38ZM11.5156 315.306L10.6474 314.81L10.642 314.819L10.6368 314.829L11.5156 315.306ZM9.12792 320.687C9.12792 322.307 9.48216 323.753 10.2402 324.979L11.9414 323.928C11.4156 323.077 11.1279 322.012 11.1279 320.687L9.12792 320.687ZM10.2428 324.984C11.1111 326.373 12.4852 327.039 14.1777 327.039L14.1777 325.039C13.076 325.039 12.3921 324.649 11.9388 323.924L10.2428 324.984ZM14.1777 327.039C15.4901 327.039 16.5264 326.15 17.3298 324.955L15.6701 323.839C15.0009 324.834 14.489 325.039 14.1777 325.039L14.1777 327.039ZM17.3253 324.962C18.1016 323.827 18.846 322.471 19.5619 320.904L17.7427 320.073C17.0615 321.564 16.371 322.814 15.6747 323.832L17.3253 324.962ZM19.5619 320.904C20.2463 319.406 21.0243 317.905 21.8962 316.403L20.1663 315.399C19.2635 316.955 18.4554 318.513 17.7427 320.073L19.5619 320.904ZM21.8934 316.407C22.7048 315.026 23.8144 313.825 25.2384 312.806L24.074 311.18C22.4395 312.35 21.1324 313.754 20.169 315.394L21.8934 316.407ZM25.2317 312.81C26.5838 311.859 28.127 311.378 29.8955 311.378L29.8955 309.378C27.7369 309.378 25.7873 309.974 24.0807 311.175L25.2317 312.81ZM29.8955 311.378C33.4211 311.378 36.4207 312.769 38.9446 315.628L40.444 314.304C37.5682 311.046 34.0353 309.378 29.8955 309.378L29.8955 311.378ZM38.9449 315.628C41.4607 318.476 42.7724 322.389 42.7724 327.484L44.7724 327.484C44.7724 322.043 43.3654 317.611 40.4438 314.304L38.9449 315.628ZM42.7724 327.484C42.7724 329.259 42.5732 330.922 42.1799 332.478L44.1189 332.968C44.5563 331.238 44.7724 329.409 44.7724 327.484L42.7724 327.484ZM42.1773 332.488C41.7934 334.079 41.3379 335.329 40.8272 336.266L42.583 337.223C43.205 336.083 43.7124 334.652 44.1215 332.958L42.1773 332.488ZM40.8236 336.272C40.273 337.3 39.7287 338.187 39.1921 338.939L40.8196 340.101C41.4158 339.266 42.0043 338.304 42.5865 337.217L40.8236 336.272ZM39.1829 338.952C38.657 339.713 38.2478 340.143 37.9621 340.342L39.1043 341.983C39.687 341.578 40.2596 340.912 40.8287 340.088L39.1829 338.952ZM37.8444 340.437L37.278 340.976L38.6555 342.426L39.2219 341.888L37.8444 340.437ZM38.724 341.047L32.3236 333.628L30.8092 334.934L37.2096 342.354L38.724 341.047ZM32.2066 335.049C32.5066 334.799 32.828 334.448 33.1649 334.032L31.6104 332.774C31.3055 333.15 31.0793 333.385 30.9262 333.512L32.2066 335.049ZM33.1649 334.032C33.574 333.527 34.0438 332.646 34.5709 331.498L32.7533 330.663C32.2231 331.818 31.8433 332.486 31.6104 332.774L33.1649 334.032ZM34.5652 331.51C35.1729 330.232 35.4834 328.905 35.4834 327.54L33.4834 327.54C33.4834 328.592 33.2463 329.626 32.759 330.651L34.5652 331.51ZM35.4834 327.54C35.4834 325.991 35.1263 324.627 34.3307 323.528L32.7103 324.7C33.1986 325.375 33.4834 326.296 33.4834 327.54L35.4834 327.54ZM34.3307 323.528C33.54 322.435 32.4775 321.783 31.1699 321.783L31.1699 323.783C31.7126 323.783 32.2171 324.018 32.7103 324.7L34.3307 323.528ZM31.1699 321.783C29.8692 321.783 28.8416 322.638 28.0485 323.807L29.7034 324.93C30.3452 323.984 30.8469 323.783 31.1699 323.783L31.1699 321.783ZM28.0439 323.814C27.2839 324.954 26.567 326.324 25.8889 327.913L27.7283 328.698C28.3717 327.19 29.0331 325.936 29.708 324.923L28.0439 323.814ZM25.8848 327.922C25.26 329.429 24.524 330.92 23.676 332.394L25.4099 333.391C26.2989 331.845 27.0733 330.277 27.7323 328.688L25.8848 327.922ZM23.6734 332.399C22.8818 333.793 21.7959 334.977 20.4011 335.954L21.5481 337.592C23.1741 336.454 24.4672 335.051 25.4125 333.387L23.6734 332.399ZM20.3943 335.958C19.0653 336.905 17.5249 337.387 15.7353 337.387L15.7353 339.387C17.9106 339.387 19.8631 338.793 21.5549 337.587L20.3943 335.958ZM15.7353 337.387C11.6445 337.387 8.34205 335.94 5.74635 333.047L4.25752 334.382C7.25037 337.719 11.1035 339.387 15.7353 339.387L15.7353 337.387ZM5.7486 333.049C3.18342 330.17 1.83885 326.112 1.83885 320.744L-0.161147 320.744C-0.161147 326.439 1.26968 331.028 4.25528 334.379L5.7486 333.049ZM1.83885 320.744C1.83885 318.825 2.07404 316.975 2.54238 315.192L0.60798 314.684C0.0945562 316.639 -0.161147 318.66 -0.161147 320.744L1.83885 320.744ZM2.54415 315.185C3.00215 313.39 3.55182 311.925 4.18062 310.772L2.42483 309.815C1.69424 311.154 1.09223 312.786 0.606214 314.691L2.54415 315.185ZM4.17751 310.778C4.84184 309.578 5.50078 308.527 6.15332 307.621L4.53025 306.452C3.82342 307.434 3.12297 308.554 2.42793 309.809L4.17751 310.778ZM6.15332 307.621C6.81748 306.698 7.35191 306.079 7.76022 305.718L6.43507 304.22C5.86161 304.727 5.22547 305.487 4.53025 306.452L6.15332 307.621ZM7.79017 305.691L8.49818 305.011L7.11312 303.568L6.40511 304.248L7.79017 305.691ZM7.04741 304.941L13.4761 312.418L14.9926 311.114L8.56389 303.637L7.04741 304.941ZM13.5273 311.059C13.527 311.059 13.5268 311.059 13.5266 311.06C13.5264 311.06 13.5261 311.06 13.5259 311.06C13.5257 311.06 13.5255 311.061 13.5253 311.061C13.525 311.061 13.5248 311.061 13.5246 311.062C13.5244 311.062 13.5241 311.062 13.5239 311.062C13.5237 311.062 13.5235 311.063 13.5233 311.063C13.523 311.063 13.5228 311.063 13.5226 311.064C13.5224 311.064 13.5221 311.064 13.5219 311.064C13.5217 311.064 13.5215 311.065 13.5213 311.065C13.521 311.065 13.5208 311.065 13.5206 311.066C13.5204 311.066 13.5201 311.066 13.5199 311.066C13.5197 311.066 13.5195 311.067 13.5192 311.067C13.519 311.067 13.5188 311.067 13.5186 311.068C13.5183 311.068 13.5181 311.068 13.5179 311.068C13.5177 311.068 13.5174 311.069 13.5172 311.069C13.517 311.069 13.5168 311.069 13.5165 311.07C13.5163 311.07 13.5161 311.07 13.5159 311.07C13.5157 311.071 13.5154 311.071 13.5152 311.071C13.515 311.071 13.5148 311.071 13.5145 311.072C13.5143 311.072 13.5141 311.072 13.5138 311.072C13.5136 311.073 13.5134 311.073 13.5132 311.073C13.5129 311.073 13.5127 311.073 13.5125 311.074C13.5123 311.074 13.512 311.074 13.5118 311.074C13.5116 311.075 13.5114 311.075 13.5111 311.075C13.5109 311.075 13.5107 311.075 13.5105 311.076C13.5102 311.076 13.51 311.076 13.5098 311.076C13.5095 311.077 13.5093 311.077 13.5091 311.077C13.5089 311.077 13.5086 311.078 13.5084 311.078C13.5082 311.078 13.508 311.078 13.5077 311.078C13.5075 311.079 13.5073 311.079 13.5071 311.079C13.5068 311.079 13.5066 311.08 13.5064 311.08C13.5061 311.08 13.5059 311.08 13.5057 311.08C13.5055 311.081 13.5052 311.081 13.505 311.081C13.5048 311.081 13.5045 311.082 13.5043 311.082C13.5041 311.082 13.5039 311.082 13.5036 311.083C13.5034 311.083 13.5032 311.083 13.5029 311.083C13.5027 311.083 13.5025 311.084 13.5023 311.084C13.502 311.084 13.5018 311.084 13.5016 311.085C13.5013 311.085 13.5011 311.085 13.5009 311.085C13.5006 311.086 13.5004 311.086 13.5002 311.086C13.5 311.086 13.4997 311.086 13.4995 311.087C13.4993 311.087 13.499 311.087 13.4988 311.087C13.4986 311.088 13.4983 311.088 13.4981 311.088C13.4979 311.088 13.4977 311.089 13.4974 311.089C13.4972 311.089 13.497 311.089 13.4967 311.089C13.4965 311.09 13.4963 311.09 13.496 311.09C13.4958 311.09 13.4956 311.091 13.4953 311.091C13.4951 311.091 13.4949 311.091 13.4946 311.092C13.4944 311.092 13.4942 311.092 13.494 311.092C13.4937 311.092 13.4935 311.093 13.4933 311.093C13.493 311.093 13.4928 311.093 13.4926 311.094C13.4923 311.094 13.4921 311.094 13.4919 311.094C13.4916 311.095 13.4914 311.095 13.4912 311.095C13.4909 311.095 13.4907 311.095 13.4905 311.096C13.4902 311.096 13.49 311.096 13.4898 311.096C13.4895 311.097 13.4893 311.097 13.4891 311.097C13.4888 311.097 13.4886 311.098 13.4884 311.098C13.4881 311.098 13.4879 311.098 13.4877 311.099C13.4874 311.099 13.4872 311.099 13.487 311.099C13.4867 311.099 13.4865 311.1 13.4863 311.1C13.486 311.1 13.4858 311.1 13.4856 311.101C13.4853 311.101 13.4851 311.101 13.4849 311.101C13.4846 311.102 13.4844 311.102 13.4842 311.102C13.4839 311.102 13.4837 311.102 13.4834 311.103C13.4832 311.103 13.483 311.103 13.4827 311.103C13.4825 311.104 13.4823 311.104 13.482 311.104C13.4818 311.104 13.4816 311.105 13.4813 311.105C13.4811 311.105 13.4809 311.105 13.4806 311.106C13.4804 311.106 13.4801 311.106 13.4799 311.106C13.4797 311.107 13.4794 311.107 13.4792 311.107C13.479 311.107 13.4787 311.107 13.4785 311.108C13.4783 311.108 13.478 311.108 13.4778 311.108C13.4775 311.109 13.4773 311.109 13.4771 311.109C13.4768 311.109 13.4766 311.11 13.4764 311.11C13.4761 311.11 13.4759 311.11 13.4756 311.111C13.4754 311.111 13.4752 311.111 13.4749 311.111C13.4747 311.111 13.4745 311.112 13.4742 311.112C13.474 311.112 13.4737 311.112 13.4735 311.113C13.4733 311.113 13.473 311.113 13.4728 311.113C13.4726 311.114 13.4723 311.114 13.4721 311.114C13.4718 311.114 13.4716 311.115 13.4714 311.115C13.4711 311.115 13.4709 311.115 13.4706 311.116C13.4704 311.116 13.4702 311.116 13.4699 311.116C13.4697 311.116 13.4694 311.117 13.4692 311.117C13.469 311.117 13.4687 311.117 13.4685 311.118C13.4683 311.118 13.468 311.118 13.4678 311.118C13.4675 311.119 13.4673 311.119 13.4671 311.119C13.4668 311.119 13.4666 311.12 13.4663 311.12C13.4661 311.12 13.4659 311.12 13.4656 311.121C13.4654 311.121 13.4651 311.121 13.4649 311.121C13.4647 311.122 13.4644 311.122 13.4642 311.122C13.4639 311.122 13.4637 311.122 13.4634 311.123C13.4632 311.123 13.463 311.123 13.4627 311.123C13.4625 311.124 13.4622 311.124 13.462 311.124C13.4618 311.124 13.4615 311.125 13.4613 311.125C13.461 311.125 13.4608 311.125 13.4605 311.126C13.4603 311.126 13.4601 311.126 13.4598 311.126C13.4596 311.127 13.4593 311.127 13.4591 311.127C13.4589 311.127 13.4586 311.128 13.4584 311.128C13.4581 311.128 13.4579 311.128 13.4576 311.129C13.4574 311.129 13.4572 311.129 13.4569 311.129C13.4567 311.13 13.4564 311.13 13.4562 311.13C13.4559 311.13 13.4557 311.13 13.4554 311.131C13.4552 311.131 13.455 311.131 13.4547 311.131C13.4545 311.132 13.4542 311.132 13.454 311.132C13.4537 311.132 13.4535 311.133 13.4533 311.133C13.453 311.133 13.4528 311.133 13.4525 311.134C13.4523 311.134 13.452 311.134 13.4518 311.134C13.4515 311.135 13.4513 311.135 13.4511 311.135C13.4508 311.135 13.4506 311.136 13.4503 311.136C13.4501 311.136 13.4498 311.136 13.4496 311.137C13.4493 311.137 13.4491 311.137 13.4488 311.137C13.4486 311.138 13.4484 311.138 13.4481 311.138C13.4479 311.138 13.4476 311.139 13.4474 311.139C13.4471 311.139 13.4469 311.139 13.4466 311.14C13.4464 311.14 13.4461 311.14 13.4459 311.14C13.4456 311.141 13.4454 311.141 13.4452 311.141C13.4449 311.141 13.4447 311.142 13.4444 311.142C13.4442 311.142 13.4439 311.142 13.4437 311.142C13.4434 311.143 13.4432 311.143 13.4429 311.143C13.4427 311.143 13.4424 311.144 13.4422 311.144C13.4419 311.144 13.4417 311.144 13.4415 311.145C13.4412 311.145 13.441 311.145 13.4407 311.145C13.4405 311.146 13.4402 311.146 13.44 311.146C13.4397 311.146 13.4395 311.147 13.4392 311.147C13.439 311.147 13.4387 311.147 13.4385 311.148C13.4382 311.148 13.438 311.148 13.4377 311.148C13.4375 311.149 13.4372 311.149 13.437 311.149C13.4367 311.149 13.4365 311.15 13.4362 311.15C13.436 311.15 13.4357 311.15 13.4355 311.151C13.4352 311.151 13.435 311.151 13.4347 311.151C13.4345 311.152 13.4342 311.152 13.434 311.152C13.4337 311.152 13.4335 311.153 13.4332 311.153C13.433 311.153 13.4327 311.153 13.4325 311.154C13.4322 311.154 13.432 311.154 13.4317 311.154C13.4315 311.155 13.4312 311.155 13.431 311.155C13.4307 311.155 13.4305 311.156 13.4302 311.156C13.43 311.156 13.4297 311.156 13.4295 311.157C13.4292 311.157 13.429 311.157 13.4287 311.157C13.4285 311.158 13.4282 311.158 13.428 311.158C13.4277 311.158 13.4275 311.159 13.4272 311.159C13.427 311.159 13.4267 311.159 13.4265 311.16C13.4262 311.16 13.426 311.16 13.4257 311.16C13.4255 311.161 13.4252 311.161 13.425 311.161C13.4247 311.161 13.4244 311.162 13.4242 311.162C13.4239 311.162 13.4237 311.162 13.4234 311.163C13.4232 311.163 13.4229 311.163 13.4227 311.163C13.4224 311.164 13.4222 311.164 13.4219 311.164C13.4217 311.164 13.4214 311.165 13.4212 311.165C13.4209 311.165 13.4207 311.166 13.4204 311.166C13.4201 311.166 13.4199 311.166 13.4196 311.167C13.4194 311.167 13.4191 311.167 13.4189 311.167C13.4186 311.168 13.4184 311.168 13.4181 311.168C13.4179 311.168 13.4176 311.169 13.4173 311.169C13.4171 311.169 13.4168 311.169 13.4166 311.17C13.4163 311.17 13.4161 311.17 13.4158 311.17C13.4156 311.171 13.4153 311.171 13.4151 311.171C13.4148 311.171 13.4145 311.172 13.4143 311.172C13.414 311.172 13.4138 311.172 13.4135 311.173C13.4133 311.173 13.413 311.173 13.4128 311.173C13.4125 311.174 13.4122 311.174 13.412 311.174C13.4117 311.174 13.4115 311.175 13.4112 311.175C13.411 311.175 13.4107 311.175 13.4105 311.176C13.4102 311.176 13.4099 311.176 13.4097 311.176C13.4094 311.177 13.4092 311.177 13.4089 311.177C13.4087 311.178 13.4084 311.178 13.4081 311.178C13.4079 311.178 13.4076 311.179 13.4074 311.179C13.4071 311.179 13.4069 311.179 13.4066 311.18C13.4063 311.18 13.4061 311.18 13.4058 311.18C13.4056 311.181 13.4053 311.181 13.405 311.181C13.4048 311.181 13.4045 311.182 13.4043 311.182C13.404 311.182 13.4038 311.182 13.4035 311.183C13.4032 311.183 13.403 311.183 13.4027 311.183C13.4025 311.184 13.4022 311.184 13.4019 311.184C13.4017 311.184 13.4014 311.185 13.4012 311.185C13.4009 311.185 13.4007 311.186 13.4004 311.186C13.4001 311.186 13.3999 311.186 13.3996 311.187C13.3994 311.187 13.3991 311.187 13.3988 311.187C13.3986 311.188 13.3983 311.188 13.3981 311.188C13.3978 311.188 13.3975 311.189 13.3973 311.189C13.397 311.189 13.3968 311.189 13.3965 311.19C13.3962 311.19 13.396 311.19 13.3957 311.19C13.3955 311.191 13.3952 311.191 13.3949 311.191C13.3947 311.191 13.3944 311.192 13.3942 311.192C13.3939 311.192 13.3936 311.193 13.3934 311.193C13.3931 311.193 13.3928 311.193 13.3926 311.194C13.3923 311.194 13.3921 311.194 13.3918 311.194C13.3915 311.195 13.3913 311.195 13.391 311.195C13.3908 311.195 13.3905 311.196 13.3902 311.196C13.39 311.196 13.3897 311.196 13.3894 311.197C13.3892 311.197 13.3889 311.197 13.3887 311.198C13.3884 311.198 13.3881 311.198 13.3879 311.198C13.3876 311.199 13.3873 311.199 13.3871 311.199C13.3868 311.199 13.3866 311.2 13.3863 311.2C13.386 311.2 13.3858 311.2 13.3855 311.201C13.3852 311.201 13.385 311.201 13.3847 311.201C13.3844 311.202 13.3842 311.202 13.3839 311.202C13.3837 311.203 13.3834 311.203 13.3831 311.203C13.3829 311.203 13.3826 311.204 13.3823 311.204C13.3821 311.204 13.3818 311.204 13.3815 311.205C13.3813 311.205 13.381 311.205 13.3807 311.205C13.3805 311.206 13.3802 311.206 13.3799 311.206C13.3797 311.206 13.3794 311.207 13.3792 311.207C13.3789 311.207 13.3786 311.208 13.3784 311.208C13.3781 311.208 13.3778 311.208 13.3776 311.209C13.3773 311.209 13.377 311.209 13.3768 311.209C13.3765 311.21 13.3762 311.21 13.376 311.21C13.3757 311.21 13.3754 311.211 13.3752 311.211C13.3749 311.211 13.3746 311.212 13.3744 311.212C13.3741 311.212 13.3738 311.212 13.3736 311.213C13.3733 311.213 13.373 311.213 13.3728 311.213C13.3725 311.214 13.3722 311.214 13.372 311.214C13.3717 311.214 13.3714 311.215 13.3712 311.215C13.3709 311.215 13.3706 311.216 13.3704 311.216C13.3701 311.216 13.3698 311.216 13.3696 311.217C13.3693 311.217 13.369 311.217 13.3688 311.217C13.3685 311.218 13.3682 311.218 13.368 311.218C13.3677 311.218 13.3674 311.219 13.3672 311.219C13.3669 311.219 13.3666 311.22 13.3663 311.22C13.3661 311.22 13.3658 311.22 13.3655 311.221C13.3653 311.221 13.365 311.221 13.3647 311.221C13.3645 311.222 13.3642 311.222 13.3639 311.222C13.3637 311.223 13.3634 311.223 13.3631 311.223C13.3629 311.223 13.3626 311.224 13.3623 311.224C13.362 311.224 13.3618 311.224 13.3615 311.225C13.3612 311.225 13.361 311.225 13.3607 311.225C13.3604 311.226 13.3602 311.226 13.3599 311.226C13.3596 311.227 13.3593 311.227 13.3591 311.227C13.3588 311.227 13.3585 311.228 13.3583 311.228C13.358 311.228 13.3577 311.228 13.3574 311.229C13.3572 311.229 13.3569 311.229 13.3566 311.23C13.3564 311.23 13.3561 311.23 13.3558 311.23C13.3555 311.231 13.3553 311.231 13.355 311.231C13.3547 311.231 13.3545 311.232 13.3542 311.232C13.3539 311.232 13.3536 311.233 13.3534 311.233C13.3531 311.233 13.3528 311.233 13.3526 311.234C13.3523 311.234 13.352 311.234 13.3517 311.234C13.3515 311.235 13.3512 311.235 13.3509 311.235C13.3506 311.236 13.3504 311.236 13.3501 311.236C13.3498 311.236 13.3496 311.237 13.3493 311.237C13.349 311.237 13.3487 311.237 13.3485 311.238C13.3482 311.238 13.3479 311.238 13.3476 311.239C13.3474 311.239 13.3471 311.239 13.3468 311.239C13.3466 311.24 13.3463 311.24 13.346 311.24C13.3457 311.24 13.3455 311.241 13.3452 311.241C13.3449 311.241 13.3446 311.242 13.3444 311.242C13.3441 311.242 13.3438 311.242 13.3435 311.243C13.3433 311.243 13.343 311.243 13.3427 311.243C13.3424 311.244 13.3422 311.244 13.3419 311.244C13.3416 311.245 13.3413 311.245 13.3411 311.245C13.3408 311.245 13.3405 311.246 13.3402 311.246C13.34 311.246 13.3397 311.246 13.3394 311.247C13.3391 311.247 13.3389 311.247 13.3386 311.248C13.3383 311.248 13.338 311.248 13.3378 311.248C13.3375 311.249 13.3372 311.249 13.3369 311.249C13.3366 311.25 13.3364 311.25 13.3361 311.25C13.3358 311.25 13.3355 311.251 13.3353 311.251C13.335 311.251 13.3347 311.251 13.3344 311.252C13.3342 311.252 13.3339 311.252 13.3336 311.253C13.3333 311.253 13.333 311.253 13.3328 311.253C13.3325 311.254 13.3322 311.254 13.3319 311.254C13.3317 311.255 13.3314 311.255 13.3311 311.255C13.3308 311.255 13.3305 311.256 13.3303 311.256C13.33 311.256 13.3297 311.256 13.3294 311.257C13.3292 311.257 13.3289 311.257 13.3286 311.258C13.3283 311.258 13.328 311.258 13.3278 311.258C13.3275 311.259 13.3272 311.259 13.3269 311.259C13.3266 311.26 13.3264 311.26 13.3261 311.26C13.3258 311.26 13.3255 311.261 13.3253 311.261C13.325 311.261 13.3247 311.261 13.3244 311.262C13.3241 311.262 13.3239 311.262 13.3236 311.263C13.3233 311.263 13.323 311.263 13.3227 311.263C13.3225 311.264 13.3222 311.264 13.3219 311.264C13.3216 311.265 13.3213 311.265 13.3211 311.265C13.3208 311.265 13.3205 311.266 13.3202 311.266C13.3199 311.266 13.3197 311.267 13.3194 311.267C13.3191 311.267 13.3188 311.267 13.3185 311.268C13.3182 311.268 13.318 311.268 13.3177 311.268C13.3174 311.269 13.3171 311.269 13.3168 311.269C13.3166 311.27 13.3163 311.27 13.316 311.27C13.3157 311.27 13.3154 311.271 13.3151 311.271C13.3149 311.271 13.3146 311.272 13.3143 311.272C13.314 311.272 13.3137 311.272 13.3135 311.273C13.3132 311.273 13.3129 311.273 13.3126 311.274C13.3123 311.274 13.312 311.274 13.3118 311.274C13.3115 311.275 13.3112 311.275 13.3109 311.275C13.3106 311.276 13.3103 311.276 13.3101 311.276C13.3098 311.276 13.3095 311.277 13.3092 311.277C13.3089 311.277 13.3086 311.278 13.3084 311.278C13.3081 311.278 13.3078 311.278 13.3075 311.279C13.3072 311.279 13.3069 311.279 13.3067 311.28C13.3064 311.28 13.3061 311.28 13.3058 311.28C13.3055 311.281 13.3052 311.281 13.3049 311.281C13.3047 311.281 13.3044 311.282 13.3041 311.282C13.3038 311.282 13.3035 311.283 13.3032 311.283C13.303 311.283 13.3027 311.284 13.3024 311.284C13.3021 311.284 13.3018 311.284 13.3015 311.285C13.3012 311.285 13.301 311.285 13.3007 311.285C13.3004 311.286 13.3001 311.286 13.2998 311.286C13.2995 311.287 13.2992 311.287 13.299 311.287C13.2987 311.288 13.2984 311.288 13.2981 311.288C13.2978 311.288 13.2975 311.289 13.2972 311.289C13.297 311.289 13.2967 311.289 13.2964 311.29C13.2961 311.29 13.2958 311.29 13.2955 311.291C13.2952 311.291 13.2949 311.291 13.2947 311.292C13.2944 311.292 13.2941 311.292 13.2938 311.292C13.2935 311.293 13.2932 311.293 13.2929 311.293C13.2926 311.294 13.2924 311.294 13.2921 311.294C13.2918 311.294 13.2915 311.295 13.2912 311.295C13.2909 311.295 13.2906 311.296 13.2903 311.296C13.2901 311.296 13.2898 311.296 13.2895 311.297C13.2892 311.297 13.2889 311.297 13.2886 311.298C13.2883 311.298 13.288 311.298 13.2877 311.298C13.2875 311.299 13.2872 311.299 13.2869 311.299C13.2866 311.3 13.2863 311.3 13.286 311.3C13.2857 311.3 13.2854 311.301 13.2851 311.301C13.2849 311.301 13.2846 311.302 13.2843 311.302C13.284 311.302 13.2837 311.302 13.2834 311.303C13.2831 311.303 13.2828 311.303 13.2825 311.304C13.2822 311.304 13.282 311.304 13.2817 311.305C13.2814 311.305 13.2811 311.305 13.2808 311.305C13.2805 311.306 13.2802 311.306 13.2799 311.306C13.2796 311.307 13.2793 311.307 13.279 311.307C13.2788 311.307 13.2785 311.308 13.2782 311.308C13.2779 311.308 13.2776 311.309 13.2773 311.309C13.277 311.309 13.2767 311.309 13.2764 311.31C13.2761 311.31 13.2758 311.31 13.2755 311.311C13.2753 311.311 13.275 311.311 13.2747 311.311C13.2744 311.312 13.2741 311.312 13.2738 311.312C13.2735 311.313 13.2732 311.313 13.2729 311.313C13.2726 311.314 13.2723 311.314 13.272 311.314C13.2717 311.314 13.2715 311.315 13.2712 311.315C13.2709 311.315 13.2706 311.316 13.2703 311.316C13.27 311.316 13.2697 311.316 13.2694 311.317C13.2691 311.317 13.2688 311.317 13.2685 311.318C13.2682 311.318 13.2679 311.318 13.2676 311.319C13.2673 311.319 13.2671 311.319 13.2668 311.319C13.2665 311.32 13.2662 311.32 13.2659 311.32C13.2656 311.321 13.2653 311.321 13.265 311.321C13.2647 311.321 13.2644 311.322 13.2641 311.322C13.2638 311.322 13.2635 311.323 13.2632 311.323C13.2629 311.323 13.2626 311.324 13.2623 311.324C13.262 311.324 13.2618 311.324 13.2615 311.325C13.2612 311.325 13.2609 311.325 13.2606 311.326C13.2603 311.326 13.26 311.326 13.2597 311.326C13.2594 311.327 13.2591 311.327 13.2588 311.327C13.2585 311.328 13.2582 311.328 13.2579 311.328C13.2576 311.329 13.2573 311.329 13.257 311.329C13.2567 311.329 13.2564 311.33 13.2561 311.33C13.2558 311.33 13.2555 311.331 13.2552 311.331C13.2549 311.331 13.2546 311.332 13.2543 311.332C13.254 311.332 13.2538 311.332 13.2535 311.333C13.2532 311.333 13.2529 311.333 13.2526 311.334C13.2523 311.334 13.252 311.334 13.2517 311.335C13.2514 311.335 13.2511 311.335 13.2508 311.335C13.2505 311.336 13.2502 311.336 13.2499 311.336C13.2496 311.337 13.2493 311.337 13.249 311.337C13.2487 311.337 13.2484 311.338 13.2481 311.338C13.2478 311.338 13.2475 311.339 13.2472 311.339C13.2469 311.339 13.2466 311.34 13.2463 311.34C13.246 311.34 13.2457 311.34 13.2454 311.341C13.2451 311.341 13.2448 311.341 13.2445 311.342C13.2442 311.342 13.2439 311.342 13.2436 311.343C13.2433 311.343 13.243 311.343 13.2427 311.343C13.2424 311.344 13.2421 311.344 13.2418 311.344C13.2415 311.345 13.2412 311.345 13.2409 311.345C13.2406 311.346 13.2403 311.346 13.24 311.346C13.2397 311.346 13.2394 311.347 13.2391 311.347C13.2388 311.347 13.2385 311.348 13.2382 311.348C13.2379 311.348 13.2376 311.349 13.2373 311.349C13.237 311.349 13.2367 311.349 13.2364 311.35C13.2361 311.35 13.2358 311.35 13.2355 311.351C13.2352 311.351 13.2349 311.351 13.2346 311.352C13.2343 311.352 13.234 311.352 13.2337 311.353C13.2334 311.353 13.2331 311.353 13.2328 311.353C13.2325 311.354 13.2322 311.354 13.2319 311.354C13.2316 311.355 13.2313 311.355 13.231 311.355C13.2306 311.356 13.2303 311.356 13.23 311.356C13.2297 311.356 13.2294 311.357 13.2291 311.357C13.2288 311.357 13.2285 311.358 13.2282 311.358C13.2279 311.358 13.2276 311.359 13.2273 311.359C13.227 311.359 13.2267 311.359 13.2264 311.36C13.2261 311.36 13.2258 311.36 13.2255 311.361C13.2252 311.361 13.2249 311.361 13.2246 311.362C13.2243 311.362 13.224 311.362 13.2237 311.362C13.2234 311.363 13.2231 311.363 13.2228 311.363C13.2224 311.364 13.2221 311.364 13.2218 311.364C13.2215 311.365 13.2212 311.365 13.2209 311.365C13.2206 311.366 13.2203 311.366 13.22 311.366C13.2197 311.366 13.2194 311.367 13.2191 311.367C13.2188 311.367 13.2185 311.368 13.2182 311.368C13.2179 311.368 13.2176 311.369 13.2173 311.369C13.217 311.369 13.2166 311.37 13.2163 311.37C13.216 311.37 13.2157 311.37 13.2154 311.371C13.2151 311.371 13.2148 311.371 13.2145 311.372C13.2142 311.372 13.2139 311.372 13.2136 311.373C13.2133 311.373 13.213 311.373 13.2127 311.374C13.2124 311.374 13.212 311.374 13.2117 311.374C13.2114 311.375 13.2111 311.375 13.2108 311.375C13.2105 311.376 13.2102 311.376 13.2099 311.376C13.2096 311.377 13.2093 311.377 13.209 311.377C13.2087 311.378 13.2084 311.378 13.208 311.378C13.2077 311.378 13.2074 311.379 13.2071 311.379C13.2068 311.379 13.2065 311.38 13.2062 311.38C13.2059 311.38 13.2056 311.381 13.2053 311.381C13.205 311.381 13.2047 311.381 13.2043 311.382C13.204 311.382 13.2037 311.382 13.2034 311.383C13.2031 311.383 13.2028 311.383 13.2025 311.384C13.2022 311.384 13.2019 311.384 13.2016 311.385C13.2013 311.385 13.2009 311.385 13.2006 311.386C13.2003 311.386 13.2 311.386 13.1997 311.386C13.1994 311.387 13.1991 311.387 13.1988 311.387C13.1985 311.388 13.1982 311.388 13.1978 311.388C13.1975 311.389 13.1972 311.389 13.1969 311.389C13.1966 311.39 13.1963 311.39 13.196 311.39C13.1957 311.391 13.1954 311.391 13.195 311.391C13.1947 311.391 13.1944 311.392 13.1941 311.392C13.1938 311.392 13.1935 311.393 13.1932 311.393C13.1929 311.393 13.1926 311.394 13.1922 311.394C13.1919 311.394 13.1916 311.395 13.1913 311.395C13.191 311.395 13.1907 311.395 13.1904 311.396C13.1901 311.396 13.1897 311.396 13.1894 311.397C13.1891 311.397 13.1888 311.397 13.1885 311.398C13.1882 311.398 13.1879 311.398 13.1876 311.399C13.1872 311.399 13.1869 311.399 13.1866 311.4C13.1863 311.4 13.186 311.4 13.1857 311.4C13.1854 311.401 13.1851 311.401 13.1847 311.401C13.1844 311.402 13.1841 311.402 13.1838 311.402C13.1835 311.403 13.1832 311.403 13.1829 311.403C13.1825 311.404 13.1822 311.404 13.1819 311.404C13.1816 311.405 13.1813 311.405 13.181 311.405C13.1807 311.406 13.1803 311.406 13.18 311.406C13.1797 311.406 13.1794 311.407 13.1791 311.407C13.1788 311.407 13.1785 311.408 13.1781 311.408C13.1778 311.408 13.1775 311.409 13.1772 311.409C13.1769 311.409 13.1766 311.41 13.1762 311.41C13.1759 311.41 13.1756 311.411 13.1753 311.411C13.175 311.411 13.1747 311.411 13.1744 311.412C13.174 311.412 13.1737 311.412 13.1734 311.413C13.1731 311.413 13.1728 311.413 13.1725 311.414C13.1721 311.414 13.1718 311.414 13.1715 311.415C13.1712 311.415 13.1709 311.415 13.1706 311.416C13.1702 311.416 13.1699 311.416 13.1696 311.417C13.1693 311.417 13.169 311.417 13.1687 311.418C13.1683 311.418 13.168 311.418 13.1677 311.418C13.1674 311.419 13.1671 311.419 13.1667 311.419C13.1664 311.42 13.1661 311.42 13.1658 311.42C13.1655 311.421 13.1652 311.421 13.1648 311.421C13.1645 311.422 13.1642 311.422 13.1639 311.422C13.1636 311.423 13.1633 311.423 13.1629 311.423C13.1626 311.424 13.1623 311.424 13.162 311.424C13.1617 311.424 13.1613 311.425 13.161 311.425C13.1607 311.425 13.1604 311.426 13.1601 311.426C13.1597 311.426 13.1594 311.427 13.1591 311.427C13.1588 311.427 13.1585 311.428 13.1581 311.428C13.1578 311.428 13.1575 311.429 13.1572 311.429C13.1569 311.429 13.1565 311.43 13.1562 311.43C13.1559 311.43 13.1556 311.431 13.1553 311.431C13.155 311.431 13.1546 311.432 13.1543 311.432C13.154 311.432 13.1537 311.432 13.1533 311.433C13.153 311.433 13.1527 311.433 13.1524 311.434C13.1521 311.434 13.1517 311.434 13.1514 311.435C13.1511 311.435 13.1508 311.435 13.1505 311.436C13.1501 311.436 13.1498 311.436 13.1495 311.437C13.1492 311.437 13.1489 311.437 13.1485 311.438C13.1482 311.438 13.1479 311.438 13.1476 311.439C13.1472 311.439 13.1469 311.439 13.1466 311.44C13.1463 311.44 13.146 311.44 13.1456 311.441C13.1453 311.441 13.145 311.441 13.1447 311.441C13.1443 311.442 13.144 311.442 13.1437 311.442C13.1434 311.443 13.143 311.443 13.1427 311.443C13.1424 311.444 13.1421 311.444 13.1418 311.444C13.1414 311.445 13.1411 311.445 13.1408 311.445C13.1405 311.446 13.1401 311.446 13.1398 311.446C13.1395 311.447 13.1392 311.447 13.1388 311.447C13.1385 311.448 13.1382 311.448 13.1379 311.448C13.1375 311.449 13.1372 311.449 13.1369 311.449C13.1366 311.45 13.1363 311.45 13.1359 311.45C13.1356 311.451 13.1353 311.451 13.135 311.451C13.1346 311.452 13.1343 311.452 13.134 311.452C13.1337 311.453 13.1333 311.453 13.133 311.453C13.1327 311.453 13.1324 311.454 13.132 311.454C13.1317 311.454 13.1314 311.455 13.1311 311.455C13.1307 311.455 13.1304 311.456 13.1301 311.456C13.1297 311.456 13.1294 311.457 13.1291 311.457C13.1288 311.457 13.1284 311.458 13.1281 311.458C13.1278 311.458 13.1275 311.459 13.1271 311.459C13.1268 311.459 13.1265 311.46 13.1262 311.46C13.1258 311.46 13.1255 311.461 13.1252 311.461C13.1249 311.461 13.1245 311.462 13.1242 311.462C13.1239 311.462 13.1235 311.463 13.1232 311.463C13.1229 311.463 13.1226 311.464 13.1222 311.464C13.1219 311.464 13.1216 311.465 13.1213 311.465C13.1209 311.465 13.1206 311.466 13.1203 311.466C13.1199 311.466 13.1196 311.467 13.1193 311.467C13.119 311.467 13.1186 311.468 13.1183 311.468C13.118 311.468 13.1176 311.469 13.1173 311.469C13.117 311.469 13.1167 311.47 13.1163 311.47C13.116 311.47 13.1157 311.47 13.1153 311.471C13.115 311.471 13.1147 311.471 13.1144 311.472C13.114 311.472 13.1137 311.472 13.1134 311.473C13.113 311.473 13.1127 311.473 13.1124 311.474C13.112 311.474 13.1117 311.474 13.1114 311.475C13.1111 311.475 13.1107 311.475 13.1104 311.476C13.1101 311.476 13.1097 311.476 13.1094 311.477C13.1091 311.477 13.1087 311.477 13.1084 311.478C13.1081 311.478 13.1078 311.478 13.1074 311.479C13.1071 311.479 13.1068 311.479 13.1064 311.48C13.1061 311.48 13.1058 311.48 13.1054 311.481C13.1051 311.481 13.1048 311.481 13.1044 311.482C13.1041 311.482 13.1038 311.482 13.1034 311.483C13.1031 311.483 13.1028 311.483 13.1024 311.484L14.5167 312.898C14.517 312.898 14.5173 312.897 14.5177 312.897C14.518 312.897 14.5183 312.896 14.5187 312.896C14.519 312.896 14.5193 312.895 14.5196 312.895C14.52 312.895 14.5203 312.894 14.5206 312.894C14.521 312.894 14.5213 312.893 14.5216 312.893C14.522 312.893 14.5223 312.892 14.5226 312.892C14.523 312.892 14.5233 312.891 14.5236 312.891C14.5239 312.891 14.5243 312.89 14.5246 312.89C14.5249 312.89 14.5253 312.889 14.5256 312.889C14.5259 312.889 14.5263 312.888 14.5266 312.888C14.5269 312.888 14.5272 312.887 14.5276 312.887C14.5279 312.887 14.5282 312.886 14.5286 312.886C14.5289 312.886 14.5292 312.885 14.5296 312.885C14.5299 312.885 14.5302 312.884 14.5305 312.884C14.5309 312.884 14.5312 312.883 14.5315 312.883C14.5319 312.883 14.5322 312.882 14.5325 312.882C14.5328 312.882 14.5332 312.881 14.5335 312.881C14.5338 312.881 14.5342 312.88 14.5345 312.88C14.5348 312.88 14.5351 312.879 14.5355 312.879C14.5358 312.879 14.5361 312.878 14.5364 312.878C14.5368 312.878 14.5371 312.878 14.5374 312.877C14.5378 312.877 14.5381 312.877 14.5384 312.876C14.5387 312.876 14.5391 312.876 14.5394 312.875C14.5397 312.875 14.54 312.875 14.5404 312.874C14.5407 312.874 14.541 312.874 14.5414 312.873C14.5417 312.873 14.542 312.873 14.5423 312.872C14.5427 312.872 14.543 312.872 14.5433 312.871C14.5436 312.871 14.544 312.871 14.5443 312.87C14.5446 312.87 14.5449 312.87 14.5453 312.869C14.5456 312.869 14.5459 312.869 14.5462 312.868C14.5466 312.868 14.5469 312.868 14.5472 312.867C14.5475 312.867 14.5479 312.867 14.5482 312.866C14.5485 312.866 14.5488 312.866 14.5492 312.865C14.5495 312.865 14.5498 312.865 14.5501 312.864C14.5505 312.864 14.5508 312.864 14.5511 312.863C14.5514 312.863 14.5518 312.863 14.5521 312.863C14.5524 312.862 14.5527 312.862 14.5531 312.862C14.5534 312.861 14.5537 312.861 14.554 312.861C14.5544 312.86 14.5547 312.86 14.555 312.86C14.5553 312.859 14.5556 312.859 14.556 312.859C14.5563 312.858 14.5566 312.858 14.5569 312.858C14.5573 312.857 14.5576 312.857 14.5579 312.857C14.5582 312.856 14.5586 312.856 14.5589 312.856C14.5592 312.855 14.5595 312.855 14.5598 312.855C14.5602 312.854 14.5605 312.854 14.5608 312.854C14.5611 312.853 14.5615 312.853 14.5618 312.853C14.5621 312.853 14.5624 312.852 14.5627 312.852C14.5631 312.852 14.5634 312.851 14.5637 312.851C14.564 312.851 14.5644 312.85 14.5647 312.85C14.565 312.85 14.5653 312.849 14.5656 312.849C14.566 312.849 14.5663 312.848 14.5666 312.848C14.5669 312.848 14.5672 312.847 14.5676 312.847C14.5679 312.847 14.5682 312.846 14.5685 312.846C14.5688 312.846 14.5692 312.845 14.5695 312.845C14.5698 312.845 14.5701 312.844 14.5704 312.844C14.5708 312.844 14.5711 312.844 14.5714 312.843C14.5717 312.843 14.572 312.843 14.5724 312.842C14.5727 312.842 14.573 312.842 14.5733 312.841C14.5736 312.841 14.574 312.841 14.5743 312.84C14.5746 312.84 14.5749 312.84 14.5752 312.839C14.5756 312.839 14.5759 312.839 14.5762 312.838C14.5765 312.838 14.5768 312.838 14.5771 312.837C14.5775 312.837 14.5778 312.837 14.5781 312.836C14.5784 312.836 14.5787 312.836 14.5791 312.836C14.5794 312.835 14.5797 312.835 14.58 312.835C14.5803 312.834 14.5806 312.834 14.581 312.834C14.5813 312.833 14.5816 312.833 14.5819 312.833C14.5822 312.832 14.5826 312.832 14.5829 312.832C14.5832 312.831 14.5835 312.831 14.5838 312.831C14.5841 312.83 14.5845 312.83 14.5848 312.83C14.5851 312.829 14.5854 312.829 14.5857 312.829C14.586 312.829 14.5864 312.828 14.5867 312.828C14.587 312.828 14.5873 312.827 14.5876 312.827C14.5879 312.827 14.5883 312.826 14.5886 312.826C14.5889 312.826 14.5892 312.825 14.5895 312.825C14.5898 312.825 14.5901 312.824 14.5905 312.824C14.5908 312.824 14.5911 312.824 14.5914 312.823C14.5917 312.823 14.592 312.823 14.5924 312.822C14.5927 312.822 14.593 312.822 14.5933 312.821C14.5936 312.821 14.5939 312.821 14.5942 312.82C14.5946 312.82 14.5949 312.82 14.5952 312.819C14.5955 312.819 14.5958 312.819 14.5961 312.818C14.5964 312.818 14.5968 312.818 14.5971 312.818C14.5974 312.817 14.5977 312.817 14.598 312.817C14.5983 312.816 14.5986 312.816 14.599 312.816C14.5993 312.815 14.5996 312.815 14.5999 312.815C14.6002 312.814 14.6005 312.814 14.6008 312.814C14.6011 312.813 14.6015 312.813 14.6018 312.813C14.6021 312.812 14.6024 312.812 14.6027 312.812C14.603 312.812 14.6033 312.811 14.6036 312.811C14.604 312.811 14.6043 312.81 14.6046 312.81C14.6049 312.81 14.6052 312.809 14.6055 312.809C14.6058 312.809 14.6061 312.808 14.6065 312.808C14.6068 312.808 14.6071 312.808 14.6074 312.807C14.6077 312.807 14.608 312.807 14.6083 312.806C14.6086 312.806 14.6089 312.806 14.6093 312.805C14.6096 312.805 14.6099 312.805 14.6102 312.804C14.6105 312.804 14.6108 312.804 14.6111 312.803C14.6114 312.803 14.6117 312.803 14.6121 312.803C14.6124 312.802 14.6127 312.802 14.613 312.802C14.6133 312.801 14.6136 312.801 14.6139 312.801C14.6142 312.8 14.6145 312.8 14.6148 312.8C14.6152 312.799 14.6155 312.799 14.6158 312.799C14.6161 312.799 14.6164 312.798 14.6167 312.798C14.617 312.798 14.6173 312.797 14.6176 312.797C14.6179 312.797 14.6182 312.796 14.6186 312.796C14.6189 312.796 14.6192 312.795 14.6195 312.795C14.6198 312.795 14.6201 312.794 14.6204 312.794C14.6207 312.794 14.621 312.794 14.6213 312.793C14.6216 312.793 14.622 312.793 14.6223 312.792C14.6226 312.792 14.6229 312.792 14.6232 312.791C14.6235 312.791 14.6238 312.791 14.6241 312.79C14.6244 312.79 14.6247 312.79 14.625 312.79C14.6253 312.789 14.6256 312.789 14.626 312.789C14.6263 312.788 14.6266 312.788 14.6269 312.788C14.6272 312.787 14.6275 312.787 14.6278 312.787C14.6281 312.786 14.6284 312.786 14.6287 312.786C14.629 312.786 14.6293 312.785 14.6296 312.785C14.6299 312.785 14.6302 312.784 14.6306 312.784C14.6309 312.784 14.6312 312.783 14.6315 312.783C14.6318 312.783 14.6321 312.782 14.6324 312.782C14.6327 312.782 14.633 312.782 14.6333 312.781C14.6336 312.781 14.6339 312.781 14.6342 312.78C14.6345 312.78 14.6348 312.78 14.6351 312.779C14.6354 312.779 14.6357 312.779 14.6361 312.779C14.6364 312.778 14.6367 312.778 14.637 312.778C14.6373 312.777 14.6376 312.777 14.6379 312.777C14.6382 312.776 14.6385 312.776 14.6388 312.776C14.6391 312.776 14.6394 312.775 14.6397 312.775C14.64 312.775 14.6403 312.774 14.6406 312.774C14.6409 312.774 14.6412 312.773 14.6415 312.773C14.6418 312.773 14.6421 312.772 14.6424 312.772C14.6427 312.772 14.643 312.772 14.6434 312.771C14.6437 312.771 14.644 312.771 14.6443 312.77C14.6446 312.77 14.6449 312.77 14.6452 312.769C14.6455 312.769 14.6458 312.769 14.6461 312.769C14.6464 312.768 14.6467 312.768 14.647 312.768C14.6473 312.767 14.6476 312.767 14.6479 312.767C14.6482 312.766 14.6485 312.766 14.6488 312.766C14.6491 312.766 14.6494 312.765 14.6497 312.765C14.65 312.765 14.6503 312.764 14.6506 312.764C14.6509 312.764 14.6512 312.763 14.6515 312.763C14.6518 312.763 14.6521 312.762 14.6524 312.762C14.6527 312.762 14.653 312.762 14.6533 312.761C14.6536 312.761 14.6539 312.761 14.6542 312.76C14.6545 312.76 14.6548 312.76 14.6551 312.759C14.6554 312.759 14.6557 312.759 14.656 312.759C14.6563 312.758 14.6566 312.758 14.6569 312.758C14.6572 312.757 14.6575 312.757 14.6578 312.757C14.6581 312.756 14.6584 312.756 14.6587 312.756C14.659 312.756 14.6593 312.755 14.6596 312.755C14.6599 312.755 14.6602 312.754 14.6605 312.754C14.6608 312.754 14.6611 312.753 14.6614 312.753C14.6617 312.753 14.662 312.753 14.6623 312.752C14.6626 312.752 14.6629 312.752 14.6632 312.751C14.6635 312.751 14.6638 312.751 14.6641 312.75C14.6644 312.75 14.6647 312.75 14.665 312.75C14.6653 312.749 14.6656 312.749 14.6659 312.749C14.6662 312.748 14.6665 312.748 14.6668 312.748C14.6671 312.748 14.6674 312.747 14.6677 312.747C14.668 312.747 14.6683 312.746 14.6686 312.746C14.6689 312.746 14.6692 312.745 14.6695 312.745C14.6697 312.745 14.67 312.745 14.6703 312.744C14.6706 312.744 14.6709 312.744 14.6712 312.743C14.6715 312.743 14.6718 312.743 14.6721 312.742C14.6724 312.742 14.6727 312.742 14.673 312.742C14.6733 312.741 14.6736 312.741 14.6739 312.741C14.6742 312.74 14.6745 312.74 14.6748 312.74C14.6751 312.74 14.6754 312.739 14.6757 312.739C14.676 312.739 14.6763 312.738 14.6766 312.738C14.6769 312.738 14.6771 312.737 14.6774 312.737C14.6777 312.737 14.678 312.737 14.6783 312.736C14.6786 312.736 14.6789 312.736 14.6792 312.735C14.6795 312.735 14.6798 312.735 14.6801 312.734C14.6804 312.734 14.6807 312.734 14.681 312.734C14.6813 312.733 14.6816 312.733 14.6819 312.733C14.6821 312.732 14.6824 312.732 14.6827 312.732C14.683 312.732 14.6833 312.731 14.6836 312.731C14.6839 312.731 14.6842 312.73 14.6845 312.73C14.6848 312.73 14.6851 312.73 14.6854 312.729C14.6857 312.729 14.686 312.729 14.6863 312.728C14.6865 312.728 14.6868 312.728 14.6871 312.727C14.6874 312.727 14.6877 312.727 14.688 312.727C14.6883 312.726 14.6886 312.726 14.6889 312.726C14.6892 312.725 14.6895 312.725 14.6898 312.725C14.6901 312.725 14.6903 312.724 14.6906 312.724C14.6909 312.724 14.6912 312.723 14.6915 312.723C14.6918 312.723 14.6921 312.723 14.6924 312.722C14.6927 312.722 14.693 312.722 14.6933 312.721C14.6936 312.721 14.6938 312.721 14.6941 312.72C14.6944 312.72 14.6947 312.72 14.695 312.72C14.6953 312.719 14.6956 312.719 14.6959 312.719C14.6962 312.718 14.6965 312.718 14.6967 312.718C14.697 312.718 14.6973 312.717 14.6976 312.717C14.6979 312.717 14.6982 312.716 14.6985 312.716C14.6988 312.716 14.6991 312.716 14.6994 312.715C14.6996 312.715 14.6999 312.715 14.7002 312.714C14.7005 312.714 14.7008 312.714 14.7011 312.713C14.7014 312.713 14.7017 312.713 14.702 312.713C14.7022 312.712 14.7025 312.712 14.7028 312.712C14.7031 312.711 14.7034 312.711 14.7037 312.711C14.704 312.711 14.7043 312.71 14.7046 312.71C14.7048 312.71 14.7051 312.709 14.7054 312.709C14.7057 312.709 14.706 312.709 14.7063 312.708C14.7066 312.708 14.7069 312.708 14.7071 312.707C14.7074 312.707 14.7077 312.707 14.708 312.707C14.7083 312.706 14.7086 312.706 14.7089 312.706C14.7092 312.705 14.7094 312.705 14.7097 312.705C14.71 312.705 14.7103 312.704 14.7106 312.704C14.7109 312.704 14.7112 312.703 14.7115 312.703C14.7117 312.703 14.712 312.703 14.7123 312.702C14.7126 312.702 14.7129 312.702 14.7132 312.701C14.7135 312.701 14.7137 312.701 14.714 312.701C14.7143 312.7 14.7146 312.7 14.7149 312.7C14.7152 312.699 14.7155 312.699 14.7157 312.699C14.716 312.699 14.7163 312.698 14.7166 312.698C14.7169 312.698 14.7172 312.697 14.7175 312.697C14.7177 312.697 14.718 312.697 14.7183 312.696C14.7186 312.696 14.7189 312.696 14.7192 312.695C14.7194 312.695 14.7197 312.695 14.72 312.695C14.7203 312.694 14.7206 312.694 14.7209 312.694C14.7212 312.693 14.7214 312.693 14.7217 312.693C14.722 312.693 14.7223 312.692 14.7226 312.692C14.7229 312.692 14.7231 312.691 14.7234 312.691C14.7237 312.691 14.724 312.691 14.7243 312.69C14.7246 312.69 14.7248 312.69 14.7251 312.689C14.7254 312.689 14.7257 312.689 14.726 312.689C14.7263 312.688 14.7265 312.688 14.7268 312.688C14.7271 312.687 14.7274 312.687 14.7277 312.687C14.7279 312.687 14.7282 312.686 14.7285 312.686C14.7288 312.686 14.7291 312.686 14.7294 312.685C14.7296 312.685 14.7299 312.685 14.7302 312.684C14.7305 312.684 14.7308 312.684 14.7311 312.684C14.7313 312.683 14.7316 312.683 14.7319 312.683C14.7322 312.682 14.7325 312.682 14.7327 312.682C14.733 312.682 14.7333 312.681 14.7336 312.681C14.7339 312.681 14.7341 312.68 14.7344 312.68C14.7347 312.68 14.735 312.68 14.7353 312.679C14.7355 312.679 14.7358 312.679 14.7361 312.678C14.7364 312.678 14.7367 312.678 14.7369 312.678C14.7372 312.677 14.7375 312.677 14.7378 312.677C14.7381 312.677 14.7383 312.676 14.7386 312.676C14.7389 312.676 14.7392 312.675 14.7395 312.675C14.7397 312.675 14.74 312.675 14.7403 312.674C14.7406 312.674 14.7409 312.674 14.7411 312.673C14.7414 312.673 14.7417 312.673 14.742 312.673C14.7423 312.672 14.7425 312.672 14.7428 312.672C14.7431 312.672 14.7434 312.671 14.7436 312.671C14.7439 312.671 14.7442 312.67 14.7445 312.67C14.7448 312.67 14.745 312.67 14.7453 312.669C14.7456 312.669 14.7459 312.669 14.7461 312.668C14.7464 312.668 14.7467 312.668 14.747 312.668C14.7473 312.667 14.7475 312.667 14.7478 312.667C14.7481 312.667 14.7484 312.666 14.7486 312.666C14.7489 312.666 14.7492 312.665 14.7495 312.665C14.7498 312.665 14.75 312.665 14.7503 312.664C14.7506 312.664 14.7509 312.664 14.7511 312.663C14.7514 312.663 14.7517 312.663 14.752 312.663C14.7522 312.662 14.7525 312.662 14.7528 312.662C14.7531 312.662 14.7533 312.661 14.7536 312.661C14.7539 312.661 14.7542 312.66 14.7544 312.66C14.7547 312.66 14.755 312.66 14.7553 312.659C14.7555 312.659 14.7558 312.659 14.7561 312.659C14.7564 312.658 14.7566 312.658 14.7569 312.658C14.7572 312.657 14.7575 312.657 14.7577 312.657C14.758 312.657 14.7583 312.656 14.7586 312.656C14.7588 312.656 14.7591 312.655 14.7594 312.655C14.7597 312.655 14.7599 312.655 14.7602 312.654C14.7605 312.654 14.7608 312.654 14.761 312.654C14.7613 312.653 14.7616 312.653 14.7619 312.653C14.7621 312.652 14.7624 312.652 14.7627 312.652C14.763 312.652 14.7632 312.651 14.7635 312.651C14.7638 312.651 14.764 312.651 14.7643 312.65C14.7646 312.65 14.7649 312.65 14.7651 312.649C14.7654 312.649 14.7657 312.649 14.766 312.649C14.7662 312.648 14.7665 312.648 14.7668 312.648C14.767 312.648 14.7673 312.647 14.7676 312.647C14.7679 312.647 14.7681 312.646 14.7684 312.646C14.7687 312.646 14.7689 312.646 14.7692 312.645C14.7695 312.645 14.7698 312.645 14.77 312.645C14.7703 312.644 14.7706 312.644 14.7708 312.644C14.7711 312.643 14.7714 312.643 14.7717 312.643C14.7719 312.643 14.7722 312.642 14.7725 312.642C14.7727 312.642 14.773 312.642 14.7733 312.641C14.7736 312.641 14.7738 312.641 14.7741 312.641C14.7744 312.64 14.7746 312.64 14.7749 312.64C14.7752 312.639 14.7754 312.639 14.7757 312.639C14.776 312.639 14.7763 312.638 14.7765 312.638C14.7768 312.638 14.7771 312.638 14.7773 312.637C14.7776 312.637 14.7779 312.637 14.7781 312.636C14.7784 312.636 14.7787 312.636 14.7789 312.636C14.7792 312.635 14.7795 312.635 14.7798 312.635C14.78 312.635 14.7803 312.634 14.7806 312.634C14.7808 312.634 14.7811 312.633 14.7814 312.633C14.7816 312.633 14.7819 312.633 14.7822 312.632C14.7824 312.632 14.7827 312.632 14.783 312.632C14.7832 312.631 14.7835 312.631 14.7838 312.631C14.784 312.631 14.7843 312.63 14.7846 312.63C14.7848 312.63 14.7851 312.629 14.7854 312.629C14.7856 312.629 14.7859 312.629 14.7862 312.628C14.7865 312.628 14.7867 312.628 14.787 312.628C14.7873 312.627 14.7875 312.627 14.7878 312.627C14.7881 312.627 14.7883 312.626 14.7886 312.626C14.7889 312.626 14.7891 312.625 14.7894 312.625C14.7897 312.625 14.7899 312.625 14.7902 312.624C14.7904 312.624 14.7907 312.624 14.791 312.624C14.7912 312.623 14.7915 312.623 14.7918 312.623C14.792 312.623 14.7923 312.622 14.7926 312.622C14.7928 312.622 14.7931 312.621 14.7934 312.621C14.7936 312.621 14.7939 312.621 14.7942 312.62C14.7944 312.62 14.7947 312.62 14.795 312.62C14.7952 312.619 14.7955 312.619 14.7958 312.619C14.796 312.619 14.7963 312.618 14.7965 312.618C14.7968 312.618 14.7971 312.618 14.7973 312.617C14.7976 312.617 14.7979 312.617 14.7981 312.616C14.7984 312.616 14.7987 312.616 14.7989 312.616C14.7992 312.615 14.7994 312.615 14.7997 312.615C14.8 312.615 14.8002 312.614 14.8005 312.614C14.8008 312.614 14.801 312.614 14.8013 312.613C14.8016 312.613 14.8018 312.613 14.8021 312.613C14.8023 312.612 14.8026 312.612 14.8029 312.612C14.8031 312.611 14.8034 312.611 14.8037 312.611C14.8039 312.611 14.8042 312.61 14.8044 312.61C14.8047 312.61 14.805 312.61 14.8052 312.609C14.8055 312.609 14.8057 312.609 14.806 312.609C14.8063 312.608 14.8065 312.608 14.8068 312.608C14.8071 312.608 14.8073 312.607 14.8076 312.607C14.8078 312.607 14.8081 312.607 14.8084 312.606C14.8086 312.606 14.8089 312.606 14.8091 312.605C14.8094 312.605 14.8097 312.605 14.8099 312.605C14.8102 312.604 14.8104 312.604 14.8107 312.604C14.811 312.604 14.8112 312.603 14.8115 312.603C14.8118 312.603 14.812 312.603 14.8123 312.602C14.8125 312.602 14.8128 312.602 14.8131 312.602C14.8133 312.601 14.8136 312.601 14.8138 312.601C14.8141 312.6 14.8143 312.6 14.8146 312.6C14.8149 312.6 14.8151 312.599 14.8154 312.599C14.8156 312.599 14.8159 312.599 14.8162 312.598C14.8164 312.598 14.8167 312.598 14.8169 312.598C14.8172 312.597 14.8175 312.597 14.8177 312.597C14.818 312.597 14.8182 312.596 14.8185 312.596C14.8187 312.596 14.819 312.596 14.8193 312.595C14.8195 312.595 14.8198 312.595 14.82 312.595C14.8203 312.594 14.8206 312.594 14.8208 312.594C14.8211 312.594 14.8213 312.593 14.8216 312.593C14.8218 312.593 14.8221 312.592 14.8224 312.592C14.8226 312.592 14.8229 312.592 14.8231 312.591C14.8234 312.591 14.8236 312.591 14.8239 312.591C14.8242 312.59 14.8244 312.59 14.8247 312.59C14.8249 312.59 14.8252 312.589 14.8254 312.589C14.8257 312.589 14.8259 312.589 14.8262 312.588C14.8265 312.588 14.8267 312.588 14.827 312.588C14.8272 312.587 14.8275 312.587 14.8277 312.587C14.828 312.587 14.8282 312.586 14.8285 312.586C14.8288 312.586 14.829 312.586 14.8293 312.585C14.8295 312.585 14.8298 312.585 14.83 312.585C14.8303 312.584 14.8305 312.584 14.8308 312.584C14.8311 312.584 14.8313 312.583 14.8316 312.583C14.8318 312.583 14.8321 312.583 14.8323 312.582C14.8326 312.582 14.8328 312.582 14.8331 312.582C14.8333 312.581 14.8336 312.581 14.8339 312.581C14.8341 312.581 14.8344 312.58 14.8346 312.58C14.8349 312.58 14.8351 312.579 14.8354 312.579C14.8356 312.579 14.8359 312.579 14.8361 312.578C14.8364 312.578 14.8366 312.578 14.8369 312.578C14.8371 312.577 14.8374 312.577 14.8377 312.577C14.8379 312.577 14.8382 312.576 14.8384 312.576C14.8387 312.576 14.8389 312.576 14.8392 312.575C14.8394 312.575 14.8397 312.575 14.8399 312.575C14.8402 312.574 14.8404 312.574 14.8407 312.574C14.8409 312.574 14.8412 312.573 14.8414 312.573C14.8417 312.573 14.8419 312.573 14.8422 312.572C14.8424 312.572 14.8427 312.572 14.8429 312.572C14.8432 312.571 14.8434 312.571 14.8437 312.571C14.8439 312.571 14.8442 312.57 14.8444 312.57C14.8447 312.57 14.845 312.57 14.8452 312.569C14.8455 312.569 14.8457 312.569 14.846 312.569C14.8462 312.568 14.8465 312.568 14.8467 312.568C14.847 312.568 14.8472 312.567 14.8475 312.567C14.8477 312.567 14.848 312.567 14.8482 312.566C14.8485 312.566 14.8487 312.566 14.849 312.566C14.8492 312.565 14.8495 312.565 14.8497 312.565C14.85 312.565 14.8502 312.564 14.8505 312.564C14.8507 312.564 14.8509 312.564 14.8512 312.563C14.8514 312.563 14.8517 312.563 14.8519 312.563C14.8522 312.562 14.8524 312.562 14.8527 312.562C14.8529 312.562 14.8532 312.561 14.8534 312.561C14.8537 312.561 14.8539 312.561 14.8542 312.56C14.8544 312.56 14.8547 312.56 14.8549 312.56C14.8552 312.559 14.8554 312.559 14.8557 312.559C14.8559 312.559 14.8562 312.558 14.8564 312.558C14.8567 312.558 14.8569 312.558 14.8571 312.557C14.8574 312.557 14.8576 312.557 14.8579 312.557C14.8581 312.556 14.8584 312.556 14.8586 312.556C14.8589 312.556 14.8591 312.555 14.8594 312.555C14.8596 312.555 14.8599 312.555 14.8601 312.554C14.8604 312.554 14.8606 312.554 14.8608 312.554C14.8611 312.553 14.8613 312.553 14.8616 312.553C14.8618 312.553 14.8621 312.553 14.8623 312.552C14.8626 312.552 14.8628 312.552 14.8631 312.552C14.8633 312.551 14.8636 312.551 14.8638 312.551C14.864 312.551 14.8643 312.55 14.8645 312.55C14.8648 312.55 14.865 312.55 14.8653 312.549C14.8655 312.549 14.8658 312.549 14.866 312.549C14.8662 312.548 14.8665 312.548 14.8667 312.548C14.867 312.548 14.8672 312.547 14.8675 312.547C14.8677 312.547 14.868 312.547 14.8682 312.546C14.8684 312.546 14.8687 312.546 14.8689 312.546C14.8692 312.545 14.8694 312.545 14.8697 312.545C14.8699 312.545 14.8701 312.544 14.8704 312.544C14.8706 312.544 14.8709 312.544 14.8711 312.543C14.8714 312.543 14.8716 312.543 14.8719 312.543C14.8721 312.543 14.8723 312.542 14.8726 312.542C14.8728 312.542 14.8731 312.542 14.8733 312.541C14.8735 312.541 14.8738 312.541 14.874 312.541C14.8743 312.54 14.8745 312.54 14.8748 312.54C14.875 312.54 14.8752 312.539 14.8755 312.539C14.8757 312.539 14.876 312.539 14.8762 312.538C14.8765 312.538 14.8767 312.538 14.8769 312.538C14.8772 312.537 14.8774 312.537 14.8777 312.537C14.8779 312.537 14.8781 312.536 14.8784 312.536C14.8786 312.536 14.8789 312.536 14.8791 312.535C14.8793 312.535 14.8796 312.535 14.8798 312.535C14.8801 312.535 14.8803 312.534 14.8805 312.534C14.8808 312.534 14.881 312.534 14.8813 312.533C14.8815 312.533 14.8817 312.533 14.882 312.533C14.8822 312.532 14.8825 312.532 14.8827 312.532C14.8829 312.532 14.8832 312.531 14.8834 312.531C14.8837 312.531 14.8839 312.531 14.8841 312.53C14.8844 312.53 14.8846 312.53 14.8849 312.53C14.8851 312.53 14.8853 312.529 14.8856 312.529C14.8858 312.529 14.8861 312.529 14.8863 312.528C14.8865 312.528 14.8868 312.528 14.887 312.528C14.8872 312.527 14.8875 312.527 14.8877 312.527C14.888 312.527 14.8882 312.526 14.8884 312.526C14.8887 312.526 14.8889 312.526 14.8892 312.525C14.8894 312.525 14.8896 312.525 14.8899 312.525C14.8901 312.525 14.8903 312.524 14.8906 312.524C14.8908 312.524 14.891 312.524 14.8913 312.523C14.8915 312.523 14.8918 312.523 14.892 312.523C14.8922 312.522 14.8925 312.522 14.8927 312.522C14.8929 312.522 14.8932 312.521 14.8934 312.521C14.8937 312.521 14.8939 312.521 14.8941 312.52C14.8944 312.52 14.8946 312.52 14.8948 312.52C14.8951 312.52 14.8953 312.519 14.8955 312.519C14.8958 312.519 14.896 312.519 14.8962 312.518C14.8965 312.518 14.8967 312.518 14.897 312.518C14.8972 312.517 14.8974 312.517 14.8977 312.517C14.8979 312.517 14.8981 312.516 14.8984 312.516C14.8986 312.516 14.8988 312.516 14.8991 312.516C14.8993 312.515 14.8995 312.515 14.8998 312.515C14.9 312.515 14.9002 312.514 14.9005 312.514C14.9007 312.514 14.9009 312.514 14.9012 312.513C14.9014 312.513 14.9016 312.513 14.9019 312.513C14.9021 312.512 14.9023 312.512 14.9026 312.512C14.9028 312.512 14.903 312.512 14.9033 312.511C14.9035 312.511 14.9037 312.511 14.904 312.511C14.9042 312.51 14.9044 312.51 14.9047 312.51C14.9049 312.51 14.9051 312.509 14.9054 312.509C14.9056 312.509 14.9058 312.509 14.9061 312.509C14.9063 312.508 14.9065 312.508 14.9068 312.508C14.907 312.508 14.9072 312.507 14.9075 312.507C14.9077 312.507 14.9079 312.507 14.9082 312.506C14.9084 312.506 14.9086 312.506 14.9089 312.506C14.9091 312.505 14.9093 312.505 14.9096 312.505C14.9098 312.505 14.91 312.505 14.9102 312.504C14.9105 312.504 14.9107 312.504 14.9109 312.504C14.9112 312.503 14.9114 312.503 14.9116 312.503C14.9119 312.503 14.9121 312.503 14.9123 312.502C14.9126 312.502 14.9128 312.502 14.913 312.502C14.9132 312.501 14.9135 312.501 14.9137 312.501C14.9139 312.501 14.9142 312.5 14.9144 312.5C14.9146 312.5 14.9149 312.5 14.9151 312.5C14.9153 312.499 14.9155 312.499 14.9158 312.499C14.916 312.499 14.9162 312.498 14.9165 312.498C14.9167 312.498 14.9169 312.498 14.9172 312.497C14.9174 312.497 14.9176 312.497 14.9178 312.497C14.9181 312.497 14.9183 312.496 14.9185 312.496C14.9188 312.496 14.919 312.496 14.9192 312.495C14.9194 312.495 14.9197 312.495 14.9199 312.495C14.9201 312.494 14.9204 312.494 14.9206 312.494C14.9208 312.494 14.921 312.494 14.9213 312.493C14.9215 312.493 14.9217 312.493 14.9219 312.493C14.9222 312.492 14.9224 312.492 14.9226 312.492C14.9229 312.492 14.9231 312.492 14.9233 312.491C14.9235 312.491 14.9238 312.491 14.924 312.491C14.9242 312.49 14.9244 312.49 14.9247 312.49C14.9249 312.49 14.9251 312.489 14.9254 312.489C14.9256 312.489 14.9258 312.489 14.926 312.489C14.9263 312.488 14.9265 312.488 14.9267 312.488C14.9269 312.488 14.9272 312.487 14.9274 312.487C14.9276 312.487 14.9278 312.487 14.9281 312.487C14.9283 312.486 14.9285 312.486 14.9287 312.486C14.929 312.486 14.9292 312.485 14.9294 312.485C14.9296 312.485 14.9299 312.485 14.9301 312.484C14.9303 312.484 14.9305 312.484 14.9308 312.484C14.931 312.484 14.9312 312.483 14.9314 312.483C14.9317 312.483 14.9319 312.483 14.9321 312.482C14.9323 312.482 14.9326 312.482 14.9328 312.482C14.933 312.482 14.9332 312.481 14.9335 312.481C14.9337 312.481 14.9339 312.481 14.9341 312.48C14.9344 312.48 14.9346 312.48 14.9348 312.48C14.935 312.48 14.9352 312.479 14.9355 312.479C14.9357 312.479 14.9359 312.479 14.9361 312.478C14.9364 312.478 14.9366 312.478 14.9368 312.478C14.937 312.478 14.9372 312.477 14.9375 312.477C14.9377 312.477 14.9379 312.477 14.9381 312.476C14.9384 312.476 14.9386 312.476 14.9388 312.476C14.939 312.476 14.9393 312.475 14.9395 312.475C14.9397 312.475 14.9399 312.475 14.9401 312.474C14.9404 312.474 14.9406 312.474 14.9408 312.474C14.941 312.474 14.9412 312.473 14.9415 312.473L13.5273 311.059ZM13.0663 311.522C12.8765 311.733 12.5302 312.149 12.0422 312.75L13.5945 314.011C14.0883 313.403 14.4027 313.027 14.5529 312.86L13.0663 311.522ZM12.0329 312.761C11.5127 313.422 11.0505 314.104 10.6474 314.81L12.3839 315.802C12.7359 315.186 13.1422 314.585 13.6038 313.999L12.0329 312.761ZM10.6368 314.829C10.2338 315.571 9.88851 316.465 9.5919 317.493L11.5135 318.047C11.7833 317.112 12.08 316.362 12.3945 315.783L10.6368 314.829ZM9.5919 317.493C9.2843 318.559 9.12792 319.625 9.12792 320.687L11.1279 320.687C11.1279 319.823 11.2547 318.944 11.5135 318.047L9.5919 317.493ZM11.289 360.726L11.4967 359.748L10.289 359.492L10.289 360.726L11.289 360.726ZM11.289 381.627L11.0803 382.605L12.289 382.862L12.289 381.627L11.289 381.627ZM1.99998 379.644L0.999983 379.644L0.999983 380.453L1.79127 380.622L1.99998 379.644ZM1.99998 347.755L2.20672 346.777L0.999985 346.522L0.999985 347.755L1.99998 347.755ZM42.6113 356.337L43.6113 356.337L43.6113 355.526L42.818 355.358L42.6113 356.337ZM42.6113 387.659L42.4026 388.637L43.6113 388.895L43.6113 387.659L42.6113 387.659ZM33.3222 385.676L32.3222 385.676L32.3222 386.485L33.1135 386.654L33.3222 385.676ZM33.3222 365.371L34.3222 365.371L34.3222 364.558L33.5267 364.392L33.3222 365.371ZM26.9502 364.04L27.1547 363.061L25.9502 362.809L25.9502 364.04L26.9502 364.04ZM26.9502 379.701L26.7437 380.679L27.9502 380.934L27.9502 379.701L26.9502 379.701ZM18.2275 377.86L17.2275 377.86L17.2275 378.671L18.021 378.838L18.2275 377.86ZM18.2275 362.199L19.2275 362.199L19.2275 361.389L18.4351 361.221L18.2275 362.199ZM10.289 360.726L10.289 381.627L12.289 381.627L12.289 360.726L10.289 360.726ZM11.4978 380.649L2.2087 378.666L1.79127 380.622L11.0803 382.605L11.4978 380.649ZM2.99998 379.644L2.99998 347.755L0.999985 347.755L0.999983 379.644L2.99998 379.644ZM1.79325 348.734L42.4046 357.315L42.818 355.358L2.20672 346.777L1.79325 348.734ZM41.6113 356.337L41.6113 387.659L43.6113 387.659L43.6113 356.337L41.6113 356.337ZM42.82 386.681L33.531 384.698L33.1135 386.654L42.4026 388.637L42.82 386.681ZM34.3222 385.676L34.3222 365.371L32.3222 365.371L32.3222 385.676L34.3222 385.676ZM33.5267 364.392L27.1547 363.061L26.7457 365.019L33.1178 366.35L33.5267 364.392ZM25.9502 364.04L25.9502 379.701L27.9502 379.701L27.9502 364.04L25.9502 364.04ZM27.1567 378.722L18.434 376.881L18.021 378.838L26.7437 380.679L27.1567 378.722ZM19.2275 377.86L19.2275 362.199L17.2275 362.199L17.2275 377.86L19.2275 377.86ZM18.4351 361.221L11.4967 359.748L11.0814 361.704L18.0199 363.177L18.4351 361.221ZM1.99998 421.411L0.999981 421.411L0.999981 422.223L1.79468 422.39L1.99998 421.411ZM1.99998 392.411L2.20672 391.433L0.999983 391.178L0.999983 392.411L1.99998 392.411ZM42.6113 400.992L43.6113 400.992L43.6113 400.181L42.818 400.014L42.6113 400.992ZM42.6113 412.009L42.405 412.987L43.6113 413.241L43.6113 412.009L42.6113 412.009ZM11.8555 405.523L12.0618 404.545L10.8555 404.29L10.8555 405.523L11.8555 405.523ZM11.8555 423.478L11.6501 424.457L12.8555 424.71L12.8555 423.478L11.8555 423.478ZM2.99998 421.411L2.99998 392.411L0.999983 392.411L0.999981 421.411L2.99998 421.411ZM1.79325 393.389L42.4046 401.97L42.818 400.014L2.20672 391.433L1.79325 393.389ZM41.6113 400.992L41.6113 412.009L43.6113 412.009L43.6113 400.992L41.6113 400.992ZM42.8176 411.03L12.0618 404.545L11.6491 406.502L42.405 412.987L42.8176 411.03ZM10.8555 405.523L10.8555 423.478L12.8555 423.478L12.8555 405.523L10.8555 405.523ZM12.0608 422.5L2.20528 420.432L1.79468 422.39L11.6501 424.457L12.0608 422.5ZM42.6113 441.569L43.6113 441.569L43.6113 440.759L42.818 440.591L42.6113 441.569ZM42.6113 472.892L42.4039 473.87L43.6113 474.126L43.6113 472.892L42.6113 472.892ZM32.7275 470.796L31.7275 470.796L31.7275 471.606L32.5201 471.774L32.7275 470.796ZM32.7275 450.49L33.7275 450.49L33.7275 449.677L32.9316 449.511L32.7275 450.49ZM26.0722 449.103L26.2764 448.124L25.0722 447.873L25.0722 449.103L26.0722 449.103ZM26.0722 464.764L25.8643 465.742L27.0722 465.999L27.0722 464.764L26.0722 464.764ZM16.2168 462.668L15.2168 462.668L15.2168 463.478L16.0088 463.646L16.2168 462.668ZM16.2168 447.007L17.2168 447.007L17.2168 446.196L16.4234 446.028L16.2168 447.007ZM1.99998 444.005L0.999981 444.005L0.99998 444.816L1.79338 444.983L1.99998 444.005ZM1.99998 432.988L2.20671 432.01L0.999981 431.755L0.999981 432.988L1.99998 432.988ZM41.6113 441.569L41.6113 472.892L43.6113 472.892L43.6113 441.569L41.6113 441.569ZM42.8187 471.913L32.9349 469.818L32.5201 471.774L42.4039 473.87L42.8187 471.913ZM33.7275 470.796L33.7275 450.49L31.7275 450.49L31.7275 470.796L33.7275 470.796ZM32.9316 449.511L26.2764 448.124L25.8681 450.081L32.5234 451.469L32.9316 449.511ZM25.0722 449.103L25.0722 464.764L27.0722 464.764L27.0722 449.103L25.0722 449.103ZM26.2802 463.786L16.4248 461.69L16.0088 463.646L25.8643 465.742L26.2802 463.786ZM17.2168 462.668L17.2168 447.007L15.2168 447.007L15.2168 462.668L17.2168 462.668ZM16.4234 446.028L2.20658 443.026L1.79338 444.983L16.0102 447.985L16.4234 446.028ZM2.99998 444.005L2.99998 432.988L0.999981 432.988L0.999981 444.005L2.99998 444.005ZM1.79325 433.967L42.4046 442.548L42.818 440.591L2.20671 432.01L1.79325 433.967Z" fill="#F44D4D"/>
</svg>
