<svg width="1630" height="112" viewBox="0 0 1630 112" fill="none" xmlns="http://www.w3.org/2000/svg">
<path opacity="0.1" fill-rule="evenodd" clip-rule="evenodd" d="M32.2142 46.2503L32.2195 46.2451C38.7362 39.8783 46.5217 36.6573 55.4693 36.6573C58.4947 36.6573 61.406 37.0598 64.195 37.873C66.8832 38.6569 69.1597 39.5793 70.961 40.6743C72.6659 41.7107 74.2401 42.9065 75.6809 44.2613C76.5755 45.0759 77.3425 45.8166 77.9096 46.4529L91.7871 34.6789L91.6229 34.4709L91.5724 34.3949C90.9215 33.4143 89.6437 32.0748 87.575 30.3637L87.5584 30.35C85.5708 28.6733 83.2231 26.9778 80.5051 25.2666L80.4924 25.2587C77.9744 23.6493 74.6674 22.2192 70.5144 21.0044C66.444 19.8137 62.1185 19.2127 57.5284 19.2127C42.3126 19.2127 29.3145 24.3323 18.416 34.5938C7.56008 44.8127 2.2032 56.8977 2.2032 70.9545C2.2032 81.2825 5.98439 90.3205 13.6705 98.161C21.3441 105.905 30.878 109.787 42.4287 109.787C47.0983 109.787 51.6408 109.166 56.0622 107.926L56.0848 107.92C60.6445 106.693 64.2254 105.329 66.8855 103.858L66.8972 103.851C69.6988 102.324 72.3385 100.577 74.8176 98.609C77.467 96.4971 78.9749 95.1729 79.5342 94.545L79.5385 94.5402C79.7541 94.2996 79.9545 94.0745 80.1398 93.8646L71.3934 81.1763C70.5745 81.9932 69.5164 82.9064 68.2528 83.9082L68.2386 83.9195L68.2243 83.9305C66.5706 85.198 64.7144 86.454 62.661 87.7C60.4762 89.0257 57.8904 90.1365 54.9339 91.0535L54.914 91.0597C51.9223 91.9566 48.8606 92.4053 45.7357 92.4053C39.0373 92.4053 33.3846 90.2863 28.97 85.946L28.9533 85.9295C24.603 81.5604 22.4429 76.0764 22.4429 69.6385C22.4429 60.4816 25.7164 52.6421 32.2142 46.2503ZM70.1168 79.3245C70.2103 79.2265 70.2986 79.1311 70.3818 79.0383L71.6921 77.7223L82.9232 94.0152C82.5072 94.5165 81.9249 95.1849 81.1761 96.0204C80.469 96.8142 78.8051 98.2555 76.1845 100.344C73.6055 102.391 70.8601 104.209 67.9484 105.796C65.0782 107.384 61.3137 108.804 56.6548 110.057C52.0376 111.352 47.2956 112 42.4287 112C30.3241 112 20.216 107.906 12.1047 99.7177C4.03489 91.4877 0 81.8999 0 70.9545C0 56.2491 5.63637 43.5908 16.9091 32.9796C28.2234 22.3265 41.7632 17 57.5284 17C62.312 17 66.8461 17.6266 71.1305 18.8799C75.415 20.1332 78.9299 21.6372 81.6753 23.3918C84.4623 25.1464 86.8957 26.9011 88.9755 28.6557C91.097 30.4103 92.5737 31.9142 93.4056 33.1675L94.8407 34.9848L77.5572 49.6484C77.3908 49.3978 77.1205 49.0218 76.7461 48.5204C76.6238 48.343 76.4504 48.13 76.2261 47.8812C75.7636 47.3685 75.0842 46.7043 74.1879 45.8885C72.8568 44.6352 71.4009 43.5281 69.8202 42.5673C68.2395 41.6064 66.1597 40.75 63.5807 39.998C61.0017 39.246 58.2979 38.8701 55.4693 38.8701C47.1084 38.8701 39.8705 41.8571 33.7558 47.8311C27.6827 53.8052 24.6461 61.0743 24.6461 69.6385C24.6461 75.529 26.6012 80.4378 30.5112 84.3648C34.4629 88.25 39.5378 90.1926 45.7357 90.1926C48.6475 90.1926 51.4968 89.7748 54.2838 88.9393C57.1124 88.062 59.525 87.0176 61.5217 85.8061C63.5183 84.5945 65.307 83.383 66.8876 82.1715C68.2927 81.0574 69.3691 80.1084 70.1168 79.3245ZM149.374 109.431H173.646L192.552 19.5693H168.28L161.292 52.9697H128.659L135.71 19.5693H111.438L92.5321 109.431H116.804L124.104 74.777H156.674L149.374 109.431ZM115.018 107.218L122.318 72.5643H159.392L152.092 107.218H171.86L189.834 21.782H170.068L163.08 55.1824H125.94L132.99 21.782H113.224L95.2494 107.218H115.018ZM250.972 73.1672H228.274L247.132 37.1735L250.972 73.1672ZM252.77 87.9799L255.203 107.218H275.807L261.629 21.782H237.923L187.736 107.218H209.77L220.127 87.9799H252.77ZM211.083 109.431H183.879L236.665 19.5693H263.495L278.407 109.431H253.262L250.829 90.1926H221.441L211.083 109.431ZM245.712 44.6352L231.923 70.9545H248.52L245.712 44.6352ZM331.88 19.5693H307.608L288.703 109.431H352.595L357.15 87.6234H317.592L331.88 19.5693ZM354.437 89.8361H314.875L329.164 21.782H309.395L291.42 107.218H350.806L354.437 89.8361ZM408.501 19.5693H384.23L365.324 109.431H429.217L433.771 87.6234H394.213L408.501 19.5693ZM431.058 89.8361H391.497L405.785 21.782H386.016L368.041 107.218H427.428L431.058 89.8361ZM467.802 91.0894L471.982 71.311H506.484L509.61 56.4357H475.111L478.964 37.9106H523.71L527.137 21.782H462.637L444.663 107.218H510.42L513.847 91.0894H467.802ZM516.57 88.8766L512.202 109.431H441.945L460.851 19.5693H529.86L525.492 40.1234H480.755L477.822 54.223H512.327L508.271 73.5237H473.767L470.522 88.8766H516.57ZM590.633 109.431H611.223L630.129 19.5693H605.857L595.25 69.6385L567.172 19.5693H546.457L527.551 109.431H551.823L562.305 59.3615L590.633 109.431ZM550.035 107.218L561.347 53.1878L591.915 107.218H609.437L627.412 21.782H607.641L596.192 75.8266L565.885 21.782H548.243L530.269 107.218H550.035ZM716.983 23.3918C714.321 21.6372 710.848 20.1332 706.563 18.8799C702.279 17.6266 697.745 17 692.961 17C677.196 17 663.594 22.3265 652.155 32.9796C640.757 43.5908 635.058 56.2491 635.058 70.9545C635.058 81.8999 639.197 91.4877 647.475 99.7177C655.794 107.906 666.006 112 678.111 112C682.895 112 687.595 111.352 692.212 110.057C696.871 108.804 700.677 107.384 703.631 105.796C706.626 104.209 709.454 102.391 712.116 100.344C714.82 98.2555 716.588 96.8142 717.42 96.0204C718.252 95.1849 718.876 94.5165 719.292 94.0152L726.53 59.3615H688.219L685.037 74.777H699.076L697.017 84.4274L695.27 85.8061C694.063 86.8505 692.108 87.8531 689.404 88.814C686.742 89.7331 683.872 90.1926 680.794 90.1926C674.596 90.1926 669.521 88.2918 665.57 84.4901C661.659 80.6467 659.704 75.8215 659.704 70.0145C659.704 61.2832 662.783 53.9096 668.939 47.8938C675.137 41.878 682.416 38.8701 690.777 38.8701C693.481 38.8701 696.102 39.246 698.639 39.998C701.218 40.75 703.277 41.6064 704.816 42.5673C706.355 43.5281 707.811 44.6352 709.184 45.8885C710.11 46.706 710.809 47.3713 711.281 47.8844C711.508 48.1318 711.683 48.3438 711.804 48.5204C712.179 49.0218 712.449 49.3978 712.615 49.6484L729.899 34.9848L728.464 33.1675C727.632 31.9142 726.176 30.4103 724.096 28.6557C722.058 26.9011 719.687 25.1464 716.983 23.3918ZM726.845 34.679L726.681 34.4709L726.631 34.3949C725.973 33.4038 724.706 32.06 722.679 30.35L722.662 30.3358C720.713 28.6571 718.424 26.9612 715.787 25.2503L715.774 25.2418C713.352 23.6452 710.099 22.2189 705.947 21.0044C701.877 19.8137 697.551 19.2127 692.961 19.2127C677.745 19.2127 664.68 24.3329 653.653 34.6021C642.674 44.8235 637.261 56.9063 637.261 70.9545C637.261 81.2642 641.132 90.2965 649.022 98.1419C656.911 105.904 666.56 109.787 678.111 109.787C682.694 109.787 687.195 109.167 691.62 107.926L691.642 107.92C696.203 106.693 699.836 105.326 702.591 103.845L702.602 103.839C705.488 102.309 708.212 100.56 710.775 98.5893C713.469 96.5078 715.139 95.1409 715.884 94.4343C716.461 93.8533 716.914 93.3769 717.253 92.9986L723.816 61.5742H690.012L687.744 72.5643H701.801L699.004 85.6732L696.668 87.5169C695.151 88.8156 692.904 89.9176 690.139 90.9L690.121 90.9066C687.207 91.9123 684.093 92.4053 680.794 92.4053C674.11 92.4053 668.463 90.3375 664.045 86.088L664.028 86.0716C659.669 81.7861 657.501 76.3789 657.501 70.0145C657.501 60.694 660.814 52.746 667.402 46.3079L667.408 46.3027C674.002 39.9018 681.826 36.6573 690.777 36.6573C693.686 36.6573 696.515 37.062 699.258 37.8745C701.945 38.6582 704.21 39.5832 705.979 40.6881C707.629 41.7179 709.186 42.9019 710.651 44.2377C711.579 45.0574 712.378 45.8075 712.965 46.4557L726.845 34.679ZM761.06 91.0894L765.239 71.311H799.742L802.868 56.4357H768.369L772.222 37.9106H816.967L820.394 21.782H755.895L737.92 107.218H803.677L807.104 91.0894H761.06ZM809.827 88.8766L805.46 109.431H735.203L754.108 19.5693H823.117L818.75 40.1234H774.012L771.08 54.223H805.584L801.529 73.5237H767.024L763.78 88.8766H809.827ZM899.739 77.3463L943.852 19.5693H916.398L891.315 54.223L880.583 19.5693H855.688L875.467 77.3463L868.728 109.431H893L899.739 77.3463ZM891.213 107.218L897.686 76.3983L939.386 21.782H917.52L890.516 59.091L878.961 21.782H858.775L877.748 77.2049L871.445 107.218H891.213ZM965.5 45.8963L965.505 45.8905C971.588 39.7819 978.772 36.6573 986.967 36.6573C994.143 36.6573 1000.18 38.9987 1004.88 43.7655C1009.59 48.5022 1011.94 54.3984 1011.94 61.3041C1011.94 70.037 1008.84 77.4653 1002.67 83.4458C996.583 89.3761 989.449 92.4053 981.352 92.4053C974.182 92.4053 968.133 90.089 963.391 85.373L963.376 85.3578C958.697 80.6127 956.374 74.6723 956.374 67.6959C956.374 59.3172 959.45 52.0166 965.5 45.8963ZM1001.13 81.8582C1006.87 76.3019 1009.74 69.4505 1009.74 61.3041C1009.74 54.954 1007.6 49.6275 1003.31 45.3245C999.072 41.0215 993.623 38.8701 986.967 38.8701C979.397 38.8701 972.762 41.7318 967.063 47.4551C961.406 53.1785 958.577 59.9255 958.577 67.6959C958.577 74.1295 960.699 79.4978 964.942 83.8008C969.226 88.062 974.696 90.1926 981.352 90.1926C988.839 90.1926 995.432 87.4145 1001.13 81.8582ZM1021.47 29.5956C1012.45 21.1985 1001.15 17 987.591 17C973.199 17 960.553 22.243 949.655 32.7289C938.756 43.2148 933.307 55.3927 933.307 69.2625C933.307 81.0018 937.821 91.0699 946.847 99.467C955.874 107.822 967.167 112 980.728 112C990.087 112 998.947 109.556 1007.31 104.668C1015.71 99.7803 1022.43 93.3259 1027.46 85.3047C1032.49 77.2419 1035.01 68.7194 1035.01 59.7375C1035.01 47.9982 1030.5 37.951 1021.47 29.5956ZM1025.59 84.1294C1030.42 76.3968 1032.81 68.2785 1032.81 59.7375C1032.81 48.6505 1028.58 39.1828 1019.98 31.2227L1019.97 31.219C1011.4 23.2408 1000.66 19.2127 987.591 19.2127C973.796 19.2127 961.689 24.2142 951.179 34.3267C940.67 44.4382 935.51 56.0554 935.51 69.2625C935.51 80.3499 939.741 89.8405 948.344 97.8437C956.919 105.779 967.66 109.787 980.728 109.787C989.684 109.787 998.163 107.454 1006.2 102.756L1006.2 102.753C1014.31 98.0408 1020.76 91.8364 1025.59 84.1294ZM1106.74 72.6665L1106.73 72.6822C1105.52 78.2447 1102.89 82.9354 1098.84 86.6814C1094.79 90.4263 1090.22 92.4053 1085.18 92.4053C1079.93 92.4053 1075.57 90.3943 1072.3 86.3937C1068.99 82.328 1068.02 77.3576 1069.17 71.7601L1069.17 71.7466L1079.77 21.782H1060.01L1049.21 72.6591C1049.21 72.6598 1049.21 72.6606 1049.21 72.6614C1047.06 83.0334 1049.37 91.6867 1056.09 98.8953C1062.85 106.113 1071.86 109.787 1083.37 109.787C1094.32 109.787 1103.63 106.239 1111.4 99.1465C1119.23 91.9565 1124.34 82.8509 1126.7 71.7452L1137.24 21.782H1117.47L1106.74 72.6665ZM1115.69 19.5693H1139.96L1128.85 72.2078C1126.4 83.7381 1121.08 93.2632 1112.88 100.783C1104.69 108.261 1094.85 112 1083.37 112C1071.35 112 1061.72 108.136 1054.48 100.407C1047.24 92.6365 1044.77 83.2368 1047.05 72.2078L1058.22 19.5693H1082.49L1071.33 72.2078C1070.29 77.2627 1071.18 81.524 1074.01 84.9914C1076.84 88.4589 1080.56 90.1926 1085.18 90.1926C1089.59 90.1926 1093.64 88.4798 1097.34 85.0541C1101.05 81.6284 1103.46 77.3463 1104.58 72.2078L1115.69 19.5693ZM1209.47 75.905C1210.92 75.4037 1212.69 74.4219 1214.77 72.9598C1216.89 71.4558 1219.01 69.6594 1221.14 67.5706C1223.26 65.44 1225.07 62.4947 1226.56 58.7348C1228.06 54.9749 1228.81 50.8182 1228.81 46.2645C1228.81 39.0789 1226.04 32.8333 1220.51 27.5277C1214.98 22.2221 1208.12 19.5693 1199.92 19.5693H1159.8L1140.9 109.431H1165.17L1171.03 81.1689H1184.45L1193.81 109.431H1218.83L1207.22 76.7197L1209.47 75.905ZM1215.7 107.218L1204.41 75.3868L1208.74 73.8177L1208.75 73.8119C1209.93 73.4071 1211.5 72.5567 1213.51 71.147C1215.52 69.723 1217.54 68.0088 1219.59 65.9967C1221.44 64.1378 1223.1 61.4791 1224.52 57.913C1225.9 54.4451 1226.61 50.5716 1226.61 46.2645C1226.61 39.7286 1224.12 34.0483 1218.99 29.128C1213.9 24.2452 1207.59 21.782 1199.92 21.782H1161.59L1143.61 107.218H1163.38L1169.24 78.9561H1186.04L1195.4 107.218H1215.7ZM1179.46 41.4393H1195.68C1198.17 41.4393 1200.17 42.1913 1201.67 43.6952C1203.21 45.1574 1203.98 46.9538 1203.98 49.0844C1203.98 52.1759 1202.81 54.6616 1200.48 56.5416C1198.15 58.4215 1195.45 59.3615 1192.37 59.3615H1175.65L1179.46 41.4393ZM1203.2 42.1083C1201.22 40.1313 1198.64 39.2266 1195.68 39.2266H1177.67L1172.93 61.5742H1192.37C1195.94 61.5742 1199.13 60.4722 1201.86 58.2664C1204.73 55.952 1206.18 52.823 1206.18 49.0844C1206.18 46.3565 1205.17 43.9858 1203.2 42.1083ZM1273.47 91.1917L1273.46 91.1974C1270.76 92.8748 1267.57 93.6586 1264 93.6586C1261.66 93.6586 1259.31 93.3126 1256.96 92.632C1254.7 91.9756 1252.73 91.2116 1251.1 90.32L1251.07 90.3085L1251.05 90.2965C1249.5 89.4045 1247.99 88.3818 1246.54 87.2308L1246.53 87.2205L1246.51 87.2101C1245.54 86.4139 1244.78 85.7881 1244.27 85.346L1231.07 96.7412C1231.88 97.6374 1233.22 98.8013 1235.21 100.241C1237.21 101.682 1239.52 103.138 1242.16 104.606C1244.7 105.997 1247.93 107.213 1251.88 108.227L1251.9 108.231C1255.82 109.267 1259.9 109.787 1264.13 109.787C1275.95 109.787 1284.89 106.812 1291.24 101.136C1297.61 95.3932 1300.8 88.0879 1300.8 79.0383C1300.8 75.0784 1299.73 71.6701 1297.65 68.7292L1297.64 68.7142C1295.49 65.6278 1292.88 63.2252 1289.81 61.4736L1289.8 61.4677C1286.55 59.5915 1283.26 57.9629 1279.94 56.5803L1279.92 56.5715C1276.42 55.0707 1273.4 53.4845 1270.89 51.8028L1270.88 51.7928C1268.3 50.0378 1266.42 47.7639 1266.42 44.8859C1266.42 41.9926 1267.85 39.6415 1270.26 37.8919C1272.68 36.1316 1275.69 35.3414 1279.1 35.3414C1282.1 35.3414 1285.02 36.026 1287.83 37.3668C1290.36 38.5305 1292.29 39.5679 1293.4 40.4715C1293.63 40.652 1293.84 40.8305 1294.04 41.0069L1307.15 29.6507C1306.66 29.0334 1305.75 28.198 1304.24 27.1553L1304.23 27.1452L1304.21 27.135C1302.56 25.9476 1300.6 24.7433 1298.34 23.525L1298.32 23.5171C1296.26 22.3869 1293.51 21.3791 1290 20.5296L1289.98 20.5239C1286.55 19.6535 1282.89 19.2127 1278.98 19.2127C1267.75 19.2127 1259.13 22.1152 1252.86 27.682C1246.56 33.2667 1243.49 39.9047 1243.49 47.7058C1243.49 51.6162 1244.55 55.0294 1246.64 58.0197C1248.89 61.1627 1251.53 63.613 1254.56 65.4061C1257.87 67.3354 1261.18 69.0567 1264.48 70.5711C1267.93 72.1545 1270.92 73.8008 1273.42 75.5178C1276.04 77.2944 1278 79.585 1278 82.4848C1278 86.23 1276.53 89.2704 1273.47 91.1917ZM1272.18 77.3463C1274.59 78.9756 1275.79 80.6884 1275.79 82.4848C1275.79 85.5763 1274.63 87.8531 1272.3 89.3153C1270.01 90.7357 1267.25 91.4459 1264 91.4459C1261.88 91.4459 1259.74 91.1326 1257.58 90.5059C1255.41 89.8793 1253.6 89.1691 1252.15 88.3753C1250.69 87.5398 1249.28 86.5789 1247.9 85.4927C1246.57 84.4065 1245.7 83.6755 1245.28 83.2995L1244.35 82.3595L1227.88 96.5844L1229.37 98.1511C1229.38 98.1621 1229.39 98.1731 1229.4 98.1842C1230.36 99.2635 1231.87 100.548 1233.93 102.036C1236.01 103.54 1238.4 105.044 1241.1 106.548C1243.85 108.052 1247.26 109.326 1251.34 110.371C1255.45 111.457 1259.72 112 1264.13 112C1276.31 112 1285.84 108.929 1292.7 102.788C1299.57 96.6053 1303 88.6887 1303 79.0383C1303 74.6517 1301.81 70.7874 1299.44 67.4452C1297.11 64.1031 1294.26 61.4712 1290.89 59.5495C1287.57 57.6277 1284.2 55.9567 1280.79 54.5363C1277.38 53.0741 1274.48 51.5493 1272.11 49.9617C1269.78 48.3742 1268.62 46.6823 1268.62 44.8859C1268.62 42.8388 1269.6 41.1051 1271.55 39.6847C1273.51 38.2643 1276.02 37.5541 1279.1 37.5541C1281.76 37.5541 1284.36 38.1599 1286.9 39.3714C1289.44 40.5411 1291.14 41.4811 1292.02 42.1913C1292.8 42.8266 1293.4 43.3784 1293.81 43.8465C1293.86 43.9017 1293.91 43.9557 1293.95 44.0086L1310.3 29.8463L1309.11 28.593C1309.03 28.4658 1308.93 28.3364 1308.82 28.2047C1308.12 27.3423 1307.01 26.3855 1305.49 25.3344C1303.75 24.0811 1301.71 22.8278 1299.38 21.5745C1297.09 20.3212 1294.14 19.2559 1290.52 18.3786C1286.9 17.4595 1283.05 17 1278.98 17C1267.37 17 1258.18 20.0079 1251.4 26.0237C1244.66 31.9978 1241.29 39.2252 1241.29 47.7058C1241.29 52.0506 1242.48 55.9149 1244.85 59.2988C1247.26 62.6827 1250.13 65.3564 1253.46 67.3199C1256.83 69.2834 1260.2 71.038 1263.57 72.5838C1266.93 74.1295 1269.8 75.717 1272.18 77.3463ZM1336.72 91.0894L1340.9 71.311H1375.4L1378.53 56.4357H1344.03L1347.88 37.9106H1392.63L1396.05 21.782H1331.55L1313.58 107.218H1379.34L1382.76 91.0894H1336.72ZM1385.49 88.8766L1381.12 109.431H1310.86L1329.77 19.5693H1398.78L1394.41 40.1234H1349.67L1346.74 54.223H1381.24L1377.19 73.5237H1342.68L1339.44 88.8766H1385.49ZM1439.64 19.5693H1415.37L1396.47 109.431H1460.36L1464.91 87.6234H1425.36L1439.64 19.5693ZM1462.2 89.8361H1422.64L1436.93 21.782H1417.16L1399.18 107.218H1458.57L1462.2 89.8361ZM1511.65 41.4393H1556.39L1561 19.5693H1491.99L1473.09 109.431H1497.36L1503.97 77.973H1538.48L1543.1 56.1656H1508.59L1511.65 41.4393ZM1540.37 58.3783H1505.88L1509.86 39.2266H1554.6L1558.28 21.782H1493.78L1475.81 107.218H1495.57L1502.19 75.7602H1536.69L1540.37 58.3783ZM1577.83 105.26L1577.84 105.248C1580.14 103.077 1581.2 100.658 1581.2 97.9004C1581.2 95.6751 1580.41 93.8246 1578.76 92.2275C1577.15 90.6789 1575.03 89.8361 1572.17 89.8361C1569.02 89.8361 1566.37 90.9371 1564.12 93.1985C1561.86 95.4671 1560.84 97.9089 1560.84 100.595C1560.84 102.918 1561.63 104.742 1563.24 106.229C1564.83 107.661 1567 108.471 1569.99 108.471C1572.98 108.471 1575.56 107.428 1577.83 105.26ZM1561.75 107.864C1559.67 105.942 1558.63 103.519 1558.63 100.595C1558.63 97.2529 1559.94 94.2658 1562.56 91.6339C1565.22 88.9602 1568.43 87.6234 1572.17 87.6234C1575.5 87.6234 1578.2 88.626 1580.28 90.6313C1582.36 92.6365 1583.4 95.0596 1583.4 97.9004C1583.4 101.326 1582.05 104.313 1579.35 106.861C1576.68 109.41 1573.57 110.684 1569.99 110.684C1566.58 110.684 1563.83 109.744 1561.75 107.864ZM1583.15 81.1689L1600 19.5693H1574.48L1565.25 81.1689H1583.15ZM1567.81 78.9561H1581.47L1597.11 21.782H1576.38L1567.81 78.9561Z" fill="white"/>
<path d="M80.504 21.8701C72.1378 21.8701 64.8955 24.8571 58.7769 30.8311C52.7 36.8052 49.6615 44.0743 49.6615 52.6385C49.6615 58.529 51.6178 63.4378 55.5303 67.3648C59.4845 71.25 64.5625 73.1926 70.7643 73.1926C73.6779 73.1926 76.529 72.7748 79.3177 71.9393C82.1481 71.062 84.5622 70.0176 86.5601 68.8061C88.558 67.5945 90.3478 66.383 91.9295 65.1715C93.5111 63.9182 94.6766 62.8738 95.4258 62.0383L96.7369 60.7223L107.975 77.0152C107.559 77.5165 106.976 78.1849 106.227 79.0204C105.519 79.8142 103.854 81.2555 101.232 83.3443C98.6515 85.3914 95.9044 87.2087 92.9908 88.7962C90.1189 90.3837 86.352 91.8041 81.6902 93.0574C77.0701 94.3525 72.3251 95 67.4553 95C55.343 95 45.2287 90.9059 37.1122 82.7177C29.0374 74.4877 25 64.9 25 53.9545C25 39.2491 30.6399 26.5908 41.9197 15.9796C53.2411 5.32652 66.7893 0 82.5643 0C87.3509 0 91.8878 0.626649 96.175 1.87995C100.462 3.13325 103.979 4.6372 106.726 6.39182C109.515 8.14644 111.95 9.90106 114.031 11.6557C116.154 13.4103 117.632 14.9142 118.464 16.1675L119.9 17.9848L102.606 32.6484C102.439 32.3978 102.169 32.0218 101.794 31.5204C101.419 30.9774 100.566 30.1 99.2343 28.8885C97.9023 27.6352 96.4455 26.5281 94.8639 25.5673C93.2822 24.6064 91.2011 23.75 88.6204 22.998C86.0398 22.246 83.3343 21.8701 80.504 21.8701Z" fill="#F44D4D"/>
<path d="M217.672 2.56926L198.754 92.4307H174.467L181.772 57.777H149.182L141.877 92.4307H117.59L136.507 2.56926H160.794L153.739 35.9697H186.392L193.385 2.56926H217.672Z" fill="#F44D4D"/>
<path d="M273.675 53.9545L270.866 27.6352L257.068 53.9545H273.675ZM275.985 73.1926H246.579L236.215 92.4307H208.994L261.813 2.56926H288.66L303.581 92.4307H278.42L275.985 73.1926Z" fill="#F44D4D"/>
<path d="M377.816 92.4307H313.883L332.801 2.56926H357.087L342.79 70.6234H382.373L377.816 92.4307Z" fill="#F44D4D"/>
<path d="M454.485 92.4307H390.552L409.47 2.56926H433.757L419.459 70.6234H459.043L454.485 92.4307Z" fill="#F44D4D"/>
<path d="M495.816 71.8766H541.893L537.522 92.4307H467.221L486.139 2.56926H555.191L550.821 23.1234H506.055L503.121 37.223H537.647L533.589 56.5237H499.063L495.816 71.8766Z" fill="#F44D4D"/>
<path d="M631.236 2.56926H655.523L636.605 92.4307H616.002L587.657 42.3615L577.168 92.4307H552.881L571.799 2.56926H592.527L620.622 52.6385L631.236 2.56926Z" fill="#F44D4D"/>
<path d="M703.535 95C691.423 95 681.204 90.9059 672.88 82.7177C664.597 74.4877 660.455 64.9 660.455 53.9545C660.455 39.2491 666.158 26.5908 677.562 15.9796C689.008 5.32652 702.619 0 718.394 0C723.181 0 727.718 0.626649 732.005 1.87995C736.292 3.13325 739.767 4.6372 742.431 6.39182C745.137 8.14644 747.509 9.90106 749.549 11.6557C751.63 13.4103 753.087 14.9142 753.919 16.1675L755.355 17.9848L738.061 32.6484C737.894 32.3978 737.624 32.0218 737.249 31.5204C736.875 30.9774 736.001 30.1 734.627 28.8885C733.253 27.6352 731.797 26.5281 730.257 25.5673C728.717 24.6064 726.656 23.75 724.076 22.998C721.537 22.246 718.914 21.8701 716.209 21.8701C707.843 21.8701 700.559 24.878 694.357 30.8938C688.197 36.9096 685.117 44.2832 685.117 53.0145C685.117 58.8215 687.073 63.6467 690.986 67.4901C694.94 71.2918 700.018 73.1926 706.219 73.1926C709.3 73.1926 712.172 72.7331 714.835 71.814C717.541 70.8531 719.497 69.8505 720.704 68.8061L722.452 67.4274L724.513 57.777H710.465L713.649 42.3615H751.984L744.741 77.0152C744.325 77.5165 743.701 78.1849 742.868 79.0204C742.036 79.8142 740.267 81.2555 737.561 83.3443C734.898 85.3914 732.067 87.2087 729.07 88.7962C726.115 90.3837 722.307 91.8041 717.645 93.0574C713.025 94.3525 708.321 95 703.535 95Z" fill="#F44D4D"/>
<path d="M789.257 71.8766H835.333L830.963 92.4307H760.662L779.58 2.56926H848.632L844.261 23.1234H799.496L796.562 37.223H831.088L827.03 56.5237H792.504L789.257 71.8766Z" fill="#F44D4D"/>
<path d="M941.971 2.56926H969.442L925.301 60.3463L918.558 92.4307H894.271L901.014 60.3463L881.223 2.56926H906.134L916.872 37.223L941.971 2.56926Z" fill="#F44D4D"/>
<path d="M1012.58 21.8701C1005.01 21.8701 998.37 24.7317 992.668 30.4551C987.007 36.1785 984.177 42.9255 984.177 50.6959C984.177 57.1295 986.299 62.4978 990.545 66.8008C994.832 71.062 1000.31 73.1926 1006.97 73.1926C1014.46 73.1926 1021.05 70.4145 1026.76 64.8582C1032.5 59.3019 1035.37 52.4505 1035.37 44.3041C1035.37 37.954 1033.23 32.6275 1028.94 28.3245C1024.7 24.0215 1019.24 21.8701 1012.58 21.8701ZM1060.66 42.7375C1060.66 51.7194 1058.14 60.2419 1053.1 68.3047C1048.07 76.3259 1041.35 82.7803 1032.94 87.6682C1024.57 92.5561 1015.71 95 1006.34 95C992.772 95 981.471 90.8223 972.439 82.467C963.407 74.0699 958.891 64.0018 958.891 52.2625C958.891 38.3927 964.343 26.2148 975.248 15.7289C986.154 5.24296 998.807 0 1013.21 0C1026.78 0 1038.08 4.19855 1047.11 12.5956C1056.14 20.951 1060.66 30.9982 1060.66 42.7375Z" fill="#F44D4D"/>
<path d="M1110.86 73.1926C1115.27 73.1926 1119.33 71.4798 1123.03 68.0541C1126.73 64.6284 1129.15 60.3463 1130.27 55.2078L1141.39 2.56926H1165.67L1154.56 55.2078C1152.1 66.7381 1146.78 76.2632 1138.58 83.783C1130.38 91.261 1120.53 95 1109.04 95C1097.02 95 1087.38 91.1357 1080.14 83.407C1072.9 75.6365 1070.42 66.2368 1072.71 55.2078L1083.88 2.56926H1108.17L1097 55.2078C1095.95 60.2628 1096.85 64.524 1099.68 67.9914C1102.51 71.4589 1106.24 73.1926 1110.86 73.1926Z" fill="#F44D4D"/>
<path d="M1166.61 92.4307L1185.53 2.56926H1225.67C1233.87 2.56926 1240.74 5.22208 1246.28 10.5277C1251.81 15.8333 1254.58 22.0789 1254.58 29.2645C1254.58 33.8182 1253.83 37.9749 1252.33 41.7348C1250.83 45.4947 1249.02 48.44 1246.9 50.5706C1244.78 52.6594 1242.65 54.4558 1240.53 55.9598C1238.45 57.4219 1236.68 58.4037 1235.22 58.905L1232.98 59.7197L1244.59 92.4307H1219.55L1210.19 64.1689H1196.76L1190.9 92.4307H1166.61ZM1218.12 42.3615C1221.2 42.3615 1223.9 41.4215 1226.23 39.5416C1228.56 37.6616 1229.73 35.1759 1229.73 32.0844C1229.73 29.9538 1228.96 28.1574 1227.42 26.6952C1225.92 25.1913 1223.92 24.4393 1221.43 24.4393H1205.19L1201.39 42.3615H1218.12Z" fill="#F44D4D"/>
<path d="M1289.79 74.4459C1293.04 74.4459 1295.81 73.7357 1298.1 72.3153C1300.43 70.8531 1301.59 68.5763 1301.59 65.4848C1301.59 63.6884 1300.38 61.9756 1297.97 60.3463C1295.6 58.717 1292.73 57.1295 1289.35 55.5838C1285.98 54.038 1282.61 52.2834 1279.24 50.3199C1275.91 48.3564 1273.04 45.6827 1270.62 42.2988C1268.25 38.9149 1267.07 35.0506 1267.07 30.7058C1267.07 22.2252 1270.44 14.9978 1277.18 9.02375C1283.96 3.00792 1293.16 0 1304.78 0C1308.86 0 1312.71 0.459543 1316.33 1.37863C1319.95 2.25594 1322.9 3.32124 1325.19 4.57454C1327.52 5.82784 1329.56 7.08113 1331.31 8.33443C1333.06 9.54595 1334.27 10.6321 1334.93 11.593L1336.12 12.8463L1319.76 27.0086C1319.34 26.5073 1318.7 25.9015 1317.82 25.1913C1316.95 24.4811 1315.24 23.5411 1312.71 22.3714C1310.17 21.1598 1307.56 20.5541 1304.9 20.5541C1301.82 20.5541 1299.3 21.2643 1297.35 22.6847C1295.39 24.1051 1294.41 25.8388 1294.41 27.8859C1294.41 29.6823 1295.58 31.3742 1297.91 32.9617C1300.28 34.5493 1303.17 36.0741 1306.59 37.5363C1310 38.9567 1313.37 40.6277 1316.7 42.5495C1320.07 44.4712 1322.92 47.1031 1325.25 50.4452C1327.63 53.7874 1328.81 57.6517 1328.81 62.0383C1328.81 71.6887 1325.38 79.6053 1318.51 85.7883C1311.64 91.9294 1302.11 95 1289.92 95C1285.5 95 1281.24 94.4569 1277.12 93.3707C1273.04 92.3263 1269.63 91.0521 1266.88 89.5481C1264.17 88.0442 1261.78 86.5402 1259.7 85.0363C1257.62 83.5323 1256.1 82.2372 1255.14 81.1511L1253.64 79.5844L1270.13 65.3595C1270.37 65.6102 1270.69 65.9235 1271.06 66.2995C1271.48 66.6755 1272.35 67.4065 1273.68 68.4927C1275.06 69.5789 1276.47 70.5398 1277.93 71.3753C1279.39 72.1691 1281.2 72.8793 1283.36 73.5059C1285.53 74.1326 1287.67 74.4459 1289.79 74.4459Z" fill="#F44D4D"/>
<path d="M1365.27 71.8766H1411.35L1406.98 92.4307H1336.68L1355.6 2.56926H1424.65L1420.28 23.1234H1375.51L1372.58 37.223H1407.11L1403.05 56.5237H1368.52L1365.27 71.8766Z" fill="#F44D4D"/>
<path d="M1486.27 92.4307H1422.34L1441.26 2.56926H1465.54L1451.25 70.6234H1490.83L1486.27 92.4307Z" fill="#F44D4D"/>
<path d="M1517.93 2.56926H1586.98L1582.36 24.4393H1537.59L1534.53 39.1656H1569.06L1564.44 60.973H1529.91L1523.3 92.4307H1499.01L1517.93 2.56926Z" fill="#F44D4D"/>
<path d="M1609.14 64.1689H1591.22L1600.46 2.56926H1626L1609.14 64.1689ZM1584.61 83.595C1584.61 80.2529 1585.92 77.2658 1588.54 74.6339C1591.2 71.9602 1594.41 70.6234 1598.15 70.6234C1601.48 70.6234 1604.19 71.626 1606.27 73.6313C1608.35 75.6365 1609.39 78.0596 1609.39 80.9004C1609.39 84.3261 1608.04 87.3131 1605.33 89.8615C1602.67 92.4099 1599.55 93.684 1595.97 93.684C1592.56 93.684 1589.81 92.7441 1587.73 90.8641C1585.65 88.9424 1584.61 86.5193 1584.61 83.595Z" fill="#F44D4D"/>
</svg>
