<svg width="112" height="44" viewBox="0 0 112 44" fill="none" xmlns="http://www.w3.org/2000/svg">
<path d="M0 43.1681C0.286767 41.3676 0.583423 39.5671 0.860301 37.7641C1.06796 36.4051 1.25337 35.051 1.45608 33.6377H5.39419C4.9319 36.9575 4.4795 40.2133 4.01227 43.5849H0V43.1681Z" fill="#F44D4D"/>
<path d="M55.4646 24.0777C55.8256 21.5348 56.1766 19.3273 56.4535 17.1075C56.7501 14.5843 56.718 14.5818 59.2915 14.5818H60.7599C60.0579 19.5665 59.3731 24.4476 58.6735 29.42C57.4547 29.42 56.2804 29.462 55.1136 29.3904C54.8194 29.3732 54.4708 29.0501 54.2805 28.7738C52.55 26.2679 50.8516 23.7398 49.1409 21.2215C48.8937 20.8639 48.6465 20.5161 48.2139 19.9217C47.7368 23.2711 47.3017 26.3345 46.8641 29.3806H42.9087C43.6058 24.4476 44.2931 19.5715 44.9952 14.5818C46.2312 14.5818 47.4055 14.53 48.5674 14.6163C48.8888 14.641 49.2522 15.0332 49.4673 15.344C51.1755 17.8104 52.8541 20.3213 54.545 22.8124C54.7848 23.1552 55.0345 23.4857 55.4646 24.0777Z" fill="#F44D4D"/>
<path d="M67.1184 20.3509H75.0662C74.9352 21.3794 74.8734 22.3093 74.6658 23.2071C74.6064 23.466 74.1343 23.799 73.8426 23.8064C71.8327 23.8582 69.8204 23.836 67.8081 23.836H66.5943L66.31 25.8782H76.4902C76.3295 27.1312 76.1861 28.2386 76.0427 29.3658H61.8379C62.535 24.4181 63.2223 19.5394 63.9145 14.6337H78.0921C77.9413 15.7756 77.7979 16.8535 77.6373 18.062H74.1763C72.337 18.062 70.4953 18.1286 68.661 18.0374C67.6177 17.9856 67.1777 18.3309 67.2172 19.3446C67.2051 19.6817 67.1721 20.0178 67.1184 20.3509Z" fill="#F44D4D"/>
<path d="M96.1436 29.1339C96.3215 27.8859 96.4872 26.7365 96.6553 25.5699C98.4327 25.8166 100.099 26.1175 101.778 26.2359C103.15 26.332 104.536 26.2137 105.918 26.1693C106.162 26.1831 106.402 26.1135 106.601 25.9719C106.934 25.634 107.382 25.232 107.407 24.8324C107.424 24.5611 106.836 24.0432 106.467 23.9914C105.068 23.7916 103.642 23.7817 102.235 23.614C101.375 23.5233 100.53 23.3313 99.7158 23.0418C98.0496 22.4153 97.3351 21.0958 97.5799 19.3421C97.9779 16.4687 99.6268 14.868 102.841 14.3599C105.659 13.9481 108.53 14.0593 111.308 14.6879C111.884 14.8088 112.074 15.0283 111.975 15.5882C111.812 16.5007 111.681 17.4207 111.533 18.3481C109.708 18.1261 107.941 17.8351 106.163 17.7241C105.026 17.6944 103.889 17.7721 102.766 17.956C102.121 18.0398 101.431 18.4246 101.647 19.1547C101.77 19.5641 102.447 20.013 102.927 20.082C104.635 20.3287 106.388 20.3065 108.089 20.5753C110.262 20.9231 111.51 22.1292 111.55 23.8557C111.584 25.9571 110.872 27.7897 108.86 28.7418C107.769 29.2589 106.6 29.5922 105.399 29.7284C102.302 30.037 99.1754 29.8362 96.1436 29.1339Z" fill="#F44D4D"/>
<path d="M78.6904 29.1364C78.8684 27.9031 79.0365 26.7488 79.2071 25.5699C80.9376 25.8042 82.6088 26.11 84.2873 26.226C85.7016 26.283 87.1179 26.26 88.5295 26.1569C88.9021 26.1572 89.2603 26.0135 89.529 25.756C89.7977 25.4985 89.9561 25.1471 89.9708 24.7757C89.9229 24.6045 89.8326 24.4481 89.7081 24.321C89.5837 24.1938 89.4292 24.0999 89.2588 24.0481C87.8917 23.8606 86.5098 23.7842 85.1328 23.6559C84.6501 23.6178 84.1698 23.5535 83.694 23.4635C82.1044 23.1454 80.5495 22.6225 80.233 20.8121C79.8622 18.7477 80.3987 16.8806 82.2107 15.5807C83.5611 14.6443 85.1776 14.1661 86.8213 14.2168C89.1624 14.2414 91.501 14.535 93.8446 14.6953C94.4552 14.7372 94.5986 15.0504 94.5121 15.5906C94.3613 16.5057 94.2278 17.4256 94.0869 18.3506C92.2377 18.1236 90.4701 17.8252 88.6902 17.7241C87.5193 17.67 86.6708 17.6644 85.5266 17.9182C85.1063 18.0095 84.2097 18.2641 84.1316 19.1916C84.2873 19.9245 84.9301 19.9957 85.3825 20.0721C86.5048 20.2596 87.6593 20.2448 88.799 20.3311C89.3513 20.3665 89.901 20.434 90.4454 20.5334C92.0745 20.854 93.5504 21.4287 94.0127 23.2465C94.4626 25.0223 93.6419 27.4641 92.0029 28.3422C90.6425 29.0774 89.1571 29.5541 87.6222 29.7481C84.6903 30.086 81.7485 29.8196 78.6904 29.1364Z" fill="#F44D4D"/>
<path d="M98.1406 43.4852C98.2621 42.6473 98.3768 41.863 98.4932 41.062C99.674 41.2212 100.814 41.429 101.96 41.5078C102.925 41.5465 103.891 41.5309 104.855 41.4608C105.109 41.461 105.353 41.3634 105.537 41.1884C105.72 41.0135 105.828 40.7748 105.838 40.5224C105.805 40.4061 105.744 40.2999 105.659 40.2135C105.574 40.1271 105.469 40.0633 105.352 40.0281C104.419 39.9007 103.476 39.8487 102.537 39.7616C102.207 39.7357 101.88 39.6921 101.555 39.6309C100.47 39.4147 99.4092 39.0595 99.1933 37.8294C98.9402 36.4268 99.3063 35.1583 100.543 34.2751C101.464 33.6389 102.567 33.314 103.689 33.3484C105.286 33.3652 106.882 33.5646 108.482 33.6735C108.898 33.702 108.996 33.9148 108.937 34.2818C108.834 34.9035 108.743 35.5286 108.647 36.157C107.385 36.0028 106.179 35.8001 104.964 35.7314C104.165 35.6946 103.634 35.6641 102.854 35.8365C102.567 35.8985 101.854 36.157 101.854 36.7285C101.854 37.2202 102.398 37.2748 102.707 37.3267C103.473 37.4541 104.261 37.444 105.039 37.5027C105.415 37.5267 105.791 37.5726 106.162 37.6401C107.274 37.8579 108.281 38.2484 108.596 39.4834C108.903 40.69 108.343 42.349 107.225 42.9456C106.296 43.4451 105.283 43.769 104.236 43.9008C102.235 44.1303 100.227 43.9494 98.1406 43.4852Z" fill="white"/>
<path d="M6.0714 29.3781H2.1333C2.82797 24.4452 3.51522 19.5641 4.20989 14.6385H18.3777C18.2368 15.6991 18.1478 16.7104 17.9302 17.6945C17.8882 17.877 17.3221 18.0423 16.9957 18.0472C14.2937 18.0743 11.5892 18.062 8.88469 18.062H7.7129L7.39646 20.3213H15.379C15.2158 21.5126 15.0798 22.583 14.9018 23.8014H6.89709L6.0714 29.3781Z" fill="#F44D4D"/>
<path d="M26.8076 18.1064C26.951 16.9669 27.0375 16.042 27.2106 15.1467C27.2554 15.0142 27.3331 14.8952 27.4364 14.8008C27.5397 14.7064 27.6653 14.6395 27.8014 14.6065C32.7209 14.6065 37.6405 14.6213 42.56 14.6435C42.5872 14.6435 42.6144 14.6805 42.7405 14.7742C42.6317 15.6646 42.5674 16.6241 42.3672 17.5589C42.3202 17.7734 41.8258 18.025 41.5267 18.0373C40.1423 18.0891 38.7529 18.0817 37.3686 18.0521C36.7209 18.0373 36.4761 18.2618 36.3797 18.9253C35.9248 22.3783 35.4106 25.8314 34.9088 29.3535H30.9781L32.5454 18.1039L26.8076 18.1064Z" fill="#F44D4D"/>
<path d="M22.9906 29.3757H19.0352C19.7274 24.4428 20.4121 19.5666 21.1043 14.6411H25.0597C24.3577 19.574 23.6753 24.4403 22.9906 29.3757Z" fill="#F44D4D"/>
<path d="M7.7701 33.6426H11.4585L10.1038 43.4641H6.42773C6.8653 40.2009 7.31028 36.9724 7.7701 33.6426Z" fill="#F44D4D"/>
<path d="M17.5151 33.6327C17.0578 36.9871 16.6103 40.1886 16.1579 43.464H12.7612C13.0702 41.2245 13.3743 39.0244 13.6784 36.8046C13.7896 35.9857 13.8613 35.157 14.0319 34.3382C14.0888 34.0742 14.3854 33.6771 14.598 33.6599C15.5177 33.5982 16.4472 33.6327 17.5151 33.6327Z" fill="#F44D4D"/>
<path d="M19.1514 43.5035C19.3566 41.9274 19.5296 40.5043 19.7274 39.0861C19.9054 37.7567 20.113 36.4297 20.2688 35.0954C20.4319 33.6821 20.422 33.6722 21.8163 33.6697H23.5196C23.3466 34.9745 23.2057 36.1239 23.045 37.2683C22.7978 39.0762 22.5036 40.8767 22.3033 42.6945C22.2218 43.3728 21.9251 43.5627 21.2898 43.5183C20.6544 43.4739 19.9845 43.5035 19.1514 43.5035Z" fill="#FF7B7B"/>
<path d="M25.2505 43.5035C25.4557 41.9274 25.6287 40.5043 25.8265 39.0861C26.0045 37.7567 26.2121 36.4297 26.3679 35.0954C26.5311 33.6821 26.5212 33.6722 27.9154 33.6697H29.6187C29.4457 34.9745 29.3048 36.1239 29.1441 37.2683C28.8969 39.0762 28.6027 40.8767 28.4025 42.6945C28.3209 43.3728 28.0242 43.5627 27.3889 43.5183C26.7535 43.4739 26.0836 43.5035 25.2505 43.5035Z" fill="#FFA2A2"/>
<path d="M31.3501 43.5035C31.5553 41.9274 31.7283 40.5043 31.9261 39.0861C32.1041 37.7567 32.3118 36.4297 32.4675 35.0954C32.6307 33.6821 32.6208 33.6722 34.0151 33.6697H35.7183C35.5453 34.9745 35.4044 36.1239 35.2437 37.2683C34.9965 39.0762 34.7023 40.8767 34.5021 42.6945C34.4205 43.3728 34.1238 43.5627 33.4885 43.5183C32.8532 43.4739 32.1832 43.5035 31.3501 43.5035Z" fill="#FFC9C9"/>
<path d="M37.7261 43.5035C37.9313 41.9274 38.1043 40.5043 38.3021 39.0861C38.4801 37.7567 38.6877 36.4297 38.8435 35.0954C39.0066 33.6821 38.9967 33.6722 40.391 33.6697H41.8171C41.644 34.9745 41.5031 36.1239 41.3424 37.2683C41.0952 39.0762 40.801 40.8767 40.6008 42.6945C40.5192 43.3728 40.2226 43.5627 39.5872 43.5183C38.9519 43.4739 38.5592 43.5035 37.7261 43.5035Z" fill="#FFE6E6"/>
<path fill-rule="evenodd" clip-rule="evenodd" d="M11.3836 0C8.23945 0 5.58949 2.34588 5.20815 5.46683C4.87128 8.22382 7.02267 10.6541 9.80016 10.6541H11.0749C14.1384 10.6541 16.7204 8.36836 17.092 5.32744C17.4379 2.49594 15.2284 0 12.3759 0H11.3836ZM11.1168 2.35221C9.45828 2.35221 8.0605 3.58974 7.85954 5.23603C7.66063 6.86558 8.93227 8.30189 10.5739 8.30189H11.1064C12.8186 8.30189 14.2617 7.02429 14.4691 5.32468C14.662 3.74477 13.4291 2.35221 11.8374 2.35221H11.1168Z" fill="white"/>
<path d="M70.9717 43.5849L72.3578 33.6918H75.2688L78.1797 38.6038L82.4076 33.6918H85.2492L83.9323 43.5849H81.16L81.7838 37.7736L78.5263 41.4403H76.9322L74.5757 37.7736L73.744 43.5849H70.9717Z" fill="white"/>
<path d="M19.6142 0.484314L18.2974 10.239H21.139L21.8321 4.15098L26.1292 10.239H28.9708L30.2184 0.484314H27.4461L26.6837 6.57236L22.2479 0.484314H19.6142Z" fill="white"/>
<path d="M48.4467 0.4151L47.1299 10.1698H49.9715L50.6646 4.08177L54.9617 10.1698H57.8034L59.0509 0.4151H56.2786L55.5162 6.50315L51.0805 0.4151H48.4467Z" fill="white"/>
<path d="M59.8823 10.1698L61.0606 0.484314H70.5558L70.2093 2.76733H63.5557L63.3477 4.22016H68.6152L68.2686 6.64154H63.0012L62.7933 8.02519H69.5855L69.3083 10.1698H59.8823Z" fill="white"/>
<path d="M86.3584 43.5849L87.5672 33.6226H97.3091L96.9536 35.9709H90.1272L89.9138 37.4652H95.3181L94.9625 39.9558H89.5583L89.345 41.2406H96.3136L96.0292 43.5849H86.3584Z" fill="white"/>
<path d="M31.0503 10.239L32.3672 0.4151H34.9316L33.9612 8.02516H40.7535L40.5455 10.239H31.0503Z" fill="white"/>
<path d="M42.4169 10.239L43.6644 0.4151H46.2288L44.9813 10.239H42.4169Z" fill="white"/>
<path fill-rule="evenodd" clip-rule="evenodd" d="M57.1099 43.5849L63.4169 33.6226H66.1893L69.6547 43.5849H66.9517L66.1893 41.717H60.9911L59.8129 43.5849H57.1099ZM64.4565 36.1824L62.4466 39.3648H65.4962L64.4565 36.1824Z" fill="white"/>
<path d="M56.6944 36.1132L56.9023 33.8302C56.0937 33.5535 53.6032 33.0692 50.1101 33.3459C45.7436 33.6918 45.1892 38.0503 45.1199 39.0881C45.0506 40.1258 44.704 43.0315 48.1001 43.6541C50.817 44.1522 54.4996 43.6772 56.0013 43.3774L56.4171 38.7422H53.6448L53.3676 41.3019C52.7207 41.3711 51.0111 41.4679 49.3477 41.3019C47.2684 41.0944 47.615 36.9434 49.5556 36.1132C51.1081 35.4491 54.9616 35.8365 56.6944 36.1132Z" fill="white"/>
</svg>
