<svg width="102" height="424" viewBox="0 0 102 424" fill="none" xmlns="http://www.w3.org/2000/svg">
<g opacity="0.1" filter="url(#filter0_d)">
<path fill-rule="evenodd" clip-rule="evenodd" d="M39.6412 26.234L39.6412 37.8386C39.6412 44.9593 41.7652 50.8754 46.0132 55.5869C50.2612 60.2983 55.7098 62.6541 62.3588 62.6541C66.9499 62.6541 70.934 60.8739 74.3113 57.3135C77.6887 53.7532 79.3773 49.2826 79.3773 43.9019L79.3773 19.1668L22.6227 7L22.6227 22.6201L39.6412 26.234ZM23.9093 21.5597L40.9278 25.1736L40.9278 37.8386C40.9278 44.6738 42.957 50.2633 46.9625 54.7058C50.9517 59.1302 56.0479 61.3487 62.3588 61.3487C66.577 61.3487 70.2331 59.7304 73.3843 56.4084C76.5094 53.1139 78.0907 48.978 78.0907 43.9019L78.0907 20.2251L23.9093 8.60997L23.9093 21.5597ZM66.8512 30.7575L66.8512 41.2116C66.8512 43.1105 66.2192 44.7626 64.9309 46.0697C63.6823 47.3365 62.1755 48.0181 60.4591 48.0181C58.2091 48.0181 56.2376 47.1174 54.5938 45.4188C52.9513 43.7209 52.1277 41.6221 52.1277 39.2039L52.1277 27.5948L66.8512 30.7575ZM65.5646 31.8154L65.5646 41.2116C65.5646 42.791 65.0501 44.1027 64.0211 45.1467C62.9921 46.1907 61.8048 46.7127 60.4591 46.7127C58.5858 46.7127 56.9367 45.9766 55.5119 44.5042C54.1135 43.0587 53.4143 41.2919 53.4143 39.2039L53.4143 29.2054L65.5646 31.8154ZM43.7968 108.31C44.1135 109.247 44.7335 110.384 45.657 111.723C46.6069 113.088 47.7414 114.453 49.0607 115.819C50.4063 117.184 52.2665 118.348 54.6412 119.312C57.0158 120.276 59.6412 120.758 62.5171 120.758C67.0554 120.758 71 118.977 74.3509 115.417C77.7018 111.857 79.3773 107.44 79.3773 102.166L79.3773 76.3467L22.6227 64.1799L22.6227 79.8L40.4723 83.5745L40.4723 92.2077L22.6227 98.2309L22.6227 114.333L43.2823 106.864L43.7968 108.31ZM23.9093 112.482L44.0573 105.198L45.0105 107.876L45.0139 107.886C45.2743 108.657 45.8176 109.679 46.71 110.973C47.6134 112.271 48.7 113.58 49.9749 114.9C51.1626 116.103 52.8564 117.182 55.119 118.1C57.3239 118.995 59.7846 119.452 62.5171 119.452C66.6777 119.452 70.2935 117.838 73.4204 114.516C76.5255 111.216 78.0907 107.13 78.0907 102.166L78.0907 77.4051L23.9093 65.7899L23.9093 78.7387L41.7589 82.5132L41.7589 93.1492L23.9093 99.1724L23.9093 112.482ZM65.5646 88.9954L65.5646 99.4355C65.5646 101.042 65.0897 102.327 64.1398 103.29C63.2164 104.281 62.0818 104.776 60.7361 104.776C58.7836 104.776 57.2137 104.027 56.0264 102.527C54.8391 101.028 54.2454 99.2883 54.2454 97.3073L54.2454 86.5459L65.5646 88.9954ZM65.0623 104.2C66.2874 102.95 66.8512 101.315 66.8512 99.4355L66.8512 87.9391L52.9588 84.9328L52.9588 97.3073C52.9588 99.576 53.6466 101.607 55.0235 103.345C56.4634 105.163 58.4074 106.081 60.7361 106.081C62.429 106.081 63.8974 105.443 65.0623 104.2ZM62.6716 146.293L62.6749 146.296C66.5137 150.191 68.4739 154.786 68.4739 160.029C68.4739 164.619 67.0054 168.471 64.0195 171.473C61.0493 174.486 57.3532 175.99 53.0185 175.99C47.5318 175.99 42.8687 174.005 39.1126 170.052C35.3867 166.157 33.4865 161.594 33.4865 156.415C33.4865 151.827 34.9402 147.964 37.8958 144.936L37.9047 144.927C40.8795 141.938 44.6026 140.453 48.9815 140.453C54.2428 140.453 58.826 142.42 62.6716 146.293ZM40.0369 169.144C43.5462 172.838 47.8734 174.685 53.0185 174.685C57.029 174.685 60.3931 173.306 63.1108 170.549C65.8285 167.819 67.1873 164.312 67.1873 160.029C67.1873 155.157 65.3799 150.887 61.7652 147.219C58.1504 143.579 53.8892 141.758 48.9815 141.758C44.9182 141.758 41.5277 143.124 38.81 145.854C36.1187 148.611 34.7731 152.132 34.7731 156.415C34.7731 161.233 36.5277 165.476 40.0369 169.144ZM73.0448 182.234C78.3483 176.425 81 169.157 81 160.43C81 151.168 77.6886 143.03 71.066 136.016C64.4433 129.003 56.752 125.496 47.9921 125.496C40.5778 125.496 34.219 128.4 28.9156 134.209C23.6385 140.018 21 147.286 21 156.013C21 162.036 22.5435 167.738 25.6306 173.119C28.7177 178.526 32.7942 182.85 37.8602 186.089C42.9525 189.328 48.3351 190.947 54.0079 190.947C61.4222 190.947 67.7678 188.043 73.0448 182.234ZM38.5436 184.983C43.4439 188.1 48.5914 189.642 54.0079 189.642C61.0429 189.642 67.0515 186.905 72.0988 181.349L72.101 181.347C77.1608 175.805 79.7134 168.865 79.7134 160.43C79.7134 151.522 76.5425 143.703 70.1369 136.919C63.7319 130.136 56.3667 126.801 47.9921 126.801C40.9575 126.801 34.935 129.538 29.8609 135.095C24.8269 140.637 22.2866 147.577 22.2866 156.013C22.2866 161.798 23.7659 167.274 26.7426 172.462L26.7439 172.465C29.7292 177.694 33.6602 181.86 38.5436 184.983ZM70.9076 207.25C64.2058 199.915 56.2111 196.248 46.9235 196.248C40.0106 196.248 33.9551 198.911 28.7573 204.239C23.5858 209.593 21 216.164 21 223.954C21 227.033 21.409 230.058 22.2269 233.029C23.0185 236.028 23.9156 238.477 24.9182 240.378C25.9209 242.305 27.0686 244.125 28.3615 245.839C29.6807 247.579 30.591 248.716 31.0924 249.252C31.6201 249.787 32.0422 250.189 32.3588 250.456L54.2454 255.114L54.2454 230.459L44.5092 228.412L44.5092 237.446L38.4143 236.121L37.5435 234.997C36.8839 234.221 36.2507 232.962 35.6438 231.222C35.0633 229.509 34.7731 227.662 34.7731 225.681C34.7731 221.692 35.9736 218.427 38.3747 215.883C40.8021 213.367 43.8496 212.109 47.5171 212.109C53.0317 212.109 57.6887 214.09 61.4881 218.052C65.2876 222.04 67.1873 226.725 67.1873 232.106C67.1873 233.846 66.9499 235.532 66.4749 237.165C66 238.825 65.4591 240.15 64.8522 241.141C64.2454 242.131 63.5462 243.068 62.7546 243.951C62.1935 244.599 61.746 245.074 61.4119 245.376C61.2904 245.486 61.1838 245.574 61.0923 245.638C60.7757 245.879 60.5383 246.053 60.3799 246.16L69.6412 257.283L70.7889 256.359C71.5805 255.824 72.5303 254.887 73.6385 253.548C74.7467 252.237 75.8549 250.711 76.9631 248.971C78.0712 247.257 79.0211 245.022 79.8127 242.265C80.6042 239.508 81 236.59 81 233.511C81 223.366 77.6359 214.612 70.9076 207.25ZM69.819 255.473L70.031 255.303L70.0752 255.273C70.7144 254.841 71.5711 254.016 72.6534 252.709L72.6616 252.699C73.7256 251.439 74.7997 249.962 75.8824 248.262L75.8874 248.254C76.9037 246.683 77.8084 244.578 78.5774 241.9C79.3325 239.269 79.7134 236.475 79.7134 233.511C79.7134 223.691 76.4693 215.255 69.9642 208.138C63.4891 201.051 55.829 197.553 46.9235 197.553C40.381 197.553 34.6492 200.057 29.6754 205.153C24.7501 210.252 22.2866 216.492 22.2866 223.954C22.2866 226.914 22.6796 229.821 23.4661 232.678L23.4698 232.692C24.2459 235.632 25.1119 237.978 26.0526 239.762L26.0561 239.768C27.0251 241.631 28.1337 243.389 29.3819 245.044C30.6967 246.778 31.5636 247.857 32.0142 248.341C32.3937 248.726 32.704 249.026 32.949 249.248L52.9588 253.507L52.9588 231.522L45.7958 230.015L45.7958 239.061L37.6899 237.299L36.5487 235.825C35.7411 234.864 35.0502 233.433 34.4309 231.658L34.427 231.647C33.7962 229.785 33.4865 227.793 33.4865 225.681C33.4865 221.404 34.7842 217.799 37.4456 214.98L37.4551 214.97C40.1396 212.188 43.5255 210.804 47.5171 210.804C53.3742 210.804 58.3653 212.924 62.4103 217.141L62.4133 217.145C66.4366 221.368 68.4739 226.375 68.4739 232.106C68.4739 233.967 68.2198 235.777 67.7097 237.532C67.2163 239.256 66.6355 240.703 65.9449 241.83C65.2978 242.886 64.5537 243.883 63.7139 244.821C63.1605 245.46 62.6623 245.997 62.2421 246.374L69.819 255.473ZM43.7968 304.825C44.1135 305.762 44.7335 306.9 45.657 308.239C46.6069 309.604 47.7414 310.969 49.0607 312.334C50.4063 313.7 52.2665 314.864 54.6412 315.828C57.0158 316.792 59.6412 317.273 62.5171 317.273C67.0554 317.273 71 315.493 74.3509 311.933C77.7018 308.372 79.3773 303.955 79.3773 298.682L79.3773 272.863L22.6227 260.696L22.6227 276.316L40.4723 280.09L40.4723 288.724L22.6227 294.747L22.6227 310.849L43.2823 303.38L43.7968 304.825ZM23.9093 308.998L44.0573 301.714L45.0105 304.392L45.0139 304.402C45.2741 305.172 45.817 306.194 46.7084 307.486C47.6121 308.785 48.6993 310.095 49.9749 311.416C51.1626 312.619 52.8564 313.698 55.119 314.616C57.3239 315.511 59.7845 315.968 62.5171 315.968C66.6776 315.968 70.2935 314.354 73.4204 311.031C76.5255 307.732 78.0907 303.646 78.0907 298.682L78.0907 273.921L23.9093 262.306L23.9093 275.255L41.7589 279.029L41.7589 289.665L23.9093 295.688L23.9093 308.998ZM65.5646 285.511L65.5646 295.951C65.5646 297.558 65.0897 298.842 64.1398 299.806C63.2164 300.797 62.0818 301.292 60.7361 301.292C58.7836 301.292 57.2137 300.542 56.0264 299.043C54.839 297.544 54.2454 295.804 54.2454 293.823L54.2454 283.062L65.5646 285.511ZM65.0621 300.716C66.2873 299.466 66.8512 297.831 66.8512 295.951L66.8512 284.455L52.9588 281.449L52.9588 293.823C52.9588 296.092 53.6466 298.123 55.0235 299.861C56.4634 301.679 58.4074 302.597 60.7361 302.597C62.4289 302.597 63.8972 301.959 65.0621 300.716ZM34.3176 336.663L46.5874 339.305L46.5874 361.509L56.2042 363.568L56.2042 341.366L67.6824 343.799L67.6824 372.594L78.0907 374.848L78.0907 333.109L23.9093 321.493L23.9093 364.041L34.3176 366.295L34.3176 336.663ZM35.6042 367.908L22.6227 365.097L22.6227 319.883L79.3773 332.05L79.3773 376.461L66.3958 373.65L66.3958 344.859L57.4908 342.972L57.4908 365.178L45.3008 362.568L45.3008 340.362L35.6042 338.274L35.6042 367.908ZM34.2361 401.045L34.2328 401.039C33.1863 399.322 32.6949 397.293 32.6949 395.012C32.6949 393.517 32.9118 392.017 33.339 390.515C33.752 389.062 34.2319 387.804 34.7901 386.76L34.7968 386.748L34.8038 386.735C35.3643 385.74 36.0071 384.777 36.7308 383.845L36.7368 383.837L36.7429 383.829C37.2847 383.153 37.7004 382.643 37.9802 382.313L30.6467 373.66L30.6188 373.687L30.5992 373.704C30.0194 374.225 29.2669 375.11 28.337 376.421C27.4228 377.709 26.5003 379.202 25.571 380.904C24.6873 382.549 23.9169 384.634 23.2757 387.184L23.2734 387.193C22.6164 389.731 22.2866 392.363 22.2866 395.093C22.2866 402.72 24.1694 408.503 27.7757 412.612C31.4252 416.74 36.0709 418.804 41.8179 418.804C44.3403 418.804 46.5158 418.114 48.3933 416.757L48.402 416.751C50.3641 415.357 51.893 413.666 53.0079 411.674L53.0113 411.668C54.1985 409.573 55.2293 407.455 56.1044 405.314L56.1095 405.301C57.0554 403.053 58.0541 401.118 59.1115 399.508L59.1174 399.499C60.2174 397.855 61.6244 396.678 63.3878 396.678C65.1728 396.678 66.6268 397.579 67.7152 399.106C68.81 400.641 69.305 402.55 69.305 404.73C69.305 406.645 68.8766 408.505 68.0367 410.301C67.3012 411.926 66.6508 413.16 66.0897 413.863C65.9547 414.032 65.8218 414.193 65.6911 414.345L72.9944 422.935C73.4062 422.628 73.9698 422.013 74.6774 420.973L74.6832 420.965L74.6892 420.956C75.4424 419.886 76.2055 418.624 76.9767 417.164L76.9813 417.155C77.7013 415.816 78.3407 414.033 78.8786 411.772L78.8819 411.758C79.4341 409.543 79.7134 407.175 79.7134 404.649C79.7134 397.406 77.875 391.829 74.3366 387.765C70.7899 383.689 66.5679 381.701 61.6068 381.701C59.1153 381.701 56.9372 382.389 55.0289 383.75C53.0306 385.203 51.4713 386.915 50.3301 388.884C49.1105 391.017 48.0223 393.147 47.0647 395.274C46.0666 397.491 45.0298 399.406 43.9498 401.008C42.8351 402.687 41.4174 403.907 39.6412 403.907C37.3086 403.907 35.4265 402.977 34.2361 401.045ZM42.8865 400.273C41.8575 401.825 40.7757 402.602 39.6412 402.602C37.6887 402.602 36.2507 401.852 35.3272 400.353C34.4301 398.881 33.9815 397.1 33.9815 395.012C33.9815 393.647 34.1794 392.268 34.5752 390.876C34.971 389.484 35.4195 388.32 35.9208 387.383C36.4485 386.446 37.0554 385.536 37.7414 384.653C38.4274 383.796 38.8892 383.234 39.1266 382.966L39.7203 382.364L30.7361 371.763L29.7467 372.727C29.0607 373.342 28.2427 374.319 27.2929 375.658C26.343 376.996 25.3931 378.536 24.4433 380.276C23.4934 382.042 22.6887 384.238 22.029 386.861C21.343 389.511 21 392.255 21 395.093C21 402.936 22.9393 409.066 26.8179 413.483C30.723 417.9 35.723 420.109 41.8179 420.109C44.5884 420.109 47.029 419.346 49.1398 417.82C51.2506 416.321 52.9129 414.487 54.1266 412.319C55.3404 410.177 56.3958 408.009 57.2929 405.814C58.2163 403.619 59.1794 401.758 60.182 400.232C61.1847 398.733 62.2533 397.984 63.3878 397.984C64.6807 397.984 65.7757 398.613 66.6728 399.871C67.5699 401.129 68.0185 402.749 68.0185 404.73C68.0185 406.443 67.6359 408.116 66.8707 409.749C66.1319 411.382 65.5382 412.48 65.0897 413.042C64.6883 413.545 64.3396 413.93 64.0439 414.197C64.0092 414.229 63.9752 414.258 63.9419 414.286L72.8865 424.807L73.6781 424.044C73.7303 424.007 73.7831 423.968 73.8364 423.926C74.4036 423.48 75.0368 422.743 75.7361 421.715C76.5277 420.591 77.3192 419.279 78.1108 417.78C78.9024 416.308 79.5752 414.407 80.1293 412.078C80.7097 409.749 81 407.273 81 404.649C81 397.181 79.1002 391.265 75.3008 386.901C71.5277 382.564 66.963 380.396 61.6068 380.396C58.8628 380.396 56.4222 381.159 54.285 382.685C52.1477 384.238 50.4591 386.085 49.219 388.226C47.9789 390.395 46.8707 392.563 45.8945 394.731C44.9182 396.9 43.9156 398.747 42.8865 400.273ZM34.2361 451.238L34.2328 451.232C33.1863 449.515 32.6949 447.486 32.6949 445.205C32.6949 443.711 32.9118 442.21 33.339 440.708C33.752 439.255 34.2319 437.997 34.7901 436.953L34.7968 436.941L34.8038 436.928C35.3643 435.933 36.0071 434.97 36.7308 434.038L36.7368 434.03L36.7429 434.022C37.2847 433.346 37.7004 432.836 37.9802 432.506L30.6467 423.853L30.6188 423.88L30.5992 423.897C30.0194 424.418 29.2669 425.303 28.337 426.614C27.4228 427.902 26.5003 429.395 25.571 431.097C24.6873 432.742 23.9169 434.827 23.2757 437.377L23.2734 437.386C22.6164 439.924 22.2866 442.556 22.2866 445.286C22.2866 452.913 24.1694 458.696 27.7757 462.805C31.4252 466.933 36.0709 468.997 41.8179 468.997C44.3403 468.997 46.5158 468.307 48.3933 466.95L48.402 466.944C50.3641 465.55 51.893 463.859 53.0079 461.867L53.0113 461.861C54.1985 459.766 55.2293 457.648 56.1044 455.507L56.1095 455.495C57.0554 453.246 58.0541 451.311 59.1115 449.701L59.1174 449.693C60.2174 448.048 61.6244 446.872 63.3878 446.872C65.1728 446.872 66.6268 447.772 67.7152 449.299C68.81 450.834 69.305 452.743 69.305 454.923C69.305 456.838 68.8766 458.698 68.0367 460.494C67.3012 462.119 66.6508 463.353 66.0897 464.056C65.9547 464.225 65.8218 464.386 65.6911 464.538L72.9944 473.128C73.4062 472.821 73.9698 472.206 74.6774 471.166L74.6832 471.158L74.6892 471.149C75.4424 470.08 76.2055 468.817 76.9767 467.357L76.9813 467.348C77.7013 466.009 78.3407 464.226 78.8786 461.965L78.8819 461.951C79.4341 459.736 79.7134 457.368 79.7134 454.842C79.7134 447.6 77.875 442.022 74.3366 437.958C70.7899 433.882 66.5679 431.895 61.6068 431.895C59.1153 431.895 56.9372 432.582 55.0288 433.943C53.0306 435.396 51.4713 437.108 50.3301 439.077C49.1105 441.21 48.0223 443.34 47.0647 445.467C46.0666 447.684 45.0298 449.599 43.9498 451.201C42.8351 452.88 41.4174 454.1 39.6412 454.1C37.3086 454.1 35.4265 453.17 34.2361 451.238ZM42.8865 450.466C41.8575 452.018 40.7757 452.795 39.6412 452.795C37.6886 452.795 36.2507 452.045 35.3272 450.546C34.4301 449.074 33.9815 447.293 33.9815 445.205C33.9815 443.84 34.1794 442.462 34.5752 441.07C34.971 439.677 35.4195 438.513 35.9208 437.576C36.4485 436.639 37.0554 435.729 37.7414 434.846C38.4274 433.989 38.8892 433.427 39.1266 433.159L39.7203 432.557L30.7361 421.956L29.7467 422.92C29.0607 423.535 28.2427 424.512 27.2929 425.851C26.343 427.189 25.3931 428.729 24.4433 430.469C23.4934 432.236 22.6887 434.431 22.029 437.054C21.343 439.704 21 442.448 21 445.286C21 453.129 22.9393 459.259 26.8179 463.676C30.7229 468.093 35.7229 470.302 41.8179 470.302C44.5884 470.302 47.029 469.539 49.1398 468.013C51.2506 466.514 52.9129 464.68 54.1266 462.512C55.3404 460.37 56.3958 458.202 57.2929 456.007C58.2163 453.812 59.1794 451.951 60.182 450.426C61.1847 448.926 62.2533 448.177 63.3878 448.177C64.6807 448.177 65.7757 448.806 66.6728 450.064C67.5699 451.322 68.0185 452.942 68.0185 454.923C68.0185 456.636 67.6359 458.309 66.8707 459.942C66.1319 461.575 65.5382 462.673 65.0897 463.235C64.6883 463.738 64.3396 464.123 64.0439 464.39C64.0092 464.422 63.9752 464.451 63.9419 464.48L72.8865 475L73.6781 474.237C73.7303 474.2 73.7831 474.161 73.8364 474.119C74.4036 473.673 75.0368 472.936 75.7361 471.908C76.5277 470.784 77.3192 469.472 78.1108 467.973C78.9024 466.501 79.5752 464.6 80.1293 462.271C80.7097 459.942 81 457.466 81 454.842C81 447.374 79.1002 441.458 75.3008 437.094C71.5277 432.758 66.963 430.589 61.6068 430.589C58.8628 430.589 56.4222 431.352 54.2849 432.878C52.1477 434.431 50.4591 436.278 49.219 438.419C47.9789 440.588 46.8707 442.756 45.8945 444.924C44.9182 447.093 43.9156 448.94 42.8865 450.466Z" fill="white"/>
</g>
<defs>
<filter id="filter0_d" x="0" y="0" width="102" height="510" filterUnits="userSpaceOnUse" color-interpolation-filters="sRGB">
<feFlood flood-opacity="0" result="BackgroundImageFix"/>
<feColorMatrix in="SourceAlpha" type="matrix" values="0 0 0 0 0 0 0 0 0 0 0 0 0 0 0 0 0 0 127 0"/>
<feOffset dy="14"/>
<feGaussianBlur stdDeviation="10.5"/>
<feColorMatrix type="matrix" values="0 0 0 0 0 0 0 0 0 0 0 0 0 0 0 0 0 0 1 0"/>
<feBlend mode="normal" in2="BackgroundImageFix" result="effect1_dropShadow"/>
<feBlend mode="normal" in="SourceGraphic" in2="effect1_dropShadow" result="shape"/>
</filter>
</defs>
</svg>
