<svg width="44" height="512" viewBox="0 0 44 512" fill="none" xmlns="http://www.w3.org/2000/svg">
<path d="M25.4775 27.2953L2 14.891L2 4.63907L42.6113 0.164459L42.6113 11.4643L18.001 13.3334L42.6113 25.851L42.6113 35.1967L18.001 37.2357L42.6113 49.4135L42.6113 61.6479L2 40.1811L2 29.7875L25.4775 27.2953ZM2 64.1061L42.6113 72.6871L42.6113 83.7037L2 75.1227L2 64.1061ZM42.6113 95.2811L42.6113 128.926L32.7275 126.83L32.7275 115.53L1.99999 109.016L2 97.9998L32.7275 104.513L32.7275 93.1854L42.6113 95.2811ZM42.6113 177.348L1.99999 168.767L1.99999 157.75L17.6611 161.063L17.6611 146.28L1.99999 142.967L1.99999 131.95L42.6113 140.531L42.6113 151.548L27.5166 148.348L27.5166 163.159L42.6113 166.331L42.6113 177.348ZM19.3887 226.529L31.2832 225.254L19.3887 218.996L19.3887 226.529ZM10.6943 227.577L10.6943 214.238L1.99999 209.537L1.99999 197.189L42.6113 221.148L42.6113 233.326L1.99999 240.094L1.99999 228.681L10.6943 227.577ZM33.8887 295.222C33.8887 291.428 32.5387 288.142 29.8389 285.367C27.139 282.61 23.8538 281.232 19.9834 281.232C17.3213 281.232 15.1029 282.12 13.3281 283.894C11.5723 285.688 10.6943 287.991 10.6943 290.805C10.6943 292.126 10.8831 293.419 11.2607 294.684C11.6572 295.968 12.1292 297.063 12.6767 297.97C13.2243 298.876 13.7718 299.688 14.3193 300.405C14.8857 301.123 15.3577 301.651 15.7353 301.991L16.3301 302.586L8.96678 307.683C8.74022 307.495 8.43814 307.23 8.06053 306.89C7.70181 306.569 7.05044 305.814 6.10643 304.625C5.1813 303.454 4.36001 302.208 3.64256 300.887C2.92512 299.584 2.28319 297.875 1.71678 295.761C1.1315 293.665 0.838854 291.513 0.838854 289.304C0.838855 283.809 2.68912 279.221 6.38964 275.54C10.109 271.877 14.442 270.046 19.3887 270.046C26.0345 270.046 31.7552 272.604 36.5508 277.721C41.3652 282.856 43.7724 289.001 43.7724 296.157C43.7724 298.328 43.4892 300.386 42.9228 302.331C42.3564 304.276 41.6767 305.871 40.8838 307.117C40.0908 308.382 39.2978 309.486 38.5049 310.43C37.7119 311.393 37.0322 312.064 36.4658 312.441L35.6445 313.093L29.0176 305.248C29.1308 305.172 29.3008 305.05 29.5273 304.88C29.7728 304.71 30.1693 304.323 30.7168 303.719C31.2832 303.114 31.7835 302.454 32.2178 301.736C32.652 301.019 33.039 300.075 33.3789 298.904C33.7187 297.734 33.8887 296.506 33.8887 295.222ZM33.8887 342.512C33.8887 339.076 32.5954 336.064 30.0088 333.478C27.4222 330.91 24.373 329.626 20.8613 329.626C17.9538 329.626 15.5277 330.589 13.583 332.515C11.6572 334.459 10.6943 336.942 10.6943 339.963C10.6943 343.361 11.9499 346.354 14.4609 348.94C16.972 351.546 20.0683 352.849 23.75 352.849C26.6198 352.849 29.027 351.876 30.9717 349.932C32.9163 348.006 33.8887 345.533 33.8887 342.512ZM24.458 364.318C20.3987 364.318 16.5472 363.176 12.9033 360.892C9.2783 358.607 6.36131 355.558 4.15233 351.744C1.94334 347.949 0.838852 343.928 0.838852 339.68C0.838852 333.525 2.72687 328.399 6.50292 324.302C10.2978 320.205 14.848 318.156 20.1533 318.156C26.4215 318.156 31.9251 320.63 36.664 325.576C41.403 330.523 43.7724 336.262 43.7724 342.795C43.7724 348.95 41.875 354.076 38.0801 358.173C34.304 362.27 29.7633 364.318 24.458 364.318ZM19.3887 394.729L31.2832 393.454L19.3887 387.196L19.3887 394.729ZM10.6943 395.777L10.6943 382.438L1.99998 377.737L1.99998 365.389L42.6113 389.348L42.6113 401.526L1.99998 408.294L1.99998 396.881L10.6943 395.777ZM33.8887 443.122C33.8887 439.328 32.5387 436.042 29.8388 433.267C27.139 430.51 23.8538 429.132 19.9834 429.132C17.3213 429.132 15.1028 430.02 13.3281 431.794C11.5722 433.588 10.6943 435.891 10.6943 438.704C10.6943 440.026 10.8831 441.319 11.2607 442.584C11.6572 443.868 12.1292 444.963 12.6767 445.87C13.2243 446.776 13.7718 447.588 14.3193 448.305C14.8857 449.023 15.3577 449.551 15.7353 449.891L16.3301 450.486L8.96678 455.583C8.74021 455.395 8.43813 455.13 8.06053 454.79C7.7018 454.469 7.05044 453.714 6.10643 452.525C5.1813 451.354 4.36001 450.108 3.64256 448.787C2.92511 447.484 2.28318 445.775 1.71678 443.661C1.13149 441.565 0.838848 439.413 0.838848 437.204C0.838848 431.709 2.68911 427.121 6.38963 423.44C10.109 419.777 14.442 417.946 19.3887 417.946C26.0345 417.946 31.7552 420.504 36.5508 425.621C41.3652 430.756 43.7724 436.901 43.7724 444.057C43.7724 446.228 43.4892 448.286 42.9228 450.231C42.3564 452.176 41.6767 453.771 40.8838 455.017C40.0908 456.282 39.2978 457.386 38.5049 458.33C37.7119 459.293 37.0322 459.964 36.4658 460.341L35.6445 460.993L29.0176 453.148C29.1308 453.072 29.3008 452.95 29.5273 452.78C29.7728 452.61 30.1693 452.223 30.7168 451.619C31.2832 451.014 31.7835 450.354 32.2178 449.636C32.652 448.919 33.039 447.975 33.3789 446.804C33.7187 445.634 33.8887 444.406 33.8887 443.122ZM42.6113 511.142L1.99998 502.561L1.99998 491.545L17.6611 494.858L17.6611 480.075L1.99998 476.761L1.99998 465.745L42.6113 474.326L42.6113 485.342L27.5166 482.142L27.5166 496.954L42.6113 500.126L42.6113 511.142Z" fill="#F44D4D"/>
</svg>