<svg width="24" height="24" viewBox="0 0 24 24" fill="none" xmlns="http://www.w3.org/2000/svg">
<path d="M4.78158 12.5769C3.28517 12.974 2.11274 13.9611 1.4802 15.3568C0.798635 16.8602 0.844463 18.6029 1.60577 20.138C2.42112 21.7821 3.92123 22.7274 6.0643 22.9476C6.41952 22.9841 6.78329 23 7.1501 23C9.27017 23 10.9334 22.3333 11.5 22C12.2076 22.3548 13.4952 22.9832 14.2924 22.9832H19.6313C20.5426 22.9832 21.3963 22.6252 22.0349 21.9753C22.6731 21.3257 23.0156 20.4667 22.9995 19.5565C22.9409 16.267 22.0063 9.39099 19.7489 4.912L18.2416 1H11.6326L9.52633 3.57393C9.24498 3.91768 9.14543 4.36197 9.25337 4.793C9.36115 5.22403 9.65828 5.56912 10.0684 5.73999L12.7251 6.84677L15.5899 6.23749C15.8221 7.67912 16.3364 11.1698 16.2778 13.4613C15.5155 13.0306 14.649 12.7996 13.7626 12.7996C12.7584 12.7996 11.3298 13.4535 10.5 14C8.61513 12.8508 6.74351 12.0562 4.78158 12.5769Z" fill="#F44D4D"/>
</svg>
