<svg width="24" height="24" viewBox="0 0 24 24" fill="none" xmlns="http://www.w3.org/2000/svg">
<g clip-path="url(#clip0)">
<path d="M9.00537 0V2.00206H11.0074V3.00306C11.7081 2.90298 12.3087 2.90298 13.0095 3.00306V2.00206H15.0115V0H9.00537Z" fill="#F44D4D"/>
<path d="M18.8163 6.60662L19.517 5.90592L20.3179 6.70675L21.7193 5.30531L18.7163 2.30225L17.3148 3.70369L18.1156 4.50448L17.2147 5.40539C12.4098 2.50242 6.20349 4.00395 3.40065 8.80885C0.597803 13.6137 2.09929 19.6199 6.8041 22.5228C11.5089 25.4258 17.7152 23.9243 20.5181 19.1194C23.0206 15.0152 22.3199 9.8099 18.8163 6.60662ZM12.0094 20.9212C8.10541 20.9212 5.00226 17.8181 5.00226 13.9141C5.00226 10.0101 8.10541 6.90693 12.0094 6.90693V13.9141H19.0165C19.0166 17.818 15.9134 20.9212 12.0094 20.9212Z" fill="#F44D4D"/>
</g>
<defs>
<clipPath id="clip0">
<rect width="24" height="24" fill="white"/>
</clipPath>
</defs>
</svg>
