<svg width="72" height="72" viewBox="0 0 72 72" fill="none" xmlns="http://www.w3.org/2000/svg">
<g clip-path="url(#clip0)">
<path d="M52.875 8.4375C51.8361 8.4375 50.8625 8.7217 50.0265 9.21502C49.7128 6.40842 47.3265 4.21875 44.4375 4.21875C43.3986 4.21875 42.425 4.50295 41.589 4.99627C41.2753 2.18967 38.889 0 36 0C33.111 0 30.7247 2.18967 30.411 4.99627C29.575 4.50295 28.6016 4.21875 27.5625 4.21875C24.4609 4.21875 21.9375 6.74213 21.9375 9.84375V17.7652C21.9375 17.7652 19.1327 17.7188 19.1249 17.7188C18.5206 17.7188 17.9826 18.1053 17.7909 18.6803L13.5721 31.3366C13.4038 31.8419 13.5353 32.399 13.9119 32.7756L26.1562 45.0201V51.4688H23.3437C22.5672 51.4688 21.9375 52.0985 21.9375 52.875C21.9375 53.6515 22.5672 54.2813 23.3437 54.2813H26.1562V60.3281H23.3437C22.5672 60.3281 21.9375 60.9578 21.9375 61.7344C21.9375 62.5109 22.5672 63.1406 23.3437 63.1406H26.1562V70.5938C26.1562 71.3703 26.786 72 27.5625 72H33.8906C34.6672 72 35.2969 71.3703 35.2969 70.5938C35.2969 69.8172 34.6672 69.1875 33.8906 69.1875H28.9687V63.1406H51.4688V69.1875H46.5469C45.7703 69.1875 45.1406 69.8172 45.1406 70.5938C45.1406 71.3703 45.7703 72 46.5469 72H52.875C53.6515 72 54.2812 71.3703 54.2812 70.5938V63.1406H57.0938C57.8703 63.1406 58.5 62.5109 58.5 61.7344C58.5 60.9578 57.8703 60.3281 57.0938 60.3281H54.2812V54.2813H57.0938C57.8703 54.2813 58.5 53.6515 58.5 52.875C58.5 52.0985 57.8703 51.4688 57.0938 51.4688H54.2812V45.0046C57.0063 42.0722 58.5 38.2769 58.5 34.252C58.5 32.1199 58.5 16.14 58.5 14.0625C58.5 10.9609 55.9766 8.4375 52.875 8.4375ZM52.875 11.25C54.4258 11.25 55.6875 12.5117 55.6875 14.0625V23.3438C55.6875 24.8946 54.4258 26.1563 52.875 26.1563C51.3242 26.1563 50.0625 24.8946 50.0625 23.3438V14.0625C50.0625 12.5117 51.3242 11.25 52.875 11.25ZM44.4375 7.03125C45.9883 7.03125 47.25 8.29294 47.25 9.84375V19.125C47.25 20.6758 45.9883 21.9375 44.4375 21.9375C42.8867 21.9375 41.625 20.6758 41.625 19.125V9.84375C41.625 8.29294 42.8867 7.03125 44.4375 7.03125ZM33.1875 5.625C33.1875 4.07419 34.4492 2.8125 36 2.8125C37.5508 2.8125 38.8125 4.07419 38.8125 5.625V19.125C38.8125 19.4791 38.847 19.825 38.9098 20.161C37.3507 19.2843 35.1945 18.7872 33.1875 18.4674C33.1875 17.1775 33.1875 7.07414 33.1875 5.625ZM24.75 9.84375C24.75 8.29294 26.0117 7.03125 27.5625 7.03125C29.1133 7.03125 30.375 8.29294 30.375 9.84375V18.1029C29.3653 17.9993 28.2953 17.9155 27.1752 17.8532C27.134 17.8507 26.8346 17.8467 24.75 17.8118V9.84375ZM51.4688 60.3281H28.9687V54.2813H51.4688V60.3281ZM51.8806 43.4431C51.617 43.707 51.4688 44.0646 51.4688 44.4375V51.4688H28.9687V44.4375C28.9687 44.0646 28.8205 43.707 28.5569 43.4431L16.5151 31.4014L20.1329 20.5483L27.0461 20.6627C28.8398 20.7633 38.3161 21.5561 38.3161 23.3436C38.3161 23.5541 37.8982 24.0974 36.3168 24.6472C34.3984 25.3139 31.4241 25.7752 27.4762 26.0182C26.7178 26.0648 26.1336 26.7055 26.157 27.465C26.1803 28.2244 26.8027 28.828 27.5625 28.828C31.4395 28.828 34.5937 31.9822 34.5937 35.8592C34.5937 36.6358 35.2235 37.2655 36 37.2655C36.7765 37.2655 37.4062 36.6358 37.4062 35.8592C37.4062 32.7504 35.9575 29.9735 33.7001 28.1683C35.0889 27.929 36.2718 27.6404 37.2403 27.3039C39.6615 26.4623 40.9625 25.237 41.1135 23.659C42.0455 24.3442 43.1948 24.75 44.4375 24.75C45.4764 24.75 46.45 24.4658 47.286 23.9725C47.5997 26.7791 49.986 28.9688 52.875 28.9688C53.8992 28.9688 54.8595 28.6923 55.6875 28.2119V34.252C55.6875 37.7242 54.3355 40.9882 51.8806 43.4431Z" fill="white"/>
<path d="M23.3438 51.4688H26.1562H28.9688H51.4688H54.2812H57.0938C57.8703 51.4688 58.5 52.0985 58.5 52.875C58.5 53.6515 57.8703 54.2812 57.0938 54.2812H23.3438C22.5672 54.2812 21.9375 53.6515 21.9375 52.875C21.9375 52.0985 22.5672 51.4688 23.3438 51.4688Z" fill="#F44D4D"/>
<path d="M21.9375 61.7344C21.9375 60.9578 22.5672 60.3281 23.3438 60.3281H57.0938C57.8703 60.3281 58.5 60.9578 58.5 61.7344C58.5 62.5109 57.8703 63.1406 57.0938 63.1406H54.2812H51.4688H28.9688H26.1562H23.3438C22.5672 63.1406 21.9375 62.5109 21.9375 61.7344Z" fill="#F44D4D"/>
<path d="M40.2188 72C40.9954 72 41.625 71.3704 41.625 70.5938C41.625 69.8171 40.9954 69.1875 40.2188 69.1875C39.4421 69.1875 38.8125 69.8171 38.8125 70.5938C38.8125 71.3704 39.4421 72 40.2188 72Z" fill="#F44D4D"/>
</g>
<defs>
<clipPath id="clip0">
<rect width="72" height="72" fill="white"/>
</clipPath>
</defs>
</svg>
