<svg width="72" height="72" viewBox="0 0 72 72" fill="none" xmlns="http://www.w3.org/2000/svg">
<g clip-path="url(#clip0)">
<path d="M61.7323 48.656C62.5089 48.656 63.1384 48.0265 63.1384 47.2499C63.1384 46.4733 62.5089 45.8438 61.7323 45.8438C60.9557 45.8438 60.3262 46.4733 60.3262 47.2499C60.3262 48.0265 60.9557 48.656 61.7323 48.656Z" fill="#F44D4D"/>
<path d="M65.2409 53.331C64.9872 53.077 64.7503 52.8023 64.5367 52.5141C64.0739 51.8902 63.1934 51.7598 62.5696 52.2222C61.9459 52.6848 61.8151 53.5655 62.2777 54.1893C62.5732 54.5876 62.9008 54.9676 63.2532 55.3202L64.6094 56.6725L56.654 64.629L54.8158 62.7898C54.4392 62.4129 53.8819 62.2815 53.3764 62.4499C50.2056 63.5072 46.767 62.6956 44.403 60.3316C43.2878 59.2164 35.8892 51.8178 34.9298 50.8584C34.3817 50.3104 34.3817 49.4185 34.9298 48.8704C35.4777 48.3223 36.3699 48.3226 36.9191 48.8704C37.5122 49.4631 38.4839 49.4026 39.0047 48.7631C39.4565 48.2085 39.4174 47.3913 38.9074 46.8814L36.9181 44.8934C36.3696 44.345 36.3696 43.4526 36.9181 42.9042C37.4667 42.3558 38.3593 42.3558 38.9075 42.9042L40.8958 44.8924C41.4449 45.4415 42.3353 45.4415 42.8845 44.8924C43.4338 44.3433 43.4336 43.453 42.8845 42.9037C41.485 41.5042 40.3057 40.325 38.9072 38.9266C38.3618 38.3819 38.3527 37.4938 38.9085 36.9386C39.4562 36.3902 40.3442 36.3868 40.8958 36.9392C43.5633 39.6068 40.1839 36.2271 44.8724 40.9159C45.4215 41.465 46.3118 41.465 46.8611 40.9159C47.4102 40.3668 47.4102 39.4764 46.8611 38.9272L44.8728 36.9389C44.3244 36.3904 44.3244 35.4979 44.8728 34.9495C45.4212 34.4011 46.3137 34.4011 46.8619 34.9493L50.8381 38.9268L50.8388 38.9275L54.8153 42.904C55.3644 43.4531 56.2548 43.4531 56.804 42.904C57.3531 42.3549 57.3531 41.4646 56.804 40.9153L53.8218 37.933L54.8163 36.9383C55.3627 36.3912 56.2523 36.3854 56.805 36.939C57.108 37.2501 57.4351 37.5396 57.8651 38.0677C58.6441 39.0207 59.2485 40.1424 59.6615 41.4016C59.9032 42.1382 60.6967 42.5418 61.4359 42.2994C62.1738 42.0572 62.5757 41.2629 62.3337 40.525C62.0024 39.5149 61.5694 38.5718 61.0426 37.7048L67.5637 34.4448C68.0401 34.2068 68.341 33.7198 68.341 33.1872C68.341 32.6545 68.0401 32.1677 67.5637 31.9295L55.7982 26.0474L59.8322 13.9458C60.0006 13.4406 59.8691 12.8835 59.4924 12.5069C59.1157 12.1305 58.5586 11.9989 58.0535 12.1672L45.952 16.2011L40.0698 4.43569C39.8316 3.95929 39.3448 3.65837 38.8122 3.65837C38.2795 3.65837 37.7927 3.95929 37.5545 4.43555L33.1498 13.2439L29.5852 9.67932C26.6734 6.76749 22.5271 5.6392 18.5843 6.63292C17.0159 5.06522 13.5003 1.54958 12.3626 0.411876C11.8139 -0.13694 10.9242 -0.137362 10.3748 0.411032L0.415144 10.3538C0.150789 10.6178 0.00230089 10.9759 0.00244151 11.3495C0.00258212 11.723 0.151352 12.0812 0.415847 12.3449L6.75838 18.6692C8.02377 19.9356 8.72051 21.7015 8.72051 23.6416V26.0409C8.70321 29.086 9.48489 31.9569 10.9431 34.3011L4.43572 37.5548C3.95932 37.793 3.65841 38.2799 3.65841 38.8124C3.65841 39.3451 3.95932 39.8319 4.43572 40.0701L16.2012 45.9523L12.1672 58.0538C11.9988 58.559 12.1303 59.1161 12.507 59.4927C12.8837 59.8692 13.4409 60.0007 13.9459 59.8324L26.0474 55.7985L31.9296 67.5639C32.1678 68.0403 32.6546 68.3412 33.1872 68.3412C33.7199 68.3412 34.2067 68.0403 34.4449 67.5641L38.8496 58.7557L42.4142 62.3203C45.326 65.2321 49.472 66.3611 53.4148 65.3667C65.8272 77.7785 55.0797 67.0314 59.6366 71.5882C60.1852 72.1367 61.0746 72.1375 61.6243 71.589L71.584 61.6463C71.8483 61.3824 71.9968 61.0242 71.9967 60.6506C71.9965 60.2772 71.8478 59.919 71.5833 59.6554L65.2409 53.331ZM11.3674 3.39388L13.3575 5.38413L5.39879 13.3418L3.39954 11.3483L11.3674 3.39388ZM7.39016 15.3276L15.3461 7.37269L17.1838 9.21038C17.5605 9.58708 18.1176 9.7187 18.623 9.5501C21.7938 8.49254 25.2323 9.30431 27.5964 11.6684C28.7065 12.7786 36.1183 20.1904 37.0696 21.1415C37.6177 21.6896 37.6177 22.5815 37.0696 23.1295C36.5217 23.6773 35.6295 23.6773 35.0803 23.1295C34.5656 22.6154 33.7439 22.5771 33.184 23.0459C32.5397 23.5859 32.5183 24.5452 33.092 25.1185L35.0813 27.1065C35.6298 27.6549 35.6298 28.5473 35.0813 29.0957C34.5327 29.6444 33.6403 29.6443 33.0919 29.0957L31.1036 27.1074C30.5545 26.5583 29.6641 26.5583 29.1149 27.1074C28.5656 27.6565 28.5658 28.5469 29.1149 29.0961C30.5144 30.4957 31.6937 31.6749 33.0922 33.0733C33.6376 33.618 33.6467 34.5061 33.0909 35.0613C32.5432 35.6097 31.6552 35.613 31.1036 35.0607C28.4361 32.3931 31.8155 35.7728 27.127 31.084C26.5779 30.5349 25.6876 30.5349 25.1383 31.084C24.5892 31.6331 24.5892 32.5235 25.1383 33.0727L27.1266 35.061C27.675 35.6095 27.675 36.502 27.1266 37.0504C26.5782 37.5991 25.6857 37.5988 25.1375 37.0505C25.1229 37.0359 17.2038 29.1154 17.1842 29.0959C16.6351 28.5468 15.7447 28.5468 15.1955 29.0959C14.6463 29.645 14.6464 30.5353 15.1955 31.0846L18.1778 34.0669L17.1832 35.0616C16.6368 35.6087 15.7473 35.6145 15.1945 35.0609C14.8928 34.7514 14.557 34.4514 14.1326 33.933C14.1289 33.9285 14.1247 33.9247 14.1211 33.9202C12.4348 31.8782 11.5155 29.0862 11.5328 26.0492V23.6419C11.5328 20.9511 10.5437 18.4792 8.74624 16.6802L7.39016 15.3276ZM33.1875 63.791L28.0175 53.4499C27.7045 52.8241 26.979 52.5233 26.3153 52.7448L15.7248 56.2749L19.2549 45.6844C19.4762 45.0205 19.1757 44.295 18.5497 43.9821L8.20896 38.8123L12.7168 36.5584C12.9167 36.7614 12.9813 36.8239 13.2054 37.0486C14.853 38.6983 17.5237 38.7002 19.1726 37.0493L20.1664 36.0554L23.1488 39.039C24.794 40.684 27.4703 40.684 29.1154 39.039C29.5034 38.651 29.7987 38.2053 30.0036 37.7296C31.5945 38.6434 33.6886 38.4426 35.0796 37.05C36.4859 35.6455 36.6654 33.548 35.7606 31.9727C36.2363 31.7677 36.682 31.4725 37.07 31.0846C38.4438 29.7108 38.6692 27.6179 37.7482 26.0066C38.2241 25.8017 38.6702 25.5064 39.0583 25.1183C40.7029 23.4737 40.7029 20.7977 39.0583 19.1531L35.2458 15.3406L38.8119 8.20934L43.9819 18.5504C44.2947 19.1763 45.0202 19.4767 45.6841 19.2556L56.2746 15.7254L52.7445 26.3159C52.5232 26.9798 52.8237 27.7053 53.4497 28.0182L63.7903 33.1879L59.2811 35.4421C59.2593 35.4198 59.2386 35.3962 59.2167 35.3743L58.794 34.9517C57.1464 33.3021 54.4757 33.3001 52.8268 34.951L51.8329 35.9449L48.8505 32.9613C48.0536 32.1646 46.9942 31.7259 45.8672 31.7259C44.7402 31.7259 43.6807 32.1646 42.884 32.9615C42.496 33.3494 42.2007 33.7952 41.9958 34.2709C41.3652 33.9087 40.6486 33.7146 39.9018 33.7146C38.7748 33.7146 37.7154 34.154 36.9198 34.9505C35.5135 36.3549 35.334 38.4525 36.2388 40.0278C35.7631 40.2326 35.3174 40.5279 34.9294 40.9159C33.5556 42.2897 33.3301 44.3827 34.2512 45.994C33.7753 46.1989 33.3292 46.4942 32.9411 46.8821C31.2965 48.5268 31.2965 51.2028 32.9411 52.8474L36.7536 56.6599L33.1875 63.791ZM60.6318 68.6061L58.643 66.6173L66.6006 58.6584L68.5997 60.6519L60.6318 68.6061Z" fill="white"/>
<path d="M67.5635 34.4447L61.0424 37.7047L59.2809 35.4419L63.7901 33.1877L53.4495 28.018C52.8235 27.7052 52.523 26.9796 52.7443 26.3158L56.2744 15.7253L45.6839 19.2554C45.02 19.4766 44.2945 19.1761 43.9817 18.5502L38.8117 8.20918L35.2456 15.3404L33.1496 13.2437L37.5543 4.43538C37.7925 3.95912 38.2793 3.6582 38.812 3.6582C39.3446 3.6582 39.8314 3.95912 40.0696 4.43552L45.9518 16.201L58.0533 12.167C58.5584 11.9987 59.1155 12.1303 59.4922 12.5068C59.8689 12.8833 60.0004 13.4404 59.832 13.9457L55.798 26.0472L67.5635 31.9294C68.0399 32.1676 68.3408 32.6544 68.3408 33.187C68.3408 33.7196 68.0399 34.2066 67.5635 34.4447Z" fill="#F44D4D"/>
<path d="M4.43552 37.5546L10.9429 34.3009L12.7166 36.5582L8.20875 38.8121L18.5495 43.9819C19.1755 44.2948 19.476 45.0204 19.2547 45.6842L15.7246 56.2747L26.3151 52.7446C26.9788 52.5231 27.7043 52.8239 28.0173 53.4498L33.1873 63.7908L36.7534 56.6597L38.8494 58.7556L34.4447 67.5639C34.2065 68.0402 33.7197 68.3411 33.187 68.3411C32.6544 68.3411 32.1676 68.0402 31.9294 67.5638L26.0472 55.7983L13.9457 59.8322C13.4407 60.0005 12.8835 59.8691 12.5068 59.4925C12.1301 59.1159 11.9986 58.5588 12.167 58.0536L16.201 45.9521L4.43552 40.0699C3.95912 39.8317 3.6582 39.3449 3.6582 38.8123C3.6582 38.2798 3.95912 37.7928 4.43552 37.5546Z" fill="#F44D4D"/>
</g>
<defs>
<clipPath id="clip0">
<rect width="72" height="72" fill="white"/>
</clipPath>
</defs>
</svg>
