<svg width="24" height="24" viewBox="0 0 24 24" fill="none" xmlns="http://www.w3.org/2000/svg">
<g clip-path="url(#clip0)">
<path d="M12.2362 24.0009C12.1567 24.0009 12.0773 24.0009 11.9973 24.0005C10.116 24.0051 8.37781 23.9573 6.68738 23.8544C5.13757 23.7601 3.7229 23.2245 2.59607 22.3057C1.50879 21.4191 0.766296 20.2203 0.389282 18.743C0.0611573 17.4569 0.0437622 16.1944 0.0270996 14.9733C0.0150146 14.0971 0.00256348 13.0589 0 12.0031C0.00256348 10.9429 0.0150146 9.90472 0.0270996 9.02856C0.0437622 7.80761 0.0611573 6.5451 0.389282 5.25878C0.766296 3.78149 1.50879 2.5827 2.59607 1.6961C3.7229 0.777276 5.13757 0.241693 6.68756 0.147394C8.37799 0.0446714 10.1166 -0.0033022 12.0018 0.00127544C13.8836 -0.00275288 15.6213 0.0446714 17.3117 0.147394C18.8615 0.241693 20.2762 0.777276 21.403 1.6961C22.4905 2.5827 23.2328 3.78149 23.6098 5.25878C23.9379 6.54492 23.9553 7.80761 23.972 9.02856C23.9841 9.90472 23.9967 10.9429 23.9991 11.9987V12.0031C23.9967 13.0589 23.9841 14.0971 23.972 14.9733C23.9553 16.1942 23.9381 17.4567 23.6098 18.743C23.2328 20.2203 22.4905 21.4191 21.403 22.3057C20.2762 23.2245 18.8615 23.7601 17.3117 23.8544C15.6929 23.9529 14.0299 24.0009 12.2362 24.0009ZM11.9973 22.1255C13.8479 22.1299 15.5471 22.0832 17.1978 21.9829C18.3697 21.9117 19.3857 21.5314 20.2181 20.8526C20.9875 20.2251 21.5175 19.3594 21.793 18.2794C22.0662 17.2088 22.082 16.0593 22.0972 14.9476C22.1091 14.0773 22.1215 13.0464 22.1241 12.0009C22.1215 10.9552 22.1091 9.92449 22.0972 9.05419C22.082 7.94256 22.0662 6.79302 21.793 5.72222C21.5175 4.64227 20.9875 3.77654 20.2181 3.14904C19.3857 2.47045 18.3697 2.09014 17.1978 2.01891C15.5471 1.91839 13.8479 1.87206 12.0016 1.87609C10.1514 1.8717 8.45197 1.91839 6.80127 2.01891C5.62939 2.09014 4.61334 2.47045 3.78094 3.14904C3.01154 3.77654 2.48163 4.64227 2.20605 5.72222C1.93286 6.79302 1.91711 7.94238 1.90192 9.05419C1.89001 9.92523 1.87756 10.9567 1.875 12.0031C1.87756 13.045 1.89001 14.0766 1.90192 14.9476C1.91711 16.0593 1.93286 17.2088 2.20605 18.2794C2.48163 19.3594 3.01154 20.2251 3.78094 20.8526C4.61334 21.5312 5.62939 21.9115 6.80127 21.9827C8.45197 22.0832 10.1517 22.1301 11.9973 22.1255ZM11.9526 17.8603C8.72186 17.8603 6.0932 15.2318 6.0932 12.0009C6.0932 8.77001 8.72186 6.14153 11.9526 6.14153C15.1835 6.14153 17.812 8.77001 17.812 12.0009C17.812 15.2318 15.1835 17.8603 11.9526 17.8603ZM11.9526 8.01653C9.75568 8.01653 7.9682 9.80401 7.9682 12.0009C7.9682 14.1978 9.75568 15.9853 11.9526 15.9853C14.1497 15.9853 15.937 14.1978 15.937 12.0009C15.937 9.80401 14.1497 8.01653 11.9526 8.01653ZM18.4682 4.26653C17.6917 4.26653 17.062 4.89605 17.062 5.67278C17.062 6.44952 17.6917 7.07903 18.4682 7.07903C19.2449 7.07903 19.8745 6.44952 19.8745 5.67278C19.8745 4.89605 19.2449 4.26653 18.4682 4.26653Z" fill="url(#paint0_linear)"/>
</g>
<defs>
<linearGradient id="paint0_linear" x1="11.9995" y1="0.000976562" x2="11.9995" y2="24.0009" gradientUnits="userSpaceOnUse">
<stop stop-color="#F4943B"/>
<stop offset="1" stop-color="#8823D8"/>
</linearGradient>
<clipPath id="clip0">
<rect width="24" height="24" fill="white"/>
</clipPath>
</defs>
</svg>
