<svg width="31" height="20" viewBox="0 0 31 20" fill="none" xmlns="http://www.w3.org/2000/svg">
<g clip-path="url(#clip0)">
<path d="M19.6906 2.11328H11.3086V17.6407H19.6906V2.11328Z" fill="#FF5F00"/>
<path d="M11.8412 9.87611C11.8412 6.72124 13.2781 3.92301 15.4867 2.11239C13.8635 0.795578 11.8146 0 9.5794 0C4.28412 0 0 4.41681 0 9.87611C0 15.3354 4.28412 19.7522 9.5794 19.7522C11.8146 19.7522 13.8635 18.9566 15.4867 17.6398C13.2781 15.8566 11.8412 13.031 11.8412 9.87611Z" fill="#EB001B"/>
<path d="M31.0003 9.87611C31.0003 15.3354 26.7162 19.7522 21.421 19.7522C19.1858 19.7522 17.1368 18.9566 15.5137 17.6398C17.7489 15.8292 19.1592 13.031 19.1592 9.87611C19.1592 6.72124 17.7223 3.92301 15.5137 2.11239C17.1368 0.795578 19.1858 0 21.421 0C26.7162 0 31.0003 4.44425 31.0003 9.87611Z" fill="#F79E1B"/>
</g>
<defs>
<clipPath id="clip0">
<rect width="31" height="20" fill="white"/>
</clipPath>
</defs>
</svg>
