<svg width="64" height="64" viewBox="0 0 64 64" fill="none" xmlns="http://www.w3.org/2000/svg">
<g clip-path="url(#clip0)">
<path d="M16.9124 58.566C10.6829 58.566 5.61426 53.4974 5.61426 47.2668H7.66715C7.66715 52.3652 11.815 56.5131 16.9124 56.5131V58.566Z" fill="white"/>
<path d="M16.9128 64C7.68604 64 0.180664 56.4936 0.180664 47.2669H2.23356C2.23356 55.3615 8.81924 61.9472 16.9128 61.9472C22.6013 61.9472 27.828 58.6122 30.2299 53.4523L30.7944 52.239L31.8199 53.0982C33.7486 54.7158 36.1997 55.6058 38.7217 55.6058C43.0471 55.6058 45.759 54.2057 49.4686 50.0578L49.4696 50.0588C52.5767 46.5946 57.8875 46.0844 59.6817 46.0126C61.0623 43.6117 61.7449 40.7521 61.7675 37.2919C61.864 22.5624 48.8702 4.28444 46.1183 3.53C45.1842 3.27544 43.3068 3.53513 41.1318 3.83896C38.7545 4.16948 35.821 4.59545 32.5805 4.56569C31.7624 5.81898 29.5186 9.5265 29.4529 12.5514C31.0798 13.4917 36.871 16.4714 42.5421 14.9923C42.7875 14.7788 43.3027 13.2258 43.5142 11.8329L43.5871 11.3567L43.9997 11.1083C45.4028 10.2614 47.1191 10.5355 48.3662 11.8093C51.4496 14.9533 53.871 24.9561 50.9097 29.651C48.7172 33.1286 48.1937 34.0381 48.0562 36.3845L47.9279 38.5698L46.3297 37.0743C44.4801 35.3416 42.0484 34.5349 38.6776 34.5349C35.0686 34.5349 32.0508 35.8805 30.1806 38.3224L29.3677 39.3817L28.5527 38.3235C25.7484 34.6786 21.5051 32.5887 16.9138 32.5887C13.972 32.5887 11.1349 33.455 8.70633 35.0953L7.47049 33.454L7.54337 33.4027C10.325 31.5233 13.5604 30.5358 16.9128 30.5358C21.7278 30.5358 26.2062 32.5518 29.381 36.1084C31.6515 33.7599 34.9033 32.4809 38.6776 32.4809C41.7405 32.4809 44.2347 33.1143 46.2435 34.4107C46.6366 32.5784 47.505 31.201 49.174 28.5548C51.4384 24.9643 49.7016 16.1009 46.9015 13.2453C46.4437 12.7793 45.9345 12.5925 45.449 12.7054C45.1442 14.3467 44.4729 16.61 43.0605 16.9785C35.5058 18.9462 28.1832 14.1979 27.8752 13.9946L27.4503 13.7144L27.4154 13.2073C27.1126 8.73101 31.0346 3.17177 31.2009 2.93671L31.515 2.49637L32.056 2.50663C35.3539 2.5713 38.4035 2.14532 40.8464 1.80557C43.4423 1.44426 45.3166 1.18252 46.6592 1.54998C50.4345 2.58464 63.9199 21.692 63.8183 37.3052C63.7927 41.3299 62.8894 44.785 61.1352 47.5738L60.8283 48.0624L60.2504 48.0542C60.1888 48.0532 54.0568 48.006 50.9888 51.4384L50.9877 51.4374C46.9292 55.9732 43.6035 57.6597 38.7196 57.6597C36.1433 57.6597 33.6285 56.8786 31.514 55.4405C28.5763 60.6785 22.9739 64 16.9128 64Z" fill="white"/>
<path d="M7.36246 10.5586H5.30957V21.8495H7.36246V10.5586Z" fill="#F44D4D"/>
<path d="M12.4933 7.479H10.4404V17.7435H12.4933V7.479Z" fill="#F44D4D"/>
<path d="M17.6261 10.5586H15.5732V23.9024H17.6261V10.5586Z" fill="#F44D4D"/>
<path d="M20.0278 10.3517L11.4713 2.74677L2.91488 10.3517L1.55176 8.8182L11.4713 0L21.3909 8.8182L20.0278 10.3517Z" fill="#F44D4D"/>
</g>
<defs>
<clipPath id="clip0">
<rect width="64" height="64" fill="white"/>
</clipPath>
</defs>
</svg>
