<svg width="34" height="26" viewBox="0 0 34 26" fill="none" xmlns="http://www.w3.org/2000/svg">
<path d="M1.2627 4.9168C9.60834 4.9168 9.44305 4.9168 9.93388 4.9168C12.7364 4.9168 15.5019 7.20488 15.5104 10.4778C15.5183 13.5351 13.0787 15.4296 11.4863 15.8086C11.5335 15.8086 13.6217 19.4418 13.6217 19.4418L23.1911 3.6084L33.1615 20.208C33.4641 20.7481 33.6494 21.0556 33.7872 21.444C34.0823 22.2757 33.296 22.836 32.7484 22.8417C32.2083 22.8475 31.9399 22.6482 31.391 22.3565L25.3826 18.9836L23.1634 14.9405L29.1874 18.3636L23.1438 8.36763C23.1438 8.36763 15.4059 21.2832 15.1425 21.6693C14.692 22.3297 14.3989 22.8446 13.5667 22.8446C12.7581 22.8446 12.3784 22.3219 11.9554 21.6866C11.861 21.5018 6.96809 13.5928 6.96809 13.5928C8.75348 13.5986 8.57308 13.5966 10.0135 13.5966C11.186 13.5966 13.0157 12.5878 13.0157 10.5701C13.0157 9.361 12.0675 7.50512 9.80114 7.50512C7.28701 7.50512 2.78173 7.50512 2.78173 7.50512L1.2627 4.9168Z" fill="white"/>
<path d="M1.2827 10.5547L3.93469 15.0905L3.92052 21.6067C3.92052 21.6067 3.94997 22.8277 2.57866 22.8507C2.56288 22.8353 1.26025 22.9503 1.26025 21.6412C1.26031 20.3322 1.2827 10.5547 1.2827 10.5547Z" fill="white"/>
<path d="M3.93469 15.0908L3.9268 21.5597C3.9268 21.5597 3.94997 22.828 2.57861 22.8509" fill="white"/>
</svg>
