<svg width="64" height="64" viewBox="0 0 64 64" fill="none" xmlns="http://www.w3.org/2000/svg">
<path d="M32 2C15.382 2 2 21.694 2 38C2 53.028 13.215 62 32 62C50.785 62 62 53.028 62 38C62 21.694 48.618 2 32 2ZM32 60C14.467 60 4 51.775 4 38C4 22.6 16.49 4 32 4C47.51 4 60 22.6 60 38C60 51.775 49.533 60 32 60Z" fill="#F44D4D"/>
<path d="M24 35C23.4067 35 22.8266 35.1759 22.3333 35.5056C21.8399 35.8352 21.4554 36.3038 21.2284 36.8519C21.0013 37.4001 20.9419 38.0033 21.0576 38.5853C21.1734 39.1672 21.4591 39.7018 21.8787 40.1213C22.2982 40.5409 22.8328 40.8266 23.4147 40.9424C23.9967 41.0581 24.5999 40.9987 25.1481 40.7716C25.6962 40.5446 26.1648 40.1601 26.4944 39.6667C26.8241 39.1734 27 38.5933 27 38C27 37.2044 26.6839 36.4413 26.1213 35.8787C25.5587 35.3161 24.7957 35 24 35ZM24 39C23.8022 39 23.6089 38.9414 23.4444 38.8315C23.28 38.7216 23.1518 38.5654 23.0761 38.3827C23.0004 38.2 22.9806 37.9989 23.0192 37.8049C23.0578 37.6109 23.153 37.4327 23.2929 37.2929C23.4327 37.153 23.6109 37.0578 23.8049 37.0192C23.9989 36.9806 24.2 37.0004 24.3827 37.0761C24.5654 37.1518 24.7216 37.28 24.8315 37.4444C24.9414 37.6089 25 37.8022 25 38C25 38.2652 24.8946 38.5196 24.7071 38.7071C24.5196 38.8946 24.2652 39 24 39Z" fill="white"/>
<path d="M42 35C41.4067 35 40.8266 35.1759 40.3333 35.5056C39.8399 35.8352 39.4554 36.3038 39.2284 36.8519C39.0013 37.4001 38.9419 38.0033 39.0576 38.5853C39.1734 39.1672 39.4591 39.7018 39.8787 40.1213C40.2982 40.5409 40.8328 40.8266 41.4147 40.9424C41.9967 41.0581 42.5999 40.9987 43.148 40.7716C43.6962 40.5446 44.1648 40.1601 44.4944 39.6667C44.8241 39.1734 45 38.5933 45 38C45 37.2044 44.6839 36.4413 44.1213 35.8787C43.5587 35.3161 42.7957 35 42 35ZM42 39C41.8022 39 41.6089 38.9414 41.4444 38.8315C41.28 38.7216 41.1518 38.5654 41.0761 38.3827C41.0004 38.2 40.9806 37.9989 41.0192 37.8049C41.0578 37.6109 41.153 37.4327 41.2929 37.2929C41.4327 37.153 41.6109 37.0578 41.8049 37.0192C41.9989 36.9806 42.2 37.0004 42.3827 37.0761C42.5654 37.1518 42.7216 37.28 42.8315 37.4444C42.9414 37.6089 43 37.8022 43 38C43 38.2652 42.8946 38.5196 42.7071 38.7071C42.5196 38.8946 42.2652 39 42 39Z" fill="white"/>
<path d="M18.0509 17.5999L18.0509 17.5999L18.0599 17.6104C18.9473 18.6393 19.9517 19.8039 20.7381 20.9747C21.5477 22.1801 22 23.214 22 23.9915C22 25.0874 21.5464 26.0994 20.8241 26.8228L20.8241 26.8228L20.8188 26.8283C20.1024 27.5569 19.1111 28 18 28C16.8951 28 15.8992 27.5474 15.1759 26.8228L15.1759 26.8228L15.1704 26.8175C14.443 26.0999 14 25.1061 14 23.9915C14 23.2135 14.4529 22.1758 15.2623 20.969C16.0477 19.7979 17.0519 18.6332 17.9369 17.6141C17.9583 17.5896 17.9797 17.5651 18.0011 17.5406C18.0177 17.5602 18.0343 17.58 18.0509 17.5999Z" stroke="white" stroke-width="2"/>
<rect x="29" y="44" width="8" height="2" fill="white"/>
</svg>
