<svg width="24" height="24" viewBox="0 0 24 24" fill="none" xmlns="http://www.w3.org/2000/svg">
<g clip-path="url(#clip0)">
<path d="M19.3207 22.734C19.1332 22.734 18.947 22.6785 18.7873 22.5702L12.7527 18.4768L9.51614 20.8057C9.2623 20.9882 8.93512 21.0342 8.64037 20.9288C8.34599 20.8232 8.12242 20.5794 8.04262 20.277L6.41748 14.1182L0.610684 11.8979C0.245123 11.758 0.00268211 11.4083 2.21043e-05 11.0169C-0.00263791 10.6255 0.23499 10.2725 0.598778 10.1277L22.6784 1.34205C22.7786 1.29949 22.8846 1.27491 22.9915 1.26833C23.0297 1.26605 23.0681 1.26605 23.1063 1.2682C23.3277 1.28137 23.5452 1.37156 23.7149 1.538C23.7325 1.55523 23.7492 1.57284 23.7651 1.5912C23.9057 1.75182 23.9829 1.94764 23.9975 2.14714C24.001 2.1973 24.0008 2.2481 23.9963 2.29889C23.9933 2.33512 23.9881 2.37122 23.9808 2.40706L20.2538 21.9618C20.1939 22.2759 19.9801 22.5389 19.6847 22.6614C19.5676 22.71 19.4438 22.734 19.3207 22.734ZM13.2826 16.5403L18.658 20.1864L21.5579 4.97068L11.0842 15.0491L13.2573 16.5232C13.266 16.5287 13.2744 16.5345 13.2826 16.5403ZM8.80782 15.7295L9.52754 18.4567L11.0782 17.3409L9.04773 15.9635C8.95336 15.8996 8.87255 15.8201 8.80782 15.7295ZM3.56393 10.9927L7.55116 12.5171C7.83679 12.6263 8.05238 12.8665 8.1304 13.1621L8.63606 15.0785C8.65924 14.8574 8.75943 14.6494 8.9222 14.4928L18.9022 4.88961L3.56393 10.9927Z" fill="#4E6FE2"/>
</g>
<defs>
<clipPath id="clip0">
<rect width="24" height="24" fill="white"/>
</clipPath>
</defs>
</svg>
