<svg width="52" height="20" viewBox="0 0 52 20" fill="none" xmlns="http://www.w3.org/2000/svg">
<path d="M22.0996 17.7687H17.9683L20.5523 2.28027H24.6835L22.0996 17.7687Z" fill="#00579F"/>
<path d="M37.076 2.6594C36.2611 2.34602 34.9687 2 33.3705 2C29.2907 2 26.4177 4.10895 26.4001 7.12412C26.3662 9.3487 28.457 10.5843 30.0208 11.326C31.6192 12.084 32.1625 12.5787 32.1625 13.2543C32.1463 14.2919 30.871 14.7702 29.6815 14.7702C28.0321 14.7702 27.1483 14.5236 25.8052 13.9464L25.2612 13.6989L24.6831 17.1757C25.6521 17.6036 27.4373 17.9834 29.2907 18C33.6256 18 36.4477 15.9237 36.4812 12.7105C36.4977 10.9474 35.3936 9.59639 33.0133 8.49242C31.5684 7.78374 30.6835 7.30589 30.6835 6.58078C30.7004 5.9216 31.4319 5.24643 33.063 5.24643C34.4061 5.21336 35.3929 5.52631 36.1405 5.83948L36.5142 6.00394L37.076 2.6594Z" fill="#00579F"/>
<path d="M42.5682 12.2817C42.9084 11.3919 44.2176 7.94816 44.2176 7.94816C44.2004 7.98123 44.5571 7.04195 44.7611 6.46533L45.0499 7.7999C45.0499 7.7999 45.8322 11.5073 46.0021 12.2817C45.3564 12.2817 43.3842 12.2817 42.5682 12.2817ZM47.6678 2.28027H44.4722C43.4867 2.28027 42.738 2.56015 42.3129 3.56535L36.1763 17.7685H40.5112C40.5112 17.7685 41.2249 15.8568 41.3783 15.4451C41.8538 15.4451 46.0708 15.4451 46.6826 15.4451C46.8012 15.9889 47.1755 17.7685 47.1755 17.7685H51.0008L47.6678 2.28027Z" fill="#00579F"/>
<path d="M14.5178 2.28027L10.4719 12.8419L10.0297 10.6999C9.28173 8.22826 6.93581 5.54291 4.31787 4.20768L8.02383 17.7523H12.3926L18.8864 2.28027H14.5178Z" fill="#00579F"/>
<path d="M6.71495 2.28027H0.0680009L0 2.59322C5.18504 3.87852 8.61899 6.97669 10.0298 10.7005L8.58487 3.58222C8.34698 2.593 7.61591 2.3129 6.71495 2.28027Z" fill="#FAA61A"/>
</svg>
