<svg width="24" height="24" viewBox="0 0 24 24" fill="none" xmlns="http://www.w3.org/2000/svg">
<path d="M0.75 8.25H5.25C5.4495 8.25 5.64 8.3295 5.781 8.469L7.0605 9.75H9V9C9 8.586 9.336 8.25 9.75 8.25H16.5C20.6355 8.25 24 11.6145 24 15.75C24 19.8855 20.6355 23.25 16.5 23.25C12.786 23.25 9.678 20.5755 9.093 16.956L0.468 13.4445C0.1845 13.329 0 13.0545 0 12.75V9C0 8.586 0.336 8.25 0.75 8.25ZM16.5 19.5C18.5715 19.5 20.25 17.8215 20.25 15.75C20.25 13.6785 18.5715 12 16.5 12C14.4285 12 12.75 13.6785 12.75 15.75C12.75 17.8215 14.4285 19.5 16.5 19.5Z" fill="#F44D4D"/>
<path d="M7.5 0.75C7.914 0.75 8.25 1.086 8.25 1.5V4C8.25 4.414 7.914 4.75 7.5 4.75C7.086 4.75 6.75 4.414 6.75 4V1.5C6.75 1.086 7.086 0.75 7.5 0.75Z" fill="#F44D4D"/>
<path d="M10.3505 4.45024L12.1502 2.55024C12.3992 2.21724 12.8702 2.15124 13.2002 2.40024C13.5317 2.64924 13.5992 3.11874 13.3502 3.45024L11.5505 5.35024C11.4035 5.54674 11.1785 5.65024 10.9505 5.65024C10.7945 5.65024 10.6355 5.60074 10.5005 5.50024C10.169 5.25124 10.103 4.78174 10.3505 4.45024Z" fill="#F44D4D"/>
<path d="M1.80043 2.39993C2.13043 2.15393 2.59993 2.21693 2.85042 2.54993L4.49885 4.5C4.74635 4.8315 4.67885 5.301 4.34735 5.55C4.21235 5.6505 4.05335 5.7 3.89735 5.7C3.67085 5.7 3.44436 5.5965 3.29736 5.4L1.64893 3.44993C1.40143 3.11843 1.46893 2.64893 1.80043 2.39993Z" fill="#F44D4D"/>
</svg>
