<svg width="39" height="29" viewBox="0 0 39 29" fill="none" xmlns="http://www.w3.org/2000/svg">
<path d="M7.31 0.76C9.65 0.76 11.4 1.72 12.56 3.64C13.74 5.58 14.33 8.2 14.33 11.5C14.33 14.9 13.74 17.54 12.56 19.42C11.38 21.3 9.65 22.24 7.37 22.24C5.07 22.24 3.31 21.29 2.09 19.39C0.87 17.49 0.26 14.86 0.26 11.5C0.26 8.12 0.86 5.49 2.06 3.61C3.26 1.71 5.01 0.76 7.31 0.76ZM3.95 11.5C3.95 16.52 5.09 19.03 7.37 19.03C8.55 19.03 9.39 18.44 9.89 17.26C10.41 16.08 10.67 14.16 10.67 11.5C10.67 8.86 10.41 6.95 9.89 5.77C9.37 4.59 8.51 4 7.31 4C6.13 4 5.27 4.61 4.73 5.83C4.21 7.03 3.95 8.92 3.95 11.5ZM18.1013 7.81L16.2713 4.96L21.6413 0.939999H24.1313V22H20.6813V5.86L18.1013 7.81ZM29.0415 28.24L26.3715 27.25L36.2715 0.669999L38.9415 1.66L29.0415 28.24Z" fill="#F44D4D"/>
</svg>
