<svg width="44" height="29" viewBox="0 0 44 29" fill="none" xmlns="http://www.w3.org/2000/svg">
<path d="M7.31 0.76C9.65 0.76 11.4 1.72 12.56 3.64C13.74 5.58 14.33 8.2 14.33 11.5C14.33 14.9 13.74 17.54 12.56 19.42C11.38 21.3 9.65 22.24 7.37 22.24C5.07 22.24 3.31 21.29 2.09 19.39C0.87 17.49 0.26 14.86 0.26 11.5C0.26 8.12 0.86 5.49 2.06 3.61C3.26 1.71 5.01 0.76 7.31 0.76ZM3.95 11.5C3.95 16.52 5.09 19.03 7.37 19.03C8.55 19.03 9.39 18.44 9.89 17.26C10.41 16.08 10.67 14.16 10.67 11.5C10.67 8.86 10.41 6.95 9.89 5.77C9.37 4.59 8.51 4 7.31 4C6.13 4 5.27 4.61 4.73 5.83C4.21 7.03 3.95 8.92 3.95 11.5ZM29.9213 22H16.7213V19.24C19.1413 16.88 20.8113 15.17 21.7313 14.11C24.2113 11.27 25.4513 8.88 25.4513 6.94C25.4513 6.08 25.2213 5.41 24.7613 4.93C24.3013 4.45 23.6413 4.21 22.7813 4.21C21.2413 4.21 20.2313 5.15 19.7513 7.03L16.8713 5.74C17.1513 4.2 17.8513 2.99 18.9713 2.11C20.1113 1.21 21.5113 0.76 23.1713 0.76C25.0513 0.76 26.5113 1.3 27.5513 2.38C28.5913 3.44 29.1113 4.73 29.1113 6.25C29.1113 7.33 28.8813 8.48 28.4213 9.7C27.9613 10.88 27.4313 11.91 26.8313 12.79C26.2113 13.71 25.4813 14.61 24.6413 15.49C23.9213 16.29 23.2613 16.97 22.6613 17.53C22.3613 17.81 21.8713 18.23 21.1913 18.79H29.9213V22ZM33.1138 28.24L30.4437 27.25L40.3438 0.669999L43.0138 1.66L33.1138 28.24Z" fill="#F44D4D"/>
</svg>
