<svg width="44" height="29" viewBox="0 0 44 29" fill="none" xmlns="http://www.w3.org/2000/svg">
<path d="M7.31 0.76C9.65 0.76 11.4 1.72 12.56 3.64C13.74 5.58 14.33 8.2 14.33 11.5C14.33 14.9 13.74 17.54 12.56 19.42C11.38 21.3 9.65 22.24 7.37 22.24C5.07 22.24 3.31 21.29 2.09 19.39C0.87 17.49 0.26 14.86 0.26 11.5C0.26 8.12 0.86 5.49 2.06 3.61C3.26 1.71 5.01 0.76 7.31 0.76ZM3.95 11.5C3.95 16.52 5.09 19.03 7.37 19.03C8.55 19.03 9.39 18.44 9.89 17.26C10.41 16.08 10.67 14.16 10.67 11.5C10.67 8.86 10.41 6.95 9.89 5.77C9.37 4.59 8.51 4 7.31 4C6.13 4 5.27 4.61 4.73 5.83C4.21 7.03 3.95 8.92 3.95 11.5ZM22.9313 22.33C21.3913 22.33 20.0313 22.02 18.8513 21.4C17.6913 20.76 16.8313 19.89 16.2713 18.79L18.2213 16.27C19.4013 18.01 20.9013 18.88 22.7213 18.88C23.7813 18.88 24.6113 18.61 25.2113 18.07C25.8113 17.53 26.1113 16.83 26.1113 15.97C26.1113 15.01 25.7613 14.28 25.0613 13.78C24.3813 13.26 23.4313 13 22.2113 13H20.7113V9.55H22.0613C22.9813 9.55 23.7513 9.28 24.3713 8.74C24.9913 8.2 25.3013 7.51 25.3013 6.67C25.3013 5.87 25.0713 5.25 24.6113 4.81C24.1513 4.35 23.4913 4.12 22.6313 4.12C21.0113 4.12 19.6913 4.87 18.6713 6.37L16.7513 3.94C17.9113 1.76 19.9813 0.669999 22.9613 0.669999C24.7813 0.669999 26.2413 1.16 27.3413 2.14C28.4413 3.1 28.9913 4.39 28.9913 6.01C28.9913 8.39 27.9213 10.05 25.7813 10.99V11.08C27.0413 11.3 28.0213 11.87 28.7213 12.79C29.4413 13.69 29.8013 14.79 29.8013 16.09C29.8013 17.99 29.1513 19.51 27.8513 20.65C26.5513 21.77 24.9113 22.33 22.9313 22.33ZM33.2895 28.24L30.6195 27.25L40.5195 0.669999L43.1895 1.66L33.2895 28.24Z" fill="#F44D4D"/>
</svg>
