<svg width="252" height="497" viewBox="0 0 252 497" fill="none" xmlns="http://www.w3.org/2000/svg">
<g opacity="0.1" filter="url(#filter0_d)">
<path fill-rule="evenodd" clip-rule="evenodd" d="M195.584 45.1357C172.185 19.8942 144.272 7.27343 111.845 7.27343C87.7087 7.27343 66.5666 16.4396 48.4185 34.772C30.3625 53.1964 21.3345 75.8125 21.3345 102.62C21.3345 113.214 22.7624 123.624 25.6182 133.85C28.3818 144.167 31.514 152.597 35.0146 159.137C38.5153 165.77 42.5226 172.034 47.0366 177.93C51.6427 183.918 54.8209 187.833 56.5713 189.676C58.4137 191.518 59.8877 192.9 60.9932 193.821L137.409 209.851L137.409 125.006L103.416 117.958L103.416 149.05L82.1352 144.49L79.0952 140.621C76.7922 137.949 74.5812 133.619 72.4624 127.631C70.4357 121.736 69.4224 115.379 69.4224 108.562C69.4224 94.8358 73.6139 83.5968 81.9971 74.8452C90.4723 66.1857 101.112 61.856 113.917 61.856C133.171 61.856 149.431 68.673 162.696 82.3071C175.962 96.0334 182.595 112.155 182.595 130.671C182.595 136.659 181.766 142.463 180.107 148.083C178.449 153.794 176.561 158.354 174.442 161.763C172.323 165.171 169.882 168.396 167.118 171.436C164.447 174.476 162.512 176.41 161.314 177.239C160.665 177.726 160.111 178.134 159.652 178.462C159.33 178.693 159.055 178.884 158.827 179.036L191.162 217.312L195.169 214.134C197.933 212.292 201.25 209.068 205.119 204.461C208.988 199.947 212.857 194.696 216.726 188.708C220.595 182.813 223.912 175.12 226.675 165.632C229.439 156.143 230.821 146.102 230.821 135.508C230.821 100.593 219.075 70.4694 195.584 45.1357ZM191.3 215.927L194.58 213.325L194.615 213.302C197.26 211.539 200.504 208.4 204.353 203.818L204.359 203.811C208.194 199.337 212.037 194.123 215.886 188.166L215.89 188.16C219.688 182.373 222.969 174.781 225.715 165.352C228.451 155.961 229.821 146.014 229.821 135.508C229.821 100.843 218.168 70.9623 194.851 45.8157C171.628 20.7642 143.975 8.27343 111.845 8.27343C87.996 8.27343 67.1048 17.318 49.1306 35.4741C31.267 53.7032 22.3345 76.0638 22.3345 102.62C22.3345 113.123 23.7499 123.442 26.5813 133.581L26.5842 133.591C29.3358 143.864 32.4438 152.215 35.8963 158.665L35.899 158.67C39.3734 165.254 43.3502 171.47 47.8292 177.32C52.433 183.305 55.5775 187.176 57.288 188.978C59.013 190.703 60.3963 192.004 61.4445 192.894L136.409 208.619L136.409 125.82L104.416 119.187L104.416 150.287L81.5723 145.392L78.3227 141.256C75.9036 138.442 73.6478 133.979 71.5197 127.965L71.5167 127.956C69.4509 121.947 68.4224 115.479 68.4224 108.562C68.4224 94.615 72.6894 83.1163 81.2749 74.1535L81.2824 74.1457C89.9574 65.2822 100.861 60.856 113.917 60.856C133.437 60.856 149.957 67.7795 163.413 81.6098L163.415 81.6122C176.855 95.5185 183.595 111.887 183.595 130.671C183.595 136.753 182.752 142.652 181.067 148.366C179.394 154.125 177.475 158.778 175.291 162.291C173.141 165.75 170.665 169.02 167.864 172.102C165.215 175.116 163.213 177.136 161.9 178.05C161.285 178.511 160.751 178.904 160.299 179.229L191.3 215.927ZM164.368 310.429L164.371 310.432C177.166 323.227 183.595 338.17 183.595 355.22C183.595 370.195 178.765 382.528 169.067 392.133C159.382 401.817 147.379 406.657 133.125 406.657C114.896 406.657 99.5269 400.194 87.0828 387.283C74.6618 374.489 68.4223 359.642 68.4223 342.783C68.4223 327.81 73.2045 315.433 82.8065 305.737L82.8134 305.73C92.5018 296.136 104.598 291.346 119.03 291.346C136.44 291.346 151.568 297.723 164.368 310.429ZM87.8008 386.587C100.053 399.3 115.161 405.657 133.125 405.657C147.128 405.657 158.873 400.912 168.362 391.424C177.85 382.027 182.595 369.959 182.595 355.22C182.595 338.453 176.284 323.76 163.664 311.139C151.043 298.611 136.165 292.346 119.03 292.346C104.843 292.346 93.0057 297.044 83.5171 306.441C74.1206 315.93 69.4223 328.044 69.4223 342.783C69.4223 359.365 75.5485 373.967 87.8008 386.587ZM37.5019 400.268C48.2803 418.876 62.5132 433.754 80.2007 444.901C97.9803 456.048 116.773 461.621 136.58 461.621C162.466 461.621 184.621 451.626 203.046 431.635C221.562 411.645 230.821 386.633 230.821 356.602C230.821 324.727 219.259 296.722 196.137 272.586C173.014 248.45 146.16 236.382 115.576 236.382C89.6893 236.382 67.4878 246.377 48.9712 266.368C30.5467 286.358 21.3345 311.369 21.3345 341.401C21.3345 362.129 26.7236 381.751 37.5019 400.268ZM49.7048 267.047C31.4701 286.833 22.3345 311.593 22.3345 341.401C22.3345 361.946 27.6737 381.395 38.3662 399.764L38.3673 399.766C49.0664 418.238 63.1863 432.996 80.7319 444.054C98.3622 455.107 116.973 460.621 136.58 460.621C162.171 460.621 184.065 450.754 202.311 430.958L202.312 430.956C220.64 411.17 229.821 386.409 229.821 356.602C229.821 324.999 218.369 297.238 195.415 273.278C172.461 249.318 145.861 237.382 115.576 237.382C89.9839 237.382 68.0434 247.249 49.7048 267.047Z" fill="white"/>
</g>
<defs>
<filter id="filter0_d" x="0.334473" y="0.273438" width="251.486" height="496.348" filterUnits="userSpaceOnUse" color-interpolation-filters="sRGB">
<feFlood flood-opacity="0" result="BackgroundImageFix"/>
<feColorMatrix in="SourceAlpha" type="matrix" values="0 0 0 0 0 0 0 0 0 0 0 0 0 0 0 0 0 0 127 0"/>
<feOffset dy="14"/>
<feGaussianBlur stdDeviation="10.5"/>
<feColorMatrix type="matrix" values="0 0 0 0 0 0 0 0 0 0 0 0 0 0 0 0 0 0 1 0"/>
<feBlend mode="normal" in2="BackgroundImageFix" result="effect1_dropShadow"/>
<feBlend mode="normal" in="SourceGraphic" in2="effect1_dropShadow" result="shape"/>
</filter>
</defs>
</svg>
