<svg width="1430" height="465" viewBox="0 0 1430 465" fill="none" xmlns="http://www.w3.org/2000/svg">
<g opacity="0.05" filter="url(#filter0_d)">
<path d="M172.361 142.741L171.654 142.034L171.652 142.037L172.361 142.741ZM162.898 304.167L162.188 304.871L162.195 304.878L162.898 304.167ZM324.324 295.539L323.63 294.819L323.628 294.822L324.324 295.539ZM334.065 133.278L333.355 133.982L333.358 133.985L334.065 133.278ZM441.775 310.847L442.621 311.38L442.623 311.378L441.775 310.847ZM351.878 396.848L351.377 395.982L351.375 395.983L351.878 396.848ZM82.1855 373.747L81.506 374.481L81.5078 374.482L82.1855 373.747ZM415.057 63.4199L414.377 64.1536L414.379 64.1552L415.057 63.4199ZM261.146 103.611C227.092 103.611 197.248 116.44 171.654 142.034L173.068 143.448C198.314 118.203 227.66 105.611 261.146 105.611V103.611ZM171.652 142.037C146.239 167.636 133.51 197.852 133.51 232.639H135.51C135.51 198.402 148.015 168.686 173.071 143.446L171.652 142.037ZM133.51 232.639C133.51 261.458 143.064 285.56 162.188 304.871L163.609 303.463C144.881 284.552 135.51 260.968 135.51 232.639H133.51ZM162.195 304.878C181.514 324.009 206.176 333.556 236.097 333.556V331.556C206.643 331.556 182.506 322.177 163.602 303.456L162.195 304.878ZM236.097 333.556C269.772 333.556 299.427 321.103 325.021 296.257L323.628 294.822C298.382 319.33 269.218 331.556 236.097 331.556V333.556ZM325.018 296.259C350.823 271.389 363.732 240.698 363.732 204.25H361.732C361.732 240.165 349.036 270.333 323.63 294.819L325.018 296.259ZM363.732 204.25C363.732 175.795 354.08 151.879 334.773 132.571L333.358 133.985C352.273 152.9 361.732 176.299 361.732 204.25H363.732ZM334.776 132.575C315.642 113.253 291.069 103.611 261.146 103.611V105.611C290.597 105.611 314.637 115.081 333.355 133.982L334.776 132.575ZM474.452 197.292C474.452 236.985 463.286 274.654 440.928 310.315L442.623 311.378C465.167 275.418 476.452 237.384 476.452 197.292H474.452ZM440.929 310.314C418.567 345.797 388.721 374.352 351.377 395.982L352.379 397.713C389.996 375.925 420.081 347.146 442.621 311.38L440.929 310.314ZM351.375 395.983C314.227 417.607 274.879 428.411 233.313 428.411V430.411C275.244 430.411 314.939 419.507 352.381 397.712L351.375 395.983ZM233.313 428.411C173.048 428.411 122.922 409.933 82.8633 373.012L81.5078 374.482C121.976 411.78 172.603 430.411 233.313 430.411V428.411ZM82.8651 373.013C42.7936 335.897 22.79 291.441 22.79 239.597H20.79C20.79 292.03 41.0501 337.008 81.506 374.481L82.8651 373.013ZM22.79 239.597C22.79 178.295 46.9651 124.461 95.4017 78.058L94.0182 76.6138C45.2283 123.355 20.79 177.696 20.79 239.597H22.79ZM95.4017 78.058C143.839 31.6545 200.001 8.47754 263.929 8.47754V6.47754C199.458 6.47754 142.808 29.8728 94.0182 76.6138L95.4017 78.058ZM263.929 8.47754C324.193 8.47754 374.318 27.048 414.377 64.1536L415.736 62.6863C375.268 25.202 324.641 6.47754 263.929 6.47754V8.47754ZM414.379 64.1552C454.449 101.086 474.452 145.448 474.452 197.292H476.452C476.452 144.859 456.192 99.9726 415.734 62.6846L414.379 64.1552ZM638.771 18.8887V17.8887H637.96L637.792 18.6819L638.771 18.8887ZM946.593 18.8887L947.571 19.0961L947.827 17.8887H946.593V18.8887ZM925.997 116.022V117.022H926.807L926.975 116.23L925.997 116.022ZM726.441 116.022V115.022H725.628L725.462 115.818L726.441 116.022ZM712.804 181.428L711.825 181.224L711.574 182.428H712.804V181.428ZM866.715 181.428L867.693 181.636L867.95 180.428H866.715V181.428ZM846.119 278.283V279.283H846.929L847.097 278.491L846.119 278.283ZM692.208 278.283V277.283H691.397L691.23 278.077L692.208 278.283ZM662.706 418V419H663.517L663.685 418.207L662.706 418ZM554.439 418L553.461 417.793L553.206 419H554.439V418ZM638.771 19.8887H946.593V17.8887H638.771V19.8887ZM945.615 18.6812L925.019 115.815L926.975 116.23L947.571 19.0961L945.615 18.6812ZM925.997 115.022H726.441V117.022H925.997V115.022ZM725.462 115.818L711.825 181.224L713.783 181.632L727.42 116.227L725.462 115.818ZM712.804 182.428H866.715V180.428H712.804V182.428ZM865.737 181.22L845.141 278.075L847.097 278.491L867.693 181.636L865.737 181.22ZM846.119 277.283H692.208V279.283H846.119V277.283ZM691.23 278.077L661.728 417.793L663.685 418.207L693.186 278.49L691.23 278.077ZM662.706 417H554.439V419H662.706V417ZM555.418 418.207L639.749 19.0954L637.792 18.6819L553.461 417.793L555.418 418.207ZM1040.61 374.86L1039.91 375.571L1039.91 375.575L1040.61 374.86ZM1061.48 78.4492L1062.16 79.1826L1062.16 79.1825L1061.48 78.4492ZM1350.66 35.8662L1350.11 36.7023L1350.12 36.7061L1350.66 35.8662ZM1382.39 59.2451L1381.74 60.0044L1381.74 60.0108L1382.39 59.2451ZM1401.87 79.2842L1401.04 79.8389L1401.06 79.8732L1401.09 79.9056L1401.87 79.2842ZM1408.27 87.3555L1408.92 88.1194L1409.66 87.4937L1409.05 86.7341L1408.27 87.3555ZM1331.18 152.482L1330.34 153.037L1330.97 153.969L1331.82 153.246L1331.18 152.482ZM1327.56 147.473L1326.74 148.042L1326.75 148.057L1326.76 148.073L1327.56 147.473ZM1315.87 135.783L1315.2 136.523L1315.2 136.529L1315.21 136.534L1315.87 135.783ZM1268.83 109.621L1268.55 110.58L1268.55 110.581L1268.83 109.621ZM1136.35 144.689L1135.66 143.97L1135.65 143.973L1136.35 144.689ZM1121.32 307.229L1120.62 307.943L1120.63 307.951L1121.32 307.229ZM1227.64 326.433L1227.97 327.378L1227.97 327.375L1227.64 326.433ZM1253.8 313.073L1253.18 312.287L1253.17 312.301L1253.15 312.316L1253.8 313.073ZM1261.6 306.95L1262.21 307.737L1262.5 307.513L1262.57 307.16L1261.6 306.95ZM1270.78 264.089L1271.76 264.298L1272.02 263.089H1270.78V264.089ZM1208.16 264.089L1207.18 263.886L1206.93 265.089H1208.16V264.089ZM1222.35 195.622V194.622H1221.54L1221.37 195.419L1222.35 195.622ZM1393.24 195.622L1394.22 195.827L1394.47 194.622H1393.24V195.622ZM1360.96 349.533L1361.72 350.173L1361.88 349.982L1361.93 349.738L1360.96 349.533ZM1352.61 358.439L1353.3 359.164L1353.3 359.156L1353.31 359.147L1352.61 358.439ZM1328.95 377.644L1329.56 378.438L1329.56 378.436L1328.95 377.644ZM1291.1 401.857L1290.63 400.973L1290.63 400.976L1291.1 401.857ZM1240.17 420.783L1239.91 419.817L1239.9 419.82L1240.17 420.783ZM1177.26 428.411C1123.52 428.411 1078.22 410.322 1041.31 374.146L1039.91 375.575C1077.21 412.133 1123.02 430.411 1177.26 430.411V428.411ZM1041.31 374.15C1004.56 337.77 986.224 295.438 986.224 247.111H984.224C984.224 296.011 1002.81 338.845 1039.91 375.571L1041.31 374.15ZM986.224 247.111C986.224 182.096 1011.51 126.135 1062.16 79.1826L1060.8 77.7159C1009.77 125.021 984.224 181.502 984.224 247.111H986.224ZM1062.16 79.1825C1113 32.0415 1173.43 8.47754 1243.5 8.47754V6.47754C1172.93 6.47754 1112.02 30.228 1060.8 77.716L1062.16 79.1825ZM1243.5 8.47754C1264.75 8.47754 1284.88 11.2491 1303.9 16.7872L1304.46 14.8671C1285.25 9.27234 1264.93 6.47754 1243.5 6.47754V8.47754ZM1303.9 16.7872C1322.95 22.3361 1338.34 28.9807 1350.11 36.7023L1351.21 35.0302C1339.22 27.1658 1323.63 20.451 1304.46 14.8671L1303.9 16.7872ZM1350.12 36.7061C1362.15 44.4793 1372.68 52.2458 1381.74 60.0044L1383.04 58.4859C1373.91 50.6585 1363.29 42.8391 1351.2 35.0263L1350.12 36.7061ZM1381.74 60.0108C1391 67.7836 1397.41 74.391 1401.04 79.8389L1402.7 78.7295C1398.91 73.0446 1392.33 66.2925 1383.03 58.4794L1381.74 60.0108ZM1401.09 79.9056L1407.49 87.9769L1409.05 86.7341L1402.65 78.6628L1401.09 79.9056ZM1407.63 86.5916L1330.53 151.719L1331.82 153.246L1408.92 88.1194L1407.63 86.5916ZM1332.01 151.928C1331.25 150.79 1330.03 149.102 1328.36 146.873L1326.76 148.073C1328.43 150.297 1329.62 151.948 1330.34 153.037L1332.01 151.928ZM1328.38 146.903C1326.63 144.376 1322.64 140.404 1316.53 135.032L1315.21 136.534C1321.34 141.925 1325.15 145.746 1326.74 148.042L1328.38 146.903ZM1316.54 135.043C1310.37 129.437 1303.83 124.483 1296.91 120.183L1295.86 121.882C1302.67 126.116 1309.12 130.997 1315.2 136.523L1316.54 135.043ZM1296.91 120.183C1289.94 115.85 1280.66 112.015 1269.11 108.661L1268.55 110.581C1280.01 113.907 1289.1 117.679 1295.86 121.882L1296.91 120.183ZM1269.11 108.662C1257.7 105.294 1245.92 103.611 1233.76 103.611V105.611C1245.73 105.611 1257.32 107.268 1268.55 110.58L1269.11 108.662ZM1233.76 103.611C1196.2 103.611 1163.48 117.078 1135.66 143.97L1137.05 145.409C1164.51 118.864 1196.74 105.611 1233.76 105.611V103.611ZM1135.65 143.973C1108 170.882 1094.16 203.891 1094.16 242.937H1096.16C1096.16 204.423 1109.78 171.934 1137.05 145.406L1135.65 143.973ZM1094.16 242.937C1094.16 268.979 1102.98 290.673 1120.62 307.943L1122.02 306.514C1104.78 289.643 1096.16 268.476 1096.16 242.937H1094.16ZM1120.63 307.951C1138.47 325.038 1161.37 333.556 1189.23 333.556V331.556C1161.81 331.556 1139.43 323.189 1122.01 306.506L1120.63 307.951ZM1189.23 333.556C1203.06 333.556 1215.98 331.5 1227.97 327.378L1227.32 325.487C1215.55 329.53 1202.86 331.556 1189.23 331.556V333.556ZM1227.97 327.375C1240.07 323.094 1248.93 318.591 1254.46 313.831L1253.15 312.316C1247.91 316.833 1239.33 321.236 1227.31 325.49L1227.97 327.375ZM1254.42 313.86L1262.21 307.737L1260.98 306.164L1253.18 312.287L1254.42 313.86ZM1262.57 307.16L1271.76 264.298L1269.8 263.879L1260.62 306.741L1262.57 307.16ZM1270.78 263.089H1208.16V265.089H1270.78V263.089ZM1209.14 264.292L1223.33 195.825L1221.37 195.419L1207.18 263.886L1209.14 264.292ZM1222.35 196.622H1393.24V194.622H1222.35V196.622ZM1392.26 195.417L1359.98 349.328L1361.93 349.738L1394.22 195.827L1392.26 195.417ZM1360.19 348.893C1358.36 351.085 1355.6 354.029 1351.9 357.732L1353.31 359.147C1357.03 355.428 1359.84 352.435 1361.72 350.173L1360.19 348.893ZM1351.92 357.714C1348.25 361.198 1340.41 367.568 1328.34 376.851L1329.56 378.436C1341.61 369.164 1349.54 362.732 1353.3 359.164L1351.92 357.714ZM1328.34 376.85C1316.51 385.907 1303.94 393.948 1290.63 400.973L1291.56 402.742C1304.97 395.665 1317.64 387.564 1329.56 378.438L1328.34 376.85ZM1290.63 400.976C1277.54 407.978 1260.64 414.263 1239.91 419.817L1240.42 421.749C1261.25 416.171 1278.31 409.838 1291.57 402.739L1290.63 400.976ZM1239.9 419.82C1219.39 425.548 1198.51 428.411 1177.26 428.411V430.411C1198.69 430.411 1219.75 427.523 1240.43 421.746L1239.9 419.82Z" fill="white"/>
</g>
<defs>
<filter id="filter0_d" x="0.790039" y="0.477539" width="1428.48" height="463.934" filterUnits="userSpaceOnUse" color-interpolation-filters="sRGB">
<feFlood flood-opacity="0" result="BackgroundImageFix"/>
<feColorMatrix in="SourceAlpha" type="matrix" values="0 0 0 0 0 0 0 0 0 0 0 0 0 0 0 0 0 0 127 0"/>
<feOffset dy="14"/>
<feGaussianBlur stdDeviation="10.5"/>
<feColorMatrix type="matrix" values="0 0 0 0 0 0 0 0 0 0 0 0 0 0 0 0 0 0 1 0"/>
<feBlend mode="normal" in2="BackgroundImageFix" result="effect1_dropShadow"/>
<feBlend mode="normal" in="SourceGraphic" in2="effect1_dropShadow" result="shape"/>
</filter>
</defs>
</svg>
