<svg width="1920" height="444" viewBox="0 0 1920 444" fill="none" xmlns="http://www.w3.org/2000/svg">
<g clip-path="url(#clip0)">
<g opacity="0.5" filter="url(#filter0_f)">
<ellipse rx="448.332" ry="68.8807" transform="matrix(0.983226 -0.182392 0.873803 0.486281 885 323.268)" fill="#F44D4D"/>
</g>
<path fill-rule="evenodd" clip-rule="evenodd" d="M161.5 660.5C159.667 629.5 162.8 555 190 505C224 442.5 263.5 379.5 335.5 320.5C407.5 261.5 446 235 525.5 198L558 186L563.5 187L570.5 186L580 183L588 180.5L591.5 181.5L588 188.5L584 190.5L586 194L588 196.5H591.5L587 204L580 209L576 211L574 215L579 217L582.5 220.5L588 221.5L574 229.5L562 234.5L558 237H554.5L553 232.5H550L545.5 234.5L544 237V239.5L548 240.5L545.5 245L540.5 250.5L537 253.5L534.5 258H528.5L524.5 253.5L519.5 256L524.5 264L522.5 268.5L504.5 263L502 256L500.5 254.5L497 253.5L494.5 256L486 259L481 260.5L478.5 263L476 264L473 265L478.5 259L483 256L487.5 250.5C488.5 249.834 490.7 248.4 491.5 248C492.3 247.6 500.5 245.834 504.5 245L512.5 243L519.5 237L527 231L534.5 227.5L537 224.5V222.5L528.5 227.5L521.5 231L515 232.5L518.5 226.5L532 220.5L533.5 217H522.5L517 220.5L511.5 225.5L504.5 229.5L488.5 240.5L475 248L468 250.5L465 252L462 256L461 260.5L462 265L459 268.5H449L443.5 272L441 277L446 279V282.5L440 283L435 282.5V272H432.5L406 287L367 315.5L357.5 327L355.5 338L353 343.5L359.5 345.5L367 348.5L372.5 351.5L380 348.5V355.5L372.5 364.5V371.5L378 373.5L385.5 364.5L390 351.5L397 343.5L404.5 336L412 333.5L421 330L423.5 320.5L428 310.5L432.5 303.5L440 298.5L443.5 294L449 289.5C449.833 288 451.7 284.8 452.5 284C453.3 283.2 457.167 280.334 459 279L463.5 275L471 272L481 270L485 274C484.5 275 484 277 486 277C488 277 495.5 278.334 499 279L488.5 284L481 289.5L483 294H488.5L499 289.5L508.5 282.5L515.5 275L517 279V287L510.5 303.5L515.5 310.5L528 314.5L534.5 323.5L531.5 333.5L524.5 343.5L520.5 347.5L522 350.5H528L534.5 348.5V355.5L537 364.5L534.5 369L525.5 370.5L508.5 369L497 371.5L491.5 370.5L496.5 363.5C499 361.5 504.3 357.2 505.5 356C506.7 354.8 510.667 350.5 512.5 348.5L517 343.5L514 340L497 350.5L485 354L471.5 357H463.5L449 363.5L436.5 373.5L435 378L441 376L452.5 370.5H457L458.5 375L449 378V386.5L452.5 388H463.5L464.5 390.5L469 390L473.5 384L474.5 381H480.5V388L451.5 404.5L438 413.5H434V408L437.5 404V401L429.5 408L411.5 417.5L403 424.5L397 431L395.5 439L392 445L381.5 450L369.5 460L359.5 473.5L348.5 492.5V505L342 515L334 525L323 537L313 548V568L317.5 580.5V589.5L320.5 596.5L317.5 600.5L311 598.5L307 587.5L304 578.5L301 572.5H294L278 578.5L263 596.5L250 598.5L238.5 608.5L233.5 644.5L235 661.5L161.5 660.5ZM520.5 208L529 205L519 206L504 214.5L487 230L484.5 233.5L490 232.5L501 225.5L514 213L520.5 208ZM294 437.5L304.5 426L311 420.5L318 416.5L324 414L326 416.5L325 420.5L324 424V427L315 432L309.5 433L314 428L318 422.5L312.5 426L305 430.5L300.5 436L294 437.5ZM297.5 473L300.5 458L305.5 448.5L312.5 439.5L319.5 435L332 428L341 427L346 430.5L344 435H334.5L332 441.5L330.5 446H327L328 441.5L324 438L317 446L310 453L306.5 462L303 469L297.5 473ZM352 438.5L348 444L358.5 442L362 437.5L365 434L361.5 432.5L357 435L352 438.5ZM335.5 459.5L337 452L327 459.5L324.5 464L320.5 466.5H324.5L328.5 463L335.5 459.5ZM483.5 221L492.5 219.5L481.5 224.5L472.5 231L468 233.5L464.5 234.5L470 229L483.5 221Z" fill="#1C1C1C"/>
<path opacity="0.2" fill-rule="evenodd" clip-rule="evenodd" d="M161.5 650.5C159.667 619.5 162.8 545 190 495C224 432.5 263.5 369.5 335.5 310.5C407.5 251.5 446 225 525.5 188L558 176L563.5 177L570.5 176L580 173L588 170.5L591.5 171.5L588 178.5L584 180.5L586 184L588 186.5H591.5L587 194L580 199L576 201L574 205L579 207L582.5 210.5L588 211.5L574 219.5L562 224.5L558 227H554.5L553 222.5H550L545.5 224.5L544 227V229.5L548 230.5L545.5 235L540.5 240.5L537 243.5L534.5 248H528.5L524.5 243.5L519.5 246L524.5 254L522.5 258.5L504.5 253L502 246L500.5 244.5L497 243.5L494.5 246L486 249L481 250.5L478.5 253L476 254L473 255L478.5 249L483 246L487.5 240.5C488.5 239.833 490.7 238.4 491.5 238C492.3 237.6 500.5 235.833 504.5 235L512.5 233L519.5 227L527 221L534.5 217.5L537 214.5V212.5L528.5 217.5L521.5 221L515 222.5L518.5 216.5L532 210.5L533.5 207H522.5L517 210.5L511.5 215.5L504.5 219.5L488.5 230.5L475 238L468 240.5L465 242L462 246L461 250.5L462 255L459 258.5H449L443.5 262L441 267L446 269V272.5L440 273L435 272.5V262H432.5L406 277L367 305.5L357.5 317L355.5 328L353 333.5L359.5 335.5L367 338.5L372.5 341.5L380 338.5V345.5L372.5 354.5V361.5L378 363.5L385.5 354.5L390 341.5L397 333.5L404.5 326L412 323.5L421 320L423.5 310.5L428 300.5L432.5 293.5L440 288.5L443.5 284L449 279.5C449.833 278 451.7 274.8 452.5 274C453.3 273.2 457.167 270.333 459 269L463.5 265L471 262L481 260L485 264C484.5 265 484 267 486 267C488 267 495.5 268.333 499 269L488.5 274L481 279.5L483 284H488.5L499 279.5L508.5 272.5L515.5 265L517 269V277L510.5 293.5L515.5 300.5L528 304.5L534.5 313.5L531.5 323.5L524.5 333.5L520.5 337.5L522 340.5H528L534.5 338.5V345.5L537 354.5L534.5 359L525.5 360.5L508.5 359L497 361.5L491.5 360.5L496.5 353.5C499 351.5 504.3 347.2 505.5 346C506.7 344.8 510.667 340.5 512.5 338.5L517 333.5L514 330L497 340.5L485 344L471.5 347H463.5L449 353.5L436.5 363.5L435 368L441 366L452.5 360.5H457L458.5 365L449 368V376.5L452.5 378H463.5L464.5 380.5L469 380L473.5 374L474.5 371H480.5V378L451.5 394.5L438 403.5H434V398L437.5 394V391L429.5 398L411.5 407.5L403 414.5L397 421L395.5 429L392 435L381.5 440L369.5 450L359.5 463.5L348.5 482.5V495L342 505L334 515L323 527L313 538V558L317.5 570.5V579.5L320.5 586.5L317.5 590.5L311 588.5L307 577.5L304 568.5L301 562.5H294L278 568.5L263 586.5L250 588.5L238.5 598.5L233.5 634.5L235 651.5L161.5 650.5ZM520.5 198L529 195L519 196L504 204.5L487 220L484.5 223.5L490 222.5L501 215.5L514 203L520.5 198ZM294 427.5L304.5 416L311 410.5L318 406.5L324 404L326 406.5L325 410.5L324 414V417L315 422L309.5 423L314 418L318 412.5L312.5 416L305 420.5L300.5 426L294 427.5ZM297.5 463L300.5 448L305.5 438.5L312.5 429.5L319.5 425L332 418L341 417L346 420.5L344 425H334.5L332 431.5L330.5 436H327L328 431.5L324 428L317 436L310 443L306.5 452L303 459L297.5 463ZM352 428.5L348 434L358.5 432L362 427.5L365 424L361.5 422.5L357 425L352 428.5ZM335.5 449.5L337 442L327 449.5L324.5 454L320.5 456.5H324.5L328.5 453L335.5 449.5ZM483.5 211L492.5 209.5L481.5 214.5L472.5 221L468 223.5L464.5 224.5L470 219L483.5 211Z" stroke="white"/>
<path d="M697.5 141C640.3 152.6 584.667 173.833 564 183L602.5 174.5L613 170.5L622 165L638 159.5L664.5 152.5L671.5 150.5L667 158L673 155.5H683L693 152.5V159.5L683 166.5L670 174.5L668.5 179.5L673 181.5L668.5 185H658.5L652 188.5L653.5 192L661.5 190.5L667 192L664.5 195.5L651 198L640 205.5L628 216.5L625.5 230.5L622 246L628 252.5L638 249.5C640.167 251.333 644.8 255 646 255H653.5L661.5 249.5L693 220.5L707.5 214.5L741 205.5L771 192L795.5 187.5L823 181.5L825.5 178L818 174.5L825.5 170.5L830.5 174.5L835 178L842 174.5L844.5 170.5L842 166.5L835 162V158H838L839.5 162L844.5 165L850 158L853 155.5H859L863 152.5L870 150.5L873 144.5V141L874.5 135.5L879 137L884 138.5L886.5 137L884 133.5V131L888.5 129L899 122.5L913 119L924.5 116.5H909.5L894.5 113.5C830.5 117.5 769 126.5 697.5 141Z" fill="#1C1C1C"/>
<path opacity="0.2" d="M697.5 131C640.3 142.6 584.667 163.833 564 173L602.5 164.5L613 160.5L622 155L638 149.5L664.5 142.5L671.5 140.5L667 148L673 145.5H683L693 142.5V149.5L683 156.5L670 164.5L668.5 169.5L673 171.5L668.5 175H658.5L652 178.5L653.5 182L661.5 180.5L667 182L664.5 185.5L651 188L640 195.5L628 206.5L625.5 220.5L622 236L628 242.5L638 239.5C640.167 241.333 644.8 245 646 245H653.5L661.5 239.5L693 210.5L707.5 204.5L741 195.5L771 182L795.5 177.5L823 171.5L825.5 168L818 164.5L825.5 160.5L830.5 164.5L835 168L842 164.5L844.5 160.5L842 156.5L835 152V148H838L839.5 152L844.5 155L850 148L853 145.5H859L863 142.5L870 140.5L873 134.5V131L874.5 125.5L879 127L884 128.5L886.5 127L884 123.5V121L888.5 119L896.5 117.5L900 113.5L886.5 110.5L888.5 107L894.5 103.5C830.5 107.5 769 116.5 697.5 131Z" stroke="white"/>
<path d="M1070.5 124.5H1020V128.5L1059 139L1065.5 132L1076.5 139L1082.5 136.5L1078 132L1079.5 126.5L1070.5 124.5Z" fill="#1C1C1C"/>
<path d="M918 275H938L942 282L938 293L925.5 296.5L904.5 302.5L898.5 298L903 295L906.5 289.5L904.5 284.5L910 281L918 275Z" fill="#1C1C1C"/>
<path d="M933.5 256L938 261L943.5 274L949 278.5L960.5 281L964 286L961.5 289.5H952L949 296.5L950.5 302.5L960 303L954.5 307L946.5 313.5L962.5 308.5L980.5 309.5L1001 307L1005.5 300L1007 295L992 289.5L975 272L965.5 269.5L970.5 264V258H959V254.5L954.5 251.5L943.5 256H933.5Z" fill="#1C1C1C"/>
<path fill-rule="evenodd" clip-rule="evenodd" d="M976 317L988 316L1015 307L1033.5 295L1064.5 288.5L1068 284.5L1059 269.5L1064.5 264H1075V275L1082.5 281L1076.5 284.5L1088.5 288.5L1098 286L1105.5 290.5L1117.5 293L1125 288.5L1137 286L1144 293L1156 286L1163 284.5V272L1168 269.5L1175.5 274L1182 272L1173 264L1160.5 261L1173 258L1209.5 261L1204.5 251.5L1160.5 254.5L1149 247L1141.5 232L1151.5 222.5L1160.5 213.5L1139.5 207.5C1138 210.333 1135.4 216.5 1137 218.5C1138.6 220.5 1134.67 222 1132.5 222.5L1119.5 229L1123 240L1132.5 254.5L1127.5 264L1123 272L1098 275L1088.5 266.5L1079.5 258L1068 254.5L1043 261L1037 251.5L1028.5 242.5L1033.5 233.5L1043 222.5L1075 204L1088.5 189.5L1123 179.5L1182 186.5L1242.5 207.5L1252 220.5L1235.5 222.5L1216.5 213.5L1219 221L1242.5 230.5C1246.17 231.167 1254.1 232.7 1256.5 233.5C1258.9 234.3 1259.17 229.833 1259 227.5L1263 225L1270 220.5C1266.83 216.833 1259.7 208.8 1256.5 206C1253.3 203.2 1261.17 204.833 1265.5 206C1268.5 210 1274.8 218.5 1276 220.5C1277.2 222.5 1283.17 221.333 1286 220.5L1296 221L1309.5 213.5L1321 221L1331 213.5L1319.5 206L1326.5 207.5L1367 225L1326.5 195.5L1331 189.5L1345.5 201L1353.5 195.5L1363.5 201L1394 213.5C1432 228.333 1530.2 282.1 1619 378.5C1707.8 474.9 1743 610.333 1749.5 666H1598.5L1603 652L1608.5 618L1565 597L1508 580L1495 573.5L1464 551.5L1440.5 523.5L1425.5 511.5V531C1429 534.833 1436.9 543.1 1440.5 545.5C1445 548.5 1446.5 555 1446.5 557C1446.5 558.6 1456.17 566.333 1461 570L1483 577L1503.5 597L1490.5 611.5L1446.5 628.5L1396.5 640.5L1373.5 637.5L1370 606L1365.5 582.5L1348 573.5L1342 551.5L1330.5 521L1321 511.5L1312.5 508.5V518L1321 542.5L1354 611.5L1363 637.5L1373.5 652V660.5H1081.5L1073.5 652L1041 653.5L1032.5 637.5L1013 633.5L985 643.5L957 646L868 630.5L841.5 603.5L829 576L832.5 563V540L827.5 519C831.333 514.667 839.4 505.8 841 505C842.6 504.2 878 482.333 895.5 471.5L901.5 457L925.5 429L950.5 424H988L1015 410.5L1080 418.5L1094.5 422.5L1098 432L1092.5 442L1107 445L1138 455L1166.5 469H1179.5L1185.5 457.5L1197 455L1266.5 481.5L1312.5 485L1316.5 466.5L1321 447.5L1312.5 445.5L1296 441L1284 436.5H1256.5L1237.5 416L1232 405.5L1214.5 397.5C1212.17 399 1207.1 402 1205.5 402C1203.9 402 1207.5 406 1209.5 408L1216.5 418.5L1209.5 424L1194.5 420L1179.5 402L1168 383L1151.5 372L1123 356L1108.5 350.5L1107 356L1117.5 363.5L1135 378.5L1162.5 395L1157.5 397.5L1151.5 395L1148 408L1139.5 416L1132 420L1121.5 416L1115.5 410.5L1124.5 408H1138L1141.5 404L1138 395L1117.5 383L1098 368L1082.5 357.5L1064.5 359L1054.5 362H1043L1022.5 370.5L1005.5 389L984 404L960.5 414.5L910 410.5L904.5 389L910 365L915.5 357.5H933.5L970.5 363.5L980.5 356L982.5 346L973 336.5L952 329L954.5 323.5H975L976 317ZM1228.5 252.5L1221.5 246.5L1216.5 251L1224 256L1232 257.5L1228.5 252.5ZM1276 367L1265.5 360L1258 367L1247.5 376L1246 385L1247.5 391V397.5L1243.5 401.5C1245 403.333 1248.3 406.6 1249.5 405C1249.84 404.546 1250.18 404.067 1250.53 403.579C1251.71 401.917 1252.95 400.16 1254.5 399C1256.1 397.8 1262.5 400.167 1265.5 401.5L1273 399L1291 401.5C1294.67 401 1302.5 400.3 1304.5 401.5C1306.5 402.7 1320.67 408 1327.5 410.5L1360 415C1358.83 411.667 1356.3 405 1355.5 405C1354.7 405 1335.83 392.333 1326.5 386L1317.5 379.5V373L1322 367L1317.5 362L1304.5 363.5L1300.5 367L1304.5 376L1297 379.5H1286L1281.5 373L1286 367H1276ZM1428.5 390.5L1431.5 396.5L1427 394.5L1421.5 399V405L1427 413.5L1440 435.5L1448.5 447L1459 467.5L1448.5 469L1431.5 461L1424.5 453V435.5L1409 418L1397.5 401.5L1391.5 390.5L1404 386L1419 384.5L1428.5 390.5ZM1482 405L1477 413.5L1480 415L1487.5 418L1490.5 410.5L1482 405Z" fill="#1C1C1C"/>
<path d="M1256.5 161L1248 168.5L1268 186.5L1299 206L1276 179.5L1270 171L1256.5 161Z" fill="#1C1C1C"/>
<g opacity="0.2">
<path d="M1070.5 114.5H1020V118.5L1059 129L1065.5 122L1076.5 129L1082.5 126.5L1078 122L1079.5 116.5L1070.5 114.5Z" stroke="white"/>
<path d="M918 265H938L942 272L938 283L925.5 286.5L904.5 292.5L898.5 288L903 285L906.5 279.5L904.5 274.5L910 271L918 265Z" stroke="white"/>
<path d="M933.5 246L938 251L943.5 264L949 268.5L960.5 271L964 276L961.5 279.5H952L949 286.5L950.5 292.5L960 293L954.5 297L946.5 303.5L962.5 298.5L980.5 299.5L1001 297L1005.5 290L1007 285L992 279.5L975 262L965.5 259.5L970.5 254V248H959V244.5L954.5 241.5L943.5 246H933.5Z" stroke="white"/>
<path fill-rule="evenodd" clip-rule="evenodd" d="M976 307L988 306L1015 297L1033.5 285L1064.5 278.5L1068 274.5L1059 259.5L1064.5 254H1075V265L1082.5 271L1076.5 274.5L1088.5 278.5L1098 276L1105.5 280.5L1117.5 283L1125 278.5L1137 276L1144 283L1156 276L1163 274.5V262L1168 259.5L1175.5 264L1182 262L1173 254L1160.5 251L1173 248L1209.5 251L1204.5 241.5L1160.5 244.5L1149 237L1141.5 222L1151.5 212.5L1160.5 203.5L1139.5 197.5C1138 200.333 1135.4 206.5 1137 208.5C1138.6 210.5 1134.67 212 1132.5 212.5L1119.5 219L1123 230L1132.5 244.5L1127.5 254L1123 262L1098 265L1088.5 256.5L1079.5 248L1068 244.5L1043 251L1037 241.5L1028.5 232.5L1033.5 223.5L1043 212.5L1075 194L1088.5 179.5L1123 169.5L1182 176.5L1242.5 197.5L1252 210.5L1235.5 212.5L1216.5 203.5L1219 211L1242.5 220.5C1246.17 221.167 1254.1 222.7 1256.5 223.5C1258.9 224.3 1259.17 219.833 1259 217.5L1263 215L1270 210.5C1266.83 206.833 1259.7 198.8 1256.5 196C1253.3 193.2 1261.17 194.833 1265.5 196C1268.5 200 1274.8 208.5 1276 210.5C1277.2 212.5 1283.17 211.333 1286 210.5L1296 211L1309.5 203.5L1321 211L1331 203.5L1319.5 196L1326.5 197.5L1367 215L1326.5 185.5L1331 179.5L1345.5 191L1353.5 185.5L1363.5 191L1394 203.5C1432 218.333 1530.2 272.1 1619 368.5C1707.8 464.9 1743 600.333 1749.5 656H1598.5L1603 642L1608.5 608L1565 587L1508 570L1495 563.5L1464 541.5L1440.5 513.5L1425.5 501.5V521C1429 524.833 1436.9 533.1 1440.5 535.5C1445 538.5 1446.5 545 1446.5 547C1446.5 548.6 1456.17 556.333 1461 560L1483 567L1503.5 587L1490.5 601.5L1446.5 618.5L1396.5 630.5L1373.5 627.5L1370 596L1365.5 572.5L1348 563.5L1342 541.5L1330.5 511L1321 501.5L1312.5 498.5V508L1321 532.5L1354 601.5L1363 627.5L1373.5 642V650.5H1081.5L1073.5 642L1041 643.5L1032.5 627.5L1013 623.5L985 633.5L957 636L868 620.5L841.5 593.5L829 566L832.5 553V530L827.5 509C831.333 504.667 839.4 495.8 841 495C842.6 494.2 878 472.333 895.5 461.5L901.5 447L925.5 419L950.5 414H988L1015 400.5L1080 408.5L1094.5 412.5L1098 422L1092.5 432L1107 435L1138 445L1166.5 459H1179.5L1185.5 447.5L1197 445L1266.5 471.5L1312.5 475L1316.5 456.5L1321 437.5L1312.5 435.5L1296 431L1284 426.5H1256.5L1237.5 406L1232 395.5L1214.5 387.5C1212.17 389 1207.1 392 1205.5 392C1203.9 392 1207.5 396 1209.5 398L1216.5 408.5L1209.5 414L1194.5 410L1179.5 392L1168 373L1151.5 362L1123 346L1108.5 340.5L1107 346L1117.5 353.5L1135 368.5L1162.5 385L1157.5 387.5L1151.5 385L1148 398L1139.5 406L1132 410L1121.5 406L1115.5 400.5L1124.5 398H1138L1141.5 394L1138 385L1117.5 373L1098 358L1082.5 347.5L1064.5 349L1054.5 352H1043L1022.5 360.5L1005.5 379L984 394L960.5 404.5L910 400.5L904.5 379L910 355L915.5 347.5H933.5L970.5 353.5L980.5 346L982.5 336L973 326.5L952 319L954.5 313.5H975L976 307ZM1228.5 242.5L1221.5 236.5L1216.5 241L1224 246L1232 247.5L1228.5 242.5ZM1276 357L1265.5 350L1258 357L1247.5 366L1246 375L1247.5 381V387.5L1243.5 391.5C1245 393.333 1248.3 396.6 1249.5 395C1249.84 394.546 1250.18 394.067 1250.53 393.579C1251.71 391.917 1252.95 390.16 1254.5 389C1256.1 387.8 1262.5 390.167 1265.5 391.5L1273 389L1291 391.5C1294.67 391 1302.5 390.3 1304.5 391.5C1306.5 392.7 1320.67 398 1327.5 400.5L1360 405C1358.83 401.667 1356.3 395 1355.5 395C1354.7 395 1335.83 382.333 1326.5 376L1317.5 369.5V363L1322 357L1317.5 352L1304.5 353.5L1300.5 357L1304.5 366L1297 369.5H1286L1281.5 363L1286 357H1276ZM1428.5 380.5L1431.5 386.5L1427 384.5L1421.5 389V395L1427 403.5L1440 425.5L1448.5 437L1459 457.5L1448.5 459L1431.5 451L1424.5 443V425.5L1409 408L1397.5 391.5L1391.5 380.5L1404 376L1419 374.5L1428.5 380.5ZM1482 395L1477 403.5L1480 405L1487.5 408L1490.5 400.5L1482 395Z" stroke="white"/>
<path d="M1256.5 151L1248 158.5L1268 176.5L1299 196L1276 169.5L1270 161L1256.5 151Z" stroke="white"/>
</g>
<g filter="url(#filter1_d)">
<ellipse cx="1169.6" cy="311.518" rx="9.85878" ry="4.31687" transform="rotate(10.1805 1169.6 311.518)" fill="#F44D4D"/>
</g>
<g filter="url(#filter2_d)">
<ellipse cx="1284.6" cy="337.518" rx="9.85878" ry="4.31687" transform="rotate(13.6252 1284.6 337.518)" fill="#F44D4D"/>
</g>
<g filter="url(#filter3_d)">
<ellipse cx="1284.6" cy="303.518" rx="9.85878" ry="4.31687" transform="rotate(15.4765 1284.6 303.518)" fill="#F44D4D"/>
</g>
<g filter="url(#filter4_d)">
<ellipse cx="1229.74" cy="285.458" rx="9.85878" ry="4.31687" transform="rotate(13.1 1229.74 285.458)" fill="#F44D4D"/>
</g>
<g filter="url(#filter5_d)">
<ellipse cx="1079.58" cy="299.439" rx="9.85878" ry="4.31687" transform="rotate(10.5914 1079.58 299.439)" fill="#F44D4D"/>
</g>
<g filter="url(#filter6_d)">
<ellipse cx="979.222" cy="275.231" rx="9.85878" ry="4.31687" transform="rotate(10.9608 979.222 275.231)" fill="#F44D4D"/>
</g>
<g filter="url(#filter7_d)">
<ellipse cx="1007.22" cy="344.231" rx="9.85878" ry="4.31687" transform="rotate(5.43088 1007.22 344.231)" fill="#F44D4D"/>
</g>
<g filter="url(#filter8_d)">
<ellipse cx="1194.22" cy="369.231" rx="9.85878" ry="4.31687" transform="rotate(11.1837 1194.22 369.231)" fill="#F44D4D"/>
</g>
<g filter="url(#filter9_d)">
<ellipse cx="1402.74" cy="338.474" rx="9.85878" ry="4.31687" transform="rotate(20.3331 1402.74 338.474)" fill="#F44D4D"/>
</g>
<g filter="url(#filter10_d)">
<ellipse cx="1480.74" cy="363.474" rx="9.85878" ry="4.31687" transform="rotate(29.9317 1480.74 363.474)" fill="#F44D4D"/>
</g>
<g filter="url(#filter11_d)">
<ellipse cx="1344.68" cy="297.966" rx="9.85878" ry="4.31687" transform="rotate(16.6857 1344.68 297.966)" fill="#F44D4D"/>
</g>
<g filter="url(#filter12_d)">
<ellipse cx="1365.74" cy="364.474" rx="9.85878" ry="4.31687" transform="rotate(20.3331 1365.74 364.474)" fill="#F44D4D"/>
</g>
<g filter="url(#filter13_d)">
<ellipse cx="1237.45" cy="345.933" rx="9.85878" ry="4.31687" transform="rotate(8.77648 1237.45 345.933)" fill="#F44D4D"/>
</g>
<g filter="url(#filter14_d)">
<ellipse cx="404.93" cy="368.484" rx="9.85878" ry="4.31687" transform="rotate(-29.3246 404.93 368.484)" fill="#F44D4D"/>
</g>
<g filter="url(#filter15_d)">
<ellipse cx="478.709" cy="331.145" rx="9.85878" ry="4.31687" transform="rotate(-17.9484 478.709 331.145)" fill="#F44D4D"/>
</g>
<g filter="url(#filter16_d)">
<ellipse cx="309.71" cy="386.145" rx="9.85878" ry="4.31687" transform="rotate(-30.0133 309.71 386.145)" fill="#F44D4D"/>
</g>
<g filter="url(#filter17_d)">
<ellipse cx="398.696" cy="396.669" rx="9.85878" ry="4.31687" transform="rotate(-30.0133 398.696 396.669)" fill="#F44D4D"/>
</g>
<g filter="url(#filter18_d)">
<ellipse cx="1309.22" cy="248.231" rx="9.85878" ry="4.31687" transform="rotate(21.1763 1309.22 248.231)" fill="#F44D4D"/>
</g>
<g filter="url(#filter19_d)">
<ellipse cx="1425.22" cy="299.231" rx="9.85878" ry="4.31687" transform="rotate(17.4639 1425.22 299.231)" fill="#F44D4D"/>
</g>
<g filter="url(#filter20_d)">
<ellipse cx="1402.7" cy="255.077" rx="9.85878" ry="4.31687" transform="rotate(21.6694 1402.7 255.077)" fill="#F44D4D"/>
</g>
</g>
<defs>
<filter id="filter0_f" x="246.045" y="40.8779" width="1277.91" height="564.779" filterUnits="userSpaceOnUse" color-interpolation-filters="sRGB">
<feFlood flood-opacity="0" result="BackgroundImageFix"/>
<feBlend mode="normal" in="SourceGraphic" in2="BackgroundImageFix" result="shape"/>
<feGaussianBlur stdDeviation="97" result="effect1_foregroundBlur"/>
</filter>
<filter id="filter1_d" x="1145.13" y="304.527" width="46.9331" height="37.9829" filterUnits="userSpaceOnUse" color-interpolation-filters="sRGB">
<feFlood flood-opacity="0" result="BackgroundImageFix"/>
<feColorMatrix in="SourceAlpha" type="matrix" values="0 0 0 0 0 0 0 0 0 0 0 0 0 0 0 0 0 0 127 0"/>
<feMorphology radius="2" operator="dilate" in="SourceAlpha" result="effect1_dropShadow"/>
<feOffset dx="-1" dy="12"/>
<feGaussianBlur stdDeviation="5.5"/>
<feColorMatrix type="matrix" values="0 0 0 0 0.541667 0 0 0 0 0.0970486 0 0 0 0 0.0970486 0 0 0 0.3 0"/>
<feBlend mode="normal" in2="BackgroundImageFix" result="effect1_dropShadow"/>
<feBlend mode="normal" in="SourceGraphic" in2="effect1_dropShadow" result="shape"/>
</filter>
<filter id="filter2_d" x="1260" y="330" width="47.1965" height="39.0356" filterUnits="userSpaceOnUse" color-interpolation-filters="sRGB">
<feFlood flood-opacity="0" result="BackgroundImageFix"/>
<feColorMatrix in="SourceAlpha" type="matrix" values="0 0 0 0 0 0 0 0 0 0 0 0 0 0 0 0 0 0 127 0"/>
<feMorphology radius="2" operator="dilate" in="SourceAlpha" result="effect1_dropShadow"/>
<feOffset dx="-1" dy="12"/>
<feGaussianBlur stdDeviation="5.5"/>
<feColorMatrix type="matrix" values="0 0 0 0 0.541667 0 0 0 0 0.0970486 0 0 0 0 0.0970486 0 0 0 0.3 0"/>
<feBlend mode="normal" in2="BackgroundImageFix" result="effect1_dropShadow"/>
<feBlend mode="normal" in="SourceGraphic" in2="effect1_dropShadow" result="shape"/>
</filter>
<filter id="filter3_d" x="1259.94" y="295.727" width="47.3065" height="39.5822" filterUnits="userSpaceOnUse" color-interpolation-filters="sRGB">
<feFlood flood-opacity="0" result="BackgroundImageFix"/>
<feColorMatrix in="SourceAlpha" type="matrix" values="0 0 0 0 0 0 0 0 0 0 0 0 0 0 0 0 0 0 127 0"/>
<feMorphology radius="2" operator="dilate" in="SourceAlpha" result="effect1_dropShadow"/>
<feOffset dx="-1" dy="12"/>
<feGaussianBlur stdDeviation="5.5"/>
<feColorMatrix type="matrix" values="0 0 0 0 0.541667 0 0 0 0 0.0970486 0 0 0 0 0.0970486 0 0 0 0.3 0"/>
<feBlend mode="normal" in2="BackgroundImageFix" result="effect1_dropShadow"/>
<feBlend mode="normal" in="SourceGraphic" in2="effect1_dropShadow" result="shape"/>
</filter>
<filter id="filter4_d" x="1205.16" y="278.019" width="47.1613" height="38.8781" filterUnits="userSpaceOnUse" color-interpolation-filters="sRGB">
<feFlood flood-opacity="0" result="BackgroundImageFix"/>
<feColorMatrix in="SourceAlpha" type="matrix" values="0 0 0 0 0 0 0 0 0 0 0 0 0 0 0 0 0 0 127 0"/>
<feMorphology radius="2" operator="dilate" in="SourceAlpha" result="effect1_dropShadow"/>
<feOffset dx="-1" dy="12"/>
<feGaussianBlur stdDeviation="5.5"/>
<feColorMatrix type="matrix" values="0 0 0 0 0.541667 0 0 0 0 0.0970486 0 0 0 0 0.0970486 0 0 0 0.3 0"/>
<feBlend mode="normal" in2="BackgroundImageFix" result="effect1_dropShadow"/>
<feBlend mode="normal" in="SourceGraphic" in2="effect1_dropShadow" result="shape"/>
</filter>
<filter id="filter5_d" x="1055.1" y="292.384" width="46.9685" height="38.1108" filterUnits="userSpaceOnUse" color-interpolation-filters="sRGB">
<feFlood flood-opacity="0" result="BackgroundImageFix"/>
<feColorMatrix in="SourceAlpha" type="matrix" values="0 0 0 0 0 0 0 0 0 0 0 0 0 0 0 0 0 0 127 0"/>
<feMorphology radius="2" operator="dilate" in="SourceAlpha" result="effect1_dropShadow"/>
<feOffset dx="-1" dy="12"/>
<feGaussianBlur stdDeviation="5.5"/>
<feColorMatrix type="matrix" values="0 0 0 0 0.541667 0 0 0 0 0.0970486 0 0 0 0 0.0970486 0 0 0 0.3 0"/>
<feBlend mode="normal" in2="BackgroundImageFix" result="effect1_dropShadow"/>
<feBlend mode="normal" in="SourceGraphic" in2="effect1_dropShadow" result="shape"/>
</filter>
<filter id="filter6_d" x="954.723" y="268.118" width="46.9995" height="38.2253" filterUnits="userSpaceOnUse" color-interpolation-filters="sRGB">
<feFlood flood-opacity="0" result="BackgroundImageFix"/>
<feColorMatrix in="SourceAlpha" type="matrix" values="0 0 0 0 0 0 0 0 0 0 0 0 0 0 0 0 0 0 127 0"/>
<feMorphology radius="2" operator="dilate" in="SourceAlpha" result="effect1_dropShadow"/>
<feOffset dx="-1" dy="12"/>
<feGaussianBlur stdDeviation="5.5"/>
<feColorMatrix type="matrix" values="0 0 0 0 0.541667 0 0 0 0 0.0970486 0 0 0 0 0.0970486 0 0 0 0.3 0"/>
<feBlend mode="normal" in2="BackgroundImageFix" result="effect1_dropShadow"/>
<feBlend mode="normal" in="SourceGraphic" in2="effect1_dropShadow" result="shape"/>
</filter>
<filter id="filter7_d" x="982.999" y="338" width="46.4462" height="36.4612" filterUnits="userSpaceOnUse" color-interpolation-filters="sRGB">
<feFlood flood-opacity="0" result="BackgroundImageFix"/>
<feColorMatrix in="SourceAlpha" type="matrix" values="0 0 0 0 0 0 0 0 0 0 0 0 0 0 0 0 0 0 127 0"/>
<feMorphology radius="2" operator="dilate" in="SourceAlpha" result="effect1_dropShadow"/>
<feOffset dx="-1" dy="12"/>
<feGaussianBlur stdDeviation="5.5"/>
<feColorMatrix type="matrix" values="0 0 0 0 0.541667 0 0 0 0 0.0970486 0 0 0 0 0.0970486 0 0 0 0.3 0"/>
<feBlend mode="normal" in2="BackgroundImageFix" result="effect1_dropShadow"/>
<feBlend mode="normal" in="SourceGraphic" in2="effect1_dropShadow" result="shape"/>
</filter>
<filter id="filter8_d" x="1169.71" y="362.084" width="47.0177" height="38.2941" filterUnits="userSpaceOnUse" color-interpolation-filters="sRGB">
<feFlood flood-opacity="0" result="BackgroundImageFix"/>
<feColorMatrix in="SourceAlpha" type="matrix" values="0 0 0 0 0 0 0 0 0 0 0 0 0 0 0 0 0 0 127 0"/>
<feMorphology radius="2" operator="dilate" in="SourceAlpha" result="effect1_dropShadow"/>
<feOffset dx="-1" dy="12"/>
<feGaussianBlur stdDeviation="5.5"/>
<feColorMatrix type="matrix" values="0 0 0 0 0.541667 0 0 0 0 0.0970486 0 0 0 0 0.0970486 0 0 0 0.3 0"/>
<feBlend mode="normal" in2="BackgroundImageFix" result="effect1_dropShadow"/>
<feBlend mode="normal" in="SourceGraphic" in2="effect1_dropShadow" result="shape"/>
</filter>
<filter id="filter9_d" x="1378" y="330" width="47.489" height="40.9472" filterUnits="userSpaceOnUse" color-interpolation-filters="sRGB">
<feFlood flood-opacity="0" result="BackgroundImageFix"/>
<feColorMatrix in="SourceAlpha" type="matrix" values="0 0 0 0 0 0 0 0 0 0 0 0 0 0 0 0 0 0 127 0"/>
<feMorphology radius="2" operator="dilate" in="SourceAlpha" result="effect1_dropShadow"/>
<feOffset dx="-1" dy="12"/>
<feGaussianBlur stdDeviation="5.5"/>
<feColorMatrix type="matrix" values="0 0 0 0 0.541667 0 0 0 0 0.0970486 0 0 0 0 0.0970486 0 0 0 0.3 0"/>
<feBlend mode="normal" in2="BackgroundImageFix" result="effect1_dropShadow"/>
<feBlend mode="normal" in="SourceGraphic" in2="effect1_dropShadow" result="shape"/>
</filter>
<filter id="filter10_d" x="1456.05" y="353.813" width="47.3956" height="43.3206" filterUnits="userSpaceOnUse" color-interpolation-filters="sRGB">
<feFlood flood-opacity="0" result="BackgroundImageFix"/>
<feColorMatrix in="SourceAlpha" type="matrix" values="0 0 0 0 0 0 0 0 0 0 0 0 0 0 0 0 0 0 127 0"/>
<feMorphology radius="2" operator="dilate" in="SourceAlpha" result="effect1_dropShadow"/>
<feOffset dx="-1" dy="12"/>
<feGaussianBlur stdDeviation="5.5"/>
<feColorMatrix type="matrix" values="0 0 0 0 0.541667 0 0 0 0 0.0970486 0 0 0 0 0.0970486 0 0 0 0.3 0"/>
<feBlend mode="normal" in2="BackgroundImageFix" result="effect1_dropShadow"/>
<feBlend mode="normal" in="SourceGraphic" in2="effect1_dropShadow" result="shape"/>
</filter>
<filter id="filter11_d" x="1320" y="290" width="47.3663" height="39.9315" filterUnits="userSpaceOnUse" color-interpolation-filters="sRGB">
<feFlood flood-opacity="0" result="BackgroundImageFix"/>
<feColorMatrix in="SourceAlpha" type="matrix" values="0 0 0 0 0 0 0 0 0 0 0 0 0 0 0 0 0 0 127 0"/>
<feMorphology radius="2" operator="dilate" in="SourceAlpha" result="effect1_dropShadow"/>
<feOffset dx="-1" dy="12"/>
<feGaussianBlur stdDeviation="5.5"/>
<feColorMatrix type="matrix" values="0 0 0 0 0.541667 0 0 0 0 0.0970486 0 0 0 0 0.0970486 0 0 0 0.3 0"/>
<feBlend mode="normal" in2="BackgroundImageFix" result="effect1_dropShadow"/>
<feBlend mode="normal" in="SourceGraphic" in2="effect1_dropShadow" result="shape"/>
</filter>
<filter id="filter12_d" x="1341" y="356" width="47.489" height="40.9472" filterUnits="userSpaceOnUse" color-interpolation-filters="sRGB">
<feFlood flood-opacity="0" result="BackgroundImageFix"/>
<feColorMatrix in="SourceAlpha" type="matrix" values="0 0 0 0 0 0 0 0 0 0 0 0 0 0 0 0 0 0 127 0"/>
<feMorphology radius="2" operator="dilate" in="SourceAlpha" result="effect1_dropShadow"/>
<feOffset dx="-1" dy="12"/>
<feGaussianBlur stdDeviation="5.5"/>
<feColorMatrix type="matrix" values="0 0 0 0 0.541667 0 0 0 0 0.0970486 0 0 0 0 0.0970486 0 0 0 0.3 0"/>
<feBlend mode="normal" in2="BackgroundImageFix" result="effect1_dropShadow"/>
<feBlend mode="normal" in="SourceGraphic" in2="effect1_dropShadow" result="shape"/>
</filter>
<filter id="filter13_d" x="1213.05" y="339.163" width="46.804" height="37.5412" filterUnits="userSpaceOnUse" color-interpolation-filters="sRGB">
<feFlood flood-opacity="0" result="BackgroundImageFix"/>
<feColorMatrix in="SourceAlpha" type="matrix" values="0 0 0 0 0 0 0 0 0 0 0 0 0 0 0 0 0 0 127 0"/>
<feMorphology radius="2" operator="dilate" in="SourceAlpha" result="effect1_dropShadow"/>
<feOffset dx="-1" dy="12"/>
<feGaussianBlur stdDeviation="5.5"/>
<feColorMatrix type="matrix" values="0 0 0 0 0.541667 0 0 0 0 0.0970486 0 0 0 0 0.0970486 0 0 0 0.3 0"/>
<feBlend mode="normal" in2="BackgroundImageFix" result="effect1_dropShadow"/>
<feBlend mode="normal" in="SourceGraphic" in2="effect1_dropShadow" result="shape"/>
</filter>
<filter id="filter14_d" x="380.221" y="358.892" width="47.4194" height="43.1842" filterUnits="userSpaceOnUse" color-interpolation-filters="sRGB">
<feFlood flood-opacity="0" result="BackgroundImageFix"/>
<feColorMatrix in="SourceAlpha" type="matrix" values="0 0 0 0 0 0 0 0 0 0 0 0 0 0 0 0 0 0 127 0"/>
<feMorphology radius="2" operator="dilate" in="SourceAlpha" result="effect1_dropShadow"/>
<feOffset dx="-1" dy="12"/>
<feGaussianBlur stdDeviation="5.5"/>
<feColorMatrix type="matrix" values="0 0 0 0 0.541667 0 0 0 0 0.0970486 0 0 0 0 0.0970486 0 0 0 0.3 0"/>
<feBlend mode="normal" in2="BackgroundImageFix" result="effect1_dropShadow"/>
<feBlend mode="normal" in="SourceGraphic" in2="effect1_dropShadow" result="shape"/>
</filter>
<filter id="filter15_d" x="454" y="323" width="47.4186" height="40.2897" filterUnits="userSpaceOnUse" color-interpolation-filters="sRGB">
<feFlood flood-opacity="0" result="BackgroundImageFix"/>
<feColorMatrix in="SourceAlpha" type="matrix" values="0 0 0 0 0 0 0 0 0 0 0 0 0 0 0 0 0 0 127 0"/>
<feMorphology radius="2" operator="dilate" in="SourceAlpha" result="effect1_dropShadow"/>
<feOffset dx="-1" dy="12"/>
<feGaussianBlur stdDeviation="5.5"/>
<feColorMatrix type="matrix" values="0 0 0 0 0.541667 0 0 0 0 0.0970486 0 0 0 0 0.0970486 0 0 0 0.3 0"/>
<feBlend mode="normal" in2="BackgroundImageFix" result="effect1_dropShadow"/>
<feBlend mode="normal" in="SourceGraphic" in2="effect1_dropShadow" result="shape"/>
</filter>
<filter id="filter16_d" x="285.014" y="376.476" width="47.3922" height="43.3388" filterUnits="userSpaceOnUse" color-interpolation-filters="sRGB">
<feFlood flood-opacity="0" result="BackgroundImageFix"/>
<feColorMatrix in="SourceAlpha" type="matrix" values="0 0 0 0 0 0 0 0 0 0 0 0 0 0 0 0 0 0 127 0"/>
<feMorphology radius="2" operator="dilate" in="SourceAlpha" result="effect1_dropShadow"/>
<feOffset dx="-1" dy="12"/>
<feGaussianBlur stdDeviation="5.5"/>
<feColorMatrix type="matrix" values="0 0 0 0 0.541667 0 0 0 0 0.0970486 0 0 0 0 0.0970486 0 0 0 0.3 0"/>
<feBlend mode="normal" in2="BackgroundImageFix" result="effect1_dropShadow"/>
<feBlend mode="normal" in="SourceGraphic" in2="effect1_dropShadow" result="shape"/>
</filter>
<filter id="filter17_d" x="374" y="387" width="47.3922" height="43.3388" filterUnits="userSpaceOnUse" color-interpolation-filters="sRGB">
<feFlood flood-opacity="0" result="BackgroundImageFix"/>
<feColorMatrix in="SourceAlpha" type="matrix" values="0 0 0 0 0 0 0 0 0 0 0 0 0 0 0 0 0 0 127 0"/>
<feMorphology radius="2" operator="dilate" in="SourceAlpha" result="effect1_dropShadow"/>
<feOffset dx="-1" dy="12"/>
<feGaussianBlur stdDeviation="5.5"/>
<feColorMatrix type="matrix" values="0 0 0 0 0.541667 0 0 0 0 0.0970486 0 0 0 0 0.0970486 0 0 0 0.3 0"/>
<feBlend mode="normal" in2="BackgroundImageFix" result="effect1_dropShadow"/>
<feBlend mode="normal" in="SourceGraphic" in2="effect1_dropShadow" result="shape"/>
</filter>
<filter id="filter18_d" x="1284.47" y="239.644" width="47.5049" height="41.1735" filterUnits="userSpaceOnUse" color-interpolation-filters="sRGB">
<feFlood flood-opacity="0" result="BackgroundImageFix"/>
<feColorMatrix in="SourceAlpha" type="matrix" values="0 0 0 0 0 0 0 0 0 0 0 0 0 0 0 0 0 0 127 0"/>
<feMorphology radius="2" operator="dilate" in="SourceAlpha" result="effect1_dropShadow"/>
<feOffset dx="-1" dy="12"/>
<feGaussianBlur stdDeviation="5.5"/>
<feColorMatrix type="matrix" values="0 0 0 0 0.541667 0 0 0 0 0.0970486 0 0 0 0 0.0970486 0 0 0 0.3 0"/>
<feBlend mode="normal" in2="BackgroundImageFix" result="effect1_dropShadow"/>
<feBlend mode="normal" in="SourceGraphic" in2="effect1_dropShadow" result="shape"/>
</filter>
<filter id="filter19_d" x="1400.52" y="291.154" width="47.3997" height="40.1531" filterUnits="userSpaceOnUse" color-interpolation-filters="sRGB">
<feFlood flood-opacity="0" result="BackgroundImageFix"/>
<feColorMatrix in="SourceAlpha" type="matrix" values="0 0 0 0 0 0 0 0 0 0 0 0 0 0 0 0 0 0 127 0"/>
<feMorphology radius="2" operator="dilate" in="SourceAlpha" result="effect1_dropShadow"/>
<feOffset dx="-1" dy="12"/>
<feGaussianBlur stdDeviation="5.5"/>
<feColorMatrix type="matrix" values="0 0 0 0 0.541667 0 0 0 0 0.0970486 0 0 0 0 0.0970486 0 0 0 0.3 0"/>
<feBlend mode="normal" in2="BackgroundImageFix" result="effect1_dropShadow"/>
<feBlend mode="normal" in="SourceGraphic" in2="effect1_dropShadow" result="shape"/>
</filter>
<filter id="filter20_d" x="1377.94" y="246.425" width="47.5121" height="41.3043" filterUnits="userSpaceOnUse" color-interpolation-filters="sRGB">
<feFlood flood-opacity="0" result="BackgroundImageFix"/>
<feColorMatrix in="SourceAlpha" type="matrix" values="0 0 0 0 0 0 0 0 0 0 0 0 0 0 0 0 0 0 127 0"/>
<feMorphology radius="2" operator="dilate" in="SourceAlpha" result="effect1_dropShadow"/>
<feOffset dx="-1" dy="12"/>
<feGaussianBlur stdDeviation="5.5"/>
<feColorMatrix type="matrix" values="0 0 0 0 0.541667 0 0 0 0 0.0970486 0 0 0 0 0.0970486 0 0 0 0.3 0"/>
<feBlend mode="normal" in2="BackgroundImageFix" result="effect1_dropShadow"/>
<feBlend mode="normal" in="SourceGraphic" in2="effect1_dropShadow" result="shape"/>
</filter>
<clipPath id="clip0">
<rect width="1920" height="444" fill="white"/>
</clipPath>
</defs>
</svg>
