<svg width="768" height="374" viewBox="0 0 768 374" fill="none" xmlns="http://www.w3.org/2000/svg">
<g opacity="0.5" filter="url(#filter0_f)">
<path d="M590.7 198.562C610.015 209.311 510.995 239.298 369.532 265.54C228.069 291.781 97.7331 304.341 78.4179 293.592C59.1027 282.843 158.123 252.855 299.585 226.614C441.048 200.372 571.384 187.812 590.7 198.562Z" fill="#F44D4D"/>
</g>
<path fill-rule="evenodd" clip-rule="evenodd" d="M-85.7521 441.573C-86.819 423.53 -84.9956 380.17 -69.1667 351.069C-49.3806 314.692 -26.394 278.025 15.5059 243.686C57.4059 209.347 79.8107 193.923 126.075 172.388L144.988 165.404L148.189 165.986L152.263 165.404L157.791 163.658L162.447 162.203L164.483 162.785L162.447 166.859L160.119 168.023L161.283 170.06L162.447 171.515H164.483L161.865 175.88L157.791 178.79L155.463 179.955L154.299 182.283L157.209 183.447L159.246 185.484L162.447 186.066L154.299 190.722L147.316 193.632L144.988 195.087H142.952L142.079 192.468H140.333L137.714 193.632L136.841 195.087V196.542L139.169 197.124L137.714 199.743L134.804 202.944L132.768 204.69L131.313 207.31H127.821L125.493 204.69L122.584 206.145L125.493 210.802L124.329 213.421L113.854 210.22L112.4 206.145L111.527 205.272L109.49 204.69L108.035 206.145L103.088 207.892L100.179 208.765L98.7239 210.22L97.269 210.802L95.5232 211.384L98.7239 207.892L101.343 206.145L103.961 202.944C104.543 202.556 105.824 201.722 106.289 201.489C106.755 201.256 111.527 200.228 113.854 199.743L118.51 198.579L122.584 195.087L126.948 191.595L131.313 189.558L132.768 187.812V186.648L127.821 189.558L123.747 191.595L119.965 192.468L122.002 188.976L129.858 185.484L130.731 183.447H124.329L121.129 185.484L117.928 188.394L113.854 190.722L104.543 197.124L96.6871 201.489L92.6134 202.944L90.8676 203.817L89.1218 206.145L88.5398 208.765L89.1218 211.384L87.376 213.421H81.5565L78.3558 215.458L76.901 218.368L79.8107 219.532V221.569L76.319 221.86L73.4093 221.569V215.458H71.9545L56.533 224.188L33.8372 240.776L28.3087 247.469L27.1448 253.871L25.6899 257.072L29.4726 258.236L33.8372 259.982L37.0378 261.728L41.4024 259.982V264.057L37.0378 269.295V273.369L40.2385 274.533L44.6031 269.295L47.2219 261.728L51.2955 257.072L55.66 252.707L60.0246 251.252L65.2621 249.215L66.717 243.686L69.3357 237.866L71.9545 233.791L76.319 230.881L78.3558 228.262L81.5565 225.643C82.0415 224.77 83.1278 222.908 83.5933 222.442C84.0589 221.976 86.3091 220.308 87.376 219.532L89.9947 217.204L94.3593 215.458L100.179 214.294L102.506 216.622C102.216 217.204 101.925 218.368 103.088 218.368C104.252 218.368 108.617 219.144 110.654 219.532L104.543 222.442L100.179 225.643L101.343 228.262H104.543L110.654 225.643L116.182 221.569L120.256 217.204L121.129 219.532V224.188L117.346 233.791L120.256 237.866L127.53 240.194L131.313 245.432L129.567 251.252L125.493 257.072L123.165 259.4L124.038 261.146H127.53L131.313 259.982V264.057L132.768 269.295L131.313 271.914L126.075 272.787L116.182 271.914L109.49 273.369L106.289 272.787L109.199 268.713C110.654 267.549 113.738 265.046 114.436 264.348C115.135 263.649 117.443 261.146 118.51 259.982L121.129 257.072L119.383 255.035L109.49 261.146L102.506 263.184L94.6503 264.93H89.9947L81.5565 268.713L74.2822 274.533L73.4093 277.152L76.901 275.988L83.5933 272.787H86.2121L87.085 275.406L81.5565 277.152V282.099L83.5933 282.972H89.9947L90.5766 284.427L93.1954 284.136L95.8141 280.644L96.3961 278.898H99.8877V282.972L83.0114 292.576L75.1552 297.814H72.8274V294.613L74.8642 292.285V290.539L70.2086 294.613L59.7336 300.142L54.7871 304.216L51.2955 307.999L50.4225 312.655L48.3857 316.147L42.2753 319.058L35.292 324.878L29.4726 332.735L23.0712 343.793V351.069L19.2886 356.889L14.633 362.709L8.23165 369.693L2.41222 376.096V387.736L5.03096 395.011V400.249L6.77679 404.324L5.03096 406.652L1.24833 405.488L-1.07944 399.085L-2.82528 393.847L-4.57111 390.355H-8.64471L-17.9558 393.847L-26.685 404.324L-34.2502 405.488L-40.9426 411.308L-43.8523 432.261L-42.9794 442.155L-85.7521 441.573ZM123.165 178.208L128.112 176.462L122.293 177.044L113.563 181.992L103.67 191.013L102.216 193.05L105.416 192.468L111.818 188.394L119.383 181.119L123.165 178.208ZM-8.64471 311.782L-2.53431 305.089L1.24833 301.888L5.32193 299.56L8.81359 298.105L9.97748 299.56L9.39554 301.888L8.81359 303.925V305.671L3.5761 308.581L0.375412 309.163L2.99416 306.253L5.32193 303.052L2.12124 305.089L-2.24333 307.708L-4.86208 310.909L-8.64471 311.782ZM-6.60791 332.444L-4.86208 323.714L-1.95236 318.185L2.12124 312.946L6.19485 310.327L13.4691 306.253L18.7066 305.671L21.6163 307.708L20.4525 310.327H14.924L13.4691 314.11L12.5962 316.729H10.5594L11.1414 314.11L8.81359 312.073L4.73999 316.729L0.666382 320.804L-1.37042 326.042L-3.40722 330.116L-6.60791 332.444ZM25.108 312.364L22.7802 315.565L28.8906 314.401L30.9274 311.782L32.6733 309.745L30.6365 308.872L28.0177 310.327L25.108 312.364ZM15.5059 324.587L16.3789 320.222L10.5594 324.587L9.10456 327.206L6.77679 328.661H9.10456L11.4323 326.624L15.5059 324.587ZM101.634 185.775L106.871 184.902L100.47 187.812L95.2322 191.595L92.6134 193.05L90.5766 193.632L93.7773 190.431L101.634 185.775Z" fill="#1C1C1C"/>
<path opacity="0.2" fill-rule="evenodd" clip-rule="evenodd" d="M162.979 156.941L165.439 157.641L163.2 162.106L161.058 163.174L162.059 164.92L163.123 166.246H165.536L162.619 171.093L158.473 174.045L156.21 175.174L155.23 177.128L157.904 178.195L159.92 180.205L163.821 180.912L154.956 185.963L147.971 188.865L145.591 190.348H143.258L142.385 187.735H140.909L138.428 188.834L137.643 190.138V191.283L140.121 191.901L138.464 194.874L135.516 198.107L133.504 199.827L131.989 202.544H128.192L125.923 200L123.497 201.209L126.322 205.716L124.989 208.705L114.117 205.393L112.634 201.252L111.86 200.48L110.058 199.967L108.677 201.344L103.656 203.111L100.807 203.963L99.3608 205.405L97.841 206.012L95.019 206.949L99.0062 202.613L101.621 200.875L104.242 197.681L104.278 197.657C104.854 197.274 106.153 196.429 106.64 196.187C106.726 196.143 106.879 196.095 107.053 196.045C107.238 195.993 107.475 195.931 107.752 195.862C108.305 195.725 109.021 195.559 109.793 195.386C111.336 195.04 113.111 194.663 114.277 194.421C114.279 194.42 114.281 194.42 114.283 194.42L118.865 193.277L122.894 189.834L127.294 186.325L131.636 184.305L132.983 182.693V182.144L128.462 184.796L124.345 186.848L119.868 187.878L122.294 183.732L130.139 180.256L130.794 178.733H124.913L121.801 180.706L118.592 183.615L114.498 185.948L105.176 192.338L97.2788 196.712L93.1952 198.166L91.5249 198.998L89.8563 201.217L89.3014 203.706L89.9015 206.398L87.972 208.643H82.0977L79.0334 210.587L77.7548 213.136L80.5566 214.254V216.75L76.7678 217.065L73.5664 216.746V210.675H72.4781L57.1228 219.341L34.4478 235.862L28.9855 242.454L27.8276 248.804L26.4934 251.73L29.9747 252.798L34.3707 254.551L37.4694 256.236L42.1105 254.386V258.985L37.7416 264.212V267.969L40.5614 268.991L44.7652 263.962L47.3877 256.408L51.5092 251.712L55.9335 247.301L60.3607 245.83L65.4585 243.853L66.8832 238.455L69.5233 232.606L72.1892 228.471L76.5693 225.56L78.5992 222.958L81.7854 220.359C82.0312 219.919 82.4123 219.26 82.7917 218.647C82.9884 218.329 83.186 218.021 83.365 217.762C83.5406 217.508 83.7088 217.285 83.8457 217.149C84.0962 216.899 84.7955 216.353 85.543 215.787C86.2945 215.219 87.1197 214.612 87.6552 214.224L90.3039 211.877L94.7449 210.105L100.749 208.908L103.338 211.489L103.244 211.676C103.108 211.948 102.99 212.324 103.018 212.607C103.032 212.74 103.075 212.826 103.137 212.882C103.2 212.938 103.322 212.998 103.566 212.998C104.177 212.998 105.588 213.197 107.071 213.438C108.567 213.68 110.172 213.971 111.193 214.165L112.067 214.331L105.172 217.605L101.015 220.644L102.008 222.872H104.962L110.993 220.295L116.478 216.265L120.858 211.587L121.915 214.398V219.152L118.167 228.639L120.931 232.498L128.212 234.821L132.138 240.241L130.336 246.231L126.217 252.098L124.017 254.291L124.717 255.686H127.988L132.109 254.421V258.84L133.587 264.144L132.004 266.984L126.587 267.884L116.691 267.014L109.979 268.468L106.266 267.795L109.469 263.325L109.5 263.299C110.965 262.131 114.035 259.647 114.719 258.965C115.412 258.274 117.717 255.783 118.787 254.619C118.788 254.619 118.788 254.618 118.788 254.618L121.236 251.906L119.817 250.255L110.093 256.244L103.056 258.29L95.1515 260.041H90.5216L82.1659 263.776L74.9805 269.507L74.3181 271.488L77.2434 270.516L83.9856 267.301H86.8829L87.9167 270.393L82.3041 272.16V276.693L84.1115 277.465H90.6566L91.23 278.894L93.5058 278.642L96.0232 275.296L96.6571 273.399H100.653V277.924L83.6222 287.585L75.6934 292.855H72.9839V289.262L75.0227 286.939V285.945L70.8199 289.612L60.3307 295.131L55.4176 299.165L51.9928 302.864L51.1252 307.478L49.0157 311.083L42.8513 314.01L35.916 319.772L30.1214 327.571L23.7612 338.525V345.792L19.92 351.684L15.2447 357.511L8.83125 364.487L3.08183 370.792V382.245L5.70316 389.504V394.722L7.49349 398.887L5.52201 401.508L1.40136 400.244L-0.978249 393.72L-0.980835 393.712L-2.72182 388.505L-4.37963 385.199H-8.22442L-17.4231 388.638L-26.1821 399.118L-33.7804 400.283L-40.3334 405.965L-43.2265 426.732L-42.3273 436.893L-85.7353 436.304L-85.7513 436.034C-86.2864 427.014 -86.0964 411.677 -83.7904 394.96C-81.4848 378.247 -77.0608 360.131 -69.1147 345.568C-49.3017 309.255 -26.2709 272.629 15.7126 238.328C57.6673 204.051 80.1147 188.646 126.452 167.144L126.463 167.139L145.481 160.138L148.717 160.725L152.724 160.154L158.235 158.419L162.979 156.941ZM162.986 157.547L158.409 158.973L152.854 160.722L148.705 161.313L145.533 160.738L126.687 167.676C80.4124 189.149 58.0063 204.525 16.0818 238.777C-25.8171 273.009 -48.8049 309.56 -68.603 345.845C-76.5013 360.321 -80.9122 378.358 -83.2133 395.039C-85.4912 411.552 -85.6988 426.713 -85.1855 435.731L-42.9642 436.303L-43.8125 426.718L-40.8804 405.669L-34.0355 399.735L-26.4885 398.577L-17.7719 388.149L-8.33006 384.618H-4.01962L-2.18231 388.282L-0.430801 393.521L-0.428215 393.529L1.84973 399.774L5.30179 400.833L6.82542 398.808L5.12064 394.842V389.606L2.49932 382.346V370.567L8.40104 364.095L14.8021 357.133L19.4472 351.344L23.1787 345.62V338.369L29.6338 327.252L35.4895 319.37L42.5347 313.517L48.6031 310.636L50.5712 307.272L51.4512 302.593L55.0166 298.742L60.0063 294.645L70.4877 289.13L75.6052 284.665V287.157L73.5664 289.48V292.275H75.517L83.3162 287.091L100.071 277.586V273.98H97.077L96.5459 275.569L93.8206 279.192L90.8538 279.52L90.2622 278.046H83.9919L81.7216 277.076V271.735L87.1769 270.017L86.4631 267.882H84.1177L77.462 271.056L73.3971 272.407L74.4823 269.161L81.8599 263.276L90.3971 259.461H95.0875L102.911 257.727L109.854 255.708L119.935 249.5L122.012 251.915L119.219 255.009L119.217 255.011C118.152 256.17 115.836 258.673 115.131 259.376C114.422 260.082 111.357 262.562 109.896 263.728L107.274 267.388L109.969 267.876L116.654 266.427L126.564 267.299L131.632 266.457L132.962 264.07L131.527 258.92V255.208L128.075 256.266H124.357L123.308 254.176L125.769 251.723L129.805 245.975L131.498 240.349L127.852 235.315L120.569 232.992L117.509 228.72L121.333 219.041V214.503L120.643 212.668L116.867 216.701L111.284 220.802L105.082 223.452H101.629L100.292 220.453L104.872 217.104L110.206 214.572C109.26 214.398 108.088 214.191 106.978 214.011C105.476 213.768 104.12 213.579 103.566 213.579C103.228 213.579 102.949 213.494 102.748 213.314C102.547 213.134 102.462 212.894 102.439 212.664C102.403 212.304 102.51 211.911 102.635 211.61L100.558 209.539L94.9116 210.664L90.6148 212.378L88.0209 214.677L88.0093 214.685C87.4765 215.072 86.6481 215.68 85.8952 216.25C85.1331 216.826 84.4731 217.345 84.2576 217.56C84.1615 217.655 84.0191 217.839 83.8446 218.092C83.6734 218.339 83.4815 218.638 83.2874 218.951C82.8995 219.578 82.5086 220.257 82.2675 220.69L82.2404 220.738L79.0188 223.366L76.9711 225.991L72.6135 228.887L70.0367 232.884L67.4342 238.65L65.9463 244.287L60.5586 246.376L56.2482 247.809L51.9348 252.109L47.901 256.705L45.2809 264.252L40.7469 269.677L37.1591 268.376V264.002L41.5279 258.775V255.243L37.4312 256.877L34.1222 255.078L29.7806 253.346L25.689 252.091L27.2674 248.629L28.4396 242.201L34.0452 235.436L56.8064 218.852L72.3246 210.095H74.1489V216.22L76.7726 216.482L79.974 216.216V214.647L76.9507 213.441L78.5846 210.183L81.928 208.062H87.7041L89.2697 206.241L88.7047 203.706L89.3149 200.968L91.1414 198.54L92.9662 197.631L97.0378 196.181L104.869 191.843L114.188 185.456L118.248 183.142L121.447 180.243L124.743 178.152H131.677L130.584 180.694L122.702 184.187L121.05 187.01L124.146 186.298L128.184 184.285L133.566 181.129V182.903L132 184.776L127.604 186.822L123.27 190.278L123.262 190.284L119.14 193.807L114.408 194.987L114.402 194.988C113.238 195.23 111.463 195.607 109.921 195.953C109.15 196.126 108.439 196.29 107.892 196.426C107.619 196.494 107.389 196.554 107.214 196.604C107.028 196.657 106.93 196.691 106.9 196.706C106.463 196.924 105.241 197.715 104.638 198.116L102.016 201.31L99.388 203.057L96.9675 205.69L97.6405 205.466L99.0334 204.91L100.499 203.449L103.476 202.559L108.358 200.841L109.889 199.314L112.165 199.963L113.139 200.933L114.568 204.923L124.666 207.999L125.664 205.762L122.664 200.976L126.062 199.281L128.454 201.964H131.647L133.045 199.454L135.11 197.689L137.988 194.534L139.243 192.28L137.061 191.736V189.977L138.023 188.378L140.785 187.154H142.805L143.678 189.767H145.424L147.703 188.347L154.699 185.441L162.144 181.199L159.637 180.744L157.576 178.69L154.425 177.433L155.775 174.741L158.172 173.546L162.182 170.691L164.507 166.827H162.843L161.576 165.248L160.247 162.929L162.766 161.674L164.604 158.008L162.986 157.547ZM122.879 172.336L114.223 177.227L104.368 186.186L103.347 187.611L105.788 187.169L112.123 183.149L119.686 175.899L123.522 172.957L126.236 172.002L122.879 172.336ZM128.585 171.184L128.711 171.747L123.804 173.474L120.067 176.339L112.485 183.608L106.004 187.72L102.038 188.439L103.929 185.798L113.879 176.754L122.699 171.771L128.585 171.184ZM107.304 179.608L107.473 180.158L101.092 183.05L95.8586 186.819L93.1929 188.295L90.0411 189.193L94.0657 185.18L102.008 180.488L107.304 179.608ZM102.211 181.043L94.4257 185.643L92.0426 188.019L92.9685 187.755L95.5455 186.328L100.798 182.546L105.215 180.544L102.211 181.043ZM9.28868 292.503L10.6808 294.238L10.0622 296.706L9.48952 298.704V300.576L4.05502 303.587L-0.0353012 304.328L3.14645 300.803L4.56535 298.858L2.64922 300.074L-1.67623 302.661L-4.32845 305.893L-9.12271 306.996L-2.36326 299.615L1.45782 296.392L5.5744 294.046L9.28868 292.503ZM5.83195 294.568L1.79327 296.869L-1.95838 300.034L-7.43179 306.011L-4.65331 305.372L-2.06288 302.215L2.34295 299.58L2.34946 299.576L5.54679 297.547L5.93871 297.963L3.59972 301.169L1.53883 303.452L3.85619 303.032L8.90701 300.235V298.623L9.49936 296.556L10.0457 294.376L9.10783 293.208L5.83195 294.568ZM19.1781 300.105L22.3773 302.338L21.0379 305.342H15.5147L14.1326 308.925L13.1945 311.731H10.5827L11.2065 308.932L9.22566 307.204L5.33345 311.639L1.29229 315.668L-0.729225 320.851L-2.80585 324.991L-6.67031 327.794L-4.76823 318.312L-1.82403 312.734L2.29996 307.448L6.42689 304.803L13.7676 300.704L19.1781 300.105ZM13.9492 301.268L6.72704 305.301L2.69866 307.883L-1.33256 313.05L-4.21353 318.508L-5.80656 326.449L-3.26334 324.605L-1.26232 320.615L0.79377 315.344L4.9078 311.242L9.17086 306.384L11.8501 308.722L11.3089 311.15H12.7747L13.5842 308.729L15.1147 304.761H20.6593L21.65 302.539L19.024 300.706L13.9492 301.268ZM31.0261 303.277L33.5606 304.36L31.5595 306.688L29.4575 309.382L22.5103 310.701L25.3018 306.874L28.2667 304.805L31.0261 303.277ZM31.0592 303.923L28.576 305.298L25.7157 307.295L23.847 309.856L29.1327 308.852L31.104 306.325L31.1082 306.32L32.6023 304.582L31.0592 303.923ZM17.2061 314.237L16.1549 319.477L11.9833 321.557L9.59895 323.637H6.1439L9.27142 321.688L10.7214 319.086L17.2061 314.237ZM11.1703 319.476L9.70763 322.101L8.17503 323.056H9.38008L11.6559 321.071L15.6395 319.085L16.3359 315.613L11.1703 319.476Z" fill="white"/>
<path d="M225.593 140.473C192.195 147.289 159.711 159.766 147.644 165.152L170.124 160.158L176.255 157.807L181.51 154.575L190.852 151.344L206.325 147.231L210.412 146.055L207.784 150.462L211.288 148.993H217.127L222.965 147.231V151.344L217.127 155.457L209.536 160.158L208.66 163.095L211.288 164.271L208.66 166.327H202.821L199.026 168.384L199.902 170.44L204.573 169.559L207.784 170.44L206.325 172.497L198.442 173.966L192.019 178.373L185.013 184.836L183.553 193.062L181.51 202.17L185.013 205.989L190.852 204.227C192.117 205.304 194.822 207.458 195.523 207.458H199.902L204.573 204.227L222.965 187.187L231.432 183.661L250.992 178.373L268.508 170.44L282.814 167.796L298.87 164.271L300.33 162.214L295.951 160.158L300.33 157.807L303.249 160.158L305.877 162.214L309.964 160.158L311.424 157.807L309.964 155.457L305.877 152.813V150.462H307.629L308.504 152.813L311.424 154.575L314.635 150.462L316.387 148.993H319.89L322.226 147.231L326.313 146.055L328.065 142.53V140.473L328.94 137.242L331.568 138.123L334.487 139.004L335.947 138.123L334.487 136.066V134.597L337.115 133.422L343.246 129.603L351.42 127.546L358.135 126.077H349.376L340.618 124.315C303.249 126.665 267.341 131.953 225.593 140.473Z" fill="#1C1C1C"/>
<path opacity="0.2" fill-rule="evenodd" clip-rule="evenodd" d="M338.46 118.66C301.754 121.031 266.387 126.257 225.336 134.622C194.448 140.917 164.344 152.078 150.657 157.901L170.033 153.602L176.085 151.286L181.315 148.074L190.646 144.851L206.037 140.766L206.043 140.764L210.809 139.396L208.272 143.645L210.994 142.505H216.816L222.956 140.654V145.283L217.018 149.459L209.557 154.073L208.791 156.638L211.613 157.898L208.539 160.301H202.706L199.23 162.182L199.905 163.764L204.387 162.919L208.047 163.922L206.285 166.401L198.391 167.87L192.072 172.199L185.192 178.537L183.756 186.615L181.756 195.515L185.014 199.061L190.797 197.318L190.917 197.42C191.543 197.952 192.524 198.749 193.433 199.412C193.889 199.744 194.321 200.039 194.679 200.249C194.858 200.354 195.013 200.435 195.14 200.489C195.275 200.546 195.349 200.56 195.375 200.56H199.64L204.194 197.414L222.507 180.473L230.991 176.945L250.439 171.695L267.869 163.813L282.129 161.181L297.978 157.706L299.162 156.041L294.597 153.9L299.633 151.201L302.683 153.652L302.686 153.655L305.151 155.582L308.979 153.659L310.291 151.549L308.97 149.425L304.827 146.749V143.964H307.061L307.967 146.392L310.563 147.957L313.618 144.051L315.464 142.505H318.956L321.244 140.781L325.237 139.634L326.892 136.31V134.297L327.854 130.753L330.749 131.723L330.758 131.726L333.53 132.561L334.602 131.915L333.279 130.054V128.312L336.095 127.054L340.675 126.192L342.319 124.304L334.573 122.574L335.969 120.121L338.46 118.66ZM225.221 134.051C266.746 125.588 302.47 120.335 339.648 118L339.812 118.543L336.395 120.546L335.468 122.177L343.4 123.948L340.979 126.728L336.269 127.615L333.859 128.691V129.867L335.44 132.09L333.608 133.194L330.578 132.281L328.252 131.502L327.472 134.376V136.448L325.643 140.125L321.507 141.312L319.15 143.089H315.674L314.036 144.46L310.704 148.722L307.494 146.787L306.658 144.547H305.408V146.43L309.394 149.005L310.976 151.549L309.385 154.107L305.084 156.268L302.326 154.113L302.323 154.111L299.569 151.897L295.896 153.865L300.04 155.809L298.321 158.228L282.239 161.754L268.043 164.374L250.634 172.246L231.178 177.498L222.824 180.972L204.557 197.872L199.82 201.144H195.375C195.227 201.144 195.065 201.091 194.914 201.027C194.755 200.959 194.576 200.865 194.386 200.753C194.004 200.528 193.554 200.221 193.092 199.885C192.225 199.252 191.297 198.502 190.663 197.968L184.833 199.725L181.123 195.686L183.187 186.499L184.655 178.24L191.71 171.741L198.165 167.319L205.949 165.87L207.09 164.265L204.363 163.517L199.555 164.423L198.487 161.921L202.56 159.717H208.34L210.492 158.036L208.088 156.962L209.064 153.692L216.7 148.971L222.375 144.979V141.439L216.902 143.089H211.111L206.866 144.866L209.554 140.363L206.191 141.329L190.814 145.41L181.564 148.605L176.342 151.812L170.2 154.163L147.825 159.127L147.644 158.576C159.658 153.221 191.982 140.824 225.221 134.051Z" fill="white"/>
<path d="M442.489 130.629H413.148V132.954L435.808 139.056L439.584 134.988L445.976 139.056L449.462 137.603L446.847 134.988L447.719 131.792L442.489 130.629Z" fill="#1C1C1C"/>
<path d="M353.884 218.09H365.505L367.829 222.158L365.505 228.55L358.242 230.584L346.041 234.071L342.554 231.456L345.169 229.712L347.203 226.516L346.041 223.611L349.236 221.577L353.884 218.09Z" fill="#1C1C1C"/>
<path d="M362.89 207.048L365.505 209.954L368.7 217.509L371.896 220.124L378.578 221.577L380.611 224.482L379.159 226.516H373.639L371.896 230.584L372.767 234.071L378.287 234.361L375.091 236.686L370.443 240.463L379.74 237.558L390.198 238.139L402.109 236.686L404.723 232.618L405.595 229.712L396.88 226.516L387.002 216.346L381.483 214.894L384.388 211.697V208.211H377.706V206.177L375.091 204.433L368.7 207.048H362.89Z" fill="#1C1C1C"/>
<path fill-rule="evenodd" clip-rule="evenodd" d="M387.583 242.497L394.555 241.916L410.243 236.686L420.992 229.712L439.003 225.935L441.037 223.611L435.808 214.894L439.003 211.697H445.104V218.09L449.462 221.577L445.976 223.611L452.948 225.935L458.467 224.482L462.825 227.097L469.797 228.55L474.155 225.935L481.127 224.482L485.194 228.55L492.166 224.482L496.233 223.611V216.346L499.139 214.894L503.496 217.509L507.273 216.346L502.044 211.697L494.781 209.954L502.044 208.211L523.251 209.954L520.346 204.433L494.781 206.177L488.099 201.818L483.742 193.101L489.552 187.58L494.781 182.35L482.58 178.863C481.708 180.51 480.197 184.094 481.127 185.256C482.057 186.418 479.771 187.29 478.512 187.58L470.959 191.358L472.993 197.75L478.512 206.177L475.607 211.697L472.993 216.346L458.467 218.09L452.948 213.15L447.719 208.211L441.037 206.177L426.511 209.954L423.025 204.433L418.087 199.203L420.992 193.973L426.511 187.58L445.104 176.829L452.948 168.403L472.993 162.592L507.273 166.66L542.424 178.863L547.944 186.418L538.357 187.58L527.318 182.35L528.77 186.709L542.424 192.229C544.555 192.617 549.164 193.508 550.559 193.973C551.953 194.438 552.108 191.842 552.011 190.486L554.335 189.033L558.402 186.418C556.562 184.287 552.418 179.619 550.559 177.992C548.699 176.364 553.27 177.314 555.788 177.992C557.531 180.316 561.191 185.256 561.888 186.418C562.586 187.58 566.052 186.902 567.699 186.418L573.509 186.709L581.353 182.35L588.034 186.709L593.844 182.35L587.163 177.992L591.23 178.863L614.761 189.033L591.23 171.89L593.844 168.403L602.269 175.086L606.917 171.89L612.727 175.086L630.448 182.35C652.527 190.97 709.583 222.216 761.177 278.237C812.772 334.258 833.223 412.963 837 445.312H749.266L751.881 437.177L755.077 417.418L729.802 405.214L696.684 395.335L689.131 391.558L671.12 378.773L657.466 362.501L648.75 355.527V366.86C650.784 369.087 655.374 373.891 657.466 375.286C660.08 377.029 660.952 380.807 660.952 381.969C660.952 382.899 666.568 387.393 669.377 389.524L682.159 393.592L694.07 405.214L686.517 413.641L660.952 423.52L631.901 430.494L618.538 428.75L616.504 410.444L613.889 396.788L603.722 391.558L600.236 378.773L593.554 361.048L588.034 355.527L583.096 353.784V359.305L588.034 373.543L607.208 413.641L612.437 428.75L618.538 437.177V442.116H448.881L444.232 437.177L425.349 438.048L420.411 428.75L409.081 426.426L392.812 432.237L376.544 433.69L324.833 424.682L309.436 408.992L302.174 393.011L304.207 385.456V372.09L301.302 359.886C303.529 357.368 308.216 352.215 309.146 351.75C310.076 351.285 330.644 338.578 340.811 332.282L344.298 323.856L358.242 307.584L372.767 304.678H394.555L410.243 296.833L448.009 301.482L456.434 303.807L458.467 309.327L455.272 315.139L463.697 316.882L481.708 322.694L498.267 330.829H505.82L509.306 324.146L515.988 322.694L556.369 338.094L583.096 340.128L585.42 329.377L588.034 318.335L583.096 317.173L573.509 314.558L566.537 311.943H550.559L539.519 300.029L536.324 293.928L526.156 289.278C524.8 290.15 521.856 291.894 520.927 291.894C519.997 291.894 522.089 294.218 523.251 295.38L527.318 301.482L523.251 304.678L514.536 302.354L505.82 291.894L499.139 280.852L489.552 274.46L472.993 265.161L464.568 261.965L463.697 265.161L469.797 269.52L479.965 278.237L495.943 287.826L493.038 289.278L489.552 287.826L487.518 295.38L482.58 300.029L478.222 302.354L472.121 300.029L468.635 296.833L473.864 295.38H481.708L483.742 293.056L481.708 287.826L469.797 280.852L458.467 272.135L449.462 266.033L439.003 266.905L433.193 268.648H426.511L414.601 273.588L404.723 284.339L392.231 293.056L378.578 299.158L349.236 296.833L346.041 284.339L349.236 270.392L352.432 266.033H362.89L384.388 269.52L390.198 265.161L391.36 259.35L385.84 253.829L373.639 249.471L375.091 246.275H387.002L387.583 242.497ZM534.29 205.014L530.223 201.528L527.318 204.143L531.676 207.048L536.324 207.92L534.29 205.014ZM561.888 271.554L555.788 267.486L551.43 271.554L545.329 276.784L544.458 282.014L545.329 285.501V289.278L543.005 291.603C543.877 292.668 545.794 294.567 546.491 293.637C546.689 293.373 546.887 293.095 547.088 292.811C547.773 291.846 548.498 290.824 549.397 290.15C550.326 289.453 554.045 290.828 555.788 291.603L560.145 290.15L570.604 291.603C572.734 291.312 577.285 290.906 578.447 291.603C579.609 292.3 587.841 295.38 591.811 296.833L610.694 299.448C610.016 297.511 608.544 293.637 608.079 293.637C607.615 293.637 596.653 286.276 591.23 282.595L586.001 278.818V275.041L588.615 271.554L586.001 268.648L578.447 269.52L576.123 271.554L578.447 276.784L574.09 278.818H567.699L565.084 275.041L567.699 271.554H561.888ZM650.494 285.211L652.237 288.697L649.622 287.535L646.426 290.15V293.637L649.622 298.577L657.175 311.361L662.114 318.044L668.215 329.958L662.114 330.829L652.237 326.18L648.169 321.531V311.361L639.164 301.192L632.482 291.603L628.996 285.211L636.259 282.595L644.974 281.724L650.494 285.211ZM681.578 293.637L678.673 298.577L680.416 299.448L684.774 301.192L686.517 296.833L681.578 293.637Z" fill="#1C1C1C"/>
<path d="M550.559 151.841L545.62 156.199L557.24 166.66L575.252 177.992L561.888 162.592L558.402 157.652L550.559 151.841Z" fill="#1C1C1C"/>
<path opacity="0.2" fill-rule="evenodd" clip-rule="evenodd" d="M413.041 124.315H442.669L448.22 125.552L447.314 128.884L450.112 131.691L446.091 133.372L439.784 129.346L436.057 133.371L413.041 127.157V124.315ZM413.621 124.897V126.711L435.87 132.718L439.687 128.595L446.147 132.718L449.089 131.488L446.665 129.057L447.5 125.988L442.605 124.897H413.621ZM550.561 145.475L558.621 151.463L562.121 156.436L575.459 171.848L575.086 172.285L557.075 160.923L545.208 150.212L550.561 145.475ZM550.592 146.223L546.08 150.216L557.426 160.457L573.739 170.748L561.664 156.795L558.201 151.875L550.592 146.223ZM473.08 156.32L507.408 160.404L542.633 172.667L548.491 180.707L538.341 181.941L527.854 176.959L529.047 180.549L542.533 186.017C543.6 186.212 545.269 186.529 546.849 186.857C548.435 187.186 549.952 187.528 550.668 187.768C550.803 187.813 550.904 187.815 550.983 187.798C551.06 187.782 551.133 187.743 551.204 187.675C551.355 187.531 551.484 187.27 551.58 186.907C551.769 186.19 551.785 185.237 551.738 184.573L551.725 184.398L554.192 182.852L554.195 182.85L557.972 180.414C556.04 178.18 552.154 173.81 550.385 172.258C550.147 172.049 549.968 171.845 549.893 171.645C549.853 171.537 549.836 171.411 549.878 171.283C549.921 171.155 550.009 171.067 550.102 171.009C550.271 170.903 550.506 170.865 550.734 170.853C550.976 170.84 551.263 170.853 551.576 170.883C552.825 171.005 554.614 171.417 555.875 171.758L555.971 171.784L556.031 171.864C557.766 174.184 561.435 179.147 562.142 180.328C562.253 180.515 562.501 180.666 562.92 180.752C563.331 180.837 563.851 180.847 564.418 180.806C565.549 180.723 566.804 180.437 567.614 180.199L567.661 180.185L573.431 180.474L581.345 176.064L587.995 180.414L593.305 176.42L586.978 172.283L587.197 171.754L591.288 172.633L612.423 181.792L590.79 165.989L593.757 162.022L602.237 168.767L606.851 165.586L612.796 168.866L630.476 176.133C630.477 176.133 630.478 176.133 630.478 176.134C652.572 184.783 709.594 216.1 761.156 272.237C812.744 328.402 833.186 407.291 836.962 439.725L837 440.05H748.648L751.374 431.543L754.528 411.991L729.5 399.873L696.42 389.979L688.833 386.174L670.794 373.336L657.152 357.033L648.941 350.446V361.076C649.959 362.192 651.569 363.903 653.186 365.515C654.85 367.174 656.499 368.706 657.516 369.386C658.888 370.303 659.787 371.743 660.343 373.081C660.898 374.417 661.127 375.692 661.127 376.321L661.127 376.32C661.128 376.32 661.131 376.346 661.161 376.407C661.193 376.471 661.244 376.553 661.317 376.653C661.465 376.854 661.684 377.104 661.965 377.393C662.526 377.97 663.307 378.68 664.182 379.432C665.912 380.921 667.988 382.559 669.387 383.625L682.172 387.705L694.317 399.588L686.541 408.286L660.924 418.213L631.837 425.214L618.211 423.431L616.156 404.883L613.573 391.356L603.429 386.124L599.918 373.21L593.271 355.53L587.848 350.092L583.365 348.505V353.574L588.276 367.771L607.426 407.929L612.641 423.036L618.764 431.517V436.849H448.895L444.258 431.908L425.348 432.783L420.393 423.43L409.29 421.146L393.082 426.951L376.759 428.412L324.981 419.369L309.501 403.551L302.183 387.404L304.231 379.775V366.461L301.302 354.125L301.402 354.012C302.516 352.75 304.244 350.827 305.812 349.16C306.595 348.327 307.34 347.556 307.949 346.963C308.253 346.667 308.525 346.413 308.753 346.217C308.973 346.027 309.172 345.873 309.324 345.797C309.542 345.688 310.983 344.816 313.208 343.452C315.423 342.096 318.395 340.264 321.655 338.251C328.142 334.244 335.771 329.515 340.849 326.362L344.313 317.967L358.336 301.559L372.97 298.624H394.692L410.378 290.758L448.207 295.428L456.785 297.801L458.914 303.595L455.848 309.186L463.893 310.855L481.918 316.686L498.415 324.814H505.716L509.179 318.157L516.07 316.654L556.444 332.093L582.844 334.108L585.112 323.589L585.113 323.583L587.658 312.808L583.003 311.71L582.998 311.709L573.41 309.086L566.483 306.481H550.45L539.311 294.428L536.148 288.371L526.226 283.823C525.542 284.259 524.533 284.87 523.569 285.386C523.054 285.661 522.548 285.911 522.108 286.093C521.721 286.254 521.349 286.378 521.063 286.399C521.13 286.589 521.315 286.883 521.588 287.244C522.128 287.957 522.93 288.819 523.507 289.397L523.527 289.418L527.754 295.776L523.367 299.234L514.433 296.844L505.655 286.28L499.003 275.259L489.491 268.899L472.981 259.603L464.885 256.524L464.152 259.22L470.091 263.475L480.238 272.197L496.629 282.06L493.136 283.812L489.837 282.433L487.871 289.758L482.85 294.497L478.347 296.906L472.078 294.511L468.17 290.918L473.935 289.312H481.677L483.506 287.216L481.575 282.237L469.75 275.295L458.426 266.559L449.523 260.51L439.209 261.372L433.395 263.122H426.736L414.952 268.022L405.108 278.765L392.583 287.529L378.853 293.682L349.266 291.332L346.005 278.549L349.226 264.453L352.541 259.921H363.157L384.53 263.397L390.146 259.173L391.254 253.615L385.897 248.242L373.474 243.793L375.133 240.133H386.968L387.545 236.37L394.702 235.772L410.302 230.557L421.053 223.563L439.001 219.789L440.829 217.694L435.598 208.951L439.035 205.504H445.539V212.057L450.112 215.727L446.819 217.653L453.093 219.75L458.64 218.286L463.055 220.943L469.86 222.365L474.157 219.779L481.323 218.282L485.338 222.308L492.148 218.324L496.026 217.491V210.271L499.231 208.664L503.609 211.299L506.765 210.325L501.981 206.061L494.798 204.332V203.766L502.097 202.009L522.799 203.715L520.231 198.823L494.789 200.563L487.968 196.101L483.484 187.108L489.438 181.436L489.443 181.431L494.312 176.548L482.827 173.257C482.412 174.072 481.89 175.253 481.557 176.378C481.376 176.991 481.254 177.575 481.231 178.068C481.207 178.57 481.289 178.924 481.455 179.132C481.743 179.493 481.806 179.877 481.657 180.239C481.52 180.57 481.224 180.838 480.901 181.049C480.259 181.469 479.357 181.766 478.716 181.917L471.424 185.574L473.368 191.701L478.953 200.25L475.972 205.93L475.968 205.937L473.285 210.722L458.5 212.501L452.889 207.467L452.884 207.461L447.71 202.561L441.18 200.568L426.546 204.384L422.966 198.699L417.907 193.327L420.926 187.876L426.491 181.414L445.066 170.645L452.925 162.179L473.08 156.32ZM473.128 156.912L453.241 162.693L445.431 171.105L426.866 181.869L421.404 188.211L418.62 193.237L423.427 198.341L426.81 203.714L441.192 199.964L448.01 202.044L453.276 207.033L453.282 207.038L458.692 211.892L472.923 210.179L475.458 205.659L475.462 205.652L478.281 200.282L472.839 191.953L470.721 185.276L478.518 181.366L478.552 181.358C479.166 181.216 480.013 180.934 480.584 180.561C480.872 180.373 481.051 180.185 481.121 180.017C481.178 179.878 481.178 179.716 481.002 179.496C480.703 179.121 480.625 178.59 480.651 178.041C480.677 177.482 480.813 176.847 481.001 176.212C481.378 174.939 481.981 173.611 482.423 172.776L482.533 172.567L495.42 176.26L489.848 181.848L489.843 181.853L484.195 187.233L488.416 195.7L494.943 199.969L520.569 198.217L523.804 204.382L502.142 202.597L496.109 204.049L502.258 205.529L507.921 210.577L503.532 211.931L499.206 209.328L496.607 210.631V217.961L492.36 218.874L485.244 223.037L481.134 218.916L474.372 220.329L469.964 222.981L462.841 221.493L458.551 218.911L453.073 220.357L445.419 217.799L449.089 215.651L444.958 212.337V206.086H439.275L436.329 209.041L441.544 217.758L439.31 220.319L421.278 224.111L410.556 231.085L394.819 236.346L388.049 236.912L387.465 240.715H375.507L374.264 243.457L386.215 247.738L391.884 253.423L390.671 259.505L384.68 264.011L363.11 260.503H352.835L349.765 264.701L346.603 278.541L349.725 290.784L378.751 293.09L392.296 287.02L404.724 278.325L414.611 267.534L426.621 262.54H433.309L439.101 260.797L449.679 259.913L458.766 266.087L470.074 274.811L482.042 281.837L484.174 287.334L481.94 289.894H474.014L469.333 291.198L472.389 294.007L478.307 296.268L482.508 294.02L487.353 289.448L489.449 281.641L493.114 283.172L495.424 282.014L479.897 272.671L469.733 263.933L463.486 259.458L464.493 255.752L473.227 259.075L489.795 268.403L499.433 274.847L506.129 285.941L514.761 296.33L523.236 298.596L526.973 295.651L523.076 289.788C522.493 289.203 521.683 288.331 521.126 287.597C520.85 287.232 520.614 286.873 520.514 286.59C520.468 286.459 520.423 286.269 520.501 286.094C520.598 285.878 520.81 285.82 520.98 285.82C521.148 285.82 521.458 285.734 521.887 285.556C522.302 285.383 522.789 285.143 523.296 284.872C524.307 284.331 525.374 283.681 526.046 283.247L526.18 283.161L536.57 287.925L539.789 294.09L550.703 305.899H566.588L573.588 308.532L583.141 311.145L583.151 311.147L588.356 312.375L585.679 323.711L585.678 323.717L583.305 334.726L556.316 332.667L516.025 317.26L509.568 318.667L506.068 325.396H498.28L481.7 317.227L463.744 311.419L454.96 309.596L458.278 303.547L456.344 298.283L448.093 296L410.481 291.357L394.829 299.206H373.027L358.646 302.091L344.813 318.275L341.313 326.758L341.234 326.807C336.156 329.96 328.481 334.718 321.959 338.746C318.699 340.76 315.726 342.592 313.51 343.949C311.305 345.3 309.83 346.194 309.583 346.317C309.503 346.358 309.353 346.467 309.131 346.658C308.916 346.843 308.653 347.088 308.353 347.381C307.753 347.965 307.015 348.729 306.234 349.56C304.718 351.171 303.049 353.025 301.937 354.285L304.811 366.393V379.852L302.797 387.354L309.987 403.217L325.264 418.828L376.783 427.826L392.957 426.378L409.248 420.543L420.777 422.915L425.688 432.185L444.498 431.314L449.146 436.267H618.184V431.705L612.12 423.308L606.889 408.151L587.738 367.993L582.784 353.672V347.683L588.166 349.588L593.77 355.208L600.465 373.017L600.47 373.03L600.474 373.043L603.922 385.724L614.09 390.968L616.728 404.784L616.73 404.796L616.731 404.807L618.737 422.913L631.806 424.623L660.751 417.656L686.202 407.794L693.514 399.615L681.865 388.217L669.116 384.149L669.076 384.119C667.671 383.05 665.563 381.387 663.804 379.874C662.925 379.118 662.129 378.395 661.55 377.799C661.261 377.502 661.02 377.231 660.85 376.999C660.801 376.932 660.757 376.867 660.718 376.804C660.689 376.757 660.663 376.71 660.641 376.665C660.591 376.565 660.547 376.445 660.547 376.321C660.547 375.786 660.341 374.588 659.808 373.305C659.276 372.024 658.434 370.699 657.194 369.87C656.122 369.153 654.435 367.581 652.777 365.928C651.111 364.268 649.454 362.503 648.436 361.385L648.36 361.302V349.235L657.559 356.615L671.191 372.904L689.132 385.674L696.634 389.435L729.71 399.329L755.17 411.655L751.94 431.679L749.444 439.468H836.348C832.482 406.907 812.034 328.489 760.729 272.631C709.228 216.56 652.278 185.292 630.265 176.675L630.26 176.673L612.545 169.392L606.884 166.269L602.213 169.49L593.864 162.85L591.608 165.866L614.873 182.862L614.587 183.364L591.11 173.19L588.605 172.652L594.316 176.387L588.019 181.124L581.321 176.743L573.567 181.064L567.73 180.771C566.894 181.014 565.623 181.301 564.46 181.386C563.869 181.43 563.289 181.422 562.804 181.322C562.326 181.224 561.88 181.023 561.644 180.627C560.965 179.493 557.397 174.661 555.627 172.294C554.381 171.961 552.689 171.576 551.521 171.463C551.222 171.434 550.966 171.423 550.766 171.434C550.611 171.443 550.513 171.463 550.456 171.482C550.495 171.549 550.585 171.66 550.768 171.82C552.643 173.466 556.797 178.159 558.63 180.288L558.849 180.541L554.505 183.342L554.502 183.344L552.327 184.707C552.363 185.39 552.336 186.316 552.141 187.056C552.036 187.455 551.871 187.841 551.604 188.096C551.467 188.228 551.3 188.326 551.103 188.368C550.906 188.41 550.699 188.391 550.485 188.32C549.808 188.094 548.327 187.757 546.731 187.427C545.143 187.097 543.462 186.778 542.4 186.584L542.371 186.579L528.582 180.988L526.873 175.849L538.438 181.343L547.439 180.249L542.271 173.157L507.277 160.975L473.128 156.912ZM530.261 195.223L534.544 198.905L537.004 202.429L531.604 201.414L526.892 198.263L530.261 195.223ZM530.27 195.997L527.835 198.194L531.828 200.864L535.713 201.594L534.111 199.299L530.27 195.997ZM375.353 198.192L378.222 200.11V202.012H384.895V205.907L382.24 208.837L387.368 210.19L397.244 220.385L406.143 223.658L405.182 226.87L402.475 231.093L390.418 232.568L379.999 231.987L370.764 234.882L370.494 234.378L375.143 230.59L377.679 228.74L372.769 228.481L371.823 224.685L373.678 220.345H379.233L380.478 218.597L378.629 215.949L371.998 214.503L368.697 211.794L365.496 204.207L362.482 200.848H368.879L375.353 198.192ZM375.287 198.848L368.994 201.43H363.785L365.993 203.89L369.176 211.435L372.258 213.964L378.975 215.429L381.188 218.601L379.532 220.927H374.061L372.433 224.734L373.228 227.923L379.344 228.245L375.497 231.052L372.033 233.874L379.926 231.4L390.399 231.984L402.134 230.549L404.65 226.624L405.43 224.016L396.92 220.886L387.065 210.712L381.167 209.155L384.315 205.682V202.594H377.641V200.422L375.287 198.848ZM354.042 211.906H365.913L368.385 216.244L365.966 222.913L358.57 224.99L358.569 224.99L346.245 228.521L342.32 225.569L345.222 223.629L347.14 220.605L345.945 217.61L349.331 215.449L354.042 211.906ZM354.235 212.488L349.661 215.928L346.663 217.842L347.789 220.666L345.645 224.045L343.324 225.597L346.363 227.882L358.411 224.43L358.412 224.43L365.523 222.433L367.747 216.298L365.576 212.488H354.235ZM555.769 261.297L561.981 265.45H568.276L565.442 269.24L567.848 272.725H574.015L578.051 270.836L575.759 265.663L578.309 263.425L586.091 262.525L588.963 265.724L586.266 269.33V272.867L591.362 276.558C591.363 276.559 591.364 276.56 591.365 276.561C594.073 278.403 598.161 281.166 601.631 283.467C603.366 284.619 604.946 285.655 606.12 286.402C606.707 286.776 607.191 287.076 607.541 287.282C607.716 287.385 607.855 287.463 607.954 287.514C608.004 287.54 608.04 287.557 608.064 287.566C608.065 287.567 608.067 287.568 608.069 287.568C608.175 287.579 608.257 287.633 608.307 287.673C608.368 287.722 608.424 287.784 608.474 287.848C608.575 287.977 608.682 288.152 608.792 288.354C609.012 288.761 609.265 289.317 609.521 289.926C610.035 291.146 610.574 292.608 610.913 293.581L611.07 294.031L591.709 291.342L591.679 291.331C589.696 290.603 586.647 289.468 583.949 288.427C582.601 287.906 581.338 287.409 580.339 286.998C579.351 286.59 578.596 286.258 578.283 286.069C578.054 285.932 577.612 285.83 576.992 285.774C576.385 285.72 575.655 285.714 574.887 285.74C573.352 285.79 571.694 285.964 570.637 286.108L570.597 286.114L560.179 284.663L555.784 286.132L555.682 286.086C554.819 285.702 553.469 285.169 552.225 284.82C551.601 284.645 551.016 284.519 550.536 284.478C550.296 284.458 550.091 284.46 549.926 284.483C549.759 284.507 549.652 284.551 549.59 284.598C548.736 285.24 548.038 286.222 547.347 287.199C547.146 287.482 546.947 287.764 546.746 288.032C546.623 288.196 546.465 288.307 546.281 288.36C546.101 288.412 545.915 288.405 545.737 288.366C545.387 288.289 545.016 288.077 544.668 287.823C543.965 287.31 543.251 286.547 542.808 286.004L542.641 285.8L545.063 283.371V279.745L544.187 276.229L545.085 270.827L551.249 265.528L551.258 265.52L555.769 261.297ZM555.829 262.037L551.64 265.958L545.622 271.131L544.779 276.205L545.644 279.673V283.612L543.426 285.837C543.851 286.333 544.442 286.939 545.009 287.352C545.336 287.591 545.629 287.746 545.861 287.797C545.974 287.822 546.058 287.819 546.12 287.801C546.177 287.784 546.231 287.751 546.282 287.682C546.477 287.422 546.672 287.146 546.873 286.862L546.888 286.841C547.562 285.888 548.308 284.834 549.242 284.132C549.411 284.005 549.624 283.938 549.844 283.907C550.067 283.875 550.319 283.876 550.585 283.899C551.117 283.944 551.742 284.08 552.381 284.259C553.612 284.604 554.933 285.121 555.814 285.508L560.124 284.067L570.598 285.526C571.67 285.381 573.327 285.209 574.868 285.158C575.647 285.132 576.404 285.138 577.043 285.195C577.667 285.25 578.229 285.358 578.581 285.57C578.848 285.731 579.556 286.046 580.56 286.459C581.553 286.868 582.811 287.364 584.158 287.884C586.839 288.918 589.867 290.046 591.85 290.774L610.207 293.323C609.873 292.39 609.42 291.182 608.987 290.153C608.733 289.549 608.489 289.014 608.282 288.633C608.178 288.441 608.089 288.298 608.018 288.207C607.992 288.175 607.973 288.154 607.96 288.141C607.943 288.138 607.928 288.134 607.918 288.131C607.904 288.127 607.89 288.122 607.877 288.118C607.866 288.114 607.855 288.109 607.845 288.105C607.806 288.089 607.762 288.069 607.715 288.045C607.706 288.041 607.698 288.037 607.69 288.032C607.576 287.974 607.426 287.889 607.247 287.784C606.888 287.573 606.398 287.268 605.809 286.893C604.63 286.143 603.047 285.105 601.31 283.953C597.837 281.648 593.745 278.883 591.036 277.04L591.032 277.037L585.686 273.165V269.136L588.212 265.758L585.86 263.137L578.555 263.983L576.463 265.819L578.813 271.122L574.144 273.307H567.544L564.727 269.226L567.116 266.032H561.805L555.829 262.037ZM644.949 275.626L650.615 279.215L652.754 283.505L649.566 282.085L646.619 284.503V287.771L649.765 292.646L649.768 292.651L649.771 292.656L657.307 305.447L662.245 312.147L668.535 324.462L661.953 325.405L651.954 320.686L647.78 315.902V305.718L638.847 295.603L632.154 285.973L628.503 279.259L636.109 276.513L644.949 275.626ZM636.238 277.085L629.337 279.577L632.649 285.667L639.304 295.243L648.36 305.498V315.684L652.311 320.212L662.043 324.805L667.648 324.002L661.75 312.455L656.832 305.781L656.823 305.769L656.815 305.756L649.277 292.962L649.271 292.952L646.039 287.943V284.227L649.476 281.407L651.511 282.315L650.168 279.621L644.808 276.225L636.238 277.085ZM681.342 287.448L686.729 290.944L684.792 295.801L680.159 293.943L678.129 292.925L681.342 287.448ZM681.535 288.266L678.945 292.683L680.397 293.411L684.469 295.045L686.013 291.172L681.535 288.266Z" fill="white"/>
<g filter="url(#filter1_d)">
<path d="M505.566 240.262C505.322 241.625 502.599 242.277 499.485 241.718C496.371 241.159 494.045 239.6 494.29 238.236C494.534 236.873 497.257 236.221 500.371 236.78C503.485 237.339 505.811 238.898 505.566 240.262Z" fill="#F44D4D"/>
</g>
<g filter="url(#filter2_d)">
<path d="M572.319 255.707C571.992 257.053 569.235 257.54 566.16 256.795C563.086 256.05 560.858 254.354 561.184 253.008C561.51 251.661 564.268 251.174 567.342 251.919C570.417 252.665 572.645 254.36 572.319 255.707Z" fill="#F44D4D"/>
</g>
<g filter="url(#filter3_d)">
<path d="M572.272 236.129C571.902 237.464 569.131 237.862 566.082 237.018C563.033 236.174 560.86 234.407 561.23 233.072C561.6 231.737 564.371 231.339 567.42 232.183C570.469 233.027 572.642 234.794 572.272 236.129Z" fill="#F44D4D"/>
</g>
<g filter="url(#filter4_d)">
<path d="M540.457 225.405C540.143 226.754 537.39 227.267 534.309 226.55C531.227 225.833 528.984 224.158 529.298 222.808C529.612 221.459 532.364 220.947 535.446 221.664C538.527 222.381 540.771 224.056 540.457 225.405Z" fill="#F44D4D"/>
</g>
<g filter="url(#filter5_d)">
<path d="M453.255 233.283C453 234.645 450.272 235.277 447.163 234.696C444.053 234.114 441.738 232.539 441.993 231.177C442.247 229.815 444.975 229.183 448.085 229.764C451.195 230.346 453.509 231.921 453.255 233.283Z" fill="#F44D4D"/>
</g>
<g filter="url(#filter6_d)">
<path d="M394.932 219.253C394.669 220.613 391.937 221.228 388.831 220.627C385.725 220.025 383.421 218.435 383.684 217.075C383.947 215.715 386.679 215.1 389.785 215.702C392.891 216.303 395.196 217.893 394.932 219.253Z" fill="#F44D4D"/>
</g>
<g filter="url(#filter7_d)">
<path d="M411.281 258.8C411.15 260.179 408.49 261.054 405.34 260.754C402.191 260.455 399.744 259.094 399.875 257.715C400.006 256.336 402.666 255.461 405.815 255.76C408.965 256.06 411.412 257.42 411.281 258.8Z" fill="#F44D4D"/>
</g>
<g filter="url(#filter8_d)">
<path d="M519.858 273.895C519.589 275.254 516.855 275.859 513.752 275.245C510.648 274.631 508.35 273.032 508.618 271.673C508.887 270.314 511.621 269.71 514.725 270.323C517.828 270.937 520.127 272.536 519.858 273.895Z" fill="#F44D4D"/>
</g>
<g filter="url(#filter9_d)">
<path d="M640.774 256.903C640.293 258.202 637.497 258.364 634.531 257.265C631.564 256.165 629.549 254.221 630.031 252.922C630.512 251.623 633.307 251.461 636.274 252.56C639.241 253.66 641.255 255.604 640.774 256.903Z" fill="#F44D4D"/>
</g>
<g filter="url(#filter10_d)">
<path d="M685.69 272.298C684.999 273.498 682.216 273.192 679.474 271.613C676.732 270.034 675.07 267.781 675.761 266.581C676.452 265.38 679.235 265.687 681.977 267.265C684.719 268.844 686.381 271.097 685.69 272.298Z" fill="#F44D4D"/>
</g>
<g filter="url(#filter11_d)">
<path d="M607.152 233.019C606.754 234.346 603.975 234.686 600.944 233.777C597.914 232.869 595.779 231.057 596.177 229.73C596.575 228.403 599.354 228.063 602.385 228.972C605.415 229.88 607.55 231.692 607.152 233.019Z" fill="#F44D4D"/>
</g>
<g filter="url(#filter12_d)">
<path d="M619.275 272.01C618.793 273.309 615.998 273.471 613.032 272.371C610.065 271.272 608.05 269.328 608.531 268.029C609.013 266.73 611.808 266.568 614.775 267.667C617.741 268.767 619.756 270.711 619.275 272.01Z" fill="#F44D4D"/>
</g>
<g filter="url(#filter13_d)">
<path d="M545.017 260.12C544.805 261.49 542.099 262.208 538.972 261.725C535.846 261.243 533.482 259.741 533.694 258.372C533.905 257.003 536.611 256.285 539.738 256.767C542.865 257.25 545.228 258.751 545.017 260.12Z" fill="#F44D4D"/>
</g>
<g filter="url(#filter14_d)">
<path d="M60.6009 269.544C61.2794 270.752 59.5932 272.987 56.8348 274.537C54.0764 276.086 51.2903 276.363 50.6118 275.155C49.9333 273.947 51.6194 271.712 54.3778 270.163C57.1362 268.613 59.9224 268.336 60.6009 269.544Z" fill="#F44D4D"/>
</g>
<g filter="url(#filter15_d)">
<path d="M103.927 248.888C104.354 250.206 102.26 252.065 99.2499 253.04C96.2401 254.014 93.454 253.736 93.0271 252.419C92.6002 251.101 94.6941 249.242 97.704 248.267C100.714 247.292 103.5 247.57 103.927 248.888Z" fill="#F44D4D"/>
</g>
<g filter="url(#filter16_d)">
<path d="M5.23737 279.747C5.93032 280.946 4.2712 283.202 1.53161 284.784C-1.20797 286.367 -3.99058 286.677 -4.68353 285.478C-5.37649 284.278 -3.71736 282.023 -0.977781 280.44C1.7618 278.858 4.54442 278.547 5.23737 279.747Z" fill="#F44D4D"/>
</g>
<g filter="url(#filter17_d)">
<path d="M56.9446 285.862C57.6376 287.062 55.9785 289.317 53.2389 290.9C50.4993 292.482 47.7167 292.793 47.0237 291.593C46.3308 290.393 47.9899 288.138 50.7295 286.555C53.4691 284.973 56.2517 284.662 56.9446 285.862Z" fill="#F44D4D"/>
</g>
<g filter="url(#filter18_d)">
<path d="M586.402 204.545C585.901 205.836 583.104 205.957 580.154 204.814C577.204 203.671 575.218 201.698 575.718 200.406C576.219 199.114 579.016 198.993 581.966 200.136C584.916 201.279 586.902 203.253 586.402 204.545Z" fill="#F44D4D"/>
</g>
<g filter="url(#filter19_d)">
<path d="M653.928 233.829C653.513 235.15 650.729 235.452 647.711 234.502C644.693 233.553 642.583 231.712 642.999 230.39C643.415 229.069 646.199 228.767 649.217 229.717C652.234 230.666 654.344 232.507 653.928 233.829Z" fill="#F44D4D"/>
</g>
<g filter="url(#filter20_d)">
<path d="M640.701 208.568C640.189 209.855 637.391 209.952 634.451 208.783C631.511 207.615 629.542 205.624 630.053 204.337C630.565 203.05 633.363 202.953 636.303 204.121C639.243 205.289 641.212 207.28 640.701 208.568Z" fill="#F44D4D"/>
</g>
<defs>
<filter id="filter0_f" x="-117.99" y="0.716309" width="905.097" height="490.721" filterUnits="userSpaceOnUse" color-interpolation-filters="sRGB">
<feFlood flood-opacity="0" result="BackgroundImageFix"/>
<feBlend mode="normal" in="SourceGraphic" in2="BackgroundImageFix" result="shape"/>
<feGaussianBlur stdDeviation="97" result="effect1_foregroundBlur"/>
</filter>
<filter id="filter1_d" x="482.272" y="236.58" width="33.3122" height="28.3383" filterUnits="userSpaceOnUse" color-interpolation-filters="sRGB">
<feFlood flood-opacity="0" result="BackgroundImageFix"/>
<feColorMatrix in="SourceAlpha" type="matrix" values="0 0 0 0 0 0 0 0 0 0 0 0 0 0 0 0 0 0 127 0"/>
<feOffset dx="-1" dy="12"/>
<feGaussianBlur stdDeviation="5.5"/>
<feColorMatrix type="matrix" values="0 0 0 0 0.541667 0 0 0 0 0.0970486 0 0 0 0 0.0970486 0 0 0 0.3 0"/>
<feBlend mode="normal" in2="BackgroundImageFix" result="effect1_dropShadow"/>
<feBlend mode="normal" in="SourceGraphic" in2="effect1_dropShadow" result="shape"/>
</filter>
<filter id="filter2_d" x="549.152" y="251.57" width="33.1982" height="28.5738" filterUnits="userSpaceOnUse" color-interpolation-filters="sRGB">
<feFlood flood-opacity="0" result="BackgroundImageFix"/>
<feColorMatrix in="SourceAlpha" type="matrix" values="0 0 0 0 0 0 0 0 0 0 0 0 0 0 0 0 0 0 127 0"/>
<feOffset dx="-1" dy="12"/>
<feGaussianBlur stdDeviation="5.5"/>
<feColorMatrix type="matrix" values="0 0 0 0 0.541667 0 0 0 0 0.0970486 0 0 0 0 0.0970486 0 0 0 0.3 0"/>
<feBlend mode="normal" in2="BackgroundImageFix" result="effect1_dropShadow"/>
<feBlend mode="normal" in="SourceGraphic" in2="effect1_dropShadow" result="shape"/>
</filter>
<filter id="filter3_d" x="549.189" y="231.74" width="33.1237" height="28.7211" filterUnits="userSpaceOnUse" color-interpolation-filters="sRGB">
<feFlood flood-opacity="0" result="BackgroundImageFix"/>
<feColorMatrix in="SourceAlpha" type="matrix" values="0 0 0 0 0 0 0 0 0 0 0 0 0 0 0 0 0 0 127 0"/>
<feOffset dx="-1" dy="12"/>
<feGaussianBlur stdDeviation="5.5"/>
<feColorMatrix type="matrix" values="0 0 0 0 0.541667 0 0 0 0 0.0970486 0 0 0 0 0.0970486 0 0 0 0.3 0"/>
<feBlend mode="normal" in2="BackgroundImageFix" result="effect1_dropShadow"/>
<feBlend mode="normal" in="SourceGraphic" in2="effect1_dropShadow" result="shape"/>
</filter>
<filter id="filter4_d" x="517.268" y="221.34" width="33.2177" height="28.5345" filterUnits="userSpaceOnUse" color-interpolation-filters="sRGB">
<feFlood flood-opacity="0" result="BackgroundImageFix"/>
<feColorMatrix in="SourceAlpha" type="matrix" values="0 0 0 0 0 0 0 0 0 0 0 0 0 0 0 0 0 0 127 0"/>
<feOffset dx="-1" dy="12"/>
<feGaussianBlur stdDeviation="5.5"/>
<feColorMatrix type="matrix" values="0 0 0 0 0.541667 0 0 0 0 0.0970486 0 0 0 0 0.0970486 0 0 0 0.3 0"/>
<feBlend mode="normal" in2="BackgroundImageFix" result="effect1_dropShadow"/>
<feBlend mode="normal" in="SourceGraphic" in2="effect1_dropShadow" result="shape"/>
</filter>
<filter id="filter5_d" x="429.973" y="229.548" width="33.3003" height="28.3635" filterUnits="userSpaceOnUse" color-interpolation-filters="sRGB">
<feFlood flood-opacity="0" result="BackgroundImageFix"/>
<feColorMatrix in="SourceAlpha" type="matrix" values="0 0 0 0 0 0 0 0 0 0 0 0 0 0 0 0 0 0 127 0"/>
<feOffset dx="-1" dy="12"/>
<feGaussianBlur stdDeviation="5.5"/>
<feColorMatrix type="matrix" values="0 0 0 0 0.541667 0 0 0 0 0.0970486 0 0 0 0 0.0970486 0 0 0 0.3 0"/>
<feBlend mode="normal" in2="BackgroundImageFix" result="effect1_dropShadow"/>
<feBlend mode="normal" in="SourceGraphic" in2="effect1_dropShadow" result="shape"/>
</filter>
<filter id="filter6_d" x="371.663" y="215.471" width="33.2892" height="28.3869" filterUnits="userSpaceOnUse" color-interpolation-filters="sRGB">
<feFlood flood-opacity="0" result="BackgroundImageFix"/>
<feColorMatrix in="SourceAlpha" type="matrix" values="0 0 0 0 0 0 0 0 0 0 0 0 0 0 0 0 0 0 127 0"/>
<feOffset dx="-1" dy="12"/>
<feGaussianBlur stdDeviation="5.5"/>
<feColorMatrix type="matrix" values="0 0 0 0 0.541667 0 0 0 0 0.0970486 0 0 0 0 0.0970486 0 0 0 0.3 0"/>
<feBlend mode="normal" in2="BackgroundImageFix" result="effect1_dropShadow"/>
<feBlend mode="normal" in="SourceGraphic" in2="effect1_dropShadow" result="shape"/>
</filter>
<filter id="filter7_d" x="387.87" y="255.701" width="33.4158" height="28.1117" filterUnits="userSpaceOnUse" color-interpolation-filters="sRGB">
<feFlood flood-opacity="0" result="BackgroundImageFix"/>
<feColorMatrix in="SourceAlpha" type="matrix" values="0 0 0 0 0 0 0 0 0 0 0 0 0 0 0 0 0 0 127 0"/>
<feOffset dx="-1" dy="12"/>
<feGaussianBlur stdDeviation="5.5"/>
<feColorMatrix type="matrix" values="0 0 0 0 0.541667 0 0 0 0 0.0970486 0 0 0 0 0.0970486 0 0 0 0.3 0"/>
<feBlend mode="normal" in2="BackgroundImageFix" result="effect1_dropShadow"/>
<feBlend mode="normal" in="SourceGraphic" in2="effect1_dropShadow" result="shape"/>
</filter>
<filter id="filter8_d" x="496.597" y="270.083" width="33.2823" height="28.4013" filterUnits="userSpaceOnUse" color-interpolation-filters="sRGB">
<feFlood flood-opacity="0" result="BackgroundImageFix"/>
<feColorMatrix in="SourceAlpha" type="matrix" values="0 0 0 0 0 0 0 0 0 0 0 0 0 0 0 0 0 0 127 0"/>
<feOffset dx="-1" dy="12"/>
<feGaussianBlur stdDeviation="5.5"/>
<feColorMatrix type="matrix" values="0 0 0 0 0.541667 0 0 0 0 0.0970486 0 0 0 0 0.0970486 0 0 0 0.3 0"/>
<feBlend mode="normal" in2="BackgroundImageFix" result="effect1_dropShadow"/>
<feBlend mode="normal" in="SourceGraphic" in2="effect1_dropShadow" result="shape"/>
</filter>
<filter id="filter9_d" x="617.96" y="251.831" width="32.8854" height="29.1628" filterUnits="userSpaceOnUse" color-interpolation-filters="sRGB">
<feFlood flood-opacity="0" result="BackgroundImageFix"/>
<feColorMatrix in="SourceAlpha" type="matrix" values="0 0 0 0 0 0 0 0 0 0 0 0 0 0 0 0 0 0 127 0"/>
<feOffset dx="-1" dy="12"/>
<feGaussianBlur stdDeviation="5.5"/>
<feColorMatrix type="matrix" values="0 0 0 0 0.541667 0 0 0 0 0.0970486 0 0 0 0 0.0970486 0 0 0 0.3 0"/>
<feBlend mode="normal" in2="BackgroundImageFix" result="effect1_dropShadow"/>
<feBlend mode="normal" in="SourceGraphic" in2="effect1_dropShadow" result="shape"/>
</filter>
<filter id="filter10_d" x="663.604" y="265.848" width="32.2422" height="30.1826" filterUnits="userSpaceOnUse" color-interpolation-filters="sRGB">
<feFlood flood-opacity="0" result="BackgroundImageFix"/>
<feColorMatrix in="SourceAlpha" type="matrix" values="0 0 0 0 0 0 0 0 0 0 0 0 0 0 0 0 0 0 127 0"/>
<feOffset dx="-1" dy="12"/>
<feGaussianBlur stdDeviation="5.5"/>
<feColorMatrix type="matrix" values="0 0 0 0 0.541667 0 0 0 0 0.0970486 0 0 0 0 0.0970486 0 0 0 0.3 0"/>
<feBlend mode="normal" in2="BackgroundImageFix" result="effect1_dropShadow"/>
<feBlend mode="normal" in="SourceGraphic" in2="effect1_dropShadow" result="shape"/>
</filter>
<filter id="filter11_d" x="584.13" y="228.462" width="33.0702" height="28.8242" filterUnits="userSpaceOnUse" color-interpolation-filters="sRGB">
<feFlood flood-opacity="0" result="BackgroundImageFix"/>
<feColorMatrix in="SourceAlpha" type="matrix" values="0 0 0 0 0 0 0 0 0 0 0 0 0 0 0 0 0 0 127 0"/>
<feOffset dx="-1" dy="12"/>
<feGaussianBlur stdDeviation="5.5"/>
<feColorMatrix type="matrix" values="0 0 0 0 0.541667 0 0 0 0 0.0970486 0 0 0 0 0.0970486 0 0 0 0.3 0"/>
<feBlend mode="normal" in2="BackgroundImageFix" result="effect1_dropShadow"/>
<feBlend mode="normal" in="SourceGraphic" in2="effect1_dropShadow" result="shape"/>
</filter>
<filter id="filter12_d" x="596.46" y="266.938" width="32.8854" height="29.1628" filterUnits="userSpaceOnUse" color-interpolation-filters="sRGB">
<feFlood flood-opacity="0" result="BackgroundImageFix"/>
<feColorMatrix in="SourceAlpha" type="matrix" values="0 0 0 0 0 0 0 0 0 0 0 0 0 0 0 0 0 0 127 0"/>
<feOffset dx="-1" dy="12"/>
<feGaussianBlur stdDeviation="5.5"/>
<feColorMatrix type="matrix" values="0 0 0 0 0.541667 0 0 0 0 0.0970486 0 0 0 0 0.0970486 0 0 0 0.3 0"/>
<feBlend mode="normal" in2="BackgroundImageFix" result="effect1_dropShadow"/>
<feBlend mode="normal" in="SourceGraphic" in2="effect1_dropShadow" result="shape"/>
</filter>
<filter id="filter13_d" x="521.681" y="256.617" width="33.3493" height="28.2586" filterUnits="userSpaceOnUse" color-interpolation-filters="sRGB">
<feFlood flood-opacity="0" result="BackgroundImageFix"/>
<feColorMatrix in="SourceAlpha" type="matrix" values="0 0 0 0 0 0 0 0 0 0 0 0 0 0 0 0 0 0 127 0"/>
<feOffset dx="-1" dy="12"/>
<feGaussianBlur stdDeviation="5.5"/>
<feColorMatrix type="matrix" values="0 0 0 0 0.541667 0 0 0 0 0.0970486 0 0 0 0 0.0970486 0 0 0 0.3 0"/>
<feBlend mode="normal" in2="BackgroundImageFix" result="effect1_dropShadow"/>
<feBlend mode="normal" in="SourceGraphic" in2="effect1_dropShadow" result="shape"/>
</filter>
<filter id="filter14_d" x="38.4617" y="268.792" width="32.2892" height="30.1149" filterUnits="userSpaceOnUse" color-interpolation-filters="sRGB">
<feFlood flood-opacity="0" result="BackgroundImageFix"/>
<feColorMatrix in="SourceAlpha" type="matrix" values="0 0 0 0 0 0 0 0 0 0 0 0 0 0 0 0 0 0 127 0"/>
<feOffset dx="-1" dy="12"/>
<feGaussianBlur stdDeviation="5.5"/>
<feColorMatrix type="matrix" values="0 0 0 0 0.541667 0 0 0 0 0.0970486 0 0 0 0 0.0970486 0 0 0 0.3 0"/>
<feBlend mode="normal" in2="BackgroundImageFix" result="effect1_dropShadow"/>
<feBlend mode="normal" in="SourceGraphic" in2="effect1_dropShadow" result="shape"/>
</filter>
<filter id="filter15_d" x="80.9719" y="247.685" width="33.0101" height="28.937" filterUnits="userSpaceOnUse" color-interpolation-filters="sRGB">
<feFlood flood-opacity="0" result="BackgroundImageFix"/>
<feColorMatrix in="SourceAlpha" type="matrix" values="0 0 0 0 0 0 0 0 0 0 0 0 0 0 0 0 0 0 127 0"/>
<feOffset dx="-1" dy="12"/>
<feGaussianBlur stdDeviation="5.5"/>
<feColorMatrix type="matrix" values="0 0 0 0 0.541667 0 0 0 0 0.0970486 0 0 0 0 0.0970486 0 0 0 0.3 0"/>
<feBlend mode="normal" in2="BackgroundImageFix" result="effect1_dropShadow"/>
<feBlend mode="normal" in="SourceGraphic" in2="effect1_dropShadow" result="shape"/>
</filter>
<filter id="filter16_d" x="-16.8411" y="279.016" width="32.2358" height="30.1917" filterUnits="userSpaceOnUse" color-interpolation-filters="sRGB">
<feFlood flood-opacity="0" result="BackgroundImageFix"/>
<feColorMatrix in="SourceAlpha" type="matrix" values="0 0 0 0 0 0 0 0 0 0 0 0 0 0 0 0 0 0 127 0"/>
<feOffset dx="-1" dy="12"/>
<feGaussianBlur stdDeviation="5.5"/>
<feColorMatrix type="matrix" values="0 0 0 0 0.541667 0 0 0 0 0.0970486 0 0 0 0 0.0970486 0 0 0 0.3 0"/>
<feBlend mode="normal" in2="BackgroundImageFix" result="effect1_dropShadow"/>
<feBlend mode="normal" in="SourceGraphic" in2="effect1_dropShadow" result="shape"/>
</filter>
<filter id="filter17_d" x="34.8662" y="285.132" width="32.2358" height="30.1917" filterUnits="userSpaceOnUse" color-interpolation-filters="sRGB">
<feFlood flood-opacity="0" result="BackgroundImageFix"/>
<feColorMatrix in="SourceAlpha" type="matrix" values="0 0 0 0 0 0 0 0 0 0 0 0 0 0 0 0 0 0 127 0"/>
<feOffset dx="-1" dy="12"/>
<feGaussianBlur stdDeviation="5.5"/>
<feColorMatrix type="matrix" values="0 0 0 0 0.541667 0 0 0 0 0.0970486 0 0 0 0 0.0970486 0 0 0 0.3 0"/>
<feBlend mode="normal" in2="BackgroundImageFix" result="effect1_dropShadow"/>
<feBlend mode="normal" in="SourceGraphic" in2="effect1_dropShadow" result="shape"/>
</filter>
<filter id="filter18_d" x="563.641" y="199.352" width="32.8379" height="29.2461" filterUnits="userSpaceOnUse" color-interpolation-filters="sRGB">
<feFlood flood-opacity="0" result="BackgroundImageFix"/>
<feColorMatrix in="SourceAlpha" type="matrix" values="0 0 0 0 0 0 0 0 0 0 0 0 0 0 0 0 0 0 127 0"/>
<feOffset dx="-1" dy="12"/>
<feGaussianBlur stdDeviation="5.5"/>
<feColorMatrix type="matrix" values="0 0 0 0 0.541667 0 0 0 0 0.0970486 0 0 0 0 0.0970486 0 0 0 0.3 0"/>
<feBlend mode="normal" in2="BackgroundImageFix" result="effect1_dropShadow"/>
<feBlend mode="normal" in="SourceGraphic" in2="effect1_dropShadow" result="shape"/>
</filter>
<filter id="filter19_d" x="630.947" y="229.163" width="33.0336" height="28.8931" filterUnits="userSpaceOnUse" color-interpolation-filters="sRGB">
<feFlood flood-opacity="0" result="BackgroundImageFix"/>
<feColorMatrix in="SourceAlpha" type="matrix" values="0 0 0 0 0 0 0 0 0 0 0 0 0 0 0 0 0 0 127 0"/>
<feOffset dx="-1" dy="12"/>
<feGaussianBlur stdDeviation="5.5"/>
<feColorMatrix type="matrix" values="0 0 0 0 0.541667 0 0 0 0 0.0970486 0 0 0 0 0.0970486 0 0 0 0.3 0"/>
<feBlend mode="normal" in2="BackgroundImageFix" result="effect1_dropShadow"/>
<feBlend mode="normal" in="SourceGraphic" in2="effect1_dropShadow" result="shape"/>
</filter>
<filter id="filter20_d" x="617.972" y="203.304" width="32.8092" height="29.2956" filterUnits="userSpaceOnUse" color-interpolation-filters="sRGB">
<feFlood flood-opacity="0" result="BackgroundImageFix"/>
<feColorMatrix in="SourceAlpha" type="matrix" values="0 0 0 0 0 0 0 0 0 0 0 0 0 0 0 0 0 0 127 0"/>
<feOffset dx="-1" dy="12"/>
<feGaussianBlur stdDeviation="5.5"/>
<feColorMatrix type="matrix" values="0 0 0 0 0.541667 0 0 0 0 0.0970486 0 0 0 0 0.0970486 0 0 0 0.3 0"/>
<feBlend mode="normal" in2="BackgroundImageFix" result="effect1_dropShadow"/>
<feBlend mode="normal" in="SourceGraphic" in2="effect1_dropShadow" result="shape"/>
</filter>
</defs>
</svg>
